<?xml version="1.0" encoding="UTF-8"?>
<!DOCTYPE svg PUBLIC "-//W3C//DTD SVG 1.1//EN" "http://www.w3.org/Graphics/SVG/1.1/DTD/svg11.dtd">
<!-- Creator: CorelDRAW X8 -->
<svg xmlns="http://www.w3.org/2000/svg" xml:space="preserve" width="65mm" height="49.5mm" version="1.1" style="shape-rendering:geometricPrecision; text-rendering:geometricPrecision; image-rendering:optimizeQuality; fill-rule:evenodd; clip-rule:evenodd"
viewBox="0 0 650 495"
 xmlns:xlink="http://www.w3.org/1999/xlink">
 <defs>
  <style type="text/css">
   <![CDATA[
    .fil0 {fill:#FFFFFF}
    .fil1 {fill:#EB1C23}
   ]]>
  </style>
 </defs>
 <g id="Layer_x0020_1">
  <metadata id="CorelCorpID_0Corel-Layer"/>
  <g id="_2308497860960">
   <path class="fil0" d="M618 284c-27,27 -111,25 -195,119 -17,19 -32,48 -40,69 0,0 -18,-56 -33,-91 3,13 24,96 24,96 -42,-17 -64,-41 -142,-44 -66,-2 -105,20 -160,25 -21,-52 -40,-127 -57,-181 -1,1 -12,4 -12,4 3,16 58,194 64,208 64,-6 152,-49 249,-24 27,7 50,21 71,26 29,-73 109,-122 179,-151 24,-10 61,-19 81,-33 -21,-72 -52,-170 -67,-215 -8,3 -14,4 -17,6 6,29 43,146 55,186z"/>
   <path class="fil0" d="M400 232c6,-49 -2,-89 -36,-107 -49,-26 -86,3 -108,12 42,-118 49,-115 136,-105 44,6 49,11 58,-28 -79,-1 -149,-21 -178,42 -13,26 -22,54 -33,81 -19,49 -35,51 -38,64 -2,8 -1,15 9,16 37,3 17,-51 91,-64 64,-12 79,30 72,85 -9,70 -107,163 -187,152 -36,-5 -35,-24 -44,-39 -8,-12 -16,-6 -18,3 -8,37 52,84 151,43 52,-22 111,-95 125,-155z"/>
   <path class="fil1" d="M431 162c3,-15 3,-27 22,-27 4,0 8,2 5,18 -1,11 -20,75 -18,78 8,2 68,-4 84,-3 10,1 13,2 14,5 4,7 -2,19 -11,21 -17,4 -86,-5 -92,-1 -5,3 -16,74 -22,100 -2,9 -8,11 -15,10 -6,0 19,-107 16,-110 -4,-4 -81,6 -89,0 -4,-3 -5,-10 -1,-13 17,-8 74,-4 94,-8 4,-4 7,-41 13,-70z"/>
  </g>
 </g>
</svg>
