<?xml version="1.0" standalone="no"?>
<!DOCTYPE svg PUBLIC "-//W3C//DTD SVG 1.1//EN" "http://www.w3.org/Graphics/SVG/1.1/DTD/svg11.dtd" >
<svg>
<metadata>
Created by FontForge 20090622 at Mon Feb 10 08:45:31 2020
 By deploy user
Copyright (c) 2008-2012 by Jos Buivenga/exljbris. All rights reserved.
</metadata>
<defs>
<font id="MuseoCyrillic-500" horiz-adv-x="577" >
  <font-face 
    font-family="Museo Cyrillic"
    font-weight="500"
    font-stretch="normal"
    units-per-em="1000"
    panose-1="2 0 0 0 0 0 0 0 0 0"
    ascent="772"
    descent="-228"
    x-height="506"
    cap-height="706"
    bbox="-108 -237 1088 892"
    underline-thickness="50"
    underline-position="-50"
    unicode-range="U+0020-U+FB04"
  />
<missing-glyph horiz-adv-x="510" 
d="M505 0h-500v700h500v-700zM85 650l170 -255l170 255h-340zM455 605l-170 -255l170 -255v510zM55 605v-510l170 255zM255 305l-170 -255h340z" />
    <glyph glyph-name="f_f" unicode="ff" horiz-adv-x="631" 
d="M182 0h-97v428h-63v78h63v17q0 94 48 138q54 50 143 50l37 -3v-83q-14 2 -25 2q-25 0 -46 -6t-40.5 -32t-19.5 -69v-14h218v17q0 94 48 138q54 50 143 50l37 -3v-83q-14 2 -25 2q-25 0 -46 -6t-40.5 -32t-19.5 -69v-14h119v-78h-119v-428h-97v428h-218v-428z" />
    <glyph glyph-name="fi" unicode="fi" horiz-adv-x="585" 
d="M182 0h-97v428h-63v78h63v17q0 94 48 138q54 50 143 50l37 -3v-83q-14 2 -27 2q-17 0 -32.5 -4t-33 -14t-28 -33t-10.5 -56v-14h255q34 0 49 -15t15 -49v-337q0 -22 22 -22h41v-83h-95q-34 0 -49.5 15t-15.5 49v342q0 22 -22 22h-200v-428zM494 605h-88v101h88v-101z" />
    <glyph glyph-name="fl" unicode="fl" horiz-adv-x="580" 
d="M182 0h-97v428h-63v78h63v17q0 93 48 136q19 19 48 30q44 17 95 17h154q34 0 49.5 -15t15.5 -49v-537q0 -22 22 -22h41v-83h-96q-34 0 -49 15t-15 49v537q0 22 -22 22h-88q-106 0 -106 -102v-15h120v-78h-120v-428z" />
    <glyph glyph-name="f_f_i" unicode="ffi" horiz-adv-x="899" 
d="M182 0h-97v428h-63v78h63v17q0 94 48 138q54 50 143 50l37 -3v-83q-14 2 -27 2q-17 0 -32.5 -4t-33 -14t-28 -33t-10.5 -56v-14h218v17q0 94 48 138q54 50 143 50l37 -3v-83q-14 2 -27 2q-17 0 -32.5 -4t-33 -14t-28 -33t-10.5 -56v-14h255q34 0 49 -15t15 -49v-337
q0 -22 22 -22h41v-83h-96q-34 0 -49 15t-15 49v342q0 22 -22 22h-200v-428h-97v428h-218v-428zM808 605h-87v101h87v-101z" />
    <glyph glyph-name="f_f_l" unicode="ffl" horiz-adv-x="894" 
d="M182 0h-97v428h-63v78h63v19q0 47 14 82.5t33.5 54.5t47 30.5t49 15t45.5 3.5l39 -3v-83q-16 2 -27 2q-17 0 -32.5 -4t-33 -14t-28 -33t-10.5 -55v-15h218v17q0 93 48 136q55 49 142 47h155q34 0 49 -15t15 -49v-537q0 -22 22 -22h41v-83h-95q-34 0 -49 15t-15 49v537
q0 22 -22 22h-88q-106 0 -106 -102v-15h119v-78h-119v-428h-97v428h-218v-428z" />
    <glyph glyph-name="f_j" unicode="fj" horiz-adv-x="586" 
d="M182 0h-97v428h-63v78h63v17q0 94 48 138q54 50 143 50l37 -3v-83q-14 2 -27 2q-17 0 -32.5 -4t-33 -14t-28 -33t-10.5 -56v-14h276q34 0 49 -15t15 -49v-459q0 -94 -50 -139q-56 -52 -144 -50l-34 2v83q6 -1 22 -1q18 0 34 4t34.5 14t29.5 34t11 59v417q0 22 -22 22
h-221v-428zM515 605h-87v101h87v-101z" />
    <glyph glyph-name=".notdef" horiz-adv-x="510" 
d="M505 0h-500v700h500v-700zM85 650l170 -255l170 255h-340zM455 605l-170 -255l170 -255v510zM55 605v-510l170 255zM255 305l-170 -255h340z" />
    <glyph glyph-name=".null" horiz-adv-x="0" 
 />
    <glyph glyph-name="nonmarkingreturn" horiz-adv-x="333" 
 />
    <glyph glyph-name="space" unicode=" " horiz-adv-x="269" 
 />
    <glyph glyph-name="exclam" unicode="!" horiz-adv-x="268" 
d="M178 194h-87l-7 512h100zM184 0h-99v97h99v-97z" />
    <glyph glyph-name="quotedbl" unicode="&#x22;" horiz-adv-x="345" 
d="M281 530h-77v188h77v-188zM140 530h-76v188h76v-188z" />
    <glyph glyph-name="numbersign" unicode="#" horiz-adv-x="707" 
d="M215 0h-81l34 191h-131l12 74h131l30 168h-130l12 73h130l35 200h81l-35 -200h155l35 200h82l-35 -200h130l-12 -73h-131l-30 -168h130l-12 -74h-130l-33 -191h-82l34 191h-155zM291 433l-30 -168h155l30 168h-155z" />
    <glyph glyph-name="dollar" unicode="$" 
d="M60 112l-7 13l71 59q8 -13 28 -37q55 -65 143 -68q54 0 87.5 29.5t33.5 75.5q0 71 -121 123q-39 17 -61 27.5t-57 32t-54 43t-34 54.5t-14 71q0 69 51 119q52 51 133 61v94h73v-93q40 -4 75 -18q38 -13 64 -42.5t26 -67.5v-58h-92v33q0 27 -30.5 45.5t-73.5 18.5
q-56 0 -90 -25.5t-34 -65.5q0 -34 25.5 -60.5t63 -42.5t82 -38t82 -45t63 -65t25.5 -98q0 -75 -51 -130t-135 -66v-93h-73v92q-52 6 -97 31.5t-66 47t-36 43.5z" />
    <glyph glyph-name="percent" unicode="%" horiz-adv-x="748" 
d="M193 422q-65 0 -108 43q-44 44 -44 105q0 60 44 104q46 44 108 44q61 0 107 -44q45 -44 45 -104q0 -62 -45 -105q-44 -43 -107 -43zM151 0h-94l540 706h94zM119 570q0 -32 21.5 -53t52.5 -21t52.5 21.5t21.5 52.5t-21.5 53t-52.5 22t-52.5 -22t-21.5 -53zM404 136
q0 60 44 104t107 44t107 -44q45 -43 45 -104q0 -62 -45 -105q-43 -43 -107 -43t-107 43q-44 44 -44 105zM629 136q0 31 -21.5 53t-52.5 22t-52 -22t-21 -53t21 -52.5t52 -21.5t52.5 21t21.5 53z" />
    <glyph glyph-name="ampersand" unicode="&#x26;" horiz-adv-x="638" 
d="M43 202q0 58 33 109q33 50 90 67v2q-10 2 -32 19q-60 49 -60 137q0 83 58 132q59 50 154 50q35 0 78 -8l12 -3l-25 -79q-28 7 -54 7q-54 0 -88.5 -31t-34.5 -78q0 -44 28.5 -77.5t101.5 -33.5h127v91h97v-91h90v-86h-90v-94q0 -117 -63.5 -182t-175.5 -65q-109 0 -177 61
q-69 61 -69 153zM145 203q0 -53 39.5 -88.5t104.5 -35.5q68 0 105 40t37 120v90h-126q-77 0 -118.5 -33t-41.5 -93z" />
    <glyph glyph-name="quotesingle" unicode="'" horiz-adv-x="205" 
d="M141 530h-77v188h77v-188z" />
    <glyph glyph-name="parenleft" unicode="(" horiz-adv-x="271" 
d="M244 -95h-85q-118 181 -118 424q0 231 113 406h85q-110 -185 -110 -399q0 -231 115 -431z" />
    <glyph glyph-name="parenright" unicode=")" horiz-adv-x="271" 
d="M112 -95h-85q115 200 115 431q0 214 -111 399h86q113 -175 113 -406q0 -240 -118 -424z" />
    <glyph glyph-name="asterisk" unicode="*" horiz-adv-x="483" 
d="M240 447l-77 -118l-72 52l89 110v2l-137 37l27 84l133 -50l-8 142h91l-8 -142l134 50l28 -84l-138 -37v-2l89 -110l-72 -52l-77 118h-2z" />
    <glyph glyph-name="plus" unicode="+" 
d="M248 246h-224v78h224v246h82v-246h223v-78h-223v-246h-82v246z" />
    <glyph glyph-name="comma" unicode="," horiz-adv-x="249" 
d="M99 -101h-75l62 206h97z" />
    <glyph glyph-name="hyphen" unicode="-" horiz-adv-x="410" 
d="M351 242h-292v86h292v-86z" />
    <glyph glyph-name="period" unicode="." horiz-adv-x="217" 
d="M158 0h-99v103h99v-103z" />
    <glyph glyph-name="slash" unicode="/" horiz-adv-x="413" 
d="M123 -42h-86l254 786h86z" />
    <glyph glyph-name="zero" unicode="0" horiz-adv-x="599" 
d="M299 -12q-249 0 -249 366q0 364 249 364q250 0 250 -364q0 -366 -250 -366zM299 79q149 0 149 275q0 273 -149 273q-148 0 -148 -273q0 -275 148 -275z" />
    <glyph glyph-name="one" unicode="1" horiz-adv-x="465" 
d="M452 0h-408v86h155v456l1 43h-2q-7 -14 -33 -40l-67 -65l-59 62l168 164h92v-620h153v-86z" />
    <glyph glyph-name="two" unicode="2" horiz-adv-x="570" 
d="M37 81q0 53 20 95.5t51.5 71t69.5 52.5t76.5 45.5t70 44t51.5 54t20 70.5q0 49 -34 80.5t-90 31.5q-45 0 -77 -20t-32 -47v-31h-92v60q0 42 35 74q64 56 170 56q98 0 159 -57q63 -55 63 -146q0 -63 -35 -116t-92 -88l-61.5 -35.5t-65 -38.5t-51.5 -37t-41 -45.5
t-12 -49.5q0 -19 25 -19h251q22 0 22 22v45h92v-89q0 -34 -15 -49t-49 -15h-362q-39 0 -53 17.5t-14 63.5z" />
    <glyph glyph-name="three" unicode="3" horiz-adv-x="556" 
d="M44 77l-10 10l54 75q8 -9 23 -23q13 -12 61 -35q45 -22 95 -22q59 0 100 36q41 38 41 93q0 57 -45 91q-44 35 -108 35h-49l-22 53l147 185q18 25 36 41l6 5v2q-21 -3 -60 -3h-137q-22 0 -22 -22v-45h-91v89q0 34 13.5 49t46.5 15h372v-63l-185 -224q80 -9 139 -61
q61 -52 61 -146q0 -92 -68 -158t-175 -66q-76 0 -134 29t-89 60z" />
    <glyph glyph-name="four" unicode="4" horiz-adv-x="586" 
d="M351 187h-333v64l319 455h114v-433h110v-86h-110v-187h-100v187zM127 272v-2q29 3 60 3h165v243l4 72h-2q-16 -32 -35 -59l-156 -212z" />
    <glyph glyph-name="five" unicode="5" horiz-adv-x="548" 
d="M46 77l-9 10l55 73q9 -11 26 -28q61 -50 138 -50q66 0 109 40t43 101q0 64 -49 104q-47 40 -118 40q-72 0 -119 -27l-16 -9l-41 19l28 292q3 35 17 49.5t47 14.5h247q33 0 48 -15t15 -49v-89h-91v45q0 22 -22 22h-148q-19 0 -22 -22l-14 -129l-5 -37h2q39 21 91 21
q114 0 182 -67q70 -66 70 -165q0 -96 -71 -165q-71 -68 -183 -68q-76 0 -130.5 29t-79.5 60z" />
    <glyph glyph-name="six" unicode="6" horiz-adv-x="571" 
d="M308 -12q-114 0 -189 89q-75 90 -75 236q0 147 76 271q39 62 102.5 98t139.5 36q80 0 122 -22l15 -7l-32 -85q-44 23 -100 23q-91 0 -145 -71q-53 -70 -67 -171h2q20 31 64 50t92 19q99 0 160 -66q62 -67 62 -164q0 -105 -64 -170q-65 -66 -163 -66zM149 271
q0 -70 47 -132q46 -60 112 -60q58 0 93.5 40.5t35.5 104.5q0 66 -39.5 106t-105.5 40q-58 0 -101 -30q-42 -30 -42 -69z" />
    <glyph glyph-name="seven" unicode="7" horiz-adv-x="528" 
d="M180 0h-110l299 556l41 65v2q-16 -3 -51 -3h-213q-22 0 -22 -22v-45h-91v89q0 34 13.5 49t46.5 15h430v-68z" />
    <glyph glyph-name="eight" unicode="8" horiz-adv-x="579" 
d="M43 202q0 60 34 105t71 69l12 7v2q-14 8 -30 22q-57 53 -57 122q0 77 59 133t161 56q100 0 160 -54q61 -52 61 -137q0 -47 -22 -88q-21 -41 -42 -61l-22 -19v-2q106 -61 106 -162q0 -85 -70 -146q-68 -61 -175 -61q-101 0 -174 59q-72 60 -72 155zM287 416q39 -17 54 -17
q20 0 47 39q28 38 28 83q0 48 -34 77t-89 29t-88.5 -28t-33.5 -72q0 -40 26 -63t90 -48zM144 207q0 -57 42 -93q44 -35 103 -35t100 34q43 34 43 85q0 40 -27.5 65t-90.5 51q-66 26 -73 26q-23 0 -61 -42q-36 -40 -36 -91z" />
    <glyph glyph-name="nine" unicode="9" horiz-adv-x="571" 
d="M88 10l-16 7l32 86q45 -24 101 -24q89 0 145 71q55 70 67 172h-2q-21 -32 -64 -50.5t-92 -18.5q-99 0 -161 65q-62 67 -62 164q0 105 64 170q64 66 163 66q114 0 189 -90q75 -88 75 -235q0 -150 -77 -271q-38 -62 -101 -98t-140 -36q-81 0 -121 22zM279 336q58 0 100 30
q43 30 43 69q0 70 -47 131q-46 61 -111 61q-59 0 -94.5 -40.5t-35.5 -104.5q0 -65 39.5 -105.5t105.5 -40.5z" />
    <glyph glyph-name="colon" unicode=":" horiz-adv-x="217" 
d="M158 403h-99v103h99v-103zM158 0h-99v103h99v-103z" />
    <glyph glyph-name="semicolon" unicode=";" horiz-adv-x="268" 
d="M198 403h-99v103h99v-103zM121 -101h-75l51 206h97z" />
    <glyph glyph-name="less" unicode="&#x3c;" 
d="M509 44l-466 208v66l466 208v-89l-357 -151v-2l357 -151v-89z" />
    <glyph glyph-name="equal" unicode="=" 
d="M527 340h-477v78h477v-78zM527 151h-477v78h477v-78z" />
    <glyph glyph-name="greater" unicode="&#x3e;" 
d="M533 252l-466 -208v89l357 151v2l-357 151v89l466 -208v-66z" />
    <glyph glyph-name="question" unicode="?" horiz-adv-x="463" 
d="M243 194h-94v47q0 41 17.5 76t42.5 59l50 46t42.5 49.5t17.5 58.5q0 42 -33 70.5t-82 28.5q-52 0 -100 -31l-14 -11l-53 69q3 3 21 17q14 11 59 29q47 18 94 18q88 0 148 -51q61 -51 61 -132q0 -45 -18 -82t-44 -61.5t-52.5 -47t-44.5 -50.5t-18 -61v-41zM246 0h-100v97
h100v-97z" />
    <glyph glyph-name="at" unicode="@" horiz-adv-x="782" 
d="M413 611q136 0 197 -58q63 -57 63 -145v-283h72v-73h-273q-91 0 -149 55t-58 134q0 77 57 132q58 55 150 55h108q-2 46 -45.5 74.5t-116.5 28.5q-114 0 -194 -86q-79 -85 -79 -204q0 -122 79 -204q80 -83 205 -83v-79q-167 0 -274 106q-107 105 -107 260q0 156 106 262
q106 108 259 108zM363 242q0 -49 33 -83t83 -34h101v236h-99q-51 0 -84.5 -34t-33.5 -85z" />
    <glyph glyph-name="A" unicode="A" horiz-adv-x="665" 
d="M67 0h-55v86h14q26 0 33 22l221 598h105l221 -598q7 -22 33 -22h14v-86h-55q-37 0 -53.5 11.5t-29.5 46.5l-53 145h-259l-53 -145q-13 -35 -29.5 -46.5t-53.5 -11.5zM304 502l-77 -215h211l-77 215l-28 99h-2q-15 -61 -27 -99z" />
    <glyph glyph-name="B" unicode="B" horiz-adv-x="609" 
d="M98 64v556h-65v86h303q92 0 148.5 -48.5t56.5 -131.5q0 -53 -24 -93t-64 -59v-2q53 -16 84.5 -63t31.5 -108q0 -96 -65 -149q-64 -52 -162 -52h-179q-34 0 -49.5 15t-15.5 49zM198 620v-211h138q47 0 75 29.5t28 77.5t-28.5 76t-76.5 28h-136zM198 327v-219q0 -22 22 -22
h127q54 0 86.5 33t32.5 87t-33 87.5t-87 33.5h-148z" />
    <glyph glyph-name="C" unicode="C" horiz-adv-x="698" 
d="M35 359q0 152 101 256q102 103 253 103q39 0 82 -8.5t85.5 -25.5t70 -48t27.5 -71v-69h-92v40q0 41 -55 65t-116 24q-108 0 -180 -74q-72 -73 -72 -192q0 -117 73 -197q74 -80 182 -80q51 0 99.5 17.5t73 34.5t41.5 34l9 10l54 -72q-9 -12 -47 -41q-24 -19 -56 -36
q-82 -41 -175 -41q-157 0 -257 106q-101 107 -101 265z" />
    <glyph glyph-name="D" unicode="D" horiz-adv-x="714" 
d="M98 64v556h-65v86h286q163 0 260 -94q98 -93 98 -258t-98 -260q-97 -94 -260 -94h-156q-34 0 -49.5 15t-15.5 49zM198 620v-512q0 -22 22 -22h92q122 0 191.5 70.5t69.5 197.5q0 126 -70 196t-191 70h-114z" />
    <glyph glyph-name="E" unicode="E" horiz-adv-x="571" 
d="M98 64v556h-65v86h416q34 0 49 -15t15 -49v-89h-92v45q0 22 -22 22h-201v-221h248v-86h-248v-205q0 -22 22 -22h207q22 0 22 22v45h91v-89q0 -34 -15 -49t-49 -15h-313q-34 0 -49.5 15t-15.5 49z" />
    <glyph glyph-name="F" unicode="F" horiz-adv-x="511" 
d="M198 0h-100v620h-65v86h390q34 0 49 -15t15 -49v-89h-91v45q0 22 -22 22h-176v-232h242v-86h-242v-302z" />
    <glyph glyph-name="G" unicode="G" horiz-adv-x="728" 
d="M35 356q0 154 102 257q102 105 254 105q76 0 138 -22q66 -23 89 -44l25 -21l-57 -73q-16 13 -25 19q-15 11 -66 30q-48 19 -102 19q-107 0 -181 -77q-73 -76 -73 -193q0 -122 73 -198t183 -76q65 0 115 25.5t78 53.5l8 9v71q0 22 -22 22h-43v86h92q34 0 49.5 -15
t15.5 -49v-285h-88v44l1 30h-2q-13 -12 -37 -30q-23 -16 -45 -26q-62 -30 -138 -30q-145 0 -245 103q-99 103 -99 265z" />
    <glyph glyph-name="H" unicode="H" horiz-adv-x="757" 
d="M199 0h-100v598q0 22 -22 22h-43v86h101q34 0 49 -15t15 -49v-247h359v247q0 34 15.5 49t49.5 15h100v-86h-43q-22 0 -22 -22v-598h-100v310h-359v-310z" />
    <glyph glyph-name="I" unicode="I" horiz-adv-x="318" 
d="M275 0h-233v86h69v534h-69v86h233v-86h-68v-534h68v-86z" />
    <glyph glyph-name="J" unicode="J" horiz-adv-x="511" 
d="M16 203v35h100v-27q0 -65 31 -97t81 -32q48 0 79 32t31 93v391q0 22 -22 22h-173v86h230q34 0 49.5 -15t15.5 -49v-439q0 -107 -62 -161t-149 -54t-149 54q-62 56 -62 161z" />
    <glyph glyph-name="K" unicode="K" horiz-adv-x="612" 
d="M199 0h-100v598q0 22 -22 22h-43v86h101q34 0 49 -15t15 -49v-233h67q44 0 58 24l157 273h112l-171 -293q-18 -32 -34 -43l-6 -3v-2q20 -5 40 -44l106 -212q11 -23 50 -23h19v-86h-55q-43 0 -62.5 10.5t-35.5 42.5l-122 245q-14 26 -63 26h-60v-324z" />
    <glyph glyph-name="L" unicode="L" horiz-adv-x="541" 
d="M98 64v534q0 22 -22 22h-43v86h101q34 0 49 -15t15 -49v-534q0 -22 22 -22h196q22 0 22 22v45h91v-89q0 -34 -15 -49t-49 -15h-302q-34 0 -49.5 15t-15.5 49z" />
    <glyph glyph-name="M" unicode="M" horiz-adv-x="862" 
d="M112 0h-89v86h33q21 0 22 22l48 598h103l166 -373l35 -90h2q15 44 35 90l166 373h103l48 -598q1 -22 22 -22h34v-86h-89q-33 0 -47.5 14t-17.5 50l-28 373l-2 104h-2q-20 -64 -38 -104l-143 -310h-84l-142 310q-11 21 -33 87l-5 18h-2q1 -58 -2 -105l-29 -373
q-2 -34 -16.5 -49t-47.5 -15z" />
    <glyph glyph-name="N" unicode="N" horiz-adv-x="757" 
d="M135 0h-101v86h43q22 0 22 22v598h91l314 -447l59 -96h2q-7 53 -7 96v383q0 34 15.5 49t49.5 15h100v-86h-43q-22 0 -22 -22v-598h-90l-315 447l-58 96h-2q6 -57 6 -96v-383q0 -34 -15 -49t-49 -15z" />
    <glyph glyph-name="O" unicode="O" horiz-adv-x="793" 
d="M34 358q0 152 104 256q106 104 258 104t258 -104q105 -104 105 -256q0 -156 -105 -263t-258 -107t-258 107q-104 107 -104 263zM138 358q0 -116 75 -196t183 -80t183 80q76 79 76 196q0 114 -76 190q-75 77 -183 77t-183 -77t-75 -190z" />
    <glyph glyph-name="P" unicode="P" horiz-adv-x="585" 
d="M198 0h-100v620h-65v86h311q99 0 160 -61q62 -60 62 -160t-62 -162t-160 -62h-146v-261zM198 620v-273h130q63 0 99 37t36 101q0 63 -35.5 99t-98.5 36h-131z" />
    <glyph glyph-name="Q" unicode="Q" horiz-adv-x="793" 
d="M34 357q0 153 104 257t257 104t259 -104q105 -104 105 -257q0 -131 -83 -232l81 -79l-60 -64l-81 81q-93 -75 -221 -75q-153 0 -257 107t-104 262zM138 357q0 -116 74 -196q75 -79 183 -79q38 0 75.5 11t57.5 25l16 13l-78 76l60 65l77 -79q52 70 52 164q0 114 -75 190
q-75 77 -185 77q-109 0 -183 -77t-74 -190z" />
    <glyph glyph-name="R" unicode="R" horiz-adv-x="622" 
d="M198 0h-100v620h-65v86h309q93 0 152 -56t59 -151q0 -79 -41 -129q-40 -47 -87 -58v-2q18 -9 30 -32l85 -169q12 -23 51 -23h13v-86h-49q-44 0 -63 10t-36 43l-96 190q-12 24 -25.5 31t-43.5 7h-93v-281zM198 620v-253h131q57 0 89 34t32 94q0 59 -32 92t-88 33h-132z
" />
    <glyph glyph-name="S" unicode="S" horiz-adv-x="525" 
d="M38 82l-9 11l58 71q20 -20 32 -30q73 -55 146 -55q51 0 85.5 29.5t34.5 75.5q0 70 -120 122l-61 27t-57.5 32t-54 42.5t-33.5 52.5t-14 69q0 81 63 135q64 54 163 54q43 0 86 -12q43 -10 78 -42q36 -32 36 -76v-58h-92v33q0 27 -32 45.5t-77 18.5q-55 0 -89.5 -27
t-34.5 -68q0 -17 7.5 -32.5t17 -26t29.5 -22.5t34 -18.5l41 -19t41 -19.5q39 -18 82 -44q40 -23 64.5 -65.5t24.5 -95.5q0 -85 -61 -143t-163 -58q-83 0 -148 37q-55 31 -77 57z" />
    <glyph glyph-name="T" unicode="T" horiz-adv-x="632" 
d="M366 0h-100v620h-141q-22 0 -22 -22v-45h-90v93q0 34 13 47t47 13h486q34 0 47 -13t13 -47v-93h-89v45q0 22 -22 22h-142v-620z" />
    <glyph glyph-name="U" unicode="U" horiz-adv-x="720" 
d="M91 247v351q0 22 -22 22h-43v86h100q34 0 49.5 -15t15.5 -49v-391q0 -79 45.5 -124t123.5 -45t123.5 46t45.5 124v390q0 34 15 49t49 15h101v-86h-43q-22 0 -22 -22v-351q0 -116 -74 -188q-74 -71 -194 -71t-196 71q-74 72 -74 188z" />
    <glyph glyph-name="V" unicode="V" horiz-adv-x="667" 
d="M386 0h-106l-221 598q-9 22 -34 22h-14v86h57q38 0 54 -11.5t28 -46.5l155 -435l27 -97h2q14 61 27 97l155 435q13 35 29 46.5t54 11.5h57v-86h-14q-25 0 -34 -22z" />
    <glyph glyph-name="W" unicode="W" horiz-adv-x="967" 
d="M337 0h-117l-154 598q-6 22 -35 22h-15v86h58q40 0 59 -12.5t27 -45.5l110 -454l13 -75h2q11 52 17 75l143 510h89l132 -510l15 -75h2q4 33 14 75l110 454q8 33 27 45.5t59 12.5h58v-86h-15q-29 0 -35 -22l-154 -598h-117l-120 446l-20 97h-2q-10 -55 -22 -96z" />
    <glyph glyph-name="X" unicode="X" horiz-adv-x="595" 
d="M124 0h-112l222 364l-142 231q-10 15 -19 20t-28 5h-25v86h58q39 0 57.5 -10.5t37.5 -43.5l79 -134l45 -83h2q17 38 43 83l80 134q18 33 37.5 43.5t56.5 10.5h59v-86h-26q-31 0 -46 -25l-143 -231l223 -364h-113l-129 215l-44 80h-2q-24 -48 -43 -81z" />
    <glyph glyph-name="Y" unicode="Y" horiz-adv-x="606" 
d="M353 0h-100v308l-179 287q-13 25 -43 25h-20v86h46q37 0 56 -10.5t39 -43.5l107 -178l43 -79h2q13 27 43 79l106 178q20 33 39 43.5t56 10.5h47v-86h-20q-29 0 -44 -25l-178 -287v-308z" />
    <glyph glyph-name="Z" unicode="Z" horiz-adv-x="600" 
d="M506 0h-474v66l348 490q27 39 46 58l7 7v2q-20 -3 -53 -3h-227q-22 0 -22 -22v-45h-91v89q0 34 15 49t49 15h452v-65l-348 -491q-23 -33 -46 -56l-7 -8v-2q26 2 53 2h249q22 0 22 22v45h91v-89q0 -34 -15 -49t-49 -15z" />
    <glyph glyph-name="bracketleft" unicode="[" horiz-adv-x="282" 
d="M78 -31v702q0 34 15 49t49 15h102v-73h-59q-22 0 -22 -22v-639q0 -22 22 -22h59v-74h-102q-34 0 -49 15t-15 49z" />
    <glyph glyph-name="backslash" unicode="\" horiz-adv-x="413" 
d="M376 -42h-86l-254 786h86z" />
    <glyph glyph-name="bracketright" unicode="]" horiz-adv-x="282" 
d="M39 -95v74h58q22 0 22 22v639q0 22 -22 22h-58v73h101q34 0 49.5 -15t15.5 -49v-702q0 -34 -15.5 -49t-49.5 -15h-101z" />
    <glyph glyph-name="asciicircum" unicode="^" horiz-adv-x="613" 
d="M157 247h-88l200 459h63l200 -459h-88l-144 352z" />
    <glyph glyph-name="underscore" unicode="_" horiz-adv-x="565" 
d="M14 -78v78h538v-78h-538z" />
    <glyph glyph-name="grave" unicode="`" horiz-adv-x="379" 
d="M254 755h-76l-95 127h98z" />
    <glyph glyph-name="a" unicode="a" horiz-adv-x="529" 
d="M28 138q0 177 306 177h22v7q0 64 -26.5 91.5t-85.5 27.5q-27 0 -56 -9q-27 -8 -27 -30v-29h-92v51q0 27 19.5 48t50.5 30q55 16 103 16q113 0 162 -50t49 -148v-215q0 -22 22 -22h41v-83h-92q-62 0 -62 58l1 30h-2q1 0 -4.5 -10.5t-18 -25t-30.5 -29t-47 -25t-63 -10.5
q-71 0 -120 40q-50 41 -50 110zM125 147q0 -34 26 -58t69 -24q60 0 98 50t38 111v19h-26q-205 0 -205 -98z" />
    <glyph glyph-name="b" unicode="b" horiz-adv-x="583" 
d="M159 0h-92v601q0 22 -22 22h-41v83h95q34 0 49.5 -15t15.5 -49v-165l-2 -42h2q18 24 23 29q54 54 139 54q101 0 162 -73t61 -192q0 -118 -65 -192q-64 -73 -166 -73q-59 0 -98 24.5t-56 51.5l-5 9h-2q2 -22 2 -38v-35zM161 251q0 -74 37 -127q38 -53 106 -53q62 0 104 48
q42 49 42 133q0 81 -39.5 131t-103.5 50q-65 0 -105.5 -47t-40.5 -135z" />
    <glyph glyph-name="c" unicode="c" horiz-adv-x="530" 
d="M33 253q0 113 75 189q76 76 197 76q37 0 75.5 -9t72.5 -36t34 -66v-52h-88v28q0 25 -31 38q-31 14 -63 14q-75 0 -125 -51q-49 -49 -49 -130q0 -83 52 -132q52 -48 127 -48q41 0 81 17q38 17 58 35l18 18l41 -69q-9 -12 -34 -30q-72 -57 -171 -57q-119 0 -195 75
q-75 75 -75 190z" />
    <glyph glyph-name="d" unicode="d" horiz-adv-x="601" 
d="M35 253q0 120 63 192q64 73 165 73q102 0 151 -70l5 -8h2q-1 10 -1 34v127q0 22 -22 22h-41v83h95q34 0 49.5 -15t15.5 -49v-537q0 -22 22 -22h41v-83h-93q-62 0 -62 54l1 26h-2q-12 -20 -23 -32q-53 -60 -143 -60q-102 0 -163 73q-60 73 -60 192zM133 253q0 -81 40 -131
t104 -50q65 0 105 47t40 135q0 75 -37 127q-38 53 -106 53q-62 0 -104 -49t-42 -132z" />
    <glyph glyph-name="e" unicode="e" horiz-adv-x="539" 
d="M33 253q0 119 72 192t182 73q103 0 160 -68q58 -67 58 -169q0 -17 -3 -41h-369q4 -79 54 -124q50 -44 121 -44q11 0 21.5 1t20.5 3.5t18 5t17.5 7l15 7t14.5 8t12 7t11.5 7.5t9.5 6l9 7l41 -71q-18 -15 -40 -28q-24 -14 -68 -29t-88 -15q-118 0 -194 75q-75 77 -75 190z
M137 310h271q-2 62 -36 97.5t-87 35.5q-58 0 -98 -35.5t-50 -97.5z" />
    <glyph glyph-name="f" unicode="f" horiz-adv-x="316" 
d="M182 0h-97v428h-63v78h63v17q0 94 48 138q54 50 143 50l37 -3v-83q-14 2 -25 2q-13 0 -25.5 -2t-28 -8.5t-26.5 -17.5t-18.5 -31t-7.5 -47v-15h120v-78h-120v-428z" />
    <glyph glyph-name="g" unicode="g" horiz-adv-x="594" 
d="M82 -168l32 78q62 -34 138 -34q75 0 118 35.5t43 105.5v34l1 32h-2q-47 -77 -150 -77q-104 0 -165 73q-62 74 -62 186q0 111 59 182q60 71 163 71q65 0 104.5 -23t54.5 -48l4 -8h2q-1 5 -1 16q0 51 57 51h94v-83h-41q-22 0 -22 -20v-382q0 -60 -21.5 -106t-58 -72.5
t-81 -39.5t-94.5 -13q-90 0 -172 42zM281 90q62 0 98 42.5t36 131.5q0 170 -143 170q-65 0 -101.5 -44.5t-36.5 -122.5q0 -81 39.5 -129t107.5 -48z" />
    <glyph glyph-name="h" unicode="h" horiz-adv-x="605" 
d="M164 0h-97v601q0 22 -22 22h-41v83h95q65 0 65 -62v-197l-2 -42h2q20 43 69 78q50 35 118 35q174 0 174 -194v-219q0 -22 22 -22h41v-83h-96q-34 0 -49 15t-15 49v238q0 65 -20.5 96t-74.5 31q-56 0 -100.5 -35t-60.5 -90q-8 -29 -8 -67v-237z" />
    <glyph glyph-name="i" unicode="i" horiz-adv-x="265" 
d="M173 605h-87v101h87v-101zM84 64v337q0 22 -22 22h-41v83h95q34 0 49.5 -15t15.5 -49v-337q0 -22 22 -22h41v-83h-96q-34 0 -49 15t-15 49z" />
    <glyph glyph-name="j" unicode="j" horiz-adv-x="245" 
d="M173 605h-87v101h87v-101zM84 -11v412q0 22 -22 22h-41v83h96q34 0 49 -15t15 -49v-459q0 -94 -50 -139q-56 -52 -144 -50l-34 2v83q6 -1 22 -1q18 0 34 4t34.5 14t29.5 34t11 59z" />
    <glyph glyph-name="k" unicode="k" horiz-adv-x="513" 
d="M164 0h-97v601q0 22 -22 22h-41v83h95q36 0 50.5 -12.5t14.5 -45.5v-328h45q36 0 52 22l117 164h112l-138 -188q-19 -27 -34 -36l-4 -2v-2q17 -6 34 -38l75 -137q11 -20 44 -20h30v-83h-70q-35 0 -51 9t-32 38l-93 170q-11 21 -50 21h-37v-238z" />
    <glyph glyph-name="l" unicode="l" horiz-adv-x="249" 
d="M67 64v537q0 22 -22 22h-40v83h95q34 0 49 -15t15 -49v-537q0 -22 22 -22h41v-83h-95q-34 0 -49.5 15t-15.5 49z" />
    <glyph glyph-name="m" unicode="m" horiz-adv-x="934" 
d="M182 0h-97v401q0 22 -22 22h-41v83h93q64 0 64 -56v-19l-1 -29h2q20 47 67 81q50 35 106 35q126 0 153 -115h2q21 48 70 81q49 34 109 34q167 0 167 -194v-219q0 -22 22 -22h41v-83h-96q-34 0 -49 15t-15 49v239q0 64 -19.5 95.5t-69.5 31.5q-49 0 -89 -38
q-38 -37 -52 -92q-9 -32 -9 -69v-231h-97v303q0 64 -19 95.5t-68 31.5q-51 0 -90.5 -37.5t-54.5 -96.5q-7 -27 -7 -65v-231z" />
    <glyph glyph-name="n" unicode="n" horiz-adv-x="623" 
d="M182 0h-97v401q0 22 -22 22h-41v83h93q64 0 64 -56v-19l-2 -29h2q19 42 68 79t123 37q173 0 173 -194v-219q0 -22 22 -22h41v-83h-96q-34 0 -49 15t-15 49v238q0 65 -20.5 96t-74.5 31q-57 0 -100.5 -34.5t-59.5 -89.5q-9 -25 -9 -68v-237z" />
    <glyph glyph-name="o" unicode="o" horiz-adv-x="611" 
d="M305 518q115 0 194 -75t79 -189q0 -113 -80 -190q-79 -76 -193 -76t-193 76t-79 190t79 189q80 75 193 75zM305 72q73 0 123 51q51 53 51 131t-51 129q-50 51 -123 51q-72 0 -123 -51t-51 -129q0 -77 51 -130q51 -52 123 -52z" />
    <glyph glyph-name="p" unicode="p" horiz-adv-x="601" 
d="M182 -200h-97v601q0 22 -22 22h-41v83h91q62 0 62 -51l-1 -27h2q11 18 23 31q51 59 145 59q102 0 162 -73q61 -73 61 -192q0 -118 -65 -192q-64 -73 -165 -73q-57 0 -96 24t-54 48l-5 9h-2q2 -24 2 -44v-225zM179 251q0 -72 38 -127q39 -53 106 -53q63 0 104 49.5
t41 131.5q0 81 -39.5 131t-103.5 50q-65 0 -105.5 -47t-40.5 -135z" />
    <glyph glyph-name="q" unicode="q" horiz-adv-x="602" 
d="M35 253q0 120 63 192q64 73 165 73q62 0 102.5 -25.5t55.5 -51.5l5 -9h2q-1 7 -1 26q0 48 62 48h91v-83h-41q-22 0 -22 -22v-601h-97v229l2 44h-2q-21 -28 -23 -30q-55 -55 -139 -55q-102 0 -163 73q-60 73 -60 192zM133 253q0 -81 40 -131t104 -50q65 0 105 47t40 135
q0 75 -37 127q-38 53 -106 53q-62 0 -104 -49t-42 -132z" />
    <glyph glyph-name="r" unicode="r" horiz-adv-x="376" 
d="M182 0h-97v401q0 22 -22 22h-41v83h93q64 0 64 -59v-32l-2 -35h2q19 59 62 95.5t98 36.5l26 -2v-96q-13 3 -28 3q-48 0 -86.5 -31.5t-56.5 -87.5q-12 -39 -12 -91v-207z" />
    <glyph glyph-name="s" unicode="s" horiz-adv-x="449" 
d="M36 68l-8 9l49 65q6 -8 27 -26q60 -49 127 -49q38 0 62.5 17.5t24.5 47.5q0 41 -97 78q-37 14 -62 26t-55 32t-45.5 47.5t-15.5 60.5q0 67 52 104.5t136 37.5q59 0 112 -24q54 -22 54 -74v-48h-87v25q0 19 -23.5 31t-52.5 12q-45 0 -70 -15.5t-25 -44.5q0 -44 98 -80
q38 -13 62.5 -24t55 -30.5t46 -47t15.5 -62.5q0 -67 -53 -108q-52 -40 -133 -40q-49 0 -93 16t-65 31.5t-36 32.5z" />
    <glyph glyph-name="t" unicode="t" horiz-adv-x="328" 
d="M83 185v243h-66v78h68v139h95v-139h122v-78h-122v-232q0 -36 11.5 -60.5t30 -35t34 -14.5t32.5 -4l23 2v-86q-18 -2 -34 -2q-54 0 -96 18q-98 42 -98 171z" />
    <glyph glyph-name="u" unicode="u" horiz-adv-x="617" 
d="M80 182v219q0 22 -22 22h-41v83h95q34 0 49 -15t15 -47v-240q0 -63 21.5 -94.5t73.5 -31.5q75 0 120 56t45 135v237h97v-401q0 -22 22 -22h41v-83h-93q-64 0 -64 56v19l1 29h-2q-20 -44 -69 -80t-117 -36q-172 0 -172 194z" />
    <glyph glyph-name="v" unicode="v" horiz-adv-x="534" 
d="M323 0h-112l-156 403q-8 20 -31 20h-10v83h50q34 0 50 -10.5t27 -40.5l109 -291l18 -66h2q8 38 18 66l108 291q11 30 27.5 40.5t49.5 10.5h47v-83h-10q-24 0 -32 -20z" />
    <glyph glyph-name="w" unicode="w" horiz-adv-x="845" 
d="M303 0h-109l-133 403q-8 20 -32 20h-14v83h61q34 0 50 -11t26 -43l89 -301l12 -54h2q5 23 14 54l109 353h90l109 -353l13 -54h2q3 21 13 54l89 301q10 32 25.5 43t49.5 11h61v-83h-14q-23 0 -31 -20l-133 -403h-109l-105 325l-14 55h-2q-5 -26 -14 -55z" />
    <glyph glyph-name="x" unicode="x" horiz-adv-x="505" 
d="M130 0h-110l171 260l-97 144q-13 19 -42 19h-29v83h62q35 0 52 -9.5t37 -41.5l61 -98l16 -32h2q4 8 17 32l61 98q20 32 37 41.5t52 9.5h62v-83h-29q-29 0 -42 -18l-97 -145l171 -260h-110l-106 165l-16 27h-2l-15 -27z" />
    <glyph glyph-name="y" unicode="y" horiz-adv-x="543" 
d="M121 -210q-31 0 -61.5 12t-44.5 26l-13 12l40 70q1 -3 10 -11t27.5 -16.5t36.5 -8.5q58 0 89 73l23 55l-173 401q-9 20 -31 20h-13v83h57q31 0 46 -10.5t27 -40.5l114 -285l18 -61h2q7 33 17 61l106 285q10 29 26 40t47 11h58v-83h-13q-23 0 -32 -20l-199 -494
q-24 -57 -67 -88t-97 -31z" />
    <glyph glyph-name="z" unicode="z" horiz-adv-x="515" 
d="M421 0h-384v56l259 320l41 47v2q-20 -2 -48 -2h-139q-22 0 -22 -22v-34h-89v75q0 34 15.5 49t49.5 15h361v-56l-259 -321l-42 -46v-2q22 2 49 2h161q22 0 22 22v34h89v-75q0 -34 -15 -49t-49 -15z" />
    <glyph glyph-name="braceleft" unicode="{" horiz-adv-x="323" 
d="M110 77v96q0 53 -25.5 79t-50.5 28l-9 2v86q3 0 9 1t20.5 8t26 18t20.5 33t9 51v84q0 87 42 129q51 47 120 45l23 -1v-74h-14q-25 0 -52 -17q-34 -20 -34 -88v-103q0 -50 -24.5 -82t-48.5 -42l-8 -3v-2l4 -1q4 -2 11.5 -6.5t16 -10.5t17.5 -16.5t16 -23t11.5 -30.5
t4.5 -39v-115q0 -68 34 -88q27 -17 52 -17h14v-74q-12 -2 -23 -2q-43 0 -78 16q-84 38 -84 159z" />
    <glyph glyph-name="bar" unicode="|" horiz-adv-x="239" 
d="M162 -159h-85v951h85v-951z" />
    <glyph glyph-name="braceright" unicode="}" horiz-adv-x="323" 
d="M28 -96v74h14q25 0 51 17q35 20 35 88v115q0 53 24 84t48 40l9 3v2l-4 1q-4 2 -11.5 6.5t-16 11t-17.5 17t-16 23t-11.5 30.5t-4.5 38v103q0 68 -35 88q-26 17 -51 17h-14v74q6 1 23 1q43 0 77 -16q85 -38 85 -158v-84q0 -53 26 -80t50 -29l9 -2v-86q-3 0 -9 -1t-20.5 -8
t-26 -17.5t-20.5 -32t-9 -50.5v-96q0 -89 -43 -130q-49 -47 -119 -45z" />
    <glyph glyph-name="asciitilde" unicode="~" horiz-adv-x="591" 
d="M138 204h-80q0 84 36.5 126.5t103.5 42.5q66 0 107 -49t85 -49q33 0 49.5 26.5t16.5 67.5h79q0 -169 -139 -169q-67 0 -107 48q-39 49 -85 49q-33 0 -49.5 -26.5t-16.5 -66.5z" />
    <glyph glyph-name="uni00A0" unicode="&#xa0;" horiz-adv-x="269" 
 />
    <glyph glyph-name="exclamdown" unicode="&#xa1;" horiz-adv-x="243" 
d="M171 409h-100v97h100v-97zM172 -200h-101l7 512h87z" />
    <glyph glyph-name="cent" unicode="&#xa2;" 
d="M336 -38h-73v111q-94 13 -149 91q-55 79 -55 189q0 112 55 189q55 79 149 92v110h73v-110q127 -20 182 -155l-89 -34q-41 99 -126 99q-67 0 -106 -53t-39 -138q0 -87 38.5 -138.5t106.5 -51.5q85 0 126 99l89 -35q-28 -64 -74.5 -106t-107.5 -48v-111z" />
    <glyph glyph-name="sterling" unicode="&#xa3;" 
d="M473 0h-427v86h61v233h-44v70h44v136q0 83 61 138t156 55q41 0 83 -15t65 -33l19 -16l-57 -69q-47 43 -109 43q-53 0 -85.5 -30t-32.5 -77v-132h184v-70h-184v-233h216q22 0 22 22v45h92v-89q0 -34 -15 -49t-49 -15z" />
    <glyph glyph-name="currency" unicode="&#xa4;" horiz-adv-x="617" 
d="M228 0h-100v170h-71v70h71v70h-71v79h71v237h-65v80h297q98 0 160 -53t62 -144q0 -92 -62 -146q-62 -53 -160 -53h-132v-70h250v-70h-250v-170zM228 626v-237h116q62 0 98.5 33t36.5 87t-35.5 85.5t-98.5 31.5h-117z" />
    <glyph glyph-name="yen" unicode="&#xa5;" horiz-adv-x="617" 
d="M258 204h-160v63h160v41l-27 44h-136v63h94v2l-112 181q-13 22 -44 22h-17v86h44q39 0 58.5 -10.5t39.5 -43.5l106 -178l43 -78h2q13 26 43 78l107 178q18 33 38 43.5t59 10.5h44v-86h-17q-32 0 -45 -22l-111 -181v-2h91v-63h-132l-28 -44v-41h160v-63h-160v-204h-100
v204z" />
    <glyph glyph-name="section" unicode="&#xa7;" horiz-adv-x="437" 
d="M217 111h-79l-71 390q-6 23 -6 46q0 76 51.5 123.5t137.5 47.5q36 0 71.5 -12t53.5 -26l16 -13l-46 -64q-40 34 -95 34q-48 0 -77 -26.5t-29 -74.5q0 -18 5 -40zM62 -24l-16 13l44 67q41 -37 97 -37q47 0 76.5 28t29.5 77q0 20 -6 45l-66 376h79l70 -390q5 -22 5 -45
q0 -76 -51 -124t-137 -48q-36 0 -71.5 12t-53.5 26z" />
    <glyph glyph-name="dieresis" unicode="&#xa8;" horiz-adv-x="501" 
d="M380 781h-73v101h73v-101zM216 781h-74v101h74v-101z" />
    <glyph glyph-name="copyright" unicode="&#xa9;" horiz-adv-x="803" 
d="M399 718q150 0 254 -107q105 -107 105 -258q0 -153 -105 -259q-103 -106 -254 -106q-148 0 -251 106q-104 107 -104 259q0 151 104 258t251 107zM399 56q120 0 203 86t83 211t-83 211t-203 86q-119 0 -200 -86t-81 -211t81 -211t200 -86zM210 352q0 82 54 141
q56 59 143 59q59 0 101 -30t56 -59l6 -10l-61 -33l-12 17q-9 12 -33 28q-26 18 -55 18q-55 0 -89.5 -38t-34.5 -93q0 -57 33.5 -94t90.5 -37q28 0 53.5 15t36.5 32l10 16l61 -33q-11 -18 -25 -35q-51 -64 -138 -64q-88 0 -143 58q-54 58 -54 142z" />
    <glyph glyph-name="ordfeminine" unicode="&#xaa;" horiz-adv-x="440" 
d="M176 383q-46 0 -77.5 27t-31.5 72q0 107 184 107h14q-1 36 -14.5 51t-46.5 15q-43 0 -43 -17v-19h-69v40q0 17 12.5 29.5t32.5 18t36.5 7.5t31.5 2q132 0 132 -126v-126q0 -10 10 -10h28v-65h-58q-42 0 -46 37l-1 10h-2q-4 -8 -10 -15q-8 -12 -32 -25t-50 -13zM190 442
q32 0 52.5 27.5t22.5 68.5h-11q-113 0 -113 -53q0 -19 13 -31t36 -12zM378 265h-312v57h312v-57z" />
    <glyph glyph-name="guillemotleft" unicode="&#xab;" horiz-adv-x="549" 
d="M407 77l-164 205l164 206h97l-164 -206l164 -205h-97zM302 77h-97l-164 205l164 206h97l-164 -206z" />
    <glyph glyph-name="logicalnot" unicode="&#xac;" horiz-adv-x="604" 
d="M458 340h-396v78h477v-267h-81v189z" />
    <glyph glyph-name="uni00AD" unicode="&#xad;" horiz-adv-x="410" 
d="M351 242h-292v86h292v-86z" />
    <glyph glyph-name="registered" unicode="&#xae;" horiz-adv-x="803" 
d="M399 718q150 0 254 -107q105 -107 105 -258q0 -153 -105 -259q-103 -106 -254 -106q-148 0 -251 106q-104 107 -104 259q0 151 104 258t251 107zM399 56q120 0 203 86t83 211t-83 211t-203 86q-119 0 -200 -86t-81 -211t81 -211t200 -86zM348 166h-71v323h-33v54h179
q54 0 86.5 -31.5t32.5 -83.5q0 -38 -20.5 -65.5t-48.5 -34.5v-2q12 -3 21 -20l39 -75q7 -13 24 -13h11v-52h-39q-23 0 -34 5.5t-20 22.5l-51 99q-10 19 -35 19h-41v-146zM348 489v-125h60q29 0 45 17t16 47q0 29 -16 45t-44 16h-61z" />
    <glyph glyph-name="overscore" unicode="&#xaf;" horiz-adv-x="464" 
d="M362 784h-254v68h254v-68z" />
    <glyph glyph-name="degree" unicode="&#xb0;" horiz-adv-x="384" 
d="M192 422q-64 0 -108 43q-44 44 -44 105q0 60 44 104q46 44 108 44q61 0 107 -44q45 -44 45 -104q0 -62 -45 -105q-44 -43 -107 -43zM139 517q22 -21 53 -21t52 21q22 22 22 53t-22 53q-21 22 -52 22t-53 -22q-21 -22 -21 -53t21 -53z" />
    <glyph glyph-name="plusminus" unicode="&#xb1;" 
d="M248 246h-224v78h224v246h82v-246h223v-78h-223v-246h-82v246zM40 -173v78h497v-78h-497z" />
    <glyph glyph-name="twosuperior" unicode="&#xb2;" horiz-adv-x="376" 
d="M296 266h-218q-27 0 -37.5 12t-10.5 47q0 62 41 99q30 29 83 59q17 9 47 28q45 32 45 74q0 26 -18 42.5t-48 16.5q-24 0 -41 -10.5t-17 -24.5v-24h-71v44q0 41 43 63q44 23 87 23q63 0 102.5 -36t39.5 -94q0 -61 -45 -100q-20 -18 -38 -30l-47 -27q-34 -20 -43 -26
q-42 -27 -42 -63q0 -6 9 -6h148q6 0 6 7v34h71v-62q0 -46 -46 -46z" />
    <glyph glyph-name="threesuperior" unicode="&#xb3;" horiz-adv-x="376" 
d="M187 258q-41 0 -81 20q-37 19 -57 40l-18 20l52 49l14 -16q7 -8 36 -26q26 -16 54 -16q31 0 53.5 21t22.5 51t-23 48.5t-58 18.5h-35l-12 44l85 106l21 23v2q-22 -2 -33 -2h-76q-9 0 -9 -10v-26h-71v53q0 27 10 37.5t37 10.5h233v-51l-105 -127q47 -6 80 -42t33 -86
q0 -62 -45 -102q-44 -40 -108 -40z" />
    <glyph glyph-name="acute" unicode="&#xb4;" horiz-adv-x="388" 
d="M195 755h-76l73 127h98z" />
    <glyph glyph-name="mu" unicode="&#xb5;" horiz-adv-x="655" 
d="M191 -200h-86v601q0 22 -22 22h-41v83h95q34 0 49 -15t15 -47v-240q0 -63 21.5 -94.5t73.5 -31.5q75 0 120 56t45 135v237h97v-401q0 -22 22 -22h41v-83h-93q-64 0 -64 56v19l1 29h-2q-6 -15 -26 -40q-56 -76 -160 -76q-59 0 -83 24l-8 7h-2q7 -46 7 -78v-141z" />
    <glyph glyph-name="mu" unicode="&#x3bc;" horiz-adv-x="655" 
d="M191 -200h-86v601q0 22 -22 22h-41v83h95q34 0 49 -15t15 -47v-240q0 -63 21.5 -94.5t73.5 -31.5q75 0 120 56t45 135v237h97v-401q0 -22 22 -22h41v-83h-93q-64 0 -64 56v19l1 29h-2q-6 -15 -26 -40q-56 -76 -160 -76q-59 0 -83 24l-8 7h-2q7 -46 7 -78v-141z" />
    <glyph glyph-name="paragraph" unicode="&#xb6;" horiz-adv-x="592" 
d="M347 -50h-75v291q-97 0 -167 67t-70 166q0 96 69 164q71 68 168 68h271v-86h-196v-670zM484 -50h-75v613h75v-613z" />
    <glyph glyph-name="middot" unicode="&#xb7;" horiz-adv-x="217" 
d="M158 239h-99v103h99v-103z" />
    <glyph glyph-name="cedilla" unicode="&#xb8;" horiz-adv-x="416" 
d="M149 -87l-17 -1l28 111l49 -10v-8l-11 -55q32 -4 51.5 -23.5t19.5 -49.5q0 -41 -28 -62.5t-74 -21.5q-33 0 -48 5l-7 2v58q18 -7 43 -7q47 0 47 31t-53 31z" />
    <glyph glyph-name="onesuperior" unicode="&#xb9;" horiz-adv-x="376" 
d="M329 266h-261v67h93v241l1 33h-2q-4 -9 -12 -17l-40 -38l-46 49l109 105h66v-373h92v-67z" />
    <glyph glyph-name="ordmasculine" unicode="&#xba;" horiz-adv-x="466" 
d="M61 552q0 71 50 118t121 47q72 0 122 -47t50 -118q0 -73 -50 -121q-50 -47 -122 -47t-122 47q-49 48 -49 121zM232 449q42 0 70.5 29t28.5 74q0 44 -28.5 72.5t-70.5 28.5t-70 -28.5t-28 -72.5q0 -45 28 -74t70 -29zM390 265h-313v57h313v-57z" />
    <glyph glyph-name="guillemotright" unicode="&#xbb;" horiz-adv-x="549" 
d="M344 77h-97l164 205l-164 206h97l164 -206zM142 77h-97l164 205l-164 206h97l164 -206z" />
    <glyph glyph-name="onequarter" unicode="&#xbc;" horiz-adv-x="874" 
d="M341 0h-80l287 706h80zM312 266h-258v67h93v241l1 33h-2q-4 -9 -12 -17l-40 -38l-46 49l109 105h66v-373h89v-67zM696 113h-203v46l192 282h87v-261h66v-67h-66v-113h-76v113zM575 181v-2q9 1 20 1h102v137l1 36h-2q-6 -13 -15 -27l-92 -129z" />
    <glyph glyph-name="onehalf" unicode="&#xbd;" horiz-adv-x="866" 
d="M327 0h-81l287 706h80zM309 266h-258v67h93v241l1 33h-2q-4 -9 -12 -17l-40 -38l-46 49l108 105h67v-373h89v-67zM516 59q0 60 41 100q27 26 83 59q38 21 63 41q29 25 29 60q0 26 -18 43t-48 17q-24 0 -41 -10.5t-17 -24.5v-24h-71v43q0 41 43 63q44 23 87 23
q63 0 102.5 -36t39.5 -93q0 -62 -45 -101q-20 -18 -38 -30l-47 -27q-34 -20 -43 -26q-17 -11 -29.5 -28t-12.5 -34q0 -7 9 -7h148q6 0 6 7v34h71v-61q0 -47 -46 -47h-218q-27 0 -37.5 12.5t-10.5 46.5z" />
    <glyph glyph-name="threequarters" unicode="&#xbe;" horiz-adv-x="877" 
d="M343 0h-81l287 706h80zM196 258q-41 0 -81 20q-37 19 -57 40l-18 20l52 49l14 -16q7 -8 36 -26q26 -16 53 -16q32 0 54.5 20.5t22.5 51.5q0 30 -23 48.5t-58 18.5h-35l-12 44l84 106l22 23v2q-22 -2 -33 -2h-76q-10 0 -10 -10v-26h-70v53q0 27 10 37.5t37 10.5h233v-51
l-105 -127q47 -6 80 -42t33 -86q0 -62 -45 -102q-44 -40 -108 -40zM699 113h-203v46l192 282h87v-261h66v-67h-66v-113h-76v113zM578 181v-2q9 1 20 1h102v137l1 36h-2q-6 -13 -15 -27l-91 -129z" />
    <glyph glyph-name="questiondown" unicode="&#xbf;" horiz-adv-x="457" 
d="M314 409h-100v97h100v-97zM40 -28q0 86 62 143q6 6 37.5 34t41.5 40t23 36.5t13 49.5v37h94v-43q0 -78 -60 -136q-4 -4 -24 -21.5t-26.5 -24t-21 -23t-20.5 -27t-11.5 -26.5t-5.5 -31q0 -42 32.5 -71t81.5 -29q51 0 100 32l14 11l53 -69q-7 -7 -30 -22q-66 -42 -144 -42
q-88 0 -149 51q-60 49 -60 131z" />
    <glyph glyph-name="Agrave" unicode="&#xc0;" horiz-adv-x="665" 
d="M67 0h-55v86h14q26 0 33 22l221 598h105l221 -598q7 -22 33 -22h14v-86h-55q-37 0 -53.5 11.5t-29.5 46.5l-53 145h-259l-53 -145q-13 -35 -29.5 -46.5t-53.5 -11.5zM304 502l-77 -215h211l-77 215l-28 99h-2q-15 -61 -27 -99zM369 755h-76l-95 127h98z" />
    <glyph glyph-name="Aacute" unicode="&#xc1;" horiz-adv-x="665" 
d="M67 0h-55v86h14q26 0 33 22l221 598h105l221 -598q7 -22 33 -22h14v-86h-55q-37 0 -53.5 11.5t-29.5 46.5l-53 145h-259l-53 -145q-13 -35 -29.5 -46.5t-53.5 -11.5zM304 502l-77 -215h211l-77 215l-28 99h-2q-15 -61 -27 -99zM369 755h-76l73 127h98z" />
    <glyph glyph-name="Acircumflex" unicode="&#xc2;" horiz-adv-x="665" 
d="M67 0h-55v86h14q26 0 33 22l221 598h105l221 -598q7 -22 33 -22h14v-86h-55q-37 0 -53.5 11.5t-29.5 46.5l-53 145h-259l-53 -145q-13 -35 -29.5 -46.5t-53.5 -11.5zM304 502l-77 -215h211l-77 215l-28 99h-2q-15 -61 -27 -99zM279 755h-78l87 127h89l88 -127h-79l-52 80
h-2z" />
    <glyph glyph-name="Atilde" unicode="&#xc3;" horiz-adv-x="665" 
d="M67 0h-55v86h14q26 0 33 22l221 598h105l221 -598q7 -22 33 -22h14v-86h-55q-37 0 -53.5 11.5t-29.5 46.5l-53 145h-259l-53 -145q-13 -35 -29.5 -46.5t-53.5 -11.5zM304 502l-77 -215h211l-77 215l-28 99h-2q-15 -61 -27 -99zM228 756h-66q0 127 103 127q26 0 50.5 -17
t44 -34t33.5 -17q20 0 30.5 19t10.5 46h65q0 -127 -103 -127q-32 0 -72.5 34t-55.5 34q-40 0 -40 -65z" />
    <glyph glyph-name="Adieresis" unicode="&#xc4;" horiz-adv-x="665" 
d="M67 0h-55v86h14q26 0 33 22l221 598h105l221 -598q7 -22 33 -22h14v-86h-55q-37 0 -53.5 11.5t-29.5 46.5l-53 145h-259l-53 -145q-13 -35 -29.5 -46.5t-53.5 -11.5zM304 502l-77 -215h211l-77 215l-28 99h-2q-15 -61 -27 -99zM452 781h-73v101h73v-101zM288 781h-74v101
h74v-101z" />
    <glyph glyph-name="Aring" unicode="&#xc5;" horiz-adv-x="665" 
d="M67 0h-55v86h14q26 0 33 22l221 598h105l221 -598q7 -22 33 -22h14v-86h-55q-37 0 -53.5 11.5t-29.5 46.5l-53 145h-259l-53 -145q-13 -35 -29.5 -46.5t-53.5 -11.5zM304 502l-77 -215h211l-77 215l-28 99h-2q-15 -61 -27 -99zM333 743q-34 0 -57.5 20.5t-23.5 53.5
t23.5 54t57.5 21t57.5 -21t23.5 -54q0 -32 -23.5 -53t-57.5 -21zM367 817q0 22 -17 31t-34 0t-17 -31q-2 -20 16 -28.5t36 0t16 28.5z" />
    <glyph glyph-name="AE" unicode="&#xc6;" horiz-adv-x="863" 
d="M58 0h-48v86h11q25 0 34 22l237 598h448q34 0 49 -15t15 -49v-89h-91v45q0 22 -22 22h-195v-221h242v-86h-242v-205q0 -22 26 -22h196q22 0 22 22v45h92v-89q0 -34 -15 -49t-49 -15h-301q-40 0 -56 14t-16 50v249h-159l-95 -255q-13 -35 -29.5 -46.5t-53.5 -11.5z
M352 620l-83 -221h126v221h-43z" />
    <glyph glyph-name="Ccedilla" unicode="&#xc7;" horiz-adv-x="698" 
d="M345 -87l-18 -1l20 78q-139 15 -226 118q-86 104 -86 251q0 152 101 256q102 103 253 103q39 0 82.5 -8.5t86 -25.5t70 -48t27.5 -71v-69h-92v40q0 41 -55 65q-56 24 -117 24q-107 0 -179 -74q-72 -73 -72 -192q0 -116 72 -197q72 -80 180 -80q62 0 118 24t82 48l26 23
l54 -71q-8 -12 -45 -40q-17 -13 -55 -35q-81 -42 -171 -43l-7 -38q32 -4 51.5 -23.5t19.5 -49.5q0 -41 -28.5 -62.5t-73.5 -21.5q-33 0 -48 5l-7 2v58q18 -7 43 -7q47 0 47 31t-53 31z" />
    <glyph glyph-name="Egrave" unicode="&#xc8;" horiz-adv-x="571" 
d="M98 64v556h-65v86h416q34 0 49 -15t15 -49v-89h-92v45q0 22 -22 22h-201v-221h248v-86h-248v-205q0 -22 22 -22h207q22 0 22 22v45h91v-89q0 -34 -15 -49t-49 -15h-313q-34 0 -49.5 15t-15.5 49zM327 755h-76l-95 127h98z" />
    <glyph glyph-name="Eacute" unicode="&#xc9;" horiz-adv-x="571" 
d="M98 64v556h-65v86h416q34 0 49 -15t15 -49v-89h-92v45q0 22 -22 22h-201v-221h248v-86h-248v-205q0 -22 22 -22h207q22 0 22 22v45h91v-89q0 -34 -15 -49t-49 -15h-313q-34 0 -49.5 15t-15.5 49zM327 755h-76l73 127h98z" />
    <glyph glyph-name="Ecircumflex" unicode="&#xca;" horiz-adv-x="571" 
d="M98 64v556h-65v86h416q34 0 49 -15t15 -49v-89h-92v45q0 22 -22 22h-201v-221h248v-86h-248v-205q0 -22 22 -22h207q22 0 22 22v45h91v-89q0 -34 -15 -49t-49 -15h-313q-34 0 -49.5 15t-15.5 49zM237 755h-78l87 127h89l88 -127h-79l-52 80h-2z" />
    <glyph glyph-name="Edieresis" unicode="&#xcb;" horiz-adv-x="571" 
d="M98 64v556h-65v86h416q34 0 49 -15t15 -49v-89h-92v45q0 22 -22 22h-201v-221h248v-86h-248v-205q0 -22 22 -22h207q22 0 22 22v45h91v-89q0 -34 -15 -49t-49 -15h-313q-34 0 -49.5 15t-15.5 49zM410 781h-73v101h73v-101zM246 781h-74v101h74v-101z" />
    <glyph glyph-name="Igrave" unicode="&#xcc;" horiz-adv-x="318" 
d="M275 0h-233v86h69v534h-69v86h233v-86h-68v-534h68v-86zM196 755h-76l-95 127h98z" />
    <glyph glyph-name="Iacute" unicode="&#xcd;" horiz-adv-x="318" 
d="M275 0h-233v86h69v534h-69v86h233v-86h-68v-534h68v-86zM195 755h-76l73 127h98z" />
    <glyph glyph-name="Icircumflex" unicode="&#xce;" horiz-adv-x="318" 
d="M105 755h-78l87 127h89l88 -127h-79l-52 80h-2zM275 0h-233v86h69v534h-69v86h233v-86h-68v-534h68v-86z" />
    <glyph glyph-name="Idieresis" unicode="&#xcf;" horiz-adv-x="318" 
d="M275 0h-233v86h69v534h-69v86h233v-86h-68v-534h68v-86zM278 781h-73v101h73v-101zM114 781h-74v101h74v-101z" />
    <glyph glyph-name="Eth" unicode="&#xd0;" horiz-adv-x="716" 
d="M100 64v248h-48v82h48v226h-65v86h286q163 0 260 -94q98 -93 98 -258t-98 -260q-97 -94 -260 -94h-156q-34 0 -49.5 15t-15.5 49zM200 312v-204q0 -22 22 -22h92q122 0 191.5 70.5t69.5 197.5q0 126 -70 196t-191 70h-114v-226h144v-82h-144z" />
    <glyph glyph-name="Ntilde" unicode="&#xd1;" horiz-adv-x="757" 
d="M135 0h-101v86h43q22 0 22 22v598h91l314 -447l59 -96h2q-7 53 -7 96v383q0 34 15.5 49t49.5 15h100v-86h-43q-22 0 -22 -22v-598h-90l-315 447l-58 96h-2q6 -57 6 -96v-383q0 -34 -15 -49t-49 -15zM284 756h-66q0 127 103 127q26 0 50.5 -17t44 -34t33.5 -17
q20 0 30.5 19t10.5 46h65q0 -127 -103 -127q-32 0 -72.5 34t-55.5 34q-40 0 -40 -65z" />
    <glyph glyph-name="Ograve" unicode="&#xd2;" horiz-adv-x="793" 
d="M34 358q0 152 104 256q106 104 258 104t258 -104q105 -104 105 -256q0 -156 -105 -263t-258 -107t-258 107q-104 107 -104 263zM138 358q0 -116 75 -196t183 -80t183 80q76 79 76 196q0 114 -76 190q-75 77 -183 77t-183 -77t-75 -190zM430 755h-76l-95 127h98z" />
    <glyph glyph-name="Oacute" unicode="&#xd3;" horiz-adv-x="793" 
d="M34 358q0 152 104 256q106 104 258 104t258 -104q105 -104 105 -256q0 -156 -105 -263t-258 -107t-258 107q-104 107 -104 263zM138 358q0 -116 75 -196t183 -80t183 80q76 79 76 196q0 114 -76 190q-75 77 -183 77t-183 -77t-75 -190zM430 755h-76l73 127h98z" />
    <glyph glyph-name="Ocircumflex" unicode="&#xd4;" horiz-adv-x="793" 
d="M340 755h-78l87 127h89l88 -127h-79l-52 80h-2zM34 358q0 152 104 256q106 104 258 104t258 -104q105 -104 105 -256q0 -156 -105 -263t-258 -107t-258 107q-104 107 -104 263zM138 358q0 -116 75 -196t183 -80t183 80q76 79 76 196q0 114 -76 190q-75 77 -183 77
t-183 -77t-75 -190z" />
    <glyph glyph-name="Otilde" unicode="&#xd5;" horiz-adv-x="793" 
d="M289 756h-66q0 127 103 127q26 0 50.5 -17t44 -34t33.5 -17q20 0 30.5 19t10.5 46h65q0 -127 -103 -127q-32 0 -72.5 34t-55.5 34q-40 0 -40 -65zM34 358q0 152 104 256q106 104 258 104t258 -104q105 -104 105 -256q0 -156 -105 -263t-258 -107t-258 107
q-104 107 -104 263zM138 358q0 -116 75 -196t183 -80t183 80q76 79 76 196q0 114 -76 190q-75 77 -183 77t-183 -77t-75 -190z" />
    <glyph glyph-name="Odieresis" unicode="&#xd6;" horiz-adv-x="793" 
d="M34 358q0 152 104 256q106 104 258 104t258 -104q105 -104 105 -256q0 -156 -105 -263t-258 -107t-258 107q-104 107 -104 263zM138 358q0 -116 75 -196t183 -80t183 80q76 79 76 196q0 114 -76 190q-75 77 -183 77t-183 -77t-75 -190zM513 781h-73v101h73v-101zM349 781
h-74v101h74v-101z" />
    <glyph glyph-name="multiply" unicode="&#xd7;" 
d="M83 0l-54 55l206 230l-206 230l54 55l205 -228l205 228l55 -55l-208 -230l208 -230l-55 -55l-205 227z" />
    <glyph glyph-name="Oslash" unicode="&#xd8;" horiz-adv-x="793" 
d="M161 -25l-50 34l48 66q-60 52 -92.5 125.5t-32.5 157.5q0 152 104 256q106 104 258 104q102 0 188 -51l47 65l49 -34l-47 -65q60 -52 93 -123t33 -152q0 -156 -105 -263t-258 -107q-103 0 -188 53zM218 157l309 431q-61 37 -131 37q-108 0 -183 -77t-75 -190
q0 -121 80 -201zM573 550l-309 -431q59 -37 132 -37q108 0 183 80q76 79 76 196q0 116 -82 192z" />
    <glyph glyph-name="Ugrave" unicode="&#xd9;" horiz-adv-x="720" 
d="M91 247v351q0 22 -22 22h-43v86h100q34 0 49.5 -15t15.5 -49v-391q0 -79 45.5 -124t123.5 -45t123.5 46t45.5 124v390q0 34 15 49t49 15h101v-86h-43q-22 0 -22 -22v-351q0 -116 -74 -188q-74 -71 -194 -71t-196 71q-74 72 -74 188zM391 755h-76l-95 127h98z" />
    <glyph glyph-name="Uacute" unicode="&#xda;" horiz-adv-x="720" 
d="M91 247v351q0 22 -22 22h-43v86h100q34 0 49.5 -15t15.5 -49v-391q0 -79 45.5 -124t123.5 -45t123.5 46t45.5 124v390q0 34 15 49t49 15h101v-86h-43q-22 0 -22 -22v-351q0 -116 -74 -188q-74 -71 -194 -71t-196 71q-74 72 -74 188zM397 755h-76l73 127h98z" />
    <glyph glyph-name="Ucircumflex" unicode="&#xdb;" horiz-adv-x="720" 
d="M91 247v351q0 22 -22 22h-43v86h100q34 0 49.5 -15t15.5 -49v-391q0 -79 45.5 -124t123.5 -45t123.5 46t45.5 124v390q0 34 15 49t49 15h101v-86h-43q-22 0 -22 -22v-351q0 -116 -74 -188q-74 -71 -194 -71t-196 71q-74 72 -74 188zM307 755h-78l87 127h89l88 -127h-79
l-52 80h-2z" />
    <glyph glyph-name="Udieresis" unicode="&#xdc;" horiz-adv-x="720" 
d="M91 247v351q0 22 -22 22h-43v86h100q34 0 49.5 -15t15.5 -49v-391q0 -79 45.5 -124t123.5 -45t123.5 46t45.5 124v390q0 34 15 49t49 15h101v-86h-43q-22 0 -22 -22v-351q0 -116 -74 -188q-74 -71 -194 -71t-196 71q-74 72 -74 188zM480 781h-73v101h73v-101zM316 781
h-74v101h74v-101z" />
    <glyph glyph-name="Yacute" unicode="&#xdd;" horiz-adv-x="606" 
d="M353 0h-100v308l-179 287q-13 25 -43 25h-20v86h46q37 0 56 -10.5t39 -43.5l107 -178l43 -79h2q13 27 43 79l106 178q20 33 39 43.5t56 10.5h47v-86h-20q-29 0 -44 -25l-178 -287v-308zM340 755h-76l73 127h98z" />
    <glyph glyph-name="Thorn" unicode="&#xde;" horiz-adv-x="585" 
d="M199 0h-100v598q0 22 -22 22h-43v86h101q34 0 49 -15t15 -49v-56h146q98 0 159 -61q62 -60 62 -160t-62 -162t-160 -62h-145v-141zM199 500v-273h130q62 0 98 37t36 101q0 63 -35.5 99t-97.5 36h-131z" />
    <glyph glyph-name="germandbls" unicode="&#xdf;" horiz-adv-x="590" 
d="M117 0h-92v83h37q22 0 22 22v425q0 88 64 137q64 51 152 51q81 0 136 -47q55 -46 55 -114q0 -32 -16 -59.5t-34.5 -44t-34.5 -37.5t-16 -40q0 -21 28 -46t61.5 -47t61.5 -60t28 -83q0 -72 -50 -113q-50 -39 -121 -39q-40 0 -79 12t-56 26l-16 12l27 75q50 -41 112 -41
q38 0 61.5 18.5t23.5 53.5q0 23 -18.5 45t-44.5 41l-52.5 38.5t-45 47t-18.5 57.5q0 27 15.5 52.5t34.5 42.5t34.5 40.5t15.5 47.5q0 33 -25.5 55.5t-69.5 22.5q-49 0 -82.5 -30t-33.5 -81v-459q0 -34 -15 -49t-49 -15z" />
    <glyph glyph-name="agrave" unicode="&#xe0;" horiz-adv-x="529" 
d="M28 138q0 177 306 177h22v7q0 64 -26.5 91.5t-85.5 27.5q-27 0 -56 -9q-27 -8 -27 -30v-29h-92v51q0 27 19.5 48t50.5 30q55 16 103 16q113 0 162 -50t49 -148v-215q0 -22 22 -22h41v-83h-92q-62 0 -62 58l1 30h-2q1 0 -4.5 -10.5t-18 -25t-30.5 -29t-47 -25t-63 -10.5
q-71 0 -120 40q-50 41 -50 110zM125 147q0 -34 26 -58t69 -24q60 0 98 50t38 111v19h-26q-205 0 -205 -98zM293 580h-76l-95 127h98z" />
    <glyph glyph-name="aacute" unicode="&#xe1;" horiz-adv-x="529" 
d="M28 138q0 177 306 177h22v7q0 64 -26.5 91.5t-85.5 27.5q-27 0 -56 -9q-27 -8 -27 -30v-29h-92v51q0 27 19.5 48t50.5 30q55 16 103 16q113 0 162 -50t49 -148v-215q0 -22 22 -22h41v-83h-92q-62 0 -62 58l1 30h-2q1 0 -4.5 -10.5t-18 -25t-30.5 -29t-47 -25t-63 -10.5
q-71 0 -120 40q-50 41 -50 110zM125 147q0 -34 26 -58t69 -24q60 0 98 50t38 111v19h-26q-205 0 -205 -98zM293 580h-76l73 127h98z" />
    <glyph glyph-name="acircumflex" unicode="&#xe2;" horiz-adv-x="529" 
d="M28 138q0 177 306 177h22v7q0 64 -26.5 91.5t-85.5 27.5q-27 0 -56 -9q-27 -8 -27 -30v-29h-92v51q0 27 19.5 48t50.5 30q55 16 103 16q113 0 162 -50t49 -148v-215q0 -22 22 -22h41v-83h-92q-62 0 -62 58l1 30h-2q1 0 -4.5 -10.5t-18 -25t-30.5 -29t-47 -25t-63 -10.5
q-71 0 -120 40q-50 41 -50 110zM125 147q0 -34 26 -58t69 -24q60 0 98 50t38 111v19h-26q-205 0 -205 -98zM203 580h-78l87 127h89l88 -127h-79l-52 80h-2z" />
    <glyph glyph-name="atilde" unicode="&#xe3;" horiz-adv-x="529" 
d="M28 138q0 177 306 177h22v7q0 64 -26.5 91.5t-85.5 27.5q-27 0 -56 -9q-27 -8 -27 -30v-29h-92v51q0 27 19.5 48t50.5 30q55 16 103 16q113 0 162 -50t49 -148v-215q0 -22 22 -22h41v-83h-92q-62 0 -62 58l1 30h-2q1 0 -4.5 -10.5t-18 -25t-30.5 -29t-47 -25t-63 -10.5
q-71 0 -120 40q-50 41 -50 110zM125 147q0 -34 26 -58t69 -24q60 0 98 50t38 111v19h-26q-205 0 -205 -98zM153 581h-66q0 127 103 127q26 0 50.5 -17t44 -34t33.5 -17q20 0 30.5 19t10.5 46h65q0 -127 -103 -127q-32 0 -72.5 34t-55.5 34q-40 0 -40 -65z" />
    <glyph glyph-name="adieresis" unicode="&#xe4;" horiz-adv-x="529" 
d="M28 138q0 177 306 177h22v7q0 64 -26.5 91.5t-85.5 27.5q-27 0 -56 -9q-27 -8 -27 -30v-29h-92v51q0 27 19.5 48t50.5 30q55 16 103 16q113 0 162 -50t49 -148v-215q0 -22 22 -22h41v-83h-92q-62 0 -62 58l1 30h-2q1 0 -4.5 -10.5t-18 -25t-30.5 -29t-47 -25t-63 -10.5
q-71 0 -120 40q-50 41 -50 110zM125 147q0 -34 26 -58t69 -24q60 0 98 50t38 111v19h-26q-205 0 -205 -98zM377 606h-73v101h73v-101zM213 606h-74v101h74v-101z" />
    <glyph glyph-name="aring" unicode="&#xe5;" horiz-adv-x="529" 
d="M28 138q0 177 306 177h22v7q0 64 -26.5 91.5t-85.5 27.5q-27 0 -56 -9q-27 -8 -27 -30v-29h-92v51q0 27 19.5 48t50.5 30q55 16 103 16q113 0 162 -50t49 -148v-215q0 -22 22 -22h41v-83h-92q-62 0 -62 58l1 30h-2q1 0 -4.5 -10.5t-18 -25t-30.5 -29t-47 -25t-63 -10.5
q-71 0 -120 40q-50 41 -50 110zM125 147q0 -34 26 -58t69 -24q60 0 98 50t38 111v19h-26q-205 0 -205 -98zM257 568q-34 0 -57.5 21t-23.5 53q0 33 23.5 54t57.5 21t57.5 -21t23.5 -54q0 -32 -23.5 -53t-57.5 -21zM291 642q0 22 -17 31t-34 0t-17 -31q-2 -20 16 -28.5t36 0
t16 28.5z" />
    <glyph glyph-name="ae" unicode="&#xe6;" horiz-adv-x="849" 
d="M29 141q0 172 298 172h29v11q0 63 -26 90t-86 27q-29 0 -56 -9q-27 -8 -27 -30v-29h-92v51q0 33 29 56q52 38 146 38q131 0 172 -89h2q62 89 180 89q100 0 158 -67q59 -68 59 -168l-2 -41h-364q4 -80 50 -125t119 -45q36 0 73.5 14t56.5 31l18 15l41 -70l-24 -21
q-17 -12 -67 -33q-52 -20 -104 -20q-152 0 -217 126h-2q-11 -31 -49 -71q-51 -54 -142 -54q-74 0 -123 40q-50 41 -50 112zM453 313h263q-3 59 -36.5 93t-82.5 34q-57 0 -95 -33t-49 -94zM127 147q0 -35 26 -58t70 -23q58 0 96 50q38 52 38 112v14h-47q-183 0 -183 -95z" />
    <glyph glyph-name="ccedilla" unicode="&#xe7;" horiz-adv-x="532" 
d="M33 253q0 113 76 189t196 76q37 0 75 -9t73 -36q34 -25 34 -66v-52h-87v28q0 25 -31 38q-33 14 -64 14q-75 0 -124 -51q-49 -50 -49 -130q0 -83 52 -132q52 -48 127 -48q39 0 78.5 16.5t59.5 35.5l18 18l42 -69q-19 -19 -34 -30q-72 -57 -171 -57l-8 -38
q33 -4 52.5 -23.5t19.5 -49.5q0 -41 -28.5 -62.5t-73.5 -21.5q-35 0 -48 5l-7 2v58q18 -7 42 -7q48 0 48 31t-53 31l-18 -1l21 81q-98 17 -158 87q-60 72 -60 173z" />
    <glyph glyph-name="egrave" unicode="&#xe8;" horiz-adv-x="539" 
d="M33 253q0 119 72 192t182 73q103 0 160 -68q58 -67 58 -169q0 -17 -3 -41h-369q4 -79 54 -124q50 -44 121 -44q11 0 21.5 1t20.5 3.5t18 5t17.5 7l15 7t14.5 8t12 7t11.5 7.5t9.5 6l9 7l41 -71q-18 -15 -40 -28q-24 -14 -68 -29t-88 -15q-118 0 -194 75q-75 77 -75 190z
M137 310h271q-2 62 -36 97.5t-87 35.5q-58 0 -98 -35.5t-50 -97.5zM330 559h-76l-95 127h98z" />
    <glyph glyph-name="eacute" unicode="&#xe9;" horiz-adv-x="539" 
d="M33 253q0 119 72 192t182 73q103 0 160 -68q58 -67 58 -169q0 -17 -3 -41h-369q4 -79 54 -124q50 -44 121 -44q11 0 21.5 1t20.5 3.5t18 5t17.5 7l15 7t14.5 8t12 7t11.5 7.5t9.5 6l9 7l41 -71q-18 -15 -40 -28q-24 -14 -68 -29t-88 -15q-118 0 -194 75q-75 77 -75 190z
M137 310h271q-2 62 -36 97.5t-87 35.5q-58 0 -98 -35.5t-50 -97.5zM319 580h-76l73 127h98z" />
    <glyph glyph-name="ecircumflex" unicode="&#xea;" horiz-adv-x="539" 
d="M33 253q0 119 72 192t182 73q103 0 160 -68q58 -67 58 -169q0 -17 -3 -41h-369q4 -79 54 -124q50 -44 121 -44q11 0 21.5 1t20.5 3.5t18 5t17.5 7l15 7t14.5 8t12 7t11.5 7.5t9.5 6l9 7l41 -71q-18 -15 -40 -28q-24 -14 -68 -29t-88 -15q-118 0 -194 75q-75 77 -75 190z
M137 310h271q-2 62 -36 97.5t-87 35.5q-58 0 -98 -35.5t-50 -97.5zM228 580h-78l87 127h89l88 -127h-79l-52 80h-2z" />
    <glyph glyph-name="edieresis" unicode="&#xeb;" horiz-adv-x="539" 
d="M33 253q0 119 72 192t182 73q103 0 160 -68q58 -67 58 -169q0 -17 -3 -41h-369q4 -79 54 -124q50 -44 121 -44q11 0 21.5 1t20.5 3.5t18 5t17.5 7l15 7t14.5 8t12 7t11.5 7.5t9.5 6l9 7l41 -71q-18 -15 -40 -28q-24 -14 -68 -29t-88 -15q-118 0 -194 75q-75 77 -75 190z
M137 310h271q-2 62 -36 97.5t-87 35.5q-58 0 -98 -35.5t-50 -97.5zM401 606h-73v101h73v-101zM237 606h-74v101h74v-101z" />
    <glyph glyph-name="igrave" unicode="&#xec;" horiz-adv-x="265" 
d="M84 64v337q0 22 -22 22h-41v83h95q34 0 49.5 -15t15.5 -49v-337q0 -22 22 -22h41v-83h-96q-34 0 -49 15t-15 49zM161 579h-76l-95 127h98z" />
    <glyph glyph-name="iacute" unicode="&#xed;" horiz-adv-x="265" 
d="M161 579h-76l73 127h99zM84 64v337q0 22 -22 22h-41v83h95q34 0 49.5 -15t15.5 -49v-337q0 -22 22 -22h41v-83h-96q-34 0 -49 15t-15 49z" />
    <glyph glyph-name="icircumflex" unicode="&#xee;" horiz-adv-x="265" 
d="M71 579h-78l87 127h89l88 -127h-79l-52 81h-2zM84 64v337q0 22 -22 22h-41v83h95q34 0 49.5 -15t15.5 -49v-337q0 -22 22 -22h41v-83h-96q-34 0 -49 15t-15 49z" />
    <glyph glyph-name="idieresis" unicode="&#xef;" horiz-adv-x="265" 
d="M229 605h-73v101h73v-101zM90 605h-74v101h74v-101zM84 64v337q0 22 -22 22h-41v83h95q34 0 49.5 -15t15.5 -49v-337q0 -22 22 -22h41v-83h-96q-34 0 -49 15t-15 49z" />
    <glyph glyph-name="eth" unicode="&#xf0;" horiz-adv-x="562" 
d="M34 235q0 95 63 162q65 69 174 69q34 0 65 -10t45 -22l13 -10h2q-31 81 -109 133l-180 -80l-10 62l123 55q-60 31 -129 46l27 79q114 -25 207 -80l139 61l10 -61l-93 -42q144 -120 144 -322q0 -109 -58 -194q-30 -43 -81 -68t-115 -25q-109 0 -173 73t-64 174zM133 233
q0 -67 37 -114q38 -47 104 -47q75 0 113 56q39 57 39 130q0 57 -39 93.5t-102 36.5q-73 0 -113 -46q-39 -45 -39 -109z" />
    <glyph glyph-name="ntilde" unicode="&#xf1;" horiz-adv-x="623" 
d="M218 581h-66q0 127 103 127q26 0 50.5 -17t44 -34t33.5 -17q20 0 30.5 19t10.5 46h65q0 -127 -103 -127q-32 0 -72.5 34t-55.5 34q-40 0 -40 -65zM182 0h-97v401q0 22 -22 22h-41v83h93q64 0 64 -56v-19l-2 -29h2q19 42 68 79t123 37q173 0 173 -194v-219q0 -22 22 -22
h41v-83h-96q-34 0 -49 15t-15 49v238q0 65 -20.5 96t-74.5 31q-57 0 -100.5 -34.5t-59.5 -89.5q-9 -25 -9 -68v-237z" />
    <glyph glyph-name="ograve" unicode="&#xf2;" horiz-adv-x="611" 
d="M305 518q115 0 194 -75t79 -189q0 -113 -80 -190q-79 -76 -193 -76t-193 76t-79 190t79 189q80 75 193 75zM305 72q73 0 123 51q51 53 51 131t-51 129q-50 51 -123 51q-72 0 -123 -51t-51 -129q0 -77 51 -130q51 -52 123 -52zM342 580h-76l-95 127h98z" />
    <glyph glyph-name="oacute" unicode="&#xf3;" horiz-adv-x="611" 
d="M305 518q115 0 194 -75t79 -189q0 -113 -80 -190q-79 -76 -193 -76t-193 76t-79 190t79 189q80 75 193 75zM305 72q73 0 123 51q51 53 51 131t-51 129q-50 51 -123 51q-72 0 -123 -51t-51 -129q0 -77 51 -130q51 -52 123 -52zM342 580h-76l73 127h98z" />
    <glyph glyph-name="ocircumflex" unicode="&#xf4;" horiz-adv-x="611" 
d="M251 580h-78l87 127h89l88 -127h-79l-52 80h-2zM305 518q115 0 194 -75t79 -189q0 -113 -80 -190q-79 -76 -193 -76t-193 76t-79 190t79 189q80 75 193 75zM305 72q73 0 123 51q51 53 51 131t-51 129q-50 51 -123 51q-72 0 -123 -51t-51 -129q0 -77 51 -130
q51 -52 123 -52z" />
    <glyph glyph-name="otilde" unicode="&#xf5;" horiz-adv-x="611" 
d="M201 581h-66q0 127 103 127q26 0 50.5 -17t44 -34t33.5 -17q20 0 30.5 19t10.5 46h65q0 -127 -103 -127q-32 0 -72.5 34t-55.5 34q-40 0 -40 -65zM305 518q115 0 194 -75t79 -189q0 -113 -80 -190q-79 -76 -193 -76t-193 76t-79 190t79 189q80 75 193 75zM305 72
q73 0 123 51q51 53 51 131t-51 129q-50 51 -123 51q-72 0 -123 -51t-51 -129q0 -77 51 -130q51 -52 123 -52z" />
    <glyph glyph-name="odieresis" unicode="&#xf6;" horiz-adv-x="611" 
d="M305 518q115 0 194 -75t79 -189q0 -113 -80 -190q-79 -76 -193 -76t-193 76t-79 190t79 189q80 75 193 75zM305 72q73 0 123 51q51 53 51 131t-51 129q-50 51 -123 51q-72 0 -123 -51t-51 -129q0 -77 51 -130q51 -52 123 -52zM424 606h-73v101h73v-101zM260 606h-74v101
h74v-101z" />
    <glyph glyph-name="divide" unicode="&#xf7;" 
d="M335 435h-95v91h95v-91zM540 246h-505v78h505v-78zM335 44h-95v91h95v-91z" />
    <glyph glyph-name="oslash" unicode="&#xf8;" horiz-adv-x="611" 
d="M139 -38l-48 35l38 52q-96 77 -96 205q0 114 79 189q80 75 193 75q76 0 135 -34l40 56l48 -34l-39 -54q89 -80 89 -198q0 -113 -80 -190q-79 -76 -193 -76q-70 0 -127 30zM183 124l206 288q-38 22 -84 22q-72 0 -123 -51t-51 -129q0 -77 52 -130zM433 374l-203 -284
q34 -18 75 -18q73 0 123 51q51 53 51 131q0 73 -46 120z" />
    <glyph glyph-name="ugrave" unicode="&#xf9;" horiz-adv-x="618" 
d="M80 182v219q0 22 -22 22h-41v83h95q34 0 49 -15t15 -47v-240q0 -63 21.5 -94.5t73.5 -31.5q75 0 120 56t45 135v237h97v-401q0 -22 22 -22h41v-83h-93q-64 0 -64 56v19l1 29h-2q-20 -44 -69 -80t-117 -36q-172 0 -172 194zM337 580h-76l-95 127h98z" />
    <glyph glyph-name="uacute" unicode="&#xfa;" horiz-adv-x="618" 
d="M80 182v219q0 22 -22 22h-41v83h95q34 0 49 -15t15 -47v-240q0 -63 21.5 -94.5t73.5 -31.5q75 0 120 56t45 135v237h97v-401q0 -22 22 -22h41v-83h-93q-64 0 -64 56v19l1 29h-2q-20 -44 -69 -80t-117 -36q-172 0 -172 194zM337 580h-76l73 127h98z" />
    <glyph glyph-name="ucircumflex" unicode="&#xfb;" horiz-adv-x="618" 
d="M80 182v219q0 22 -22 22h-41v83h95q34 0 49 -15t15 -47v-240q0 -63 21.5 -94.5t73.5 -31.5q75 0 120 56t45 135v237h97v-401q0 -22 22 -22h41v-83h-93q-64 0 -64 56v19l1 29h-2q-20 -44 -69 -80t-117 -36q-172 0 -172 194zM247 580h-78l87 127h89l88 -127h-79l-52 80h-2z
" />
    <glyph glyph-name="udieresis" unicode="&#xfc;" horiz-adv-x="618" 
d="M80 182v219q0 22 -22 22h-41v83h95q34 0 49 -15t15 -47v-240q0 -63 21.5 -94.5t73.5 -31.5q75 0 120 56t45 135v237h97v-401q0 -22 22 -22h41v-83h-93q-64 0 -64 56v19l1 29h-2q-20 -44 -69 -80t-117 -36q-172 0 -172 194zM420 606h-73v101h73v-101zM256 606h-74v101h74
v-101z" />
    <glyph glyph-name="yacute" unicode="&#xfd;" horiz-adv-x="543" 
d="M2 -160l40 70q0 -1 9 -9.5t27.5 -17.5t37.5 -9q58 0 89 73l23 55l-173 401q-9 20 -31 20h-13v83h57q31 0 46 -10.5t27 -40.5l114 -285l18 -61h2q7 33 17 61l106 285q10 29 26 40t47 11h58v-83h-13q-23 0 -32 -20l-199 -494q-24 -57 -67 -88t-97 -31q-31 0 -61.5 12
t-44.5 26zM307 580h-76l73 127h98z" />
    <glyph glyph-name="thorn" unicode="&#xfe;" horiz-adv-x="584" 
d="M165 -200h-97v801q0 22 -22 22h-41v83h95q34 0 49.5 -15t15.5 -49v-163l-2 -44h2q48 83 159 83q101 0 163 -74t62 -191t-62 -191t-163 -74q-62 0 -100.5 23.5t-53.5 48.5l-5 9h-2q2 -24 2 -44v-225zM162 253q0 -93 41 -137q42 -44 106 -44t103 50t39 131t-39 131t-103 50
q-68 0 -107.5 -45t-39.5 -136z" />
    <glyph glyph-name="ydieresis" unicode="&#xff;" horiz-adv-x="543" 
d="M2 -160l40 70q0 -1 9 -9.5t27.5 -17.5t37.5 -9q58 0 89 73l23 55l-173 401q-9 20 -31 20h-13v83h57q31 0 46 -10.5t27 -40.5l114 -285l18 -61h2q7 33 17 61l106 285q10 29 26 40t47 11h58v-83h-13q-23 0 -32 -20l-199 -494q-24 -57 -67 -88t-97 -31q-31 0 -61.5 12
t-44.5 26zM389 606h-73v101h73v-101zM225 606h-74v101h74v-101z" />
    <glyph glyph-name="Amacron" unicode="&#x100;" horiz-adv-x="665" 
d="M67 0h-55v86h14q26 0 33 22l221 598h105l221 -598q7 -22 33 -22h14v-86h-55q-37 0 -53.5 11.5t-29.5 46.5l-53 145h-259l-53 -145q-13 -35 -29.5 -46.5t-53.5 -11.5zM304 502l-77 -215h211l-77 215l-28 99h-2q-15 -61 -27 -99zM460 784h-254v68h254v-68z" />
    <glyph glyph-name="amacron" unicode="&#x101;" horiz-adv-x="529" 
d="M28 138q0 177 306 177h22v7q0 64 -26.5 91.5t-85.5 27.5q-27 0 -56 -9q-27 -8 -27 -30v-29h-92v51q0 27 19.5 48t50.5 30q55 16 103 16q113 0 162 -50t49 -148v-215q0 -22 22 -22h41v-83h-92q-62 0 -62 58l1 30h-2q1 0 -4.5 -10.5t-18 -25t-30.5 -29t-47 -25t-63 -10.5
q-71 0 -120 40q-50 41 -50 110zM125 147q0 -34 26 -58t69 -24q60 0 98 50t38 111v19h-26q-205 0 -205 -98zM384 609h-254v68h254v-68z" />
    <glyph glyph-name="Abreve" unicode="&#x102;" horiz-adv-x="665" 
d="M67 0h-55v86h14q26 0 33 22l221 598h105l221 -598q7 -22 33 -22h14v-86h-55q-37 0 -53.5 11.5t-29.5 46.5l-53 145h-259l-53 -145q-13 -35 -29.5 -46.5t-53.5 -11.5zM304 502l-77 -215h211l-77 215l-28 99h-2q-15 -61 -27 -99zM332 751q-53 0 -90.5 32t-37.5 85v14h67
v-13q-3 -43 37 -56q39 -13 67 11q21 17 19 46v12h66v-14q0 -53 -37 -85t-91 -32z" />
    <glyph glyph-name="abreve" unicode="&#x103;" horiz-adv-x="529" 
d="M28 138q0 177 306 177h22v7q0 64 -26.5 91.5t-85.5 27.5q-27 0 -56 -9q-27 -8 -27 -30v-29h-92v51q0 27 19.5 48t50.5 30q55 16 103 16q113 0 162 -50t49 -148v-215q0 -22 22 -22h41v-83h-92q-62 0 -62 58l1 30h-2q1 0 -4.5 -10.5t-18 -25t-30.5 -29t-47 -25t-63 -10.5
q-71 0 -120 40q-50 41 -50 110zM125 147q0 -34 26 -58t69 -24q60 0 98 50t38 111v19h-26q-205 0 -205 -98zM256 576q-53 0 -90.5 32t-37.5 85v14h67v-13q-3 -43 37 -56q39 -13 67 11q21 17 19 46v12h66v-14q0 -53 -37 -85t-91 -32z" />
    <glyph glyph-name="Aogonek" unicode="&#x104;" horiz-adv-x="665" 
d="M67 0h-55v86h14q26 0 33 22l221 598h105l221 -598q7 -22 33 -22h14v-86q-64 -54 -64 -89q0 -16 13 -27t29 -14l14 -2l-23 -75q-10 0 -40 9q-76 22 -76 86q0 63 68 113v2q-24 3 -36.5 15t-22.5 40l-53 145h-259l-53 -145q-13 -35 -29.5 -46.5t-53.5 -11.5zM304 502
l-77 -215h211l-77 215l-28 99h-2q-15 -61 -27 -99z" />
    <glyph glyph-name="aogonek" unicode="&#x105;" horiz-adv-x="529" 
d="M28 142q0 173 307 173h21v8q0 63 -26 90.5t-86 27.5q-29 0 -56 -9q-27 -8 -27 -30v-29h-92v51q0 27 19.5 48t50.5 30q55 16 105 16q112 0 160.5 -50t48.5 -148v-215q0 -22 22 -22h41v-83q-65 -50 -65 -89q0 -16 13 -27t29 -14l14 -2l-23 -75q-10 0 -40 9q-76 22 -76 86
q0 61 66 110v2h-18q-55 0 -55 55v5l2 28h-2q-22 -45 -62.5 -72.5t-97.5 -27.5q-71 0 -123 41q-50 41 -50 113zM127 147q0 -34 25.5 -57.5t69.5 -23.5q58 0 96 50q38 52 38 111v18h-25q-204 0 -204 -98z" />
    <glyph glyph-name="Cacute" unicode="&#x106;" horiz-adv-x="698" 
d="M35 359q0 152 101 256q102 103 253 103q39 0 82 -8.5t85.5 -25.5t70 -48t27.5 -71v-69h-92v40q0 41 -55 65t-116 24q-108 0 -180 -74q-72 -73 -72 -192q0 -117 73 -197q74 -80 182 -80q51 0 99.5 17.5t73 34.5t41.5 34l9 10l54 -72q-9 -12 -47 -41q-24 -19 -56 -36
q-82 -41 -175 -41q-157 0 -257 106q-101 107 -101 265zM422 755h-76l73 127h98z" />
    <glyph glyph-name="cacute" unicode="&#x107;" horiz-adv-x="530" 
d="M33 253q0 113 75 189q76 76 197 76q37 0 75.5 -9t72.5 -36t34 -66v-52h-88v28q0 25 -31 38q-31 14 -63 14q-75 0 -125 -51q-49 -49 -49 -130q0 -83 52 -132q52 -48 127 -48q41 0 81 17q38 17 58 35l18 18l41 -69q-9 -12 -34 -30q-72 -57 -171 -57q-119 0 -195 75
q-75 75 -75 190zM325 580h-76l73 127h98z" />
    <glyph glyph-name="Ccircumflex" unicode="&#x108;" horiz-adv-x="698" 
d="M35 359q0 152 101 256q102 103 253 103q39 0 82 -8.5t85.5 -25.5t70 -48t27.5 -71v-69h-92v40q0 41 -55 65t-116 24q-108 0 -180 -74q-72 -73 -72 -192q0 -117 73 -197q74 -80 182 -80q51 0 99.5 17.5t73 34.5t41.5 34l9 10l54 -72q-9 -12 -47 -41q-24 -19 -56 -36
q-82 -41 -175 -41q-157 0 -257 106q-101 107 -101 265zM331 755h-78l87 127h89l88 -127h-79l-52 80h-2z" />
    <glyph glyph-name="ccircumflex" unicode="&#x109;" horiz-adv-x="530" 
d="M33 253q0 113 75 189q76 76 197 76q37 0 75.5 -9t72.5 -36t34 -66v-52h-88v28q0 25 -31 38q-31 14 -63 14q-75 0 -125 -51q-49 -49 -49 -130q0 -83 52 -132q52 -48 127 -48q41 0 81 17q38 17 58 35l18 18l41 -69q-9 -12 -34 -30q-72 -57 -171 -57q-119 0 -195 75
q-75 75 -75 190zM234 580h-78l87 127h89l88 -127h-79l-52 80h-2z" />
    <glyph glyph-name="Cdotaccent" unicode="&#x10a;" horiz-adv-x="698" 
d="M35 359q0 152 101 256q102 103 253 103q39 0 82 -8.5t85.5 -25.5t70 -48t27.5 -71v-69h-92v40q0 41 -55 65t-116 24q-108 0 -180 -74q-72 -73 -72 -192q0 -117 73 -197q74 -80 182 -80q51 0 99.5 17.5t73 34.5t41.5 34l9 10l54 -72q-9 -12 -47 -41q-24 -19 -56 -36
q-82 -41 -175 -41q-157 0 -257 106q-101 107 -101 265zM428 781h-87v101h87v-101z" />
    <glyph glyph-name="cdotaccent" unicode="&#x10b;" horiz-adv-x="530" 
d="M33 253q0 113 75 189q76 76 197 76q37 0 75.5 -9t72.5 -36t34 -66v-52h-88v28q0 25 -31 38q-31 14 -63 14q-75 0 -125 -51q-49 -49 -49 -130q0 -83 52 -132q52 -48 127 -48q41 0 81 17q38 17 58 35l18 18l41 -69q-9 -12 -34 -30q-72 -57 -171 -57q-119 0 -195 75
q-75 75 -75 190zM331 606h-87v101h87v-101z" />
    <glyph glyph-name="Ccaron" unicode="&#x10c;" horiz-adv-x="698" 
d="M35 359q0 152 101 256q102 103 253 103q39 0 82 -8.5t85.5 -25.5t70 -48t27.5 -71v-69h-92v40q0 41 -55 65t-116 24q-108 0 -180 -74q-72 -73 -72 -192q0 -117 73 -197q74 -80 182 -80q51 0 99.5 17.5t73 34.5t41.5 34l9 10l54 -72q-9 -12 -47 -41q-24 -19 -56 -36
q-82 -41 -175 -41q-157 0 -257 106q-101 107 -101 265zM430 755h-89l-88 127h79l52 -81h2l52 81h80z" />
    <glyph glyph-name="ccaron" unicode="&#x10d;" horiz-adv-x="530" 
d="M33 253q0 113 75 189q76 76 197 76q37 0 75.5 -9t72.5 -36t34 -66v-52h-88v28q0 25 -31 38q-31 14 -63 14q-75 0 -125 -51q-49 -49 -49 -130q0 -83 52 -132q52 -48 127 -48q41 0 81 17q38 17 58 35l18 18l41 -69q-9 -12 -34 -30q-72 -57 -171 -57q-119 0 -195 75
q-75 75 -75 190zM333 580h-89l-88 127h79l52 -81h2l52 81h80z" />
    <glyph glyph-name="Dcaron" unicode="&#x10e;" horiz-adv-x="714" 
d="M382 755h-89l-88 127h79l52 -81h2l52 81h80zM98 64v556h-65v86h286q163 0 260 -94q98 -93 98 -258t-98 -260q-97 -94 -260 -94h-156q-34 0 -49.5 15t-15.5 49zM198 620v-512q0 -22 22 -22h92q122 0 191.5 70.5t69.5 197.5q0 126 -70 196t-191 70h-114z" />
    <glyph glyph-name="dcaron" unicode="&#x10f;" horiz-adv-x="601" 
d="M35 253q0 120 63 192q64 73 165 73q102 0 151 -70l5 -8h2q-1 10 -1 34v127q0 22 -22 22h-41v83h95q34 0 49.5 -15t15.5 -49v-537q0 -22 22 -22h41v-83h-93q-62 0 -62 54l1 26h-2q-12 -20 -23 -32q-53 -60 -143 -60q-102 0 -163 73q-60 73 -60 192zM133 253q0 -81 40 -131
t104 -50q65 0 105 47t40 135q0 75 -37 127q-38 53 -106 53q-62 0 -104 -49t-42 -132zM571 706h79q6 -27 6 -49q0 -41 -24 -92h-69q19 48 19 82q0 28 -11 59z" />
    <glyph glyph-name="Dcroat" unicode="&#x110;" horiz-adv-x="716" 
d="M100 64v248h-48v82h48v226h-65v86h286q163 0 260 -94q98 -93 98 -258t-98 -260q-97 -94 -260 -94h-156q-34 0 -49.5 15t-15.5 49zM200 312v-204q0 -22 22 -22h92q122 0 191.5 70.5t69.5 197.5q0 126 -70 196t-191 70h-114v-226h144v-82h-144z" />
    <glyph glyph-name="dslash" unicode="&#x111;" horiz-adv-x="601" 
d="M35 253q0 120 63 192q64 73 165 73q102 0 151 -70l5 -8h2q-1 10 -1 34v89h-129v63h129v80h97v-80h77v-63h-77v-458q0 -22 22 -22h41v-83h-93q-62 0 -62 54l1 26h-2q-12 -20 -23 -32q-53 -60 -143 -60q-102 0 -163 73q-60 73 -60 192zM133 253q0 -81 40 -131t104 -50
q65 0 105 47t40 135q0 75 -37 127q-38 53 -106 53q-62 0 -104 -49t-42 -132z" />
    <glyph glyph-name="Emacron" unicode="&#x112;" horiz-adv-x="571" 
d="M98 64v556h-65v86h416q34 0 49 -15t15 -49v-89h-92v45q0 22 -22 22h-201v-221h248v-86h-248v-205q0 -22 22 -22h207q22 0 22 22v45h91v-89q0 -34 -15 -49t-49 -15h-313q-34 0 -49.5 15t-15.5 49zM418 784h-254v68h254v-68z" />
    <glyph glyph-name="emacron" unicode="&#x113;" horiz-adv-x="539" 
d="M33 253q0 119 72 192t182 73q103 0 160 -68q58 -67 58 -169q0 -17 -3 -41h-369q4 -79 54 -124q50 -44 121 -44q11 0 21.5 1t20.5 3.5t18 5t17.5 7l15 7t14.5 8t12 7t11.5 7.5t9.5 6l9 7l41 -71q-18 -15 -40 -28q-24 -14 -68 -29t-88 -15q-118 0 -194 75q-75 77 -75 190z
M137 310h271q-2 62 -36 97.5t-87 35.5q-58 0 -98 -35.5t-50 -97.5zM409 609h-254v68h254v-68z" />
    <glyph glyph-name="Ebreve" unicode="&#x114;" horiz-adv-x="571" 
d="M98 64v556h-65v86h416q34 0 49 -15t15 -49v-89h-92v45q0 22 -22 22h-201v-221h248v-86h-248v-205q0 -22 22 -22h207q22 0 22 22v45h91v-89q0 -34 -15 -49t-49 -15h-313q-34 0 -49.5 15t-15.5 49zM290 751q-53 0 -90.5 32t-37.5 85v14h67v-13q-3 -43 37 -56q39 -13 67 11
q21 17 19 46v12h66v-14q0 -53 -37 -85t-91 -32z" />
    <glyph glyph-name="ebreve" unicode="&#x115;" horiz-adv-x="539" 
d="M33 253q0 119 72 192t182 73q103 0 160 -68q58 -67 58 -169q0 -17 -3 -41h-369q4 -79 54 -124q50 -44 121 -44q11 0 21.5 1t20.5 3.5t18 5t17.5 7l15 7t14.5 8t12 7t11.5 7.5t9.5 6l9 7l41 -71q-18 -15 -40 -28q-24 -14 -68 -29t-88 -15q-118 0 -194 75q-75 77 -75 190z
M137 310h271q-2 62 -36 97.5t-87 35.5q-58 0 -98 -35.5t-50 -97.5zM282 576q-53 0 -90.5 32t-37.5 85v14h67v-13q-3 -43 37 -56q39 -13 67 11q21 17 19 46v12h66v-14q0 -53 -37 -85t-91 -32z" />
    <glyph glyph-name="Edotaccent" unicode="&#x116;" horiz-adv-x="571" 
d="M98 64v556h-65v86h416q34 0 49 -15t15 -49v-89h-92v45q0 22 -22 22h-201v-221h248v-86h-248v-205q0 -22 22 -22h207q22 0 22 22v45h91v-89q0 -34 -15 -49t-49 -15h-313q-34 0 -49.5 15t-15.5 49zM334 781h-87v101h87v-101z" />
    <glyph glyph-name="edotaccent" unicode="&#x117;" horiz-adv-x="539" 
d="M33 253q0 119 72 192t182 73q103 0 160 -68q58 -67 58 -169q0 -17 -3 -41h-369q4 -79 54 -124q50 -44 121 -44q11 0 21.5 1t20.5 3.5t18 5t17.5 7l15 7t14.5 8t12 7t11.5 7.5t9.5 6l9 7l41 -71q-18 -15 -40 -28q-24 -14 -68 -29t-88 -15q-118 0 -194 75q-75 77 -75 190z
M137 310h271q-2 62 -36 97.5t-87 35.5q-58 0 -98 -35.5t-50 -97.5zM325 606h-87v101h87v-101z" />
    <glyph glyph-name="Eogonek" unicode="&#x118;" horiz-adv-x="571" 
d="M98 64v556h-65v86h416q34 0 49 -15t15 -49v-89h-92v45q0 22 -22 22h-201v-221h248v-86h-248v-205q0 -22 22 -22h207q22 0 22 22v45h91v-89q0 -34 -22 -56l-22 -18l-22 -20q-31 -31 -31 -59q0 -16 12.5 -27t28.5 -14l14 -2l-23 -75q-10 0 -40 9q-76 22 -76 86q0 60 65 110
v2h-261q-34 0 -49.5 15t-15.5 49z" />
    <glyph glyph-name="eogonek" unicode="&#x119;" horiz-adv-x="540" 
d="M33 253q0 119 72 192t182 73q103 0 160 -67q58 -67 58 -170q0 -14 -3 -38h-369q5 -79 54 -126q49 -45 121 -45q11 0 21.5 1t20.5 3.5t18 5t17.5 7l15 7t14.5 8t12 7t11.5 7.5t9.5 6l9 7l41 -71q-12 -12 -49 -38q-85 -60 -85 -111q0 -16 13 -27t29 -14l13 -2l-23 -75
q-10 0 -40 9q-76 22 -76 86q0 51 56 101v2q-16 -3 -34 -3q-118 0 -194 75q-75 77 -75 190zM137 307h271q-2 63 -36 99t-87 36q-58 0 -98 -36.5t-50 -98.5z" />
    <glyph glyph-name="Ecaron" unicode="&#x11a;" horiz-adv-x="571" 
d="M98 64v556h-65v86h416q34 0 49 -15t15 -49v-89h-92v45q0 22 -22 22h-201v-221h248v-86h-248v-205q0 -22 22 -22h207q22 0 22 22v45h91v-89q0 -34 -15 -49t-49 -15h-313q-34 0 -49.5 15t-15.5 49zM335 755h-89l-88 127h79l52 -81h2l52 81h80z" />
    <glyph glyph-name="ecaron" unicode="&#x11b;" horiz-adv-x="539" 
d="M33 253q0 119 72 192t182 73q103 0 160 -68q58 -67 58 -169q0 -17 -3 -41h-369q4 -79 54 -124q50 -44 121 -44q11 0 21.5 1t20.5 3.5t18 5t17.5 7l15 7t14.5 8t12 7t11.5 7.5t9.5 6l9 7l41 -71q-18 -15 -40 -28q-24 -14 -68 -29t-88 -15q-118 0 -194 75q-75 77 -75 190z
M137 310h271q-2 62 -36 97.5t-87 35.5q-58 0 -98 -35.5t-50 -97.5zM327 580h-89l-88 127h79l52 -81h2l52 81h80z" />
    <glyph glyph-name="Gcircumflex" unicode="&#x11c;" horiz-adv-x="728" 
d="M35 356q0 154 102 257q102 105 254 105q76 0 138 -22q66 -23 89 -44l25 -21l-57 -73q-16 13 -25 19q-15 11 -66 30q-48 19 -102 19q-107 0 -181 -77q-73 -76 -73 -193q0 -122 73 -198t183 -76q65 0 115 25.5t78 53.5l8 9v71q0 22 -22 22h-43v86h92q34 0 49.5 -15
t15.5 -49v-285h-88v44l1 30h-2q-13 -12 -37 -30q-23 -16 -45 -26q-62 -30 -138 -30q-145 0 -245 103q-99 103 -99 265zM334 755h-78l87 127h89l88 -127h-79l-52 80h-2z" />
    <glyph glyph-name="gcircumflex" unicode="&#x11d;" horiz-adv-x="593" 
d="M82 -168l32 78q62 -34 138 -34q75 0 118 35.5t43 105.5v34l1 32h-2q-47 -77 -150 -77q-104 0 -165 73q-62 74 -62 186q0 111 59 182q60 71 163 71q65 0 104.5 -23t54.5 -48l4 -8h2q-1 5 -1 16q0 51 57 51h94v-83h-41q-22 0 -22 -20v-382q0 -60 -21.5 -106t-58 -72.5
t-81 -39.5t-94.5 -13q-90 0 -172 42zM281 90q62 0 98 42.5t36 131.5q0 170 -143 170q-65 0 -101.5 -44.5t-36.5 -122.5q0 -81 39.5 -129t107.5 -48zM244 580h-78l87 127h89l88 -127h-79l-52 80h-2z" />
    <glyph glyph-name="Gbreve" unicode="&#x11e;" horiz-adv-x="728" 
d="M35 356q0 154 102 257q102 105 254 105q76 0 138 -22q66 -23 89 -44l25 -21l-57 -73q-16 13 -25 19q-15 11 -66 30q-48 19 -102 19q-107 0 -181 -77q-73 -76 -73 -193q0 -122 73 -198t183 -76q65 0 115 25.5t78 53.5l8 9v71q0 22 -22 22h-43v86h92q34 0 49.5 -15
t15.5 -49v-285h-88v44l1 30h-2q-13 -12 -37 -30q-23 -16 -45 -26q-62 -30 -138 -30q-145 0 -245 103q-99 103 -99 265zM387 751q-53 0 -90.5 32t-37.5 85v14h67v-13q0 -29 17.5 -44.5t43.5 -15.5q27 0 44.5 16t17.5 45v12h66v-14q0 -53 -37 -85t-91 -32z" />
    <glyph glyph-name="gbreve" unicode="&#x11f;" horiz-adv-x="593" 
d="M82 -168l32 78q62 -34 138 -34q75 0 118 35.5t43 105.5v34l1 32h-2q-47 -77 -150 -77q-104 0 -165 73q-62 74 -62 186q0 111 59 182q60 71 163 71q65 0 104.5 -23t54.5 -48l4 -8h2q-1 5 -1 16q0 51 57 51h94v-83h-41q-22 0 -22 -20v-382q0 -60 -21.5 -106t-58 -72.5
t-81 -39.5t-94.5 -13q-90 0 -172 42zM281 90q62 0 98 42.5t36 131.5q0 170 -143 170q-65 0 -101.5 -44.5t-36.5 -122.5q0 -81 39.5 -129t107.5 -48zM297 576q-53 0 -90.5 32t-37.5 85v14h67v-13q0 -29 17.5 -44.5t43.5 -15.5q27 0 44.5 16t17.5 45v12h66v-14q0 -53 -37 -85
t-91 -32z" />
    <glyph glyph-name="Gdotaccent" unicode="&#x120;" horiz-adv-x="728" 
d="M35 356q0 154 102 257q102 105 254 105q76 0 138 -22q66 -23 89 -44l25 -21l-57 -73q-16 13 -25 19q-15 11 -66 30q-48 19 -102 19q-107 0 -181 -77q-73 -76 -73 -193q0 -122 73 -198t183 -76q65 0 115 25.5t78 53.5l8 9v71q0 22 -22 22h-43v86h92q34 0 49.5 -15
t15.5 -49v-285h-88v44l1 30h-2q-13 -12 -37 -30q-23 -16 -45 -26q-62 -30 -138 -30q-145 0 -245 103q-99 103 -99 265zM431 781h-87v101h87v-101z" />
    <glyph glyph-name="gdotaccent" unicode="&#x121;" horiz-adv-x="593" 
d="M82 -168l32 78q62 -34 138 -34q75 0 118 35.5t43 105.5v34l1 32h-2q-47 -77 -150 -77q-104 0 -165 73q-62 74 -62 186q0 111 59 182q60 71 163 71q65 0 104.5 -23t54.5 -48l4 -8h2q-1 5 -1 16q0 51 57 51h94v-83h-41q-22 0 -22 -20v-382q0 -60 -21.5 -106t-58 -72.5
t-81 -39.5t-94.5 -13q-90 0 -172 42zM281 90q62 0 98 42.5t36 131.5q0 170 -143 170q-65 0 -101.5 -44.5t-36.5 -122.5q0 -81 39.5 -129t107.5 -48zM341 606h-87v101h87v-101z" />
    <glyph glyph-name="Gcommaaccent" unicode="&#x122;" horiz-adv-x="728" 
d="M35 356q0 154 102 257q102 105 254 105q76 0 138 -22q66 -23 89 -44l25 -21l-57 -73q-16 13 -25 19q-15 11 -66 30q-48 19 -102 19q-107 0 -181 -77q-73 -76 -73 -193q0 -122 73 -198t183 -76q65 0 115 25.5t78 53.5l8 9v71q0 22 -22 22h-43v86h92q34 0 49.5 -15
t15.5 -49v-285h-88v44l1 30h-2q-13 -12 -37 -30q-23 -16 -45 -26q-62 -30 -138 -30q-145 0 -245 103q-99 103 -99 265zM340 -59h79q6 -27 6 -49q0 -41 -24 -92h-69q19 48 19 82q0 28 -11 59z" />
    <glyph glyph-name="gcommaaccent" unicode="&#x123;" horiz-adv-x="593" 
d="M324 565h-79q-6 27 -6 49q0 41 24 92h69q-19 -48 -19 -82q0 -28 11 -59zM82 -168l32 78q62 -34 138 -34q75 0 118 35.5t43 105.5v34l1 32h-2q-47 -77 -150 -77q-104 0 -165 73q-62 74 -62 186q0 111 59 182q60 71 163 71q65 0 104.5 -23t54.5 -48l4 -8h2q-1 5 -1 16
q0 51 57 51h94v-83h-41q-22 0 -22 -20v-382q0 -60 -21.5 -106t-58 -72.5t-81 -39.5t-94.5 -13q-90 0 -172 42zM281 90q62 0 98 42.5t36 131.5q0 170 -143 170q-65 0 -101.5 -44.5t-36.5 -122.5q0 -81 39.5 -129t107.5 -48z" />
    <glyph glyph-name="Hcircumflex" unicode="&#x124;" horiz-adv-x="757" 
d="M199 0h-100v598q0 22 -22 22h-43v86h101q34 0 49 -15t15 -49v-247h359v247q0 34 15.5 49t49.5 15h100v-86h-43q-22 0 -22 -22v-598h-100v310h-359v-310zM325 755h-78l87 127h89l88 -127h-79l-52 80h-2z" />
    <glyph glyph-name="hcircumflex" unicode="&#x125;" horiz-adv-x="605" 
d="M164 0h-97v601q0 22 -22 22h-41v83h95q65 0 65 -62v-197l-2 -42h2q20 43 69 78q50 35 118 35q174 0 174 -194v-219q0 -22 22 -22h41v-83h-96q-34 0 -49 15t-15 49v238q0 65 -20.5 96t-74.5 31q-56 0 -100.5 -35t-60.5 -90q-8 -29 -8 -67v-237zM65 755h-78l87 127h89
l88 -127h-79l-52 80h-2z" />
    <glyph glyph-name="Hbar" unicode="&#x126;" horiz-adv-x="760" 
d="M200 0h-100v514h-65v68h65v124h100v-124h360v124h100v-124h65v-68h-65v-514h-100v310h-360v-310zM200 514v-119h360v119h-360z" />
    <glyph glyph-name="hbar" unicode="&#x127;" horiz-adv-x="605" 
d="M164 0h-97v563h-76v63h76v80h97v-80h128v-63h-128v-116l-2 -42h2q8 25 51 66q50 47 136 47q174 0 174 -194v-219q0 -22 22 -22h41v-83h-96q-34 0 -49 15t-15 49v238q0 64 -21 95.5t-74 31.5q-76 0 -122 -55q-47 -56 -47 -137v-237z" />
    <glyph glyph-name="Itilde" unicode="&#x128;" horiz-adv-x="318" 
d="M55 756h-66q0 127 103 127q26 0 50.5 -17t44 -34t33.5 -17q20 0 30.5 19t10.5 46h65q0 -127 -103 -127q-32 0 -72.5 34t-55.5 34q-40 0 -40 -65zM275 0h-233v86h69v534h-69v86h233v-86h-68v-534h68v-86z" />
    <glyph glyph-name="itilde" unicode="&#x129;" horiz-adv-x="265" 
d="M41 581h-64q0 127 92 127q25 0 44.5 -16.5t33.5 -33t25 -16.5q34 0 34 63h64q0 -127 -92 -127q-25 0 -44.5 16t-33.5 32.5t-25 16.5q-34 0 -34 -62zM84 64v337q0 22 -22 22h-41v83h95q34 0 49.5 -15t15.5 -49v-337q0 -22 22 -22h41v-83h-96q-34 0 -49 15t-15 49z" />
    <glyph glyph-name="Imacron" unicode="&#x12a;" horiz-adv-x="318" 
d="M275 0h-233v86h69v534h-69v86h233v-86h-68v-534h68v-86zM286 784h-254v68h254v-68z" />
    <glyph glyph-name="imacron" unicode="&#x12b;" horiz-adv-x="265" 
d="M241 609h-231v68h231v-68zM84 64v337q0 22 -22 22h-41v83h95q34 0 49.5 -15t15.5 -49v-337q0 -22 22 -22h41v-83h-96q-34 0 -49 15t-15 49z" />
    <glyph glyph-name="Ibreve" unicode="&#x12c;" horiz-adv-x="318" 
d="M159 751q-53 0 -90.5 32t-37.5 85v14h67v-13q0 -29 17.5 -44.5t43.5 -15.5q27 0 44.5 16t17.5 45v12h66v-14q0 -53 -37 -85t-91 -32zM275 0h-233v86h69v534h-69v86h233v-86h-68v-534h68v-86z" />
    <glyph glyph-name="ibreve" unicode="&#x12d;" horiz-adv-x="265" 
d="M125 575q-54 0 -91.5 32.5t-37.5 85.5v13h67v-12q0 -29 17.5 -45t44.5 -16q26 0 43.5 16t17.5 45v12h67v-13q0 -53 -37.5 -85.5t-90.5 -32.5zM84 64v337q0 22 -22 22h-41v83h95q34 0 49.5 -15t15.5 -49v-337q0 -22 22 -22h41v-83h-96q-34 0 -49 15t-15 49z" />
    <glyph glyph-name="Iogonek" unicode="&#x12e;" horiz-adv-x="318" 
d="M192 0h-150v86h69v534h-69v86h233v-86h-68v-534h68v-86q-64 -54 -64 -89q0 -16 13 -27t29 -14l14 -2l-23 -75q-10 0 -40 9q-76 22 -76 86q0 59 64 110v2z" />
    <glyph glyph-name="iogonek" unicode="&#x12f;" horiz-adv-x="265" 
d="M173 605h-87v101h87v-101zM84 81v320q0 22 -22 22h-41v83h95q34 0 49.5 -15t15.5 -49v-337q0 -22 22 -22h41v-83q-64 -52 -64 -89q0 -16 13 -27t29 -14l13 -2l-23 -75q-10 0 -40 9q-76 22 -76 86q0 60 65 110v2h-20q-57 0 -57 81z" />
    <glyph glyph-name="Idot" unicode="&#x130;" horiz-adv-x="318" 
d="M275 0h-233v86h69v534h-69v86h233v-86h-68v-534h68v-86zM201 781h-87v101h87v-101z" />
    <glyph glyph-name="dotlessi" unicode="&#x131;" horiz-adv-x="265" 
d="M84 64v337q0 22 -22 22h-41v83h95q34 0 49.5 -15t15.5 -49v-337q0 -22 22 -22h41v-83h-96q-34 0 -49 15t-15 49z" />
    <glyph glyph-name="IJ" unicode="&#x132;" horiz-adv-x="675" 
d="M364 -5v91q25 0 46.5 6t43.5 21.5t35 47.5t13 79v358q0 22 -22 22h-112v86h170q34 0 49 -15t15 -49v-403q0 -146 -79 -199q-67 -45 -159 -45zM275 0h-233v86h69v534h-69v86h233v-86h-68v-534h68v-86z" />
    <glyph glyph-name="ij" unicode="&#x133;" horiz-adv-x="509" 
d="M173 605h-87v101h87v-101zM84 64v337q0 22 -22 22h-41v83h95q34 0 49.5 -15t15.5 -49v-337q0 -22 22 -22h41v-83h-96q-34 0 -49 15t-15 49zM437 605h-87v101h87v-101zM348 -11v412q0 22 -22 22h-41v83h96q34 0 49 -15t15 -49v-459q0 -94 -50 -139q-56 -52 -144 -50l-34 2
v83q6 -1 22 -1q18 0 34 4t34.5 14t29.5 34t11 59z" />
    <glyph glyph-name="Jcircumflex" unicode="&#x134;" horiz-adv-x="511" 
d="M229 755h-78l87 127h89l88 -127h-79l-52 80h-2zM16 203v35h100v-27q0 -65 31 -97t81 -32q48 0 79 32t31 93v391q0 22 -22 22h-173v86h230q34 0 49.5 -15t15.5 -49v-439q0 -107 -62 -161t-149 -54t-149 54q-62 56 -62 161z" />
    <glyph glyph-name="jcircumflex" unicode="&#x135;" horiz-adv-x="243" 
d="M52 579h-79l88 127h88l88 -127h-79l-53 82zM84 -12v416q0 22 -25 22h-38v80h93q36 0 50.5 -12.5t14.5 -45.5v-465q0 -94 -49 -139q-20 -20 -49 -32q-42 -18 -94 -18l-34 2v81q6 -1 22 -1q18 0 34 4t34.5 14.5t29.5 34.5t11 59z" />
    <glyph glyph-name="Kcommaaccent" unicode="&#x136;" horiz-adv-x="612" 
d="M199 0h-100v598q0 22 -22 22h-43v86h101q34 0 49 -15t15 -49v-233h67q44 0 58 24l157 273h112l-171 -293q-18 -32 -34 -43l-6 -3v-2q20 -5 40 -44l106 -212q11 -23 50 -23h19v-86h-55q-43 0 -62.5 10.5t-35.5 42.5l-122 245q-14 26 -63 26h-60v-324zM280 -59h79
q6 -27 6 -49q0 -41 -24 -92h-69q19 48 19 82q0 28 -11 59z" />
    <glyph glyph-name="kcommaaccent" unicode="&#x137;" horiz-adv-x="513" 
d="M164 0h-97v601q0 22 -22 22h-41v83h95q36 0 50.5 -12.5t14.5 -45.5v-328h45q36 0 52 22l117 164h112l-138 -188q-19 -27 -34 -36l-4 -2v-2q17 -6 34 -38l75 -137q11 -20 44 -20h30v-83h-70q-35 0 -51 9t-32 38l-93 170q-11 21 -50 21h-37v-238zM224 -59h79q6 -27 6 -49
q0 -41 -24 -92h-69q19 48 19 82q0 28 -11 59z" />
    <glyph glyph-name="kgreenlandic" unicode="&#x138;" horiz-adv-x="529" 
d="M182 0h-97v401q0 22 -22 22h-41v83h96q36 0 50 -12.5t14 -45.5v-148h45q38 0 53 21l122 185h110l-143 -207q-14 -21 -32 -35l-4 -2v-2q16 -6 32 -39l65 -118q11 -20 44 -20h35v-83h-74q-36 0 -52 9t-32 38l-82 150q-11 20 -49 20h-38v-217z" />
    <glyph glyph-name="Lacute" unicode="&#x139;" horiz-adv-x="541" 
d="M98 64v534q0 22 -22 22h-43v86h101q34 0 49 -15t15 -49v-534q0 -22 22 -22h196q22 0 22 22v45h91v-89q0 -34 -15 -49t-49 -15h-302q-34 0 -49.5 15t-15.5 49zM194 755h-76l73 127h98z" />
    <glyph glyph-name="lacute" unicode="&#x13a;" horiz-adv-x="249" 
d="M67 64v537q0 22 -22 22h-40v83h95q34 0 49 -15t15 -49v-537q0 -22 22 -22h41v-83h-95q-34 0 -49.5 15t-15.5 49zM140 755h-76l73 127h98z" />
    <glyph glyph-name="Lcommaaccent" unicode="&#x13b;" horiz-adv-x="541" 
d="M98 64v534q0 22 -22 22h-43v86h101q34 0 49 -15t15 -49v-534q0 -22 22 -22h196q22 0 22 22v45h91v-89q0 -34 -15 -49t-49 -15h-302q-34 0 -49.5 15t-15.5 49zM270 -59h79q6 -27 6 -49q0 -41 -24 -92h-69q19 48 19 82q0 28 -11 59z" />
    <glyph glyph-name="lcommaaccent" unicode="&#x13c;" horiz-adv-x="249" 
d="M67 64v537q0 22 -22 22h-40v83h95q34 0 49 -15t15 -49v-537q0 -22 22 -22h41v-83h-95q-34 0 -49.5 15t-15.5 49zM89 -59h79q6 -27 6 -49q0 -41 -24 -92h-69q19 48 19 82q0 28 -11 59z" />
    <glyph glyph-name="Lcaron" unicode="&#x13d;" horiz-adv-x="542" 
d="M98 64v534q0 22 -22 22h-43v86h101q34 0 49 -15t15 -49v-534q0 -22 22 -22h196q22 0 22 22v45h91v-89q0 -34 -15 -49t-49 -15h-302q-34 0 -49.5 15t-15.5 49zM283 706h79q6 -27 6 -49q0 -41 -24 -92h-69q19 48 19 82q0 28 -11 59z" />
    <glyph glyph-name="lcaron" unicode="&#x13e;" horiz-adv-x="249" 
d="M67 64v537q0 22 -22 22h-40v83h95q34 0 49 -15t15 -49v-537q0 -22 22 -22h41v-83h-95q-34 0 -49.5 15t-15.5 49zM220 706h79q6 -27 6 -49q0 -41 -24 -92h-69q19 48 19 82q0 28 -11 59z" />
    <glyph glyph-name="Ldot" unicode="&#x13f;" horiz-adv-x="542" 
d="M98 64v534q0 22 -22 22h-43v86h101q34 0 49 -15t15 -49v-534q0 -22 22 -22h196q22 0 22 22v45h91v-89q0 -34 -15 -49t-49 -15h-302q-34 0 -49.5 15t-15.5 49zM409 327h-99v103h99v-103z" />
    <glyph glyph-name="ldot" unicode="&#x140;" horiz-adv-x="340" 
d="M67 64v537q0 22 -22 22h-40v83h95q34 0 49 -15t15 -49v-537q0 -22 22 -22h41v-83h-95q-34 0 -49.5 15t-15.5 49zM334 327h-99v103h99v-103z" />
    <glyph glyph-name="Lslash" unicode="&#x141;" horiz-adv-x="544" 
d="M101 64v239l-63 -36v97l63 36v198q0 22 -22 22h-43v86h101q34 0 49 -15t15 -49v-185l104 60v-97l-104 -60v-252q0 -22 22 -22h195q22 0 22 22v45h92v-89q0 -34 -15.5 -49t-49.5 -15h-302q-34 0 -49 15t-15 49z" />
    <glyph glyph-name="lslash" unicode="&#x142;" horiz-adv-x="264" 
d="M79 64v257l-75 -43v97l75 44v182q0 22 -22 22h-41v83h96q34 0 49 -15t15 -49v-168l78 45v-97l-78 -46v-271q0 -22 22 -22h41v-83h-96q-34 0 -49 15t-15 49z" />
    <glyph glyph-name="Nacute" unicode="&#x143;" horiz-adv-x="757" 
d="M135 0h-101v86h43q22 0 22 22v598h91l314 -447l59 -96h2q-7 53 -7 96v383q0 34 15.5 49t49.5 15h100v-86h-43q-22 0 -22 -22v-598h-90l-315 447l-58 96h-2q6 -57 6 -96v-383q0 -34 -15 -49t-49 -15zM425 755h-76l73 127h98z" />
    <glyph glyph-name="nacute" unicode="&#x144;" horiz-adv-x="623" 
d="M182 0h-97v401q0 22 -22 22h-41v83h93q64 0 64 -56v-19l-2 -29h2q19 42 68 79t123 37q173 0 173 -194v-219q0 -22 22 -22h41v-83h-96q-34 0 -49 15t-15 49v238q0 65 -20.5 96t-74.5 31q-57 0 -100.5 -34.5t-59.5 -89.5q-9 -25 -9 -68v-237zM359 580h-76l73 127h98z" />
    <glyph glyph-name="Ncommaaccent" unicode="&#x145;" horiz-adv-x="757" 
d="M135 0h-101v86h43q22 0 22 22v598h91l314 -447l59 -96h2q-7 53 -7 96v383q0 34 15.5 49t49.5 15h100v-86h-43q-22 0 -22 -22v-598h-90l-315 447l-58 96h-2q6 -57 6 -96v-383q0 -34 -15 -49t-49 -15zM335 -59h79q6 -27 6 -49q0 -41 -24 -92h-69q19 48 19 82q0 28 -11 59z
" />
    <glyph glyph-name="ncommaaccent" unicode="&#x146;" horiz-adv-x="623" 
d="M182 0h-97v401q0 22 -22 22h-41v83h93q64 0 64 -56v-19l-2 -29h2q19 42 68 79t123 37q173 0 173 -194v-219q0 -22 22 -22h41v-83h-96q-34 0 -49 15t-15 49v238q0 65 -20.5 96t-74.5 31q-57 0 -100.5 -34.5t-59.5 -89.5q-9 -25 -9 -68v-237zM284 -59h79q6 -27 6 -49
q0 -41 -24 -92h-69q19 48 19 82q0 28 -11 59z" />
    <glyph glyph-name="Ncaron" unicode="&#x147;" horiz-adv-x="757" 
d="M135 0h-101v86h43q22 0 22 22v598h91l314 -447l59 -96h2q-7 53 -7 96v383q0 34 15.5 49t49.5 15h100v-86h-43q-22 0 -22 -22v-598h-90l-315 447l-58 96h-2q6 -57 6 -96v-383q0 -34 -15 -49t-49 -15zM433 755h-89l-88 127h79l52 -81h2l52 81h80z" />
    <glyph glyph-name="ncaron" unicode="&#x148;" horiz-adv-x="623" 
d="M182 0h-97v401q0 22 -22 22h-41v83h93q64 0 64 -56v-19l-2 -29h2q19 42 68 79t123 37q173 0 173 -194v-219q0 -22 22 -22h41v-83h-96q-34 0 -49 15t-15 49v238q0 65 -20.5 96t-74.5 31q-57 0 -100.5 -34.5t-59.5 -89.5q-9 -25 -9 -68v-237zM367 580h-89l-88 127h79
l52 -81h2l52 81h80z" />
    <glyph glyph-name="napostrophe" unicode="&#x149;" horiz-adv-x="623" 
d="M182 0h-97v401q0 22 -22 22h-41v83h93q64 0 64 -56v-19l-2 -29h2q19 42 68 79t123 37q173 0 173 -194v-219q0 -22 22 -22h41v-83h-96q-34 0 -49 15t-15 49v238q0 65 -20.5 96t-74.5 31q-57 0 -100.5 -34.5t-59.5 -89.5q-9 -25 -9 -68v-237zM-33 706h79q6 -27 6 -49
q0 -41 -24 -92h-69q19 48 19 82q0 28 -11 59z" />
    <glyph glyph-name="Eng" unicode="&#x14a;" horiz-adv-x="757" 
d="M135 0h-101v86h43q22 0 22 22v598h91l314 -447l59 -96h2q-7 53 -7 96v383q0 34 15.5 49t49.5 15h100v-86h-43q-22 0 -22 -22v-571q0 -132 -76 -185q-67 -47 -156 -47v91q50 0 90 31q42 30 42 92v7l-305 431l-58 96h-2q6 -57 6 -96v-383q0 -34 -15 -49t-49 -15z" />
    <glyph glyph-name="eng" unicode="&#x14b;" horiz-adv-x="600" 
d="M182 0h-97v401q0 22 -22 22h-41v83h93q64 0 64 -56v-19l-2 -29h2q19 42 68 79t123 37q173 0 173 -194v-344q0 -94 -50 -139q-56 -52 -144 -50l-34 2v83q6 -1 22 -1q18 0 34 4t34.5 14.5t29.5 34.5t11 59v315q0 65 -20.5 96t-74.5 31q-56 0 -100.5 -35t-60.5 -90
q-8 -29 -8 -67v-237z" />
    <glyph glyph-name="Omacron" unicode="&#x14c;" horiz-adv-x="793" 
d="M34 358q0 152 104 256q106 104 258 104t258 -104q105 -104 105 -256q0 -156 -105 -263t-258 -107t-258 107q-104 107 -104 263zM138 358q0 -116 75 -196t183 -80t183 80q76 79 76 196q0 114 -76 190q-75 77 -183 77t-183 -77t-75 -190zM521 784h-254v68h254v-68z" />
    <glyph glyph-name="omacron" unicode="&#x14d;" horiz-adv-x="611" 
d="M305 518q115 0 194 -75t79 -189q0 -113 -80 -190q-79 -76 -193 -76t-193 76t-79 190t79 189q80 75 193 75zM305 72q73 0 123 51q51 53 51 131t-51 129q-50 51 -123 51q-72 0 -123 -51t-51 -129q0 -77 51 -130q51 -52 123 -52zM432 609h-254v68h254v-68z" />
    <glyph glyph-name="Obreve" unicode="&#x14e;" horiz-adv-x="793" 
d="M34 358q0 152 104 256q106 104 258 104t258 -104q105 -104 105 -256q0 -156 -105 -263t-258 -107t-258 107q-104 107 -104 263zM138 358q0 -116 75 -196t183 -80t183 80q76 79 76 196q0 114 -76 190q-75 77 -183 77t-183 -77t-75 -190zM393 751q-53 0 -90.5 32t-37.5 85
v14h67v-13q0 -29 17.5 -44.5t43.5 -15.5q27 0 44.5 16t17.5 45v12h66v-14q0 -53 -37 -85t-91 -32z" />
    <glyph glyph-name="obreve" unicode="&#x14f;" horiz-adv-x="611" 
d="M305 518q115 0 194 -75t79 -189q0 -113 -80 -190q-79 -76 -193 -76t-193 76t-79 190t79 189q80 75 193 75zM305 72q73 0 123 51q51 53 51 131t-51 129q-50 51 -123 51q-72 0 -123 -51t-51 -129q0 -77 51 -130q51 -52 123 -52zM305 576q-53 0 -90.5 32t-37.5 85v14h67v-13
q0 -29 17.5 -44.5t43.5 -15.5q27 0 44.5 16t17.5 45v12h66v-14q0 -53 -37 -85t-91 -32z" />
    <glyph glyph-name="Ohungarumlaut" unicode="&#x150;" horiz-adv-x="793" 
d="M34 358q0 152 104 256q106 104 258 104t258 -104q105 -104 105 -256q0 -156 -105 -263t-258 -107t-258 107q-104 107 -104 263zM138 358q0 -116 75 -196t183 -80t183 80q76 79 76 196q0 114 -76 190q-75 77 -183 77t-183 -77t-75 -190zM503 755h-75l72 127h99zM358 755
h-83l69 127h84z" />
    <glyph glyph-name="ohungarumlaut" unicode="&#x151;" horiz-adv-x="611" 
d="M305 518q115 0 194 -75t79 -189q0 -113 -80 -190q-79 -76 -193 -76t-193 76t-79 190t79 189q80 75 193 75zM305 72q73 0 123 51q51 53 51 131t-51 129q-50 51 -123 51q-72 0 -123 -51t-51 -129q0 -77 51 -130q51 -52 123 -52zM415 580h-75l72 127h99zM270 580h-83l69 127
h84z" />
    <glyph glyph-name="OE" unicode="&#x152;" horiz-adv-x="938" 
d="M382 715q24 0 77 -5q43 -4 66 -4h290q34 0 49 -15t15 -49v-89h-91v45q0 22 -22 22h-195v-221h241v-86h-241v-227h222q22 0 22 22v45h92v-89q0 -34 -14.5 -49t-46.5 -15h-320q-23 0 -67 -4q-53 -5 -77 -5q-147 0 -248 105q-100 104 -100 258t100 257q101 104 248 104z
M139 354q0 -118 67 -194t176 -76q52 0 89 8v522q-37 8 -89 8q-109 0 -176 -76t-67 -192z" />
    <glyph glyph-name="oe" unicode="&#x153;" horiz-adv-x="988" 
d="M304 518q150 0 222 -120h2q63 120 209 120q103 0 160 -68q58 -67 58 -169l-3 -41h-370q6 -79 54.5 -123.5t120.5 -44.5q36 0 73.5 14t57.5 31l17 15l42 -70l-25 -21q-15 -12 -66 -33q-52 -20 -104 -20q-154 0 -222 123h-2q-72 -123 -224 -123q-114 0 -193 73
q-78 73 -78 191t78 191q79 75 193 75zM587 311h268q-3 60 -35.5 95t-83.5 35q-59 0 -99 -34.5t-50 -95.5zM131 252q0 -80 50 -130q52 -50 123 -50q72 0 124 50q51 51 51 133q0 80 -52 129q-52 50 -123 50q-72 0 -123 -51q-50 -50 -50 -131z" />
    <glyph glyph-name="Racute" unicode="&#x154;" horiz-adv-x="622" 
d="M198 0h-100v620h-65v86h309q93 0 152 -56t59 -151q0 -79 -41 -129q-40 -47 -87 -58v-2q18 -9 30 -32l85 -169q12 -23 51 -23h13v-86h-49q-44 0 -63 10t-36 43l-96 190q-12 24 -25.5 31t-43.5 7h-93v-281zM198 620v-253h131q57 0 89 34t32 94q0 59 -32 92t-88 33h-132z
M319 755h-76l73 127h98z" />
    <glyph glyph-name="racute" unicode="&#x155;" horiz-adv-x="376" 
d="M182 0h-97v401q0 22 -22 22h-41v83h93q64 0 64 -59v-32l-2 -35h2q19 59 62 95.5t98 36.5l26 -2v-96q-13 3 -28 3q-48 0 -86.5 -31.5t-56.5 -87.5q-12 -39 -12 -91v-207zM236 580h-76l73 127h98z" />
    <glyph glyph-name="Rcommaaccent" unicode="&#x156;" horiz-adv-x="622" 
d="M198 0h-100v620h-65v86h309q93 0 152 -56t59 -151q0 -79 -41 -129q-40 -47 -87 -58v-2q18 -9 30 -32l85 -169q12 -23 51 -23h13v-86h-49q-44 0 -63 10t-36 43l-96 190q-12 24 -25.5 31t-43.5 7h-93v-281zM198 620v-253h131q57 0 89 34t32 94q0 59 -32 92t-88 33h-132z
M296 -59h79q6 -27 6 -49q0 -41 -24 -92h-69q19 48 19 82q0 28 -11 59z" />
    <glyph glyph-name="rcommaaccent" unicode="&#x157;" horiz-adv-x="376" 
d="M182 0h-97v401q0 22 -22 22h-41v83h93q64 0 64 -59v-32l-2 -35h2q19 59 62 95.5t98 36.5l26 -2v-96q-13 3 -28 3q-48 0 -86.5 -31.5t-56.5 -87.5q-12 -39 -12 -91v-207zM98 -59h79q6 -27 6 -49q0 -41 -24 -92h-69q19 48 19 82q0 28 -11 59z" />
    <glyph glyph-name="Rcaron" unicode="&#x158;" horiz-adv-x="622" 
d="M198 0h-100v620h-65v86h309q93 0 152 -56t59 -151q0 -79 -41 -129q-40 -47 -87 -58v-2q18 -9 30 -32l85 -169q12 -23 51 -23h13v-86h-49q-44 0 -63 10t-36 43l-96 190q-12 24 -25.5 31t-43.5 7h-93v-281zM198 620v-253h131q57 0 89 34t32 94q0 59 -32 92t-88 33h-132z
M327 755h-89l-88 127h79l52 -81h2l52 81h80z" />
    <glyph glyph-name="rcaron" unicode="&#x159;" horiz-adv-x="376" 
d="M244 580h-89l-88 127h79l52 -81h2l52 81h80zM182 0h-97v401q0 22 -22 22h-41v83h93q64 0 64 -59v-32l-2 -35h2q19 59 62 95.5t98 36.5l26 -2v-96q-13 3 -28 3q-48 0 -86.5 -31.5t-56.5 -87.5q-12 -39 -12 -91v-207z" />
    <glyph glyph-name="Sacute" unicode="&#x15a;" horiz-adv-x="525" 
d="M38 82l-9 11l58 71q20 -20 32 -30q73 -55 146 -55q51 0 85.5 29.5t34.5 75.5q0 70 -120 122l-61 27t-57.5 32t-54 42.5t-33.5 52.5t-14 69q0 81 63 135q64 54 163 54q43 0 86 -12q43 -10 78 -42q36 -32 36 -76v-58h-92v33q0 27 -32 45.5t-77 18.5q-55 0 -89.5 -27
t-34.5 -68q0 -17 7.5 -32.5t17 -26t29.5 -22.5t34 -18.5l41 -19t41 -19.5q39 -18 82 -44q40 -23 64.5 -65.5t24.5 -95.5q0 -85 -61 -143t-163 -58q-83 0 -148 37q-55 31 -77 57zM304 755h-76l73 127h98z" />
    <glyph glyph-name="sacute" unicode="&#x15b;" horiz-adv-x="449" 
d="M36 68l-8 9l49 65q6 -8 27 -26q60 -49 127 -49q38 0 62.5 17.5t24.5 47.5q0 41 -97 78q-37 14 -62 26t-55 32t-45.5 47.5t-15.5 60.5q0 67 52 104.5t136 37.5q59 0 112 -24q54 -22 54 -74v-48h-87v25q0 19 -23.5 31t-52.5 12q-45 0 -70 -15.5t-25 -44.5q0 -44 98 -80
q38 -13 62.5 -24t55 -30.5t46 -47t15.5 -62.5q0 -67 -53 -108q-52 -40 -133 -40q-49 0 -93 16t-65 31.5t-36 32.5zM263 580h-76l73 127h98z" />
    <glyph glyph-name="Scircumflex" unicode="&#x15c;" horiz-adv-x="525" 
d="M38 82l-9 11l58 71q20 -20 32 -30q73 -55 146 -55q51 0 85.5 29.5t34.5 75.5q0 70 -120 122l-61 27t-57.5 32t-54 42.5t-33.5 52.5t-14 69q0 81 63 135q64 54 163 54q43 0 86 -12q43 -10 78 -42q36 -32 36 -76v-58h-92v33q0 27 -32 45.5t-77 18.5q-55 0 -89.5 -27
t-34.5 -68q0 -17 7.5 -32.5t17 -26t29.5 -22.5t34 -18.5l41 -19t41 -19.5q39 -18 82 -44q40 -23 64.5 -65.5t24.5 -95.5q0 -85 -61 -143t-163 -58q-83 0 -148 37q-55 31 -77 57zM214 755h-78l87 127h89l88 -127h-79l-52 80h-2z" />
    <glyph glyph-name="scircumflex" unicode="&#x15d;" horiz-adv-x="449" 
d="M36 68l-8 9l49 65q6 -8 27 -26q60 -49 127 -49q38 0 62.5 17.5t24.5 47.5q0 41 -97 78q-37 14 -62 26t-55 32t-45.5 47.5t-15.5 60.5q0 67 52 104.5t136 37.5q59 0 112 -24q54 -22 54 -74v-48h-87v25q0 19 -23.5 31t-52.5 12q-45 0 -70 -15.5t-25 -44.5q0 -44 98 -80
q38 -13 62.5 -24t55 -30.5t46 -47t15.5 -62.5q0 -67 -53 -108q-52 -40 -133 -40q-49 0 -93 16t-65 31.5t-36 32.5zM173 580h-78l87 127h89l88 -127h-79l-52 80h-2z" />
    <glyph glyph-name="Scedilla" unicode="&#x15e;" horiz-adv-x="526" 
d="M51 70l-21 23l58 71q20 -20 32 -30q70 -55 145 -55q52 0 86.5 29t34.5 76q0 40 -35.5 70.5t-85 52.5t-99.5 47t-85.5 69.5t-35.5 105.5q0 80 63 134q64 55 163 55q43 0 86 -12q43 -10 79 -42t36 -76v-58h-92v33q0 27 -33 45.5t-76 18.5q-56 0 -90 -26.5t-34 -68.5
q0 -17 7.5 -32.5t17 -26t29.5 -22.5t34 -18.5l41 -19t41 -19.5q39 -18 82 -44q40 -23 64.5 -65.5t24.5 -95.5q0 -79 -56 -137q-56 -57 -148 -63l-8 -39q33 -4 52.5 -23.5t19.5 -49.5q0 -41 -28.5 -62.5t-73.5 -21.5q-35 0 -48 5l-7 2v58q18 -7 42 -7q48 0 48 31t-53 31
l-18 -1l20 78q-57 6 -108 32q-50 26 -71 48z" />
    <glyph glyph-name="scedilla" unicode="&#x15f;" horiz-adv-x="450" 
d="M44 59l-16 18l49 65q6 -8 27 -26q60 -49 127 -49q38 0 62.5 17.5t24.5 47.5q0 41 -97 78q-37 14 -62 26t-55 32t-45.5 47.5t-15.5 60.5q0 67 52 104.5t136 37.5q59 0 112 -24q54 -22 54 -74v-48h-87v25q0 19 -23.5 31t-52.5 12q-45 0 -70 -15.5t-25 -44.5q0 -44 98 -80
q38 -13 62.5 -24t55 -30.5t46 -47t15.5 -62.5q0 -63 -48.5 -103.5t-125.5 -44.5l-8 -38q32 -4 51.5 -23.5t19.5 -49.5q0 -41 -28 -62.5t-74 -21.5q-33 0 -48 5l-7 2v58q18 -7 43 -7q47 0 47 31t-53 31l-17 -1l20 79q-45 6 -85.5 27t-58.5 41z" />
    <glyph glyph-name="Scaron" unicode="&#x160;" horiz-adv-x="525" 
d="M38 82l-9 11l58 71q20 -20 32 -30q73 -55 146 -55q51 0 85.5 29.5t34.5 75.5q0 70 -120 122l-61 27t-57.5 32t-54 42.5t-33.5 52.5t-14 69q0 81 63 135q64 54 163 54q43 0 86 -12q43 -10 78 -42q36 -32 36 -76v-58h-92v33q0 27 -32 45.5t-77 18.5q-55 0 -89.5 -27
t-34.5 -68q0 -17 7.5 -32.5t17 -26t29.5 -22.5t34 -18.5l41 -19t41 -19.5q39 -18 82 -44q40 -23 64.5 -65.5t24.5 -95.5q0 -85 -61 -143t-163 -58q-83 0 -148 37q-55 31 -77 57zM312 755h-89l-88 127h79l52 -81h2l52 81h80z" />
    <glyph glyph-name="scaron" unicode="&#x161;" horiz-adv-x="449" 
d="M36 68l-8 9l49 65q6 -8 27 -26q60 -49 127 -49q38 0 62.5 17.5t24.5 47.5q0 41 -97 78q-37 14 -62 26t-55 32t-45.5 47.5t-15.5 60.5q0 67 52 104.5t136 37.5q59 0 112 -24q54 -22 54 -74v-48h-87v25q0 19 -23.5 31t-52.5 12q-45 0 -70 -15.5t-25 -44.5q0 -44 98 -80
q38 -13 62.5 -24t55 -30.5t46 -47t15.5 -62.5q0 -67 -53 -108q-52 -40 -133 -40q-49 0 -93 16t-65 31.5t-36 32.5zM271 580h-89l-88 127h79l52 -81h2l52 81h80z" />
    <glyph glyph-name="Tcommaaccent" unicode="&#x162;" horiz-adv-x="632" 
d="M288 0h-22v620h-141q-22 0 -22 -22v-45h-90v93q0 34 13 47t47 13h486q34 0 47 -13t13 -47v-93h-89v45q0 22 -22 22h-142v-620h-24l-10 -50q32 -4 51.5 -23.5t19.5 -49.5q0 -41 -28 -62.5t-73 -21.5q-34 0 -49 5l-7 2v58q18 -7 43 -7q47 0 47 31t-52 31l-18 -1z" />
    <glyph glyph-name="tcommaaccent" unicode="&#x163;" horiz-adv-x="328" 
d="M83 185v243h-66v78h68v139h95v-139h122v-78h-122v-232q0 -36 11.5 -60.5t30 -35t34 -14.5t32.5 -4l23 2v-86q-18 -2 -34 -2q-25 0 -53 5l-10 -51q33 -4 52.5 -23.5t19.5 -49.5q0 -41 -28.5 -62.5t-73.5 -21.5q-35 0 -48 5l-7 2v58q18 -7 42 -7q48 0 48 31t-53 31l-18 -1
l27 104q-92 44 -92 169z" />
    <glyph glyph-name="Tcaron" unicode="&#x164;" horiz-adv-x="632" 
d="M361 755h-89l-88 127h79l52 -81h2l52 81h80zM366 0h-100v620h-141q-22 0 -22 -22v-45h-90v93q0 34 13 47t47 13h486q34 0 47 -13t13 -47v-93h-89v45q0 22 -22 22h-142v-620z" />
    <glyph glyph-name="tcaron" unicode="&#x165;" horiz-adv-x="328" 
d="M83 185v243h-66v78h68v139h95v-139h122v-78h-122v-232q0 -36 11.5 -60.5t30 -35t34 -14.5t32.5 -4l23 2v-86q-18 -2 -34 -2q-54 0 -96 18q-98 42 -98 171zM243 706h79q6 -27 6 -49q0 -41 -24 -92h-69q19 48 19 82q0 28 -11 59z" />
    <glyph glyph-name="Tbar" unicode="&#x166;" horiz-adv-x="646" 
d="M372 0h-100v310h-154v76h154v234h-141q-22 0 -22 -22v-45h-90v93q0 34 13.5 47t47.5 13h485q34 0 47 -13t13 -47v-93h-89v45q0 22 -22 22h-142v-234h161v-76h-161v-310z" />
    <glyph glyph-name="tbar" unicode="&#x167;" horiz-adv-x="331" 
d="M84 185v74h-66v68h66v101h-66v78h68v139h95v-139h121v-78h-121v-101h121v-68h-121v-66q0 -45 20 -71.5t41.5 -33t45.5 -6.5l23 2v-86q-18 -2 -34 -2q-53 0 -95 18q-98 42 -98 171z" />
    <glyph glyph-name="Utilde" unicode="&#x168;" horiz-adv-x="720" 
d="M256 756h-66q0 127 103 127q26 0 50.5 -17t44 -34t33.5 -17q20 0 30.5 19t10.5 46h65q0 -127 -103 -127q-32 0 -72.5 34t-55.5 34q-40 0 -40 -65zM91 247v351q0 22 -22 22h-43v86h100q34 0 49.5 -15t15.5 -49v-391q0 -79 45.5 -124t123.5 -45t123.5 46t45.5 124v390
q0 34 15 49t49 15h101v-86h-43q-22 0 -22 -22v-351q0 -116 -74 -188q-74 -71 -194 -71t-196 71q-74 72 -74 188z" />
    <glyph glyph-name="utilde" unicode="&#x169;" horiz-adv-x="618" 
d="M197 581h-66q0 127 103 127q26 0 50.5 -17t44 -34t33.5 -17q20 0 30.5 19t10.5 46h65q0 -127 -103 -127q-32 0 -72.5 34t-55.5 34q-40 0 -40 -65zM80 182v219q0 22 -22 22h-41v83h95q34 0 49 -15t15 -47v-240q0 -63 21.5 -94.5t73.5 -31.5q75 0 120 56t45 135v237h97
v-401q0 -22 22 -22h41v-83h-93q-64 0 -64 56v19l1 29h-2q-20 -44 -69 -80t-117 -36q-172 0 -172 194z" />
    <glyph glyph-name="Umacron" unicode="&#x16a;" horiz-adv-x="720" 
d="M91 247v351q0 22 -22 22h-43v86h100q34 0 49.5 -15t15.5 -49v-391q0 -79 45.5 -124t123.5 -45t123.5 46t45.5 124v390q0 34 15 49t49 15h101v-86h-43q-22 0 -22 -22v-351q0 -116 -74 -188q-74 -71 -194 -71t-196 71q-74 72 -74 188zM488 784h-254v68h254v-68z" />
    <glyph glyph-name="umacron" unicode="&#x16b;" horiz-adv-x="618" 
d="M80 182v219q0 22 -22 22h-41v83h95q34 0 49 -15t15 -47v-240q0 -63 21.5 -94.5t73.5 -31.5q75 0 120 56t45 135v237h97v-401q0 -22 22 -22h41v-83h-93q-64 0 -64 56v19l1 29h-2q-20 -44 -69 -80t-117 -36q-172 0 -172 194zM428 609h-254v68h254v-68z" />
    <glyph glyph-name="Ubreve" unicode="&#x16c;" horiz-adv-x="720" 
d="M91 247v351q0 22 -22 22h-43v86h100q34 0 49.5 -15t15.5 -49v-391q0 -79 45.5 -124t123.5 -45t123.5 46t45.5 124v390q0 34 15 49t49 15h101v-86h-43q-22 0 -22 -22v-351q0 -116 -74 -188q-74 -71 -194 -71t-196 71q-74 72 -74 188zM360 751q-53 0 -90.5 32t-37.5 85v14
h67v-13q-3 -43 37 -56q39 -13 67 11q21 17 19 46v12h66v-14q0 -53 -37 -85t-91 -32z" />
    <glyph glyph-name="ubreve" unicode="&#x16d;" horiz-adv-x="618" 
d="M80 182v219q0 22 -22 22h-41v83h95q34 0 49 -15t15 -47v-240q0 -63 21.5 -94.5t73.5 -31.5q75 0 120 56t45 135v237h97v-401q0 -22 22 -22h41v-83h-93q-64 0 -64 56v19l1 29h-2q-20 -44 -69 -80t-117 -36q-172 0 -172 194zM300 576q-53 0 -90.5 32t-37.5 85v14h67v-13
q-3 -43 37 -56q39 -13 67 11q21 17 19 46v12h66v-14q0 -53 -37 -85t-91 -32z" />
    <glyph glyph-name="Uring" unicode="&#x16e;" horiz-adv-x="720" 
d="M91 247v351q0 22 -22 22h-43v86h100q34 0 49.5 -15t15.5 -49v-391q0 -79 45.5 -124t123.5 -45t123.5 46t45.5 124v390q0 34 15 49t49 15h101v-86h-43q-22 0 -22 -22v-351q0 -116 -74 -188q-74 -71 -194 -71t-196 71q-74 72 -74 188zM360 743q-34 0 -57.5 20.5t-23.5 53.5
t23.5 54t57.5 21t57.5 -21t23.5 -54q0 -32 -23.5 -53t-57.5 -21zM394 817q0 22 -17 31t-34 0t-17 -31q-2 -20 16 -28.5t36 0t16 28.5z" />
    <glyph glyph-name="uring" unicode="&#x16f;" horiz-adv-x="618" 
d="M80 182v219q0 22 -22 22h-41v83h95q34 0 49 -15t15 -47v-240q0 -63 21.5 -94.5t73.5 -31.5q75 0 120 56t45 135v237h97v-401q0 -22 22 -22h41v-83h-93q-64 0 -64 56v19l1 29h-2q-20 -44 -69 -80t-117 -36q-172 0 -172 194zM301 568q-34 0 -57.5 21t-23.5 53q0 33 23.5 54
t57.5 21t57.5 -21t23.5 -54q0 -32 -23.5 -53t-57.5 -21zM335 642q0 22 -17 31t-34 0t-17 -31q-2 -20 16 -28.5t36 0t16 28.5z" />
    <glyph glyph-name="Uhungarumlaut" unicode="&#x170;" horiz-adv-x="720" 
d="M91 247v351q0 22 -22 22h-43v86h100q34 0 49.5 -15t15.5 -49v-391q0 -79 45.5 -124t123.5 -45t123.5 46t45.5 124v390q0 34 15 49t49 15h101v-86h-43q-22 0 -22 -22v-351q0 -116 -74 -188q-74 -71 -194 -71t-196 71q-74 72 -74 188zM470 755h-75l72 127h99zM325 755h-83
l69 127h84z" />
    <glyph glyph-name="uhungarumlaut" unicode="&#x171;" horiz-adv-x="618" 
d="M80 182v219q0 22 -22 22h-41v83h95q34 0 49 -15t15 -47v-240q0 -63 21.5 -94.5t73.5 -31.5q75 0 120 56t45 135v237h97v-401q0 -22 22 -22h41v-83h-93q-64 0 -64 56v19l1 29h-2q-20 -44 -69 -80t-117 -36q-172 0 -172 194zM410 580h-75l72 127h99zM265 580h-83l69 127h84
z" />
    <glyph glyph-name="Uogonek" unicode="&#x172;" horiz-adv-x="722" 
d="M91 247v351q0 22 -22 22h-43v86h100q34 0 49.5 -15t15.5 -49v-391q0 -79 45.5 -124t123.5 -45t123.5 46t45.5 124v390q0 34 15 49t49 15h101v-86h-43q-22 0 -22 -22v-355q0 -149 -140 -230q-86 -50 -86 -102q0 -16 13 -27t29 -14l14 -2l-23 -75q-10 0 -40 9
q-76 22 -76 86q0 58 52 100v2q-7 -1 -21 -1q-115 0 -188 72q-72 72 -72 186z" />
    <glyph glyph-name="uogonek" unicode="&#x173;" horiz-adv-x="618" 
d="M80 182v219q0 22 -22 22h-41v83h96q38 0 51 -18t13 -65v-219q0 -64 21 -95t73 -31q75 0 120 56t45 135v237h97v-401q0 -22 22 -22h41v-83q-64 -52 -64 -89q0 -16 13 -27t29 -14l13 -2l-23 -75q-10 0 -40 9q-76 22 -76 86q0 60 67 111v2h-19q-57 0 -57 55v19l2 29h-3
q-6 -15 -26 -40q-56 -76 -159 -76q-87 0 -130 47.5t-43 146.5z" />
    <glyph glyph-name="Wcircumflex" unicode="&#x174;" horiz-adv-x="967" 
d="M337 0h-117l-154 598q-6 22 -35 22h-15v86h58q40 0 59 -12.5t27 -45.5l110 -454l13 -75h2q11 52 17 75l143 510h89l132 -510l15 -75h2q4 33 14 75l110 454q8 33 27 45.5t59 12.5h58v-86h-15q-29 0 -35 -22l-154 -598h-117l-120 446l-20 97h-2q-10 -55 -22 -96zM435 755
h-78l87 127h89l88 -127h-79l-52 80h-2z" />
    <glyph glyph-name="wcircumflex" unicode="&#x175;" horiz-adv-x="845" 
d="M303 0h-109l-133 403q-8 20 -32 20h-14v83h61q34 0 50 -11t26 -43l89 -301l12 -54h2q5 23 14 54l109 353h90l109 -353l13 -54h2q3 21 13 54l89 301q10 32 25.5 43t49.5 11h61v-83h-14q-23 0 -31 -20l-133 -403h-109l-105 325l-14 55h-2q-5 -26 -14 -55zM369 580h-78
l87 127h89l88 -127h-79l-52 80h-2z" />
    <glyph glyph-name="Ycircumflex" unicode="&#x176;" horiz-adv-x="606" 
d="M353 0h-100v308l-179 287q-13 25 -43 25h-20v86h46q37 0 56 -10.5t39 -43.5l107 -178l43 -79h2q13 27 43 79l106 178q20 33 39 43.5t56 10.5h47v-86h-20q-29 0 -44 -25l-178 -287v-308zM249 755h-78l87 127h89l88 -127h-79l-52 80h-2z" />
    <glyph glyph-name="ycircumflex" unicode="&#x177;" horiz-adv-x="543" 
d="M2 -160l40 70q0 -1 9 -9.5t27.5 -17.5t37.5 -9q58 0 89 73l23 55l-173 401q-9 20 -31 20h-13v83h57q31 0 46 -10.5t27 -40.5l114 -285l18 -61h2q7 33 17 61l106 285q10 29 26 40t47 11h58v-83h-13q-23 0 -32 -20l-199 -494q-24 -57 -67 -88t-97 -31q-31 0 -61.5 12
t-44.5 26zM216 580h-78l87 127h89l88 -127h-79l-52 80h-2z" />
    <glyph glyph-name="Ydieresis" unicode="&#x178;" horiz-adv-x="606" 
d="M353 0h-100v308l-179 287q-13 25 -43 25h-20v86h46q37 0 56 -10.5t39 -43.5l107 -178l43 -79h2q13 27 43 79l106 178q20 33 39 43.5t56 10.5h47v-86h-20q-29 0 -44 -25l-178 -287v-308zM423 781h-73v101h73v-101zM259 781h-74v101h74v-101z" />
    <glyph glyph-name="Zacute" unicode="&#x179;" horiz-adv-x="600" 
d="M506 0h-474v66l348 490q27 39 46 58l7 7v2q-20 -3 -53 -3h-227q-22 0 -22 -22v-45h-91v89q0 34 15 49t49 15h452v-65l-348 -491q-23 -33 -46 -56l-7 -8v-2q26 2 53 2h249q22 0 22 22v45h91v-89q0 -34 -15 -49t-49 -15zM346 755h-76l73 127h98z" />
    <glyph glyph-name="zacute" unicode="&#x17a;" horiz-adv-x="515" 
d="M421 0h-384v56l259 320l41 47v2q-20 -2 -48 -2h-139q-22 0 -22 -22v-34h-89v75q0 34 15.5 49t49.5 15h361v-56l-259 -321l-42 -46v-2q22 2 49 2h161q22 0 22 22v34h89v-75q0 -34 -15 -49t-49 -15zM300 580h-76l73 127h98z" />
    <glyph glyph-name="Zdotaccent" unicode="&#x17b;" horiz-adv-x="600" 
d="M506 0h-474v66l348 490q27 39 46 58l7 7v2q-20 -3 -53 -3h-227q-22 0 -22 -22v-45h-91v89q0 34 15 49t49 15h452v-65l-348 -491q-23 -33 -46 -56l-7 -8v-2q26 2 53 2h249q22 0 22 22v45h91v-89q0 -34 -15 -49t-49 -15zM353 781h-87v101h87v-101z" />
    <glyph glyph-name="zdotaccent" unicode="&#x17c;" horiz-adv-x="515" 
d="M421 0h-384v56l259 320l41 47v2q-20 -2 -48 -2h-139q-22 0 -22 -22v-34h-89v75q0 34 15.5 49t49.5 15h361v-56l-259 -321l-42 -46v-2q22 2 49 2h161q22 0 22 22v34h89v-75q0 -34 -15 -49t-49 -15zM307 606h-87v101h87v-101z" />
    <glyph glyph-name="Zcaron" unicode="&#x17d;" horiz-adv-x="600" 
d="M506 0h-474v66l348 490q27 39 46 58l7 7v2q-20 -3 -53 -3h-227q-22 0 -22 -22v-45h-91v89q0 34 15 49t49 15h452v-65l-348 -491q-23 -33 -46 -56l-7 -8v-2q26 2 53 2h249q22 0 22 22v45h91v-89q0 -34 -15 -49t-49 -15zM354 755h-89l-88 127h79l52 -81h2l52 81h80z" />
    <glyph glyph-name="zcaron" unicode="&#x17e;" horiz-adv-x="515" 
d="M421 0h-384v56l259 320l41 47v2q-20 -2 -48 -2h-139q-22 0 -22 -22v-34h-89v75q0 34 15.5 49t49.5 15h361v-56l-259 -321l-42 -46v-2q22 2 49 2h161q22 0 22 22v34h89v-75q0 -34 -15 -49t-49 -15zM308 580h-89l-88 127h79l52 -81h2l52 81h80z" />
    <glyph glyph-name="longs" unicode="&#x17f;" horiz-adv-x="262" 
d="M182 0h-97v428h-63v78h63v17q0 94 48 138q54 50 143 50l37 -3v-83q-14 2 -25 2q-25 0 -46 -6t-40.5 -32t-19.5 -69v-520z" />
    <glyph glyph-name="florin" unicode="&#x192;" 
d="M74 -54l8 84q14 -2 24 -2q17 0 33 4t35 14.5t31.5 34t15.5 58.5l18 211h-75v78h83l8 95q5 48 22 83.5t38.5 55t50 31t50.5 15t46 3.5l37 -3l-8 -83q-14 2 -25 2q-17 0 -33 -4t-35 -14.5t-31.5 -34t-15.5 -58.5l-8 -88h105v-78h-112l-19 -218q-7 -92 -61 -138
q-60 -52 -145 -50z" />
    <glyph glyph-name="Scommaaccent" unicode="&#x218;" horiz-adv-x="525" 
d="M38 82l-9 11l58 71q20 -20 32 -30q73 -55 146 -55q51 0 85.5 29.5t34.5 75.5q0 70 -120 122l-61 27t-57.5 32t-54 42.5t-33.5 52.5t-14 69q0 81 63 135q64 54 163 54q43 0 86 -12q43 -10 78 -42q36 -32 36 -76v-58h-92v33q0 27 -32 45.5t-77 18.5q-55 0 -89.5 -27
t-34.5 -68q0 -17 7.5 -32.5t17 -26t29.5 -22.5t34 -18.5l41 -19t41 -19.5q39 -18 82 -44q40 -23 64.5 -65.5t24.5 -95.5q0 -85 -61 -143t-163 -58q-83 0 -148 37q-55 31 -77 57zM222 -59h79q6 -27 6 -49q0 -41 -24 -92h-69q19 48 19 82q0 28 -11 59z" />
    <glyph glyph-name="scommaaccent" unicode="&#x219;" horiz-adv-x="449" 
d="M36 68l-8 9l49 65q6 -8 27 -26q60 -49 127 -49q38 0 62.5 17.5t24.5 47.5q0 41 -97 78q-37 14 -62 26t-55 32t-45.5 47.5t-15.5 60.5q0 67 52 104.5t136 37.5q59 0 112 -24q54 -22 54 -74v-48h-87v25q0 19 -23.5 31t-52.5 12q-45 0 -70 -15.5t-25 -44.5q0 -44 98 -80
q38 -13 62.5 -24t55 -30.5t46 -47t15.5 -62.5q0 -67 -53 -108q-52 -40 -133 -40q-49 0 -93 16t-65 31.5t-36 32.5zM185 -59h79q6 -27 6 -49q0 -41 -24 -92h-69q19 48 19 82q0 28 -11 59z" />
    <glyph glyph-name="uni021A" unicode="&#x21a;" horiz-adv-x="632" 
d="M366 0h-100v620h-141q-22 0 -22 -22v-45h-90v93q0 34 13 47t47 13h486q34 0 47 -13t13 -47v-93h-89v45q0 22 -22 22h-142v-620zM273 -59h79q6 -27 6 -49q0 -41 -24 -92h-69q19 48 19 82q0 28 -11 59z" />
    <glyph glyph-name="uni021B" unicode="&#x21b;" horiz-adv-x="328" 
d="M83 185v243h-66v78h68v139h95v-139h122v-78h-122v-232q0 -36 11.5 -60.5t30 -35t34 -14.5t32.5 -4l23 2v-86q-18 -2 -34 -2q-54 0 -96 18q-98 42 -98 171zM151 -59h79q6 -27 6 -49q0 -41 -24 -92h-69q19 48 19 82q0 28 -11 59z" />
    <glyph glyph-name="circumflex" unicode="&#x2c6;" horiz-adv-x="485" 
d="M189 755h-78l87 127h89l88 -127h-79l-52 80h-2z" />
    <glyph glyph-name="caron" unicode="&#x2c7;" horiz-adv-x="488" 
d="M287 755h-89l-88 127h79l52 -81h2l52 81h80z" />
    <glyph glyph-name="breve" unicode="&#x2d8;" horiz-adv-x="501" 
d="M243 751q-53 0 -90.5 32t-37.5 85v14h67v-13q0 -29 17.5 -44.5t43.5 -15.5q27 0 44.5 16t17.5 45v12h66v-14q0 -53 -37 -85t-91 -32z" />
    <glyph glyph-name="dotaccent" unicode="&#x2d9;" horiz-adv-x="256" 
d="M171 781h-87v101h87v-101z" />
    <glyph glyph-name="ring" unicode="&#x2da;" horiz-adv-x="380" 
d="M190 743q-34 0 -57.5 20.5t-23.5 53.5t23.5 54t57.5 21t57.5 -21t23.5 -54q0 -32 -23.5 -53t-57.5 -21zM224 817q0 22 -17 31t-34 0t-17 -31q-2 -20 16 -28.5t36 0t16 28.5z" />
    <glyph glyph-name="ogonek" unicode="&#x2db;" horiz-adv-x="361" 
d="M108 -112q0 39 28 73.5t54 49.5l9 6l69 -7l-22 -16q-10 -9 -34 -36q-21 -27 -21 -47q0 -16 13 -27t29 -14l14 -2l-23 -75q-10 0 -40 9q-76 22 -76 86z" />
    <glyph glyph-name="tilde" unicode="&#x2dc;" horiz-adv-x="519" 
d="M158 756h-66q0 127 103 127q26 0 50.5 -17t44 -34t33.5 -17q20 0 30.5 19t10.5 46h65q0 -127 -103 -127q-32 0 -72.5 34t-55.5 34q-40 0 -40 -65z" />
    <glyph glyph-name="hungarumlaut" unicode="&#x2dd;" horiz-adv-x="535" 
d="M327 755h-75l72 127h99zM182 755h-83l69 127h84z" />
    <glyph glyph-name="uni0400" unicode="&#x400;" horiz-adv-x="571" 
d="M98 64v556h-65v86h416q34 0 49 -15t15 -49v-89h-92v45q0 22 -22 22h-201v-221h248v-86h-248v-205q0 -22 22 -22h207q22 0 22 22v45h91v-89q0 -34 -15 -49t-49 -15h-313q-34 0 -49.5 15t-15.5 49zM361 755h-76l-95 127h98z" />
    <glyph glyph-name="uni0401" unicode="&#x401;" horiz-adv-x="571" 
d="M98 64v556h-65v86h416q34 0 49 -15t15 -49v-89h-92v45q0 22 -22 22h-201v-221h248v-86h-248v-205q0 -22 22 -22h207q22 0 22 22v45h91v-89q0 -34 -15 -49t-49 -15h-313q-34 0 -49.5 15t-15.5 49zM422 781h-73v101h73v-101zM258 781h-74v101h74v-101z" />
    <glyph glyph-name="uni0402" unicode="&#x402;" horiz-adv-x="747" 
d="M331 0h-100v624h-112q-22 0 -22 -22v-49h-83v93q0 34 13.5 47t47.5 13h485v-82h-229v-201l-1 -31h2q85 41 175 41q104 0 162.5 -58t58.5 -156q0 -108 -62 -170q-61 -61 -160 -61q-7 0 -27 1l-20 1v84q8 -2 34 -2q55 0 96 33t41 108q0 62 -36.5 97t-106.5 35
q-72 0 -136 -31l-20 -10v-304z" />
    <glyph glyph-name="uni0403" unicode="&#x403;" horiz-adv-x="514" 
d="M198 0h-100v620h-65v86h404q34 0 49 -15t15 -49v-89h-91v45q0 22 -22 22h-190v-620zM310 755h-76l73 127h98z" />
    <glyph glyph-name="uni0404" unicode="&#x404;" horiz-adv-x="694" 
d="M510 309h-368q12 -102 81 -166q71 -65 171 -65q59 0 116 23q52 21 80 46l25 23l52 -68q-8 -12 -46 -40q-23 -17 -56 -34q-78 -40 -173 -40q-156 0 -257 107t-101 262q0 153 101 257t250 104q41 0 85 -8.5t86.5 -25.5t70 -48t27.5 -71v-65h-92v40q0 42 -55 64
q-55 24 -117 24q-102 0 -171 -66q-68 -65 -79 -171h370v-82z" />
    <glyph glyph-name="uni0405" unicode="&#x405;" horiz-adv-x="525" 
d="M38 82l-9 11l58 71q20 -20 32 -30q73 -55 146 -55q51 0 85.5 29.5t34.5 75.5q0 70 -120 122l-61 27t-57.5 32t-54 42.5t-33.5 52.5t-14 69q0 81 63 135q64 54 163 54q43 0 86 -12q43 -10 78 -42q36 -32 36 -76v-58h-92v33q0 27 -32 45.5t-77 18.5q-55 0 -89.5 -27
t-34.5 -68q0 -17 7.5 -32.5t17 -26t29.5 -22.5t34 -18.5l41 -19t41 -19.5q39 -18 82 -44q40 -23 64.5 -65.5t24.5 -95.5q0 -85 -61 -143t-163 -58q-83 0 -148 37q-55 31 -77 57z" />
    <glyph glyph-name="uni0406" unicode="&#x406;" horiz-adv-x="315" 
d="M274 0h-233v86h69v534h-69v86h233v-86h-68v-534h68v-86z" />
    <glyph glyph-name="uni0407" unicode="&#x407;" horiz-adv-x="315" 
d="M274 0h-233v86h69v534h-69v86h233v-86h-68v-534h68v-86zM277 781h-73v101h73v-101zM113 781h-74v101h74v-101z" />
    <glyph glyph-name="uni0408" unicode="&#x408;" horiz-adv-x="511" 
d="M16 203v35h100v-27q0 -65 31 -97t81 -32q48 0 79 32t31 93v391q0 22 -22 22h-173v86h230q34 0 49.5 -15t15.5 -49v-439q0 -107 -62 -161t-149 -54t-149 54q-62 56 -62 161z" />
    <glyph glyph-name="uni0409" unicode="&#x409;" horiz-adv-x="933" 
d="M10 -7v91q59 6 94 59q34 53 48.5 143t14.5 237v97h-66v86h391q34 0 49.5 -15t15.5 -49v-227h124q45 0 84.5 -10.5t73.5 -33t54 -63t20 -95.5q0 -103 -66 -159q-66 -54 -170 -54h-156q-34 0 -49 15t-15 49v534q0 22 -22 22h-169v-97q0 -89 -4 -146q-9 -150 -43 -230
q-31 -72 -80.5 -111t-128.5 -43zM557 331v-225q0 -22 22 -22h103q60 0 94 34t34 92t-33 89.5t-94 31.5h-126z" />
    <glyph glyph-name="uni040A" unicode="&#x40a;" horiz-adv-x="1002" 
d="M199 0h-100v598q0 22 -22 22h-43v86h101q34 0 49 -15t15 -49v-230h328v294h100v-294h127q96 0 162 -48q67 -48 67 -150q0 -104 -66 -159q-65 -55 -169 -55h-157q-34 0 -49 15t-15 49v264h-328v-328zM627 328v-222q0 -22 22 -22h105q59 0 92.5 35t33.5 93q0 54 -33 85
t-92 31h-128z" />
    <glyph glyph-name="uni040B" unicode="&#x40b;" horiz-adv-x="783" 
d="M331 0h-100v624h-112q-22 0 -22 -22v-49h-83v93q0 34 13.5 47t47.5 13h485v-82h-229v-205l-2 -32h2q88 47 182 47q99 0 149 -53t50 -153v-124q0 -18 22 -18h43v-86h-100q-34 0 -49.5 15t-15.5 49v143q0 70 -29.5 103.5t-91.5 33.5q-89 0 -160 -50v-294z" />
    <glyph glyph-name="uni040C" unicode="&#x40c;" horiz-adv-x="612" 
d="M199 0h-100v598q0 22 -22 22h-43v86h101q34 0 49 -15t15 -49v-233h67q44 0 58 24l157 273h112l-171 -293q-18 -32 -34 -43l-6 -3v-2q20 -5 40 -44l106 -212q11 -23 50 -23h19v-86h-55q-43 0 -62.5 10.5t-35.5 42.5l-122 245q-14 26 -63 26h-60v-324zM355 755h-76l73 127
h98z" />
    <glyph glyph-name="uni040D" unicode="&#x40d;" horiz-adv-x="763" 
d="M198 0h-99v598q0 22 -22 22h-43v86h101q34 0 49 -15t15 -49v-387l-6 -101h2q37 64 63 102l308 450h98v-598q0 -22 22 -22h43v-86h-100q-34 0 -49.5 15t-15.5 49v388l6 103h-2q-37 -69 -60 -103zM429 755h-76l-95 127h98z" />
    <glyph glyph-name="uni040E" unicode="&#x40e;" horiz-adv-x="622" 
d="M82 36l46 74q35 -31 74 -31q30 0 47 18t33 61l-219 440q-10 22 -33 22h-20v86h61q33 0 49 -12t32 -46l143 -305l37 -87h2q12 38 30 87l111 305q13 35 29 46.5t54 11.5h54v-86h-16q-25 0 -34 -21l-192 -486q-50 -125 -156 -125q-39 0 -77 15.5t-55 32.5zM312 739
q-62 0 -105 34t-43 94v15h78v-14q0 -30 20.5 -48t49.5 -18q30 0 50.5 18t20.5 49v13h77v-15q0 -60 -43 -94t-105 -34z" />
    <glyph glyph-name="uni040F" unicode="&#x40f;" horiz-adv-x="740" 
d="M98 64v534q0 22 -22 22h-43v86h101q34 0 49 -15t15 -49v-534q0 -22 22 -22h300q22 0 22 22v534q0 34 15 49t49 15h101v-86h-43q-22 0 -22 -22v-534q0 -34 -15.5 -49t-49.5 -15h-162v-140h-90v140h-162q-34 0 -49.5 15t-15.5 49z" />
    <glyph glyph-name="uni0410" unicode="&#x410;" horiz-adv-x="665" 
d="M67 0h-55v86h14q26 0 33 22l221 598h105l221 -598q7 -22 33 -22h14v-86h-55q-37 0 -53.5 11.5t-29.5 46.5l-53 145h-259l-53 -145q-13 -35 -29.5 -46.5t-53.5 -11.5zM304 502l-77 -215h211l-77 215l-28 99h-2q-15 -61 -27 -99z" />
    <glyph glyph-name="uni0411" unicode="&#x411;" horiz-adv-x="594" 
d="M98 64v556h-65v86h413q34 0 49 -15t15 -49v-89h-91v45q0 22 -22 22h-199v-204h131q99 0 168 -51t69 -154q0 -102 -67 -157q-67 -54 -170 -54h-166q-34 0 -49.5 15t-15.5 49zM198 332v-226q0 -22 22 -22h115q59 0 93.5 34t34.5 91t-34.5 90t-93.5 33h-137z" />
    <glyph glyph-name="uni0412" unicode="&#x412;" horiz-adv-x="615" 
d="M98 64v556h-65v86h309q92 0 148.5 -48.5t56.5 -131.5q0 -53 -24 -93t-64 -59v-2q53 -16 84.5 -63t31.5 -108q0 -96 -65 -149q-64 -52 -162 -52h-185q-34 0 -49.5 15t-15.5 49zM197 620v-211h146q47 0 75 29.5t28 77.5t-28 76t-76 28h-145zM197 327v-219q0 -22 22 -22h135
q54 0 86.5 33t32.5 87t-32.5 87.5t-86.5 33.5h-157z" />
    <glyph glyph-name="uni0413" unicode="&#x413;" horiz-adv-x="514" 
d="M198 0h-100v620h-65v86h404q34 0 49 -15t15 -49v-89h-91v45q0 22 -22 22h-190v-620z" />
    <glyph glyph-name="uni0414" unicode="&#x414;" horiz-adv-x="722" 
d="M10 -140v163q0 34 14.5 48.5t48.5 14.5h16q62 87 85.5 201t23.5 274v59h-64v86h415q34 0 49 -15t15 -49v-556h22q34 0 48.5 -14.5t14.5 -48.5v-163h-92v118q0 22 -21 22h-462q-21 0 -21 -22v-118h-92zM193 86h321v512q0 22 -22 22h-198v-65q0 -315 -101 -469z" />
    <glyph glyph-name="uni0415" unicode="&#x415;" horiz-adv-x="571" 
d="M98 64v556h-65v86h416q34 0 49 -15t15 -49v-89h-92v45q0 22 -22 22h-201v-221h248v-86h-248v-205q0 -22 22 -22h207q22 0 22 22v45h91v-89q0 -34 -15 -49t-49 -15h-313q-34 0 -49.5 15t-15.5 49z" />
    <glyph glyph-name="uni0416" unicode="&#x416;" horiz-adv-x="884" 
d="M117 0h-110l188 320q19 33 39 42l6 4v2q-20 8 -39 44l-102 185q-12 23 -50 23h-20v86h50q42 0 60 -10t36 -43l119 -218q9 -17 22.5 -22.5t38.5 -5.5h39v299h96v-299h37q47 0 63 28l119 218q18 33 36 43t60 10h50v-86h-20q-37 0 -51 -23l-101 -185q-19 -33 -33 -41l-6 -3
v-2q24 -10 44 -46l189 -320h-110l-172 297q-17 29 -57 29h-48v-326h-96v326h-48q-40 0 -57 -29z" />
    <glyph glyph-name="uni0417" unicode="&#x417;" horiz-adv-x="529" 
d="M20 82l59 70q29 -32 73.5 -53.5t89.5 -21.5q63 0 104.5 34.5t41.5 91.5q0 54 -37 86t-94 32h-84v82h72q52 0 87 33t35 83t-31.5 80t-89.5 30q-46 0 -78.5 -19.5t-32.5 -47.5v-29h-92v55q0 43 35 75q64 55 176 55q101 0 157.5 -50t56.5 -134q0 -108 -102 -160v-2
q58 -16 91.5 -62.5t33.5 -110.5q0 -94 -69 -152q-68 -59 -178 -59q-137 0 -224 94z" />
    <glyph glyph-name="uni0418" unicode="&#x418;" horiz-adv-x="763" 
d="M198 0h-99v598q0 22 -22 22h-43v86h101q34 0 49 -15t15 -49v-387l-6 -101h2q37 64 63 102l308 450h98v-598q0 -22 22 -22h43v-86h-100q-34 0 -49.5 15t-15.5 49v388l6 103h-2q-37 -69 -60 -103z" />
    <glyph glyph-name="uni0419" unicode="&#x419;" horiz-adv-x="763" 
d="M198 0h-99v598q0 22 -22 22h-43v86h101q34 0 49 -15t15 -49v-387l-6 -101h2q37 64 63 102l308 450h98v-598q0 -22 22 -22h43v-86h-100q-34 0 -49.5 15t-15.5 49v388l6 103h-2q-37 -69 -60 -103zM378 739q-62 0 -105 34t-43 94v15h78v-14q0 -30 20.5 -48t49.5 -18
q30 0 50.5 18t20.5 49v13h77v-15q0 -60 -43 -94t-105 -34z" />
    <glyph glyph-name="uni041A" unicode="&#x41a;" horiz-adv-x="612" 
d="M199 0h-100v598q0 22 -22 22h-43v86h101q34 0 49 -15t15 -49v-233h67q44 0 58 24l157 273h112l-171 -293q-18 -32 -34 -43l-6 -3v-2q20 -5 40 -44l106 -212q11 -23 50 -23h19v-86h-55q-43 0 -62.5 10.5t-35.5 42.5l-122 245q-14 26 -63 26h-60v-324z" />
    <glyph glyph-name="uni041B" unicode="&#x41b;" horiz-adv-x="683" 
d="M10 -5v91q86 12 123.5 121.5t37.5 334.5v78h-66v86h415q34 0 49 -15t15 -49v-534q0 -22 22 -22h43v-86h-101q-34 0 -49 15t-15 49v534q0 22 -22 22h-196v-79q0 -273 -59.5 -405.5t-196.5 -140.5z" />
    <glyph glyph-name="uni041C" unicode="&#x41c;" horiz-adv-x="862" 
d="M112 0h-89v86h33q21 0 22 22l48 598h103l166 -373l35 -90h2q15 44 35 90l166 373h103l48 -598q1 -22 22 -22h34v-86h-89q-33 0 -47.5 14t-17.5 50l-28 373l-2 104h-2q-20 -64 -38 -104l-143 -310h-84l-142 310q-11 21 -33 87l-5 18h-2q1 -58 -2 -105l-29 -373
q-2 -34 -16.5 -49t-47.5 -15z" />
    <glyph glyph-name="uni041D" unicode="&#x41d;" horiz-adv-x="757" 
d="M199 0h-100v598q0 22 -22 22h-43v86h101q34 0 49 -15t15 -49v-247h359v247q0 34 15.5 49t49.5 15h100v-86h-43q-22 0 -22 -22v-598h-100v310h-359v-310z" />
    <glyph glyph-name="uni041E" unicode="&#x41e;" horiz-adv-x="793" 
d="M34 358q0 152 104 256q106 104 258 104t258 -104q105 -104 105 -256q0 -156 -105 -263t-258 -107t-258 107q-104 107 -104 263zM138 358q0 -116 75 -196t183 -80t183 80q76 79 76 196q0 114 -76 190q-75 77 -183 77t-183 -77t-75 -190z" />
    <glyph glyph-name="uni041F" unicode="&#x41f;" horiz-adv-x="745" 
d="M198 0h-100v620h-65v86h549q34 0 49 -15t15 -49v-534q0 -22 22 -22h43v-86h-100q-34 0 -49.5 15t-15.5 49v534q0 22 -22 22h-326v-620z" />
    <glyph glyph-name="uni0420" unicode="&#x420;" horiz-adv-x="585" 
d="M198 0h-100v620h-65v86h311q99 0 160 -61q62 -60 62 -160t-62 -162t-160 -62h-146v-261zM198 620v-273h130q63 0 99 37t36 101q0 63 -35.5 99t-98.5 36h-131z" />
    <glyph glyph-name="uni0421" unicode="&#x421;" horiz-adv-x="698" 
d="M35 359q0 152 101 256q102 103 253 103q39 0 82 -8.5t85.5 -25.5t70 -48t27.5 -71v-69h-92v40q0 41 -55 65t-116 24q-108 0 -180 -74q-72 -73 -72 -192q0 -117 73 -197q74 -80 182 -80q51 0 99.5 17.5t73 34.5t41.5 34l9 10l54 -72q-9 -12 -47 -41q-24 -19 -56 -36
q-82 -41 -175 -41q-157 0 -257 106q-101 107 -101 265z" />
    <glyph glyph-name="uni0422" unicode="&#x422;" horiz-adv-x="632" 
d="M366 0h-100v620h-141q-22 0 -22 -22v-45h-90v93q0 34 13 47t47 13h486q34 0 47 -13t13 -47v-93h-89v45q0 22 -22 22h-142v-620z" />
    <glyph glyph-name="uni0423" unicode="&#x423;" horiz-adv-x="622" 
d="M82 36l46 74q35 -31 74 -31q30 0 47 18t33 61l-219 440q-10 22 -33 22h-20v86h61q33 0 49 -12t32 -46l143 -305l37 -87h2q12 38 30 87l111 305q13 35 29 46.5t54 11.5h54v-86h-16q-25 0 -34 -21l-192 -486q-50 -125 -156 -125q-39 0 -77 15.5t-55 32.5z" />
    <glyph glyph-name="uni0424" unicode="&#x424;" horiz-adv-x="820" 
d="M31 376q0 133 89 213q91 80 240 80v81h100v-81q150 0 238 -81q90 -79 90 -212q0 -135 -89 -216t-239 -81v-91h-100v91q-150 0 -240 81q-89 81 -89 216zM460 584v-420q105 0 165 56.5t60 155.5q0 97 -60 152.5t-165 55.5zM134 376q0 -99 60 -155.5t166 -56.5v420
q-106 0 -166 -55.5t-60 -152.5z" />
    <glyph glyph-name="uni0425" unicode="&#x425;" horiz-adv-x="595" 
d="M124 0h-112l222 364l-142 231q-10 15 -19 20t-28 5h-25v86h58q39 0 57.5 -10.5t37.5 -43.5l79 -134l45 -83h2q17 38 43 83l80 134q18 33 37.5 43.5t56.5 10.5h59v-86h-26q-31 0 -46 -25l-143 -231l223 -364h-113l-129 215l-44 80h-2q-24 -48 -43 -81z" />
    <glyph glyph-name="uni0426" unicode="&#x426;" horiz-adv-x="751" 
d="M98 64v534q0 22 -22 22h-43v86h101q34 0 49 -15t15 -49v-534q0 -22 22 -22h323v620h100v-620h19q34 0 48.5 -14.5t14.5 -48.5v-163h-90v118q0 22 -20 22h-452q-34 0 -49.5 15t-15.5 49z" />
    <glyph glyph-name="uni0427" unicode="&#x427;" horiz-adv-x="651" 
d="M296 270q-108 0 -162.5 53t-54.5 153v122q0 22 -22 22h-43v86h101q34 0 49 -15t15 -49v-144q0 -70 33.5 -103.5t106.5 -33.5q85 0 150 48v297h100v-706h-100v286l2 33h-2q-88 -49 -173 -49z" />
    <glyph glyph-name="uni0428" unicode="&#x428;" horiz-adv-x="1015" 
d="M98 64v534q0 22 -22 22h-43v86h101q34 0 49 -15t15 -49v-534q0 -22 22 -22h237v620h100v-620h238q22 0 22 22v534q0 34 15 49t49 15h101v-86h-43q-22 0 -22 -22v-534q0 -34 -15.5 -49t-49.5 -15h-689q-34 0 -49.5 15t-15.5 49z" />
    <glyph glyph-name="uni0429" unicode="&#x429;" horiz-adv-x="1029" 
d="M98 64v534q0 22 -22 22h-43v86h101q34 0 49 -15t15 -49v-534q0 -22 22 -22h237v620h100v-620h259v620h100v-620h28q34 0 48.5 -14.5t14.5 -48.5v-163h-90v118q0 22 -20 22h-734q-34 0 -49.5 15t-15.5 49z" />
    <glyph glyph-name="uni042A" unicode="&#x42a;" horiz-adv-x="734" 
d="M245 64v556h-120q-22 0 -22 -22v-45h-89v93q0 34 13 47t47 13h336v-86h-65v-184h143q100 0 162 -55q64 -54 64 -161t-68 -164q-68 -56 -174 -56h-163q-34 0 -49 15t-15 49zM345 350v-242q0 -22 22 -22h111q61 0 97 35.5t36 97.5q0 63 -35 97t-98 34h-133z" />
    <glyph glyph-name="uni042B" unicode="&#x42b;" horiz-adv-x="855" 
d="M656 64v642h100v-598q0 -22 22 -22h43v-86h-101q-34 0 -49 15t-15 49zM98 64v534q0 22 -22 22h-43v86h101q34 0 49 -15t15 -49v-202h135q99 0 161 -55q64 -55 64 -160q0 -110 -67 -168q-67 -57 -174 -57h-154q-34 0 -49.5 15t-15.5 49zM198 354v-246q0 -22 22 -22h103
q61 0 96.5 36.5t35.5 99.5q0 62 -35.5 97t-96.5 35h-125z" />
    <glyph glyph-name="uni042C" unicode="&#x42c;" horiz-adv-x="583" 
d="M98 64v534q0 22 -22 22h-43v86h101q34 0 49 -15t15 -49v-202h139q102 0 163.5 -56t61.5 -159q0 -110 -67 -168q-67 -57 -174 -57h-158q-34 0 -49.5 15t-15.5 49zM198 354v-246q0 -22 22 -22h107q61 0 96.5 36.5t35.5 101.5q0 62 -35 96t-97 34h-129z" />
    <glyph glyph-name="uni042D" unicode="&#x42d;" horiz-adv-x="695" 
d="M28 97l52 70q27 -30 89 -60q63 -29 133 -29q102 0 172 66q69 65 80 167h-364v82h364q-7 103 -76 169q-68 66 -171 66q-63 0 -120 -24q-56 -23 -56 -64v-40h-92v65q0 68 81 110q82 43 185 43q159 0 256 -102q99 -101 99 -254q0 -156 -101 -266q-101 -108 -257 -108
q-89 0 -163 34q-73 34 -111 75z" />
    <glyph glyph-name="uni042E" unicode="&#x42e;" horiz-adv-x="1057" 
d="M199 0h-100v598q0 22 -22 22h-43v86h101q34 0 49 -15t15 -49v-247h120q10 139 110 231q101 92 239 92q150 0 252 -104q103 -103 103 -256q0 -157 -103 -263q-102 -107 -252 -107q-138 0 -235 91q-99 93 -112 231h-122v-310zM418 358q0 -117 73 -196q74 -80 177 -80
q104 0 178 80q73 79 73 196q0 114 -73 190q-74 77 -178 77q-103 0 -177 -77q-73 -76 -73 -190z" />
    <glyph glyph-name="uni042F" unicode="&#x42f;" horiz-adv-x="623" 
d="M68 0h-49v86h13q37 0 51 23l93 157q13 21 30 31l6 3v2q-10 0 -31.5 10t-49 30t-48 60.5t-20.5 91.5q0 97 64 154q64 58 165 58h298v-86h-65v-620h-100v271h-84q-30 0 -43.5 -7.5t-28.5 -34.5l-103 -175q-20 -35 -38 -44q-17 -10 -60 -10zM303 357h122v263h-122
q-63 0 -100 -34.5t-37 -95.5q0 -60 38 -96.5t99 -36.5z" />
    <glyph glyph-name="uni0430" unicode="&#x430;" horiz-adv-x="529" 
d="M28 138q0 177 306 177h22v7q0 64 -26.5 91.5t-85.5 27.5q-27 0 -56 -9q-27 -8 -27 -30v-29h-92v51q0 27 19.5 48t50.5 30q55 16 103 16q113 0 162 -50t49 -148v-215q0 -22 22 -22h41v-83h-92q-62 0 -62 58l1 30h-2q1 0 -4.5 -10.5t-18 -25t-30.5 -29t-47 -25t-63 -10.5
q-71 0 -120 40q-50 41 -50 110zM125 147q0 -34 26 -58t69 -24q60 0 98 50t38 111v19h-26q-205 0 -205 -98z" />
    <glyph glyph-name="uni0431" unicode="&#x431;" horiz-adv-x="569" 
d="M288 -12q-66 0 -114 24.5t-75.5 68t-40.5 97.5t-13 120q0 132 37 207t135 119l111 49q35 15 46.5 25.5t11.5 27.5v24h94v-44q0 -46 -23 -67q-25 -21 -81 -43l-119 -51q-116 -50 -119 -179h1q61 94 176 94q96 0 156 -64q61 -62 61 -169q0 -108 -69 -174q-68 -65 -175 -65z
M147 227q0 -71 40.5 -113.5t102.5 -42.5t102 42t40 112q0 71 -39.5 112.5t-100.5 41.5q-64 0 -104.5 -43t-40.5 -109z" />
    <glyph glyph-name="uni0432" unicode="&#x432;" horiz-adv-x="519" 
d="M83 55v368h-63v83h272q79 0 123.5 -34t44.5 -96q0 -81 -71 -110v-2q45 -10 70.5 -43t25.5 -77q0 -68 -50 -106t-136 -38h-160q-30 0 -43 13t-13 42zM180 438v-145h95q41 0 64 20t23 54q0 71 -90 71h-92zM180 228v-139q0 -20 19 -20h84q103 0 103 80q0 38 -27 58.5
t-76 20.5h-103z" />
    <glyph glyph-name="uni0433" unicode="&#x433;" horiz-adv-x="439" 
d="M182 0h-97v423h-63v83h335q35 0 50 -14t15 -48v-77h-81v34q0 22 -22 22h-137v-423z" />
    <glyph glyph-name="uni0434" unicode="&#x434;" horiz-adv-x="590" 
d="M10 -120v138q0 33 14 48t47 15h8q84 97 84 319v23h-62v83h335q34 0 49 -15t15 -49v-361h16q33 0 47 -15t14 -48v-138h-89v98q0 22 -21 22h-347q-21 0 -21 -22v-98h-89zM177 81h226v320q0 22 -22 22h-126v-22q0 -221 -78 -320z" />
    <glyph glyph-name="uni0435" unicode="&#x435;" horiz-adv-x="539" 
d="M33 253q0 119 72 192t182 73q103 0 160 -67q58 -67 58 -170q0 -19 -3 -38h-369q5 -79 54 -126q49 -45 121 -45q81 0 149 59l41 -71q-36 -33 -89.5 -52.5t-106.5 -19.5q-118 0 -194 75q-75 77 -75 190zM137 307h271q-2 63 -36 99t-87 36q-58 0 -98 -36.5t-50 -98.5z" />
    <glyph glyph-name="uni0436" unicode="&#x436;" horiz-adv-x="753" 
d="M129 0h-113l121 208q22 37 49 46l9 3v2q-24 7 -40 40l-52 104q-9 20 -45 20h-26v83h60q38 0 54.5 -9t30.5 -38l65 -131q16 -30 58 -30h30v208h94v-208h29q41 0 58 30l65 131q14 29 30.5 38t54.5 9h60v-83h-26q-35 0 -45 -20l-52 -104q-14 -30 -34 -37l-6 -3v-2
q33 -7 58 -49l122 -208h-113l-100 176q-24 40 -71 40h-30v-216h-94v216h-30q-47 0 -72 -40z" />
    <glyph glyph-name="uni0437" unicode="&#x437;" horiz-adv-x="441" 
d="M23 62l46 64q59 -59 134 -59q47 0 76 22t29 62q0 76 -103 76h-64v67h51q99 0 99 77q0 36 -23.5 55t-64.5 19q-33 0 -57.5 -13t-24.5 -36v-23h-81v47q0 47 50 73q49 25 121 25q83 0 130.5 -36t47.5 -101q0 -43 -20.5 -72t-54.5 -42v-2q41 -10 66 -41.5t25 -78.5
q0 -74 -57 -116q-56 -41 -139 -41q-106 0 -186 74z" />
    <glyph glyph-name="uni0438" unicode="&#x438;" horiz-adv-x="619" 
d="M180 0h-96v401q0 22 -21 22h-40v83h89q34 0 49 -14.5t15 -48.5v-241q0 -53 -4 -70h2q15 28 47 70l218 304h96v-401q0 -22 21 -22h40v-83h-89q-34 0 -49 15t-15 49v240q0 43 4 71h-2q-6 -16 -47 -71z" />
    <glyph glyph-name="uni0439" unicode="&#x439;" horiz-adv-x="619" 
d="M180 0h-96v401q0 22 -21 22h-40v83h89q34 0 49 -14.5t15 -48.5v-241q0 -53 -4 -70h2q15 28 47 70l218 304h96v-401q0 -22 21 -22h40v-83h-89q-34 0 -49 15t-15 49v240q0 43 4 71h-2q-6 -16 -47 -71zM308 564q-62 0 -105 34t-43 94v15h78v-14q0 -30 20.5 -48t49.5 -18
q30 0 50.5 18t20.5 49v13h77v-15q0 -60 -43 -94t-105 -34z" />
    <glyph glyph-name="uni043A" unicode="&#x43a;" horiz-adv-x="533" 
d="M182 0h-97v401q0 22 -22 22h-41v83h96q34 0 49 -15t15 -49v-135h42q38 0 53 23l121 176h109l-139 -201q-20 -29 -34 -35l-4 -3v-2q19 -7 38 -38l74 -124q12 -20 44 -20h30v-83h-70q-36 0 -52 9t-32 38l-90 157q-12 20 -49 20h-41v-224z" />
    <glyph glyph-name="uni043B" unicode="&#x43b;" horiz-adv-x="545" 
d="M13 -3v86q32 1 56.5 29.5t37.5 76.5q25 93 25 195v39h-63v83h327q34 0 49 -15t15 -49v-337q0 -22 22 -22h41v-83h-95q-34 0 -49.5 15t-15.5 49v337q0 22 -22 22h-116v-40q0 -37 -3 -74q-9 -106 -34 -168q-53 -147 -175 -144z" />
    <glyph glyph-name="uni043C" unicode="&#x43c;" horiz-adv-x="727" 
d="M93 0h-74v83h26q18 0 19 19l35 404h106l132 -290l26 -63h1l27 63l131 290h106l35 -404q1 -19 19 -19h26v-83h-74q-29 0 -41 12.5t-14 42.5l-19 239l-2 90h-2q-11 -36 -30 -76l-118 -247h-92l-116 247l-29 77h-2q0 -49 -2 -91l-19 -239q-2 -30 -14 -42.5t-41 -12.5z" />
    <glyph glyph-name="uni043D" unicode="&#x43d;" horiz-adv-x="620" 
d="M182 0h-97v401q0 22 -22 22h-41v83h96q34 0 49 -15t15 -49v-143h256v207h97v-401q0 -22 22 -22h40v-83h-95q-34 0 -49 15t-15 49v154h-256v-218z" />
    <glyph glyph-name="uni043E" unicode="&#x43e;" horiz-adv-x="611" 
d="M305 518q115 0 194 -75t79 -189q0 -113 -80 -190q-79 -76 -193 -76t-193 76t-79 190t79 189q80 75 193 75zM305 72q73 0 123 51q51 53 51 131t-51 129q-50 51 -123 51q-72 0 -123 -51t-51 -129q0 -77 51 -130q51 -52 123 -52z" />
    <glyph glyph-name="uni043F" unicode="&#x43f;" horiz-adv-x="607" 
d="M182 0h-97v423h-63v83h437q34 0 49 -15t15 -49v-337q0 -22 22 -22h41v-83h-96q-34 0 -49 15t-15 49v337q0 22 -22 22h-222v-423z" />
    <glyph glyph-name="uni0440" unicode="&#x440;" horiz-adv-x="601" 
d="M182 -200h-97v601q0 22 -22 22h-41v83h91q62 0 62 -51l-1 -27h2q11 18 23 31q51 59 145 59q102 0 162 -73q61 -73 61 -192q0 -118 -65 -192q-64 -73 -165 -73q-57 0 -96 24t-54 48l-5 9h-2q2 -24 2 -44v-225zM179 251q0 -72 38 -127q39 -53 106 -53q63 0 104 49.5
t41 131.5q0 81 -39.5 131t-103.5 50q-65 0 -105.5 -47t-40.5 -135z" />
    <glyph glyph-name="uni0441" unicode="&#x441;" horiz-adv-x="530" 
d="M33 253q0 113 75 189q76 76 197 76q37 0 75.5 -9t72.5 -36t34 -66v-52h-88v28q0 25 -31 38q-31 14 -63 14q-75 0 -125 -51q-49 -49 -49 -130q0 -83 52 -132q52 -48 127 -48q41 0 81 17q38 17 58 35l18 18l41 -69q-9 -12 -34 -30q-72 -57 -171 -57q-119 0 -195 75
q-75 75 -75 190z" />
    <glyph glyph-name="uni0442" unicode="&#x442;" horiz-adv-x="532" 
d="M314 0h-96v423h-98q-22 0 -22 -22v-34h-80v77q0 33 15 47.5t49 14.5h368q34 0 49 -14.5t15 -47.5v-77h-80v34q0 22 -22 22h-98v-423z" />
    <glyph glyph-name="uni0443" unicode="&#x443;" horiz-adv-x="543" 
d="M122 -210q-31 0 -61.5 12t-44.5 26l-13 12l40 70q1 -3 10 -11t27.5 -16.5t36.5 -8.5q58 0 89 73l23 55l-173 401q-9 20 -31 20h-13v83h57q31 0 46 -10.5t27 -40.5l114 -285l18 -61h2q7 33 17 61l106 285q10 29 26 40t47 11h58v-83h-13q-23 0 -32 -20l-199 -494
q-24 -57 -67 -88t-97 -31z" />
    <glyph glyph-name="uni0444" unicode="&#x444;" horiz-adv-x="733" 
d="M318 506v95q0 22 -22 22h-41v83h96q34 0 49 -15t15 -49v-136q129 -2 206 -70q78 -69 78 -182t-79 -183q-77 -69 -205 -71v-200h-97v200q-128 2 -206 71q-78 71 -78 183q0 113 78 182q77 68 206 70zM415 426v-347q84 0 134.5 48t50.5 127q0 78 -50.5 125t-134.5 47z
M132 254q0 -78 51 -126.5t135 -48.5v347q-84 0 -135 -47t-51 -125z" />
    <glyph glyph-name="uni0445" unicode="&#x445;" horiz-adv-x="506" 
d="M130 0h-110l171 260l-97 144q-13 19 -42 19h-29v83h62q35 0 52 -9.5t37 -41.5l61 -98l16 -32h2q4 8 17 32l61 98q20 32 37 41.5t52 9.5h62v-83h-29q-29 0 -42 -18l-97 -145l171 -260h-110l-106 165l-16 27h-2l-15 -27z" />
    <glyph glyph-name="uni0446" unicode="&#x446;" horiz-adv-x="606" 
d="M84 63v338q0 22 -22 22h-41v83h96q34 0 49 -15t15 -49v-339q0 -22 21 -22h216v425h97v-425h16q33 0 47.5 -15t14.5 -48v-138h-90v98q0 22 -20 22h-335q-34 0 -49 14.5t-15 48.5z" />
    <glyph glyph-name="uni0447" unicode="&#x447;" horiz-adv-x="541" 
d="M238 176q-79 0 -120.5 39t-41.5 113v73q0 22 -23 22h-36v83h91q34 0 48.5 -16t14.5 -48v-87q0 -47 22 -71t74 -24q61 0 113 36v210h97v-506h-97v183l1 32h-1q-58 -39 -142 -39z" />
    <glyph glyph-name="uni0448" unicode="&#x448;" horiz-adv-x="829" 
d="M84 64v337q0 22 -22 22h-41v83h96q34 0 49 -15t15 -49v-339q0 -22 21 -22h163v425h97v-425h165q21 0 21 22v339q0 34 15 49t49 15h96v-83h-41q-22 0 -22 -22v-337q0 -34 -15 -49t-49 -15h-533q-34 0 -49 15t-15 49z" />
    <glyph glyph-name="uni0449" unicode="&#x449;" horiz-adv-x="836" 
d="M84 64v337q0 22 -22 22h-41v83h96q34 0 49 -15t15 -49v-341q0 -22 21 -22h163v427h97v-427h186v427h97v-427h21q33 0 47 -15t14 -48v-136h-89v98q0 22 -22 22h-568q-34 0 -49 15t-15 49z" />
    <glyph glyph-name="uni044A" unicode="&#x44a;" horiz-adv-x="597" 
d="M193 55v351q0 22 -20 22h-56q-21 0 -21 -22v-38h-78v76q0 33 15 47.5t49 14.5h144q34 0 49 -15t15 -49v-120h102q86 0 135.5 -43.5t49.5 -118.5q0 -73 -51 -116.5t-134 -43.5h-143q-30 0 -43 13t-13 42zM290 252v-162q0 -20 19 -20h71q46 0 72.5 25t26.5 66
q0 42 -26 66.5t-73 24.5h-90z" />
    <glyph glyph-name="uni044B" unicode="&#x44b;" horiz-adv-x="724" 
d="M542 64v442h97v-401q0 -22 22 -22h40v-83h-95q-34 0 -49 15t-15 49zM84 55v346q0 22 -22 22h-41v83h96q64 0 64 -58v-127h100q86 0 134 -43t48 -118q0 -72 -50.5 -116t-131.5 -44h-142q-29 0 -42 13t-13 42zM181 251v-161q0 -20 19 -20h69q45 0 70.5 24.5t25.5 66.5
t-25 66t-71 24h-88z" />
    <glyph glyph-name="uni044C" unicode="&#x44c;" horiz-adv-x="485" 
d="M84 55v346q0 22 -22 22h-41v83h96q63 0 64 -58v-127h102q84 0 132 -43t48 -118q0 -72 -49.5 -116t-130.5 -44h-144q-29 0 -42 13t-13 42zM181 251v-161q0 -20 19 -20h71q44 0 69.5 24.5t25.5 66.5t-25 66t-70 24h-90z" />
    <glyph glyph-name="uni044D" unicode="&#x44d;" horiz-adv-x="530" 
d="M26 64l38 69q64 -66 160 -66q68 0 118 42q50 43 59 109h-238v68h239q-9 69 -57 111t-113 42q-42 0 -78 -15q-35 -14 -35 -38v-25h-83v42q0 48 55 81q55 34 143 34q116 0 189 -76q74 -76 74 -188q0 -116 -76 -191q-75 -75 -193 -75q-123 0 -202 76z" />
    <glyph glyph-name="uni044E" unicode="&#x44e;" horiz-adv-x="829" 
d="M182 0h-97v401q0 22 -22 22h-41v83h96q34 0 49 -15t15 -49v-149h94q10 98 82 162q72 63 173 63q111 0 188 -75t77 -189q0 -113 -77 -190q-76 -76 -187 -76q-101 0 -174 64q-73 65 -83 165h-93v-217zM366 254q0 -78 48 -131q48 -51 118 -51t117 51q48 53 48 131t-48 129
q-47 51 -117 51t-118 -51t-48 -129z" />
    <glyph glyph-name="uni044F" unicode="&#x44f;" horiz-adv-x="524" 
d="M68 0h-46v83h16q33 0 47 20l57 79q12 17 26 26v2q-52 12 -82 49t-30 93q0 69 47.5 111.5t122.5 42.5h276v-83h-63v-423h-97v184h-56q-20 0 -29.5 -6t-24.5 -28l-74 -103q-22 -31 -38 -39t-52 -8zM257 254h85v185h-88q-48 0 -74.5 -25t-26.5 -67t28.5 -67.5t75.5 -25.5z
" />
    <glyph glyph-name="uni0450" unicode="&#x450;" horiz-adv-x="539" 
d="M33 253q0 119 72 192t182 73q103 0 160 -68q58 -67 58 -169q0 -17 -3 -41h-369q4 -79 54 -124q50 -44 121 -44q11 0 21.5 1t20.5 3.5t18 5t17.5 7l15 7t14.5 8t12 7t11.5 7.5t9.5 6l9 7l41 -71q-18 -15 -40 -28q-24 -14 -68 -29t-88 -15q-118 0 -194 75q-75 77 -75 190z
M137 310h271q-2 62 -36 97.5t-87 35.5q-58 0 -98 -35.5t-50 -97.5zM337 580h-76l-95 127h98z" />
    <glyph glyph-name="uni0451" unicode="&#x451;" horiz-adv-x="539" 
d="M33 253q0 119 72 192t182 73q103 0 160 -68q58 -67 58 -169q0 -17 -3 -41h-369q4 -79 54 -124q50 -44 121 -44q11 0 21.5 1t20.5 3.5t18 5t17.5 7l15 7t14.5 8t12 7t11.5 7.5t9.5 6l9 7l41 -71q-18 -15 -40 -28q-24 -14 -68 -29t-88 -15q-118 0 -194 75q-75 77 -75 190z
M137 310h271q-2 62 -36 97.5t-87 35.5q-58 0 -98 -35.5t-50 -97.5zM400 606h-73v101h73v-101zM236 606h-74v101h74v-101z" />
    <glyph glyph-name="uni0452" unicode="&#x452;" horiz-adv-x="584" 
d="M164 0h-97v553h-63v71h63v82h97v-82h206v-71h-206v-164l-2 -42h2q23 50 67.5 81.5t108.5 31.5q90 0 137.5 -49t47.5 -145v-287q0 -118 -75 -158q-57 -31 -119 -31l-34 3v83q12 -2 22 -2q18 0 34 4t34.5 14.5t29.5 34.5t11 59v258q0 126 -107 126q-55 0 -94 -33t-55 -91
q-8 -29 -8 -67v-179z" />
    <glyph glyph-name="uni0453" unicode="&#x453;" horiz-adv-x="439" 
d="M182 0h-97v423h-63v83h335q35 0 50 -14t15 -48v-77h-81v34q0 22 -22 22h-137v-423zM262 580h-76l73 127h98z" />
    <glyph glyph-name="uni0454" unicode="&#x454;" horiz-adv-x="529" 
d="M33 253q0 113 75 189q76 76 197 76q37 0 75.5 -9t72.5 -36t34 -66v-46h-83v26q0 25 -33 38q-33 15 -70 15q-69 0 -117 -41t-56 -110h243v-68h-243q9 -69 58.5 -111.5t119.5 -42.5q42 0 83.5 15.5t62.5 34.5l18 17l38 -67q-14 -14 -34 -28q-73 -51 -171 -51
q-119 0 -195 75q-75 75 -75 190z" />
    <glyph glyph-name="uni0455" unicode="&#x455;" horiz-adv-x="449" 
d="M36 68l-8 9l49 65q6 -8 27 -26q60 -49 127 -49q38 0 62.5 17.5t24.5 47.5q0 41 -97 78q-37 14 -62 26t-55 32t-45.5 47.5t-15.5 60.5q0 67 52 104.5t136 37.5q59 0 112 -24q54 -22 54 -74v-48h-87v25q0 19 -23.5 31t-52.5 12q-45 0 -70 -15.5t-25 -44.5q0 -44 98 -80
q38 -13 62.5 -24t55 -30.5t46 -47t15.5 -62.5q0 -67 -53 -108q-52 -40 -133 -40q-49 0 -93 16t-65 31.5t-36 32.5z" />
    <glyph glyph-name="uni0456" unicode="&#x456;" horiz-adv-x="265" 
d="M173 605h-87v101h87v-101zM84 64v337q0 22 -22 22h-41v83h95q34 0 49.5 -15t15.5 -49v-337q0 -22 22 -22h41v-83h-96q-34 0 -49 15t-15 49z" />
    <glyph glyph-name="uni0457" unicode="&#x457;" horiz-adv-x="265" 
d="M229 605h-73v101h73v-101zM90 605h-74v101h74v-101zM84 64v337q0 22 -22 22h-41v83h95q34 0 49.5 -15t15.5 -49v-337q0 -22 22 -22h41v-83h-96q-34 0 -49 15t-15 49z" />
    <glyph glyph-name="uni0458" unicode="&#x458;" horiz-adv-x="245" 
d="M173 605h-87v101h87v-101zM84 -11v412q0 22 -22 22h-41v83h96q34 0 49 -15t15 -49v-459q0 -94 -50 -139q-56 -52 -144 -50l-34 2v83q6 -1 22 -1q18 0 34 4t34.5 14t29.5 34t11 59z" />
    <glyph glyph-name="uni0459" unicode="&#x459;" horiz-adv-x="742" 
d="M10 -4v86q43 1 72.5 52t41 117t11.5 137v35h-63v83h299q64 0 64 -58v-130h100q89 0 138 -42.5t49 -117.5q0 -72 -49 -115t-138 -43h-142q-29 0 -42 13t-13 42v350q0 22 -22 22h-89v-36q0 -108 -23 -200q-19 -87 -67.5 -140t-126.5 -55zM435 247v-157q0 -20 19 -20h71
q48 0 75 24t27 64q0 42 -26.5 65.5t-76.5 23.5h-89z" />
    <glyph glyph-name="uni045A" unicode="&#x45a;" horiz-adv-x="819" 
d="M182 0h-97v401q0 22 -22 22h-41v83h96q34 0 49 -15t15 -49v-128h236v192h97v-191h100q85 0 134 -42t49 -112q0 -75 -49.5 -118t-133.5 -43h-142q-29 0 -42 13t-13 42v182h-236v-237zM515 242v-152q0 -20 19 -20h71q47 0 72.5 23.5t25.5 65.5q0 39 -25.5 61t-72.5 22h-90z
" />
    <glyph glyph-name="uni045B" unicode="&#x45b;" horiz-adv-x="607" 
d="M164 0h-97v553h-63v71h63v82h97v-82h206v-71h-206v-163l-2 -42h2q20 44 69 78q50 35 118 35q174 0 174 -194v-162q0 -22 22 -22h41v-83h-96q-34 0 -49 15t-15 49v181q0 65 -20.5 96t-74.5 31q-56 0 -100.5 -35t-60.5 -90q-8 -29 -8 -67v-180z" />
    <glyph glyph-name="uni045C" unicode="&#x45c;" horiz-adv-x="533" 
d="M182 0h-97v401q0 22 -22 22h-41v83h96q34 0 49 -15t15 -49v-135h42q38 0 53 23l121 176h109l-139 -201q-20 -29 -34 -35l-4 -3v-2q19 -7 38 -38l74 -124q12 -20 44 -20h30v-83h-70q-36 0 -52 9t-32 38l-90 157q-12 20 -49 20h-41v-224zM306 580h-76l73 127h98z" />
    <glyph glyph-name="uni045D" unicode="&#x45d;" horiz-adv-x="619" 
d="M180 0h-96v401q0 22 -21 22h-40v83h89q34 0 49 -14.5t15 -48.5v-241q0 -53 -4 -70h2q15 28 47 70l218 304h96v-401q0 -22 21 -22h40v-83h-89q-34 0 -49 15t-15 49v240q0 43 4 71h-2q-6 -16 -47 -71zM370 580h-76l-95 127h98z" />
    <glyph glyph-name="uni045E" unicode="&#x45e;" horiz-adv-x="543" 
d="M122 -210q-31 0 -61.5 12t-44.5 26l-13 12l40 70q1 -3 10 -11t27.5 -16.5t36.5 -8.5q58 0 89 73l23 55l-173 401q-9 20 -31 20h-13v83h57q31 0 46 -10.5t27 -40.5l114 -285l18 -61h2q7 33 17 61l106 285q10 29 26 40t47 11h58v-83h-13q-23 0 -32 -20l-199 -494
q-24 -57 -67 -88t-97 -31zM274 564q-62 0 -105 34t-43 94v15h78v-14q0 -30 20.5 -48t49.5 -18q30 0 50.5 18t20.5 49v13h77v-15q0 -60 -43 -94t-105 -34z" />
    <glyph glyph-name="uni045F" unicode="&#x45f;" horiz-adv-x="591" 
d="M84 63v338q0 22 -22 22h-41v83h96q34 0 49 -15t15 -49v-339q0 -22 21 -22h187q21 0 21 22v339q0 34 15.5 49t49.5 15h95v-83h-41q-22 0 -22 -22v-338q0 -34 -14.5 -48.5t-48.5 -14.5h-105v-120h-87v120h-104q-34 0 -49 14.5t-15 48.5z" />
    <glyph glyph-name="uni0462" unicode="&#x462;" horiz-adv-x="679" 
d="M188 64v461h-176v87h176v94h100v-94h194v-87h-194v-111h141q97 0 164 -50q67 -49 67 -149q0 -105 -67 -160t-164 -55h-176q-34 0 -49.5 15t-15.5 49zM288 330v-224q0 -22 22 -22h117q60 0 95 34.5t35 94.5q0 56 -35 86.5t-95 30.5h-139z" />
    <glyph glyph-name="uni0463" unicode="&#x463;" horiz-adv-x="537" 
d="M131 55v404h-121v73h121v174h97v-174h165v-73h-165v-134h105q86 0 135.5 -43.5t49.5 -116.5q0 -77 -50.5 -121t-134.5 -44h-147q-29 0 -42 13t-13 42zM228 255v-165q0 -20 19 -20h74q45 0 72 25.5t27 67.5q0 43 -26 67.5t-73 24.5h-93z" />
    <glyph glyph-name="uni0472" unicode="&#x472;" horiz-adv-x="793" 
d="M34 358q0 153 103 256q104 104 259 104t259 -104t104 -256q0 -157 -104 -264q-103 -106 -259 -106t-259 106t-103 264zM655 317h-517q14 -105 85 -172t173 -67t173 67q72 68 86 172zM137 396h518q-14 102 -86 167q-72 66 -173 66q-100 0 -174 -66q-71 -65 -85 -167z" />
    <glyph glyph-name="uni0473" unicode="&#x473;" horiz-adv-x="609" 
d="M32 254q0 113 79 188q79 76 193 76t194 -75q79 -75 79 -189t-79 -190t-193 -76q-115 0 -194 76t-79 190zM483 225h-356q11 -72 60 -115q50 -44 118 -44t118 44q50 45 60 115zM127 287h355q-11 68 -60 110q-49 43 -117 43t-117 -43q-51 -43 -61 -110z" />
    <glyph glyph-name="uni0474" unicode="&#x474;" horiz-adv-x="692" 
d="M382 0h-106l-262 706h112l175 -493l27 -97h2q14 61 27 97l140 414q16 51 40 65q23 14 78 14h66v-86h-22q-35 0 -49 -9q-12 -7 -23 -39z" />
    <glyph glyph-name="uni0475" unicode="&#x475;" horiz-adv-x="562" 
d="M318 0h-108l-195 506h106l128 -342l18 -66h2q7 38 18 66l86 249q18 53 45.5 73t81.5 20h52v-84h-26q-32 0 -47 -11t-27 -45z" />
    <glyph glyph-name="uni048A" unicode="&#x48a;" horiz-adv-x="792" 
d="M198 0h-99v598q0 22 -22 22h-43v86h101q34 0 49 -15t15 -49v-387l-6 -101h2q37 64 63 102l308 450h98v-598q0 -22 22 -22h87v-57l-72 -169h-73l40 140h-39q-34 0 -49.5 15t-15.5 49v388l6 103h-2q-37 -69 -60 -103zM388 739q-62 0 -105 34t-43 94v15h78v-14
q0 -30 20.5 -48t49.5 -18q30 0 50.5 18t20.5 49v13h77v-15q0 -60 -43 -94t-105 -34z" />
    <glyph glyph-name="uni048B" unicode="&#x48b;" horiz-adv-x="645" 
d="M180 0h-96v401q0 22 -21 22h-40v83h89q34 0 49 -14.5t15 -48.5v-241q0 -53 -4 -70h2q15 28 47 70l218 304h96v-401q0 -22 21 -22h72v-54l-63 -149h-69l33 120h-22q-34 0 -49 15t-15 49v240q0 43 4 71h-2q-6 -16 -47 -71zM312 564q-62 0 -105 34t-43 94v15h78v-14
q0 -30 20.5 -48t49.5 -18q30 0 50.5 18t20.5 49v13h77v-15q0 -60 -43 -94t-105 -34z" />
    <glyph glyph-name="uni048C" unicode="&#x48c;" horiz-adv-x="661" 
d="M168 64v506h-159v77h158v103h101v-103h183v-77h-183v-140h137q99 0 169 -53q69 -53 69 -158t-68 -162q-67 -57 -165 -57h-178q-34 0 -49 15t-15 49zM268 346v-240q0 -22 22 -22h117q61 0 97 36t36 97q0 60 -37 94.5t-100 34.5h-135z" />
    <glyph glyph-name="uni048D" unicode="&#x48d;" horiz-adv-x="537" 
d="M131 55v404h-121v73h121v174h97v-174h165v-73h-165v-134h105q86 0 135.5 -43.5t49.5 -116.5q0 -77 -50.5 -121t-134.5 -44h-146q-30 0 -43 13t-13 42zM228 255v-165q0 -20 19 -20h74q45 0 72 25.5t27 67.5q0 43 -26 67.5t-73 24.5h-93z" />
    <glyph glyph-name="uni048E" unicode="&#x48e;" horiz-adv-x="610" 
d="M198 0h-100v620h-65v86h320q98 0 159 -61q62 -60 62 -160q0 -103 -66 -166l61 -81l-54 -44l-66 86q-39 -19 -96 -19h-155v-261zM398 347l-67 88l56 44l67 -90q26 35 26 90q0 66 -37 103.5t-102 37.5h-143v-282h142q32 0 58 9z" />
    <glyph glyph-name="uni048F" unicode="&#x48f;" horiz-adv-x="612" 
d="M182 -200h-97v601q0 22 -22 22h-41v83h91q62 0 62 -51l-1 -27h2q11 18 23 31q51 59 145 59q102 0 162 -73q61 -73 61 -192q0 -114 -60 -187l54 -65l-54 -47l-55 65q-50 -31 -115 -31q-57 0 -96 24t-54 48l-5 9h-2q2 -24 2 -44v-225zM396 86l-69 84l54 47l66 -79
q28 47 28 113q0 83 -42 132q-42 50 -107 50t-106 -47.5t-41 -135.5q0 -74 38 -129q39 -54 107 -54q41 0 72 19z" />
    <glyph glyph-name="uni0490" unicode="&#x490;" horiz-adv-x="501" 
d="M198 0h-100v620h-65v86h341q22 0 22 22v50h92v-94q0 -34 -15.5 -49t-49.5 -15h-225v-620z" />
    <glyph glyph-name="uni0491" unicode="&#x491;" horiz-adv-x="417" 
d="M182 0h-97v423h-62v83h277q22 0 22 22v45h82v-88q0 -33 -15 -47.5t-49 -14.5h-158v-423z" />
    <glyph glyph-name="uni0492" unicode="&#x492;" horiz-adv-x="512" 
d="M201 0h-100v302h-65v76h65v242h-65v86h395q34 0 49.5 -15t15.5 -49v-89h-92v45q0 22 -22 22h-181v-242h154v-76h-154v-302z" />
    <glyph glyph-name="uni0493" unicode="&#x493;" horiz-adv-x="442" 
d="M85 197h-62v69h62v157h-63v83h335q35 0 50 -14t15 -48v-77h-81v34q0 22 -22 22h-137v-157h129v-69h-129v-197h-97v197z" />
    <glyph glyph-name="uni0494" unicode="&#x494;" horiz-adv-x="606" 
d="M198 0h-100v624h-65v82h412q34 0 48.5 -14t14.5 -48v-81h-83v39q0 22 -22 22h-205v-236q63 29 137 29q241 0 241 -284q0 -156 -66 -233.5t-189 -77.5v81q153 0 153 230q0 104 -38 151t-120 47q-58 0 -118 -28v-303z" />
    <glyph glyph-name="uni0495" unicode="&#x495;" horiz-adv-x="507" 
d="M182 0h-97v423h-62v83h343q36 0 50 -11.5t14 -43.5v-84h-81v37q0 19 -18 19h-149v-178q55 26 112 26q96 0 141 -60q46 -58 46 -147q0 -175 -150 -271l-48 69q104 62 104 192q0 63 -27.5 99.5t-85.5 36.5q-48 0 -92 -26v-164z" />
    <glyph glyph-name="uni0496" unicode="&#x496;" horiz-adv-x="922" 
d="M117 0h-110l188 320q19 33 39 42l6 4v2q-20 8 -39 44l-102 185q-12 23 -50 23h-20v86h50q42 0 60 -10t36 -43l119 -218q9 -17 22.5 -22.5t38.5 -5.5h39v299h96v-299h37q47 0 63 28l119 218q18 33 36 43t60 10h50v-86h-20q-37 0 -51 -23l-101 -185q-19 -33 -33 -41l-6 -3
v-2q24 -10 44 -46l138 -234h37q34 0 48.5 -14.5t14.5 -48.5v-163h-90v118q0 20 -17 22h-52l-172 297q-17 29 -57 29h-48v-326h-96v326h-48q-40 0 -57 -29z" />
    <glyph glyph-name="uni0497" unicode="&#x497;" horiz-adv-x="781" 
d="M129 0h-113l121 208q22 37 49 46l9 3v2q-24 7 -40 40l-52 104q-9 20 -45 20h-26v83h60q38 0 54.5 -9t30.5 -38l65 -131q16 -30 58 -30h30v208h94v-208h29q41 0 58 30l65 131q14 29 30.5 38t54.5 9h60v-83h-26q-35 0 -45 -20l-52 -104q-14 -30 -34 -37l-6 -3v-2
q33 -7 58 -49l74 -127h23q33 0 47 -15t14 -48v-138h-89v98q0 22 -19 22h-41l-100 176q-24 40 -71 40h-30v-216h-94v216h-30q-47 0 -72 -40z" />
    <glyph glyph-name="uni0498" unicode="&#x498;" horiz-adv-x="530" 
d="M20 82l59 70q29 -32 73.5 -53.5t89.5 -21.5q63 0 104.5 34.5t41.5 91.5q0 54 -37 86t-94 32h-84v82h72q52 0 87 33t35 83t-31.5 80t-89.5 30q-46 0 -78.5 -19.5t-32.5 -47.5v-29h-92v55q0 43 35 75q64 55 176 55q101 0 157.5 -50t56.5 -134q0 -108 -102 -160v-2
q58 -16 91.5 -62.5t33.5 -110.5q0 -81 -52 -136.5t-140 -69.5v-133h-90v130q-117 12 -189 92z" />
    <glyph glyph-name="uni0499" unicode="&#x499;" horiz-adv-x="442" 
d="M23 62l46 64q59 -59 134 -59q47 0 76 22t29 62q0 76 -103 76h-64v67h51q99 0 99 77q0 36 -23.5 55t-64.5 19q-33 0 -57.5 -13t-24.5 -36v-23h-81v47q0 47 50 73q49 25 121 25q83 0 130.5 -36t47.5 -101q0 -43 -20.5 -72t-54.5 -42v-2q41 -10 66 -41.5t25 -78.5
q0 -59 -38.5 -99t-102.5 -52v-114h-87v110q-88 9 -154 72z" />
    <glyph glyph-name="uni049A" unicode="&#x49a;" horiz-adv-x="633" 
d="M199 0h-100v598q0 22 -22 22h-43v86h101q34 0 49 -15t15 -49v-233h67q44 0 58 24l157 273h112l-171 -293q-18 -32 -34 -43l-6 -3v-2q20 -4 40 -44l117 -235h30q34 0 48 -14.5t14 -48.5v-163h-89v118q0 22 -21 22h-51l-148 298q-12 26 -63 26h-60v-324z" />
    <glyph glyph-name="uni049B" unicode="&#x49b;" horiz-adv-x="538" 
d="M182 0h-97v401q0 22 -22 22h-41v83h96q36 0 50 -12.5t14 -45.5v-137h45q36 0 53 23l118 172h109l-136 -197q-13 -19 -33 -35l-5 -2v-2q17 -8 33 -39l88 -150h21q56 0 56 -63v-138h-89v98q0 22 -16 22h-37l-120 208q-11 20 -49 20h-38v-228z" />
    <glyph glyph-name="uni049C" unicode="&#x49c;" horiz-adv-x="698" 
d="M345 202h-74v122h-72v-324h-100v598q0 22 -22 22h-43v86h101q34 0 49 -15t15 -49v-233h72v120h74v-120h10q45 0 58 24l153 273h112l-168 -293q-17 -32 -34 -43l-6 -3v-2q20 -4 40 -44l103 -212q11 -23 50 -23h20v-86h-56q-43 0 -62.5 10.5t-35.5 42.5l-119 245
q-8 15 -22 20.5t-41 5.5h-2v-122z" />
    <glyph glyph-name="uni049D" unicode="&#x49d;" horiz-adv-x="595" 
d="M306 114h-70v114h-54v-228h-97v401q0 22 -22 22h-41v83h95q36 0 50.5 -12.5t14.5 -45.5v-136h54v92h70v-92q34 0 47 21l110 173h109l-129 -197q-18 -27 -33 -35l-4 -2v-2q18 -11 34 -41l62 -126q6 -12 15 -16t29 -4h30v-83h-70q-36 0 -52 9t-32 38l-79 161q-11 17 -37 19
v-113z" />
    <glyph glyph-name="uni049E" unicode="&#x49e;" horiz-adv-x="620" 
d="M102 525h-82v75h82v106h100v-106h94v-75h-94v-116h72q44 0 58 24l156 273h112l-171 -293q-17 -32 -34 -43l-6 -3v-2q20 -4 40 -44l106 -212q11 -23 50 -23h20v-86h-56q-43 0 -62 10q-20 11 -36 43l-122 245q-12 26 -63 26h-64v-324h-100v525z" />
    <glyph glyph-name="uni049F" unicode="&#x49f;" horiz-adv-x="524" 
d="M76 528h-70v69h70v109h97v-109h117v-69h-117v-208h45q36 0 52 22l117 164h112l-138 -188q-15 -21 -33 -36l-5 -2v-2q17 -6 34 -38l75 -137q11 -20 44 -20h30v-83h-70q-36 0 -52 9t-32 38l-92 170q-10 21 -50 21h-37v-238h-97v528z" />
    <glyph glyph-name="uni04A0" unicode="&#x4a0;" horiz-adv-x="756" 
d="M346 0h-100v620h-119q-22 0 -22 -22v-45h-92v94q0 33 14 46t48 13h336v-86h-65v-211h64q44 0 58 24l156 273h112l-171 -293q-17 -32 -34 -43l-6 -3v-2q20 -4 40 -44l106 -212q11 -23 50 -23h20v-86h-56q-43 0 -62 10q-20 11 -36 43l-122 245q-12 26 -63 26h-56v-324z" />
    <glyph glyph-name="uni04A1" unicode="&#x4a1;" horiz-adv-x="638" 
d="M291 0h-97v408q0 20 -18 20h-61q-18 0 -18 -20v-40h-79v83q0 32 14 43.5t50 11.5h145q36 0 50 -12.5t14 -45.5v-141h39q37 0 52 23l120 176h111l-140 -201q-18 -26 -33 -35l-5 -3v-2q21 -8 38 -38l75 -124q11 -20 44 -20h29v-83h-70q-36 0 -52 9t-32 38l-90 157
q-12 20 -48 20h-38v-224z" />
    <glyph glyph-name="uni04A2" unicode="&#x4a2;" horiz-adv-x="781" 
d="M199 0h-100v598q0 22 -22 22h-43v86h101q34 0 49 -15t15 -49v-247h359v247q0 34 15.5 49t49.5 15h100v-86h-43q-22 0 -22 -22v-512h35q34 0 48.5 -14.5t14.5 -48.5v-163h-90v118q0 22 -21 22h-87v310h-359v-310z" />
    <glyph glyph-name="uni04A3" unicode="&#x4a3;" horiz-adv-x="633" 
d="M512 0h-74v219h-256v-219h-97v401q0 22 -22 22h-41v83h96q34 0 49 -15t15 -49v-142h256v206h97v-425h24q32 0 46 -15t14 -48v-138h-89v98q0 22 -18 22z" />
    <glyph glyph-name="uni04A4" unicode="&#x4a4;" horiz-adv-x="941" 
d="M199 0h-100v598q0 22 -22 22h-43v86h101q34 0 49 -15t15 -49v-247h336v225h-65v86h397q34 0 48 -14t14 -48v-91h-92v45q0 22 -22 22h-180v-620h-100v310h-336v-310z" />
    <glyph glyph-name="uni04A5" unicode="&#x4a5;" horiz-adv-x="757" 
d="M182 0h-97v401q0 22 -22 22h-41v83h96q34 0 49 -15t15 -49v-153h232v139h-62v78h323q36 0 50 -11.5t14 -43.5v-80h-80v37q0 20 -19 20h-129v-428h-97v207h-232v-207z" />
    <glyph glyph-name="uni04A6" unicode="&#x4a6;" horiz-adv-x="993" 
d="M199 0h-100v620h-66v86h494q34 0 49 -15t15 -49v-240q63 29 136 29q242 0 242 -294q0 -315 -256 -315v81q153 0 153 234q0 111 -38 161.5t-120 50.5q-46 0 -117 -27v-322h-100v598q0 22 -22 22h-270v-620z" />
    <glyph glyph-name="uni04A7" unicode="&#x4a7;" horiz-adv-x="813" 
d="M181 0h-97v423h-57v83h510v-83h-56v-148q55 26 110 26q105 0 153 -65q49 -64 49 -165q0 -179 -150 -278l-48 69q104 68 104 209q0 146 -127 146q-48 0 -91 -24v-193h-97v423h-203v-423z" />
    <glyph glyph-name="uni04A8" unicode="&#x4a8;" horiz-adv-x="907" 
d="M35 364q0 73 23 137.5t62 107.5q77 84 167 110l34 -90q-75 -25 -131 -95q-55 -67 -55 -173q0 -117 68 -200q69 -82 193 -82q53 0 109 17q-74 56 -115 136t-41 177q0 137 77 217t183 80q113 0 183 -78q71 -79 71 -212q0 -89 -45.5 -173t-124.5 -147q51 -14 115 -14h46v-82
h-48q-110 0 -201 39q-101 -51 -210 -51q-160 0 -260 103t-100 273zM451 410q0 -88 37.5 -158.5t106.5 -113.5q76 49 121 122.5t45 154.5q0 96 -42.5 148.5t-110.5 52.5q-61 0 -109 -53t-48 -153z" />
    <glyph glyph-name="uni04A9" unicode="&#x4a9;" horiz-adv-x="765" 
d="M33 261q0 102 55 166q55 65 129 91l33 -79q-54 -21 -89.5 -69t-35.5 -111q0 -81 51 -136t150 -55q43 0 88 12q-121 85 -121 223q0 92 61 153q62 62 157 62q94 0 151 -57t57 -146q0 -129 -125 -231q32 -7 77 -7h54v-77h-50q-87 0 -167 30q-87 -42 -182 -42q-137 0 -216 77
q-77 77 -77 196zM386 305q0 -60 30.5 -109t85.5 -79q58 34 91 84t33 109q0 60 -31.5 95t-85.5 35q-53 0 -88 -39q-35 -38 -35 -96z" />
    <glyph glyph-name="uni04AA" unicode="&#x4aa;" horiz-adv-x="698" 
d="M35 359q0 152 101 256q102 103 253 103q39 0 82 -8.5t85.5 -25.5t70 -48t27.5 -71v-69h-92v40q0 41 -55 65t-116 24q-108 0 -180 -74q-72 -73 -72 -192q0 -117 73 -197q74 -80 182 -80q51 0 99.5 17.5t73 34.5t41.5 34l9 10l54 -72q-21 -21 -41 -36q-20 -16 -49 -33
q-65 -40 -150 -47v-130h-90v132q-137 18 -222 120q-84 104 -84 247z" />
    <glyph glyph-name="uni04AB" unicode="&#x4ab;" horiz-adv-x="532" 
d="M33 253q0 113 75 189q76 76 197 76q37 0 75.5 -9t72.5 -36t34 -66v-52h-88v28q0 25 -31 38q-31 14 -63 14q-75 0 -125 -51q-49 -49 -49 -130q0 -83 52 -132q52 -48 127 -48q41 0 81 17q38 17 58 35l18 18l41 -69l-20 -21q-15 -14 -58 -35q-45 -23 -93 -29v-110h-87v113
q-98 17 -158 87q-59 73 -59 173z" />
    <glyph glyph-name="uni04AC" unicode="&#x4ac;" horiz-adv-x="636" 
d="M356 0h-90v620h-141q-22 0 -22 -22v-45h-90v93q0 34 13 47t47 13h486q34 0 47 -13t13 -47v-93h-89v45q0 22 -22 22h-142v-534h35q34 0 48 -14.5t14 -48.5v-163h-89v118q0 20 -18 22z" />
    <glyph glyph-name="uni04AD" unicode="&#x4ad;" horiz-adv-x="536" 
d="M293 0h-75v423h-98q-22 0 -22 -22v-34h-80v77q0 33 15 47.5t49 14.5h368q34 0 49 -14.5t15 -47.5v-77h-80v34q0 22 -22 22h-98v-342h26q32 0 46 -15t14 -48v-138h-89v98q0 22 -18 22z" />
    <glyph glyph-name="uni04AE" unicode="&#x4ae;" horiz-adv-x="606" 
d="M353 0h-100v308l-179 287q-13 25 -43 25h-20v86h46q37 0 56 -10.5t39 -43.5l107 -178l43 -79h2q13 27 43 79l106 178q20 33 39 43.5t56 10.5h47v-86h-20q-29 0 -44 -25l-178 -287v-308z" />
    <glyph glyph-name="uni04AF" unicode="&#x4af;" horiz-adv-x="533" 
d="M219 -200v223l-165 380q-9 20 -31 20h-10v83h50q33 0 49 -11t28 -40l106 -268l20 -62h2q11 37 21 62l105 268q12 30 28 40.5t49 10.5h50v-83h-10q-23 0 -32 -20l-164 -380v-223h-96z" />
    <glyph glyph-name="uni04B0" unicode="&#x4b0;" horiz-adv-x="605" 
d="M253 233h-121v73h121v2l-178 287q-15 25 -44 25h-20v86h46q39 0 57 -10t38 -44l107 -177l43 -80h2q9 20 43 80l106 177q21 33 39.5 43.5t55.5 10.5h47v-86h-20q-31 0 -44 -25l-178 -287v-2h119v-73h-119v-233h-100v233z" />
    <glyph glyph-name="uni04B1" unicode="&#x4b1;" horiz-adv-x="534" 
d="M219 0h-116v71h95l-144 332q-9 20 -31 20h-10v83h50q33 0 49 -11t28 -40l106 -268l20 -62h2q11 37 21 62l105 268q12 30 28 40.5t49 10.5h50v-83h-10q-23 0 -32 -20l-144 -332h97v-71h-117v-200h-96v200z" />
    <glyph glyph-name="uni04B2" unicode="&#x4b2;" horiz-adv-x="627" 
d="M124 0h-112l222 364l-142 231q-10 15 -19 20t-28 5h-25v86h58q39 0 57.5 -10.5t37.5 -43.5l79 -134l45 -83h2q17 38 43 83l80 134q18 33 37.5 43.5t56.5 10.5h59v-86h-26q-31 0 -46 -25l-143 -231l170 -278h37q34 0 48 -14.5t14 -48.5v-163h-89v118q0 20 -18 22h-52
l-129 215l-44 80h-2q-24 -48 -43 -81z" />
    <glyph glyph-name="uni04B3" unicode="&#x4b3;" horiz-adv-x="527" 
d="M130 0h-110l171 260l-97 144q-13 19 -42 19h-29v83h62q35 0 52 -9.5t37 -41.5l61 -98l16 -32h2q4 8 17 32l61 98q20 32 37 41.5t52 9.5h62v-83h-29q-29 0 -42 -18l-97 -145l117 -179h25q32 0 46 -15t14 -48v-138h-90v98q0 20 -14 22h-37l-106 165l-16 27h-2l-15 -27z" />
    <glyph glyph-name="uni04B4" unicode="&#x4b4;" horiz-adv-x="919" 
d="M249 64v556h-124q-22 0 -22 -22v-45h-89v93q0 34 13 47t47 13h446q34 0 47.5 -13t13.5 -47v-93h-86v45q0 22 -22 22h-124v-512q0 -22 22 -22h337v620h100v-620h24q34 0 48 -14.5t14 -48.5v-163h-89v118q0 22 -21 22h-470q-34 0 -49.5 15t-15.5 49z" />
    <glyph glyph-name="uni04B5" unicode="&#x4b5;" horiz-adv-x="746" 
d="M193 63v364h-89q-19 0 -19 -20v-36h-68v79q0 32 14 44t50 12h318q36 0 50 -12t14 -44v-79h-68v36q0 20 -18 20h-87v-324q0 -22 21 -22h245v425h97v-425h15q33 0 47 -15t14 -48v-138h-89v98q0 22 -21 22h-362q-34 0 -49 14.5t-15 48.5z" />
    <glyph glyph-name="uni04B6" unicode="&#x4b6;" horiz-adv-x="688" 
d="M296 270q-108 0 -162.5 53t-54.5 153v122q0 22 -22 22h-43v86h101q34 0 49 -15t15 -49v-144q0 -70 33.5 -103.5t106.5 -33.5q85 0 150 48v297h100v-620h35q34 0 48.5 -14t14.5 -49v-163h-89v118q0 20 -18 22h-91v286l2 33h-2q-88 -49 -173 -49z" />
    <glyph glyph-name="uni04B7" unicode="&#x4b7;" horiz-adv-x="575" 
d="M238 176q-79 0 -120.5 39t-41.5 113v73q0 22 -23 22h-36v83h91q34 0 48.5 -16t14.5 -48v-87q0 -47 22 -71t74 -24q61 0 113 36v210h97v-425h24q32 0 46 -15t14 -48v-138h-89v98q0 20 -15 22h-77v183l1 32h-1q-58 -39 -142 -39z" />
    <glyph glyph-name="uni04B8" unicode="&#x4b8;" horiz-adv-x="668" 
d="M292 273h-3q-104 0 -157.5 52t-53.5 151v122q0 22 -22 22h-43v86h101q34 0 49 -15t15 -49v-141q0 -129 114 -138v138h74v-136q71 10 121 45v296h100v-706h-100v287l2 33h-2q-53 -29 -121 -41v-111h-74v105z" />
    <glyph glyph-name="uni04B9" unicode="&#x4b9;" horiz-adv-x="569" 
d="M253 178h-7q-81 0 -126 42t-45 116v65q0 22 -22 22h-37v83h92q63 0 63 -65v-79q0 -91 82 -101v122h70v-119q45 9 84 32v210h97v-506h-97v187l2 31h-2q-39 -22 -84 -31v-88h-70v79z" />
    <glyph glyph-name="uni04BA" unicode="&#x4ba;" horiz-adv-x="656" 
d="M199 0h-100v598q0 22 -22 22h-43v86h101q34 0 49 -15t15 -49v-197l-2 -33h2q82 46 180 46q202 0 202 -206v-144q0 -22 22 -22h43v-86h-101q-34 0 -49 15t-15 49v167q0 70 -30 103.5t-95 33.5q-43 0 -86.5 -14t-70.5 -33v-321z" />
    <glyph glyph-name="uni04BB" unicode="&#x4bb;" horiz-adv-x="605" 
d="M164 0h-97v601q0 22 -22 22h-41v83h95q65 0 65 -62v-197l-2 -42h2q20 43 69 78q50 35 118 35q174 0 174 -194v-219q0 -22 22 -22h41v-83h-96q-34 0 -49 15t-15 49v238q0 65 -20.5 96t-74.5 31q-56 0 -100.5 -35t-60.5 -90q-8 -29 -8 -67v-237z" />
    <glyph glyph-name="uni04BC" unicode="&#x4bc;" horiz-adv-x="849" 
d="M192 344h-3q-78 0 -121.5 44.5t-43.5 125.5q0 55 7 83l8 39h91l-9 -40q-7 -29 -7 -73q0 -46 19.5 -73.5t59.5 -27.5h4q19 133 108 214q88 82 213 82q134 0 212 -89q79 -88 79 -239l-3 -47h-510q2 -123 72 -193q71 -71 173 -71q53 0 104 19q70 27 111 64l48 -76
q-17 -17 -49 -38q-21 -14 -55 -28q-78 -32 -170 -32q-144 0 -240 99q-97 101 -98 257zM298 422h411q0 89 -49 148q-50 60 -142 60t-150 -61q-60 -63 -70 -147z" />
    <glyph glyph-name="uni04BD" unicode="&#x4bd;" horiz-adv-x="657" 
d="M421 -12q-115 0 -190 72q-74 72 -78 181q-132 0 -132 149q0 33 11 74h80q-12 -36 -12 -69q0 -83 58 -84q17 95 85 151t163 56q103 0 160 -68q58 -67 58 -169l-2 -41h-370q4 -77 52.5 -122.5t122.5 -45.5q36 0 73 14t56 31l18 15l42 -70l-24 -21q-17 -12 -67 -33
q-52 -20 -104 -20zM256 310h270q-2 60 -36 95.5t-84 35.5q-59 0 -99.5 -35t-50.5 -96z" />
    <glyph glyph-name="uni04BE" unicode="&#x4be;" horiz-adv-x="849" 
d="M192 344h-3q-78 0 -121.5 44.5t-43.5 125.5q0 55 7 83l8 39h91l-9 -40q-7 -29 -7 -73q0 -46 19.5 -73.5t59.5 -27.5h4q19 133 108 214q88 82 213 82q134 0 212 -89q79 -88 79 -239l-3 -47h-510q2 -123 72 -193q71 -71 173 -71q53 0 104 19q70 27 111 64l48 -76
q-16 -16 -44 -34q-78 -53 -197 -63v-129h-89v133q-124 19 -202 114q-79 97 -80 237zM298 422h411q0 89 -49 148q-50 60 -142 60t-150 -61q-60 -63 -70 -147z" />
    <glyph glyph-name="uni04BF" unicode="&#x4bf;" horiz-adv-x="659" 
d="M448 -11v-109h-87v114q-89 18 -147 86q-55 67 -60 161q-132 0 -132 149q0 33 11 74h80q-12 -36 -12 -69q0 -83 58 -84q17 95 85 151t163 56q103 0 160 -68q58 -67 58 -169l-2 -41h-370q4 -77 52.5 -122.5t122.5 -45.5q36 0 73 14t57 31l17 15l42 -70q-7 -8 -21 -18
q-15 -12 -58 -31q-44 -19 -90 -24zM257 310h270q-2 60 -36 95.5t-84 35.5q-59 0 -99.5 -35t-50.5 -96z" />
    <glyph glyph-name="uni04C0" unicode="&#x4c0;" horiz-adv-x="318" 
d="M275 0h-233v86h69v534h-69v86h233v-86h-68v-534h68v-86z" />
    <glyph glyph-name="uni04C1" unicode="&#x4c1;" horiz-adv-x="884" 
d="M117 0h-110l188 320q19 33 39 42l6 4v2q-20 8 -39 44l-102 185q-12 23 -50 23h-20v86h50q42 0 60 -10t36 -43l119 -218q9 -17 22.5 -22.5t38.5 -5.5h39v299h96v-299h37q47 0 63 28l119 218q18 33 36 43t60 10h50v-86h-20q-37 0 -51 -23l-101 -185q-19 -33 -33 -41l-6 -3
v-2q24 -10 44 -46l189 -320h-110l-172 297q-17 29 -57 29h-48v-326h-96v326h-48q-40 0 -57 -29zM444 739q-62 0 -105 34t-43 94v15h78v-14q0 -30 20.5 -48t49.5 -18q30 0 50.5 18t20.5 49v13h77v-15q0 -60 -43 -94t-105 -34z" />
    <glyph glyph-name="uni04C2" unicode="&#x4c2;" horiz-adv-x="753" 
d="M129 0h-113l121 208q22 37 49 46l9 3v2q-24 7 -40 40l-52 104q-9 20 -45 20h-26v83h60q38 0 54.5 -9t30.5 -38l65 -131q16 -30 58 -30h30v208h94v-208h29q41 0 58 30l65 131q14 29 30.5 38t54.5 9h60v-83h-26q-35 0 -45 -20l-52 -104q-14 -30 -34 -37l-6 -3v-2
q33 -7 58 -49l122 -208h-113l-100 176q-24 40 -71 40h-30v-216h-94v216h-30q-47 0 -72 -40zM378 564q-62 0 -105 34t-43 94v15h78v-14q0 -30 20.5 -48t49.5 -18q30 0 50.5 18t20.5 49v13h77v-15q0 -60 -43 -94t-105 -34z" />
    <glyph glyph-name="uni04C3" unicode="&#x4c3;" horiz-adv-x="633" 
d="M199 0h-100v598q0 22 -22 22h-43v86h101q34 0 49 -15t15 -49v-233h67q44 0 58 24l161 273h112l-158 -266q-20 -34 -42 -50v-1q61 -18 103 -53.5t61 -79.5q31 -72 31 -140q0 -136 -67 -215t-180 -79v83q64 0 104 53t40 159q0 100 -57.5 153.5t-158.5 53.5h-74v-324z" />
    <glyph glyph-name="uni04C4" unicode="&#x4c4;" horiz-adv-x="531" 
d="M182 0h-97v401q0 22 -22 22h-41v83h96q64 0 64 -58v-147h33q37 0 58 30l118 175h110l-132 -191q-17 -25 -33 -35v-2q88 -24 124 -87t36 -137q0 -88 -42.5 -155t-110.5 -106l-46 70q105 55 105 191q0 77 -44.5 120t-125.5 43h-50v-217z" />
    <glyph glyph-name="uni04C5" unicode="&#x4c5;" horiz-adv-x="711" 
d="M10 -5v91q86 12 123.5 121.5t37.5 334.5v78h-66v86h415q34 0 49 -15t15 -49v-534q0 -22 22 -22h87v-57l-73 -169h-72l40 140h-40q-34 0 -49 15t-15 49v534q0 22 -22 22h-196v-79q0 -273 -59.5 -405.5t-196.5 -140.5z" />
    <glyph glyph-name="uni04C6" unicode="&#x4c6;" horiz-adv-x="570" 
d="M13 -3v86q32 1 56.5 29.5t37.5 76.5q25 93 25 195v39h-63v83h327q34 0 49 -15t15 -49v-337q0 -22 22 -22h76v-54l-63 -149h-69l33 120h-31q-34 0 -49.5 15t-15.5 49v337q0 22 -22 22h-116v-40q0 -37 -3 -74q-9 -106 -34 -168q-53 -147 -175 -144z" />
    <glyph glyph-name="uni04C7" unicode="&#x4c7;" horiz-adv-x="763" 
d="M199 0h-100v598q0 22 -22 22h-43v86h101q34 0 49 -15t15 -49v-247h366v247q0 34 15 49t49 15h101v-86h-43q-22 0 -22 -22v-547q0 -144 -71 -191q-55 -39 -136 -39v84q107 0 107 145v260h-366v-310z" />
    <glyph glyph-name="uni04C8" unicode="&#x4c8;" horiz-adv-x="621" 
d="M182 0h-97v401q0 22 -22 22h-41v83h96q34 0 49 -15t15 -49v-142h256v142q0 34 15.5 49t49.5 15h96v-83h-41q-22 0 -22 -22v-353q0 -99 -38 -155q-38 -57 -113 -100l-50 71q54 29 78.5 70.5t24.5 112.5v170h-256v-217z" />
    <glyph glyph-name="uni04C9" unicode="&#x4c9;" horiz-adv-x="787" 
d="M199 0h-100v598q0 22 -22 22h-43v86h101q34 0 49 -15t15 -49v-247h359v247q0 34 15.5 49t49.5 15h100v-86h-43q-22 0 -22 -22v-512h110v-57l-72 -169h-73l43 140h-108v310h-359v-310z" />
    <glyph glyph-name="uni04CA" unicode="&#x4ca;" horiz-adv-x="633" 
d="M182 0h-97v401q0 22 -22 22h-41v83h96q34 0 49 -15t15 -49v-143h256v207h97v-401q0 -22 22 -22h58v-54l-63 -149h-68l33 120h-15q-34 0 -49 15t-15 49v154h-256v-218z" />
    <glyph glyph-name="uni04CB" unicode="&#x4cb;" horiz-adv-x="650" 
d="M296 270q-108 0 -162.5 53t-54.5 153v122q0 22 -22 22h-43v86h101q34 0 49 -15t15 -49v-144q0 -70 33.5 -103.5t106.5 -33.5q85 0 150 48v297h100v-706h-108q-21 0 -21 -22v-118h-89v163q0 34 14 48.5t48 14.5h56v200l2 33h-2q-88 -49 -173 -49z" />
    <glyph glyph-name="uni04CC" unicode="&#x4cc;" horiz-adv-x="541" 
d="M294 -120v129q0 33 13.5 47.5t46.5 14.5h25v121l2 31h-2q-59 -38 -142 -38q-79 0 -120.5 39t-41.5 113v64q0 22 -22 22h-37v83h92q34 0 48.5 -16t14.5 -48v-79q0 -47 21.5 -71t74.5 -24q60 0 112 37v201h97v-506h-79q-14 -2 -14 -22v-98h-89z" />
    <glyph glyph-name="uni04CD" unicode="&#x4cd;" horiz-adv-x="892" 
d="M112 0h-89v86h33q21 0 22 22l48 598h103l166 -373l35 -90h2q15 44 35 90l166 373h103l48 -598q1 -22 22 -22h89v-57l-72 -169h-72l39 140h-39q-33 0 -47.5 14t-17.5 50l-28 373l-2 104h-2q-20 -64 -38 -104l-143 -310h-84l-142 310q-11 21 -33 87l-5 18h-2q1 -58 -2 -105
l-29 -373q-2 -34 -16.5 -49t-47.5 -15z" />
    <glyph glyph-name="uni04CE" unicode="&#x4ce;" horiz-adv-x="758" 
d="M93 0h-74v83h26q18 0 19 19l35 404h106l132 -290l26 -63h1l27 63l131 290h106l35 -404q1 -19 19 -19h76v-54l-63 -149h-69l33 120h-25q-29 0 -41 12.5t-14 42.5l-19 239l-2 90h-2q-11 -36 -30 -76l-118 -247h-92l-116 247l-29 77h-2q0 -49 -2 -91l-19 -239
q-2 -30 -14 -42.5t-41 -12.5z" />
    <glyph glyph-name="uni04CF" unicode="&#x4cf;" horiz-adv-x="318" 
d="M275 0h-233v83h69v540h-69v83h233v-83h-68v-540h68v-83z" />
    <glyph glyph-name="uni04D0" unicode="&#x4d0;" horiz-adv-x="665" 
d="M67 0h-55v86h14q26 0 33 22l221 598h105l221 -598q7 -22 33 -22h14v-86h-55q-37 0 -53.5 11.5t-29.5 46.5l-53 145h-259l-53 -145q-13 -35 -29.5 -46.5t-53.5 -11.5zM304 502l-77 -215h211l-77 215l-28 99h-2q-15 -61 -27 -99zM331 739q-62 0 -105 34t-43 94v15h78v-14
q0 -30 20.5 -48t49.5 -18q30 0 50.5 18t20.5 49v13h77v-15q0 -60 -43 -94t-105 -34z" />
    <glyph glyph-name="uni04D1" unicode="&#x4d1;" horiz-adv-x="529" 
d="M28 138q0 177 306 177h22v7q0 64 -26.5 91.5t-85.5 27.5q-27 0 -56 -9q-27 -8 -27 -30v-29h-92v51q0 27 19.5 48t50.5 30q55 16 103 16q113 0 162 -50t49 -148v-215q0 -22 22 -22h41v-83h-92q-62 0 -62 58l1 30h-2q1 0 -4.5 -10.5t-18 -25t-30.5 -29t-47 -25t-63 -10.5
q-71 0 -120 40q-50 41 -50 110zM125 147q0 -34 26 -58t69 -24q60 0 98 50t38 111v19h-26q-205 0 -205 -98zM265 564q-62 0 -105 34t-43 94v15h78v-14q0 -30 20.5 -48t49.5 -18q30 0 50.5 18t20.5 49v13h77v-15q0 -60 -43 -94t-105 -34z" />
    <glyph glyph-name="uni04D2" unicode="&#x4d2;" horiz-adv-x="665" 
d="M67 0h-55v86h14q26 0 33 22l221 598h105l221 -598q7 -22 33 -22h14v-86h-55q-37 0 -53.5 11.5t-29.5 46.5l-53 145h-259l-53 -145q-13 -35 -29.5 -46.5t-53.5 -11.5zM304 502l-77 -215h211l-77 215l-28 99h-2q-15 -61 -27 -99zM451 781h-73v101h73v-101zM287 781h-74v101
h74v-101z" />
    <glyph glyph-name="uni04D3" unicode="&#x4d3;" horiz-adv-x="529" 
d="M28 138q0 177 306 177h22v7q0 64 -26.5 91.5t-85.5 27.5q-27 0 -56 -9q-27 -8 -27 -30v-29h-92v51q0 27 19.5 48t50.5 30q55 16 103 16q113 0 162 -50t49 -148v-215q0 -22 22 -22h41v-83h-92q-62 0 -62 58l1 30h-2q1 0 -4.5 -10.5t-18 -25t-30.5 -29t-47 -25t-63 -10.5
q-71 0 -120 40q-50 41 -50 110zM125 147q0 -34 26 -58t69 -24q60 0 98 50t38 111v19h-26q-205 0 -205 -98zM375 606h-73v101h73v-101zM211 606h-74v101h74v-101z" />
    <glyph glyph-name="uni04D4" unicode="&#x4d4;" horiz-adv-x="863" 
d="M58 0h-48v86h11q25 0 34 22l237 598h448q34 0 49 -15t15 -49v-89h-91v45q0 22 -22 22h-195v-221h242v-86h-242v-205q0 -22 26 -22h196q22 0 22 22v45h92v-89q0 -34 -15 -49t-49 -15h-301q-40 0 -56 14t-16 50v249h-159l-95 -255q-13 -35 -29.5 -46.5t-53.5 -11.5z
M352 620l-83 -221h126v221h-43z" />
    <glyph glyph-name="uni04D5" unicode="&#x4d5;" horiz-adv-x="849" 
d="M29 141q0 172 298 172h29v11q0 63 -26 90t-86 27q-29 0 -56 -9q-27 -8 -27 -30v-29h-92v51q0 33 29 56q52 38 146 38q131 0 172 -89h2q62 89 180 89q100 0 158 -67q59 -68 59 -168l-2 -41h-364q4 -80 50 -125t119 -45q36 0 73.5 14t56.5 31l18 15l41 -70l-24 -21
q-17 -12 -67 -33q-52 -20 -104 -20q-152 0 -217 126h-2q-11 -31 -49 -71q-51 -54 -142 -54q-74 0 -123 40q-50 41 -50 112zM453 313h263q-3 59 -36.5 93t-82.5 34q-57 0 -95 -33t-49 -94zM127 147q0 -35 26 -58t70 -23q58 0 96 50q38 52 38 112v14h-47q-183 0 -183 -95z" />
    <glyph glyph-name="uni04D6" unicode="&#x4d6;" horiz-adv-x="571" 
d="M98 64v556h-65v86h416q34 0 49 -15t15 -49v-89h-92v45q0 22 -22 22h-201v-221h248v-86h-248v-205q0 -22 22 -22h207q22 0 22 22v45h91v-89q0 -34 -15 -49t-49 -15h-313q-34 0 -49.5 15t-15.5 49zM302 739q-62 0 -105 34t-43 94v15h78v-14q0 -30 20.5 -48t49.5 -18
q30 0 50.5 18t20.5 49v13h77v-15q0 -60 -43 -94t-105 -34z" />
    <glyph glyph-name="uni04D7" unicode="&#x4d7;" horiz-adv-x="539" 
d="M33 253q0 119 72 192t182 73q103 0 160 -68q58 -67 58 -169q0 -17 -3 -41h-369q4 -79 54 -124q50 -44 121 -44q11 0 21.5 1t20.5 3.5t18 5t17.5 7l15 7t14.5 8t12 7t11.5 7.5t9.5 6l9 7l41 -71q-18 -15 -40 -28q-24 -14 -68 -29t-88 -15q-118 0 -194 75q-75 77 -75 190z
M137 310h271q-2 62 -36 97.5t-87 35.5q-58 0 -98 -35.5t-50 -97.5zM281 564q-62 0 -105 34t-43 94v15h78v-14q0 -30 20.5 -48t49.5 -18q30 0 50.5 18t20.5 49v13h77v-15q0 -60 -43 -94t-105 -34z" />
    <glyph glyph-name="uni04D8" unicode="&#x4d8;" horiz-adv-x="694" 
d="M38 339l3 50h513q-4 105 -70 172q-64 66 -165 66q-53 0 -106 -18q-76 -25 -111 -58l-49 74q25 20 50 35q35 20 56 28q78 30 170 30q146 0 237 -103q92 -104 92 -259q0 -162 -88 -265t-233 -103q-140 0 -219.5 92t-79.5 259zM553 310h-415q0 -233 205 -233q93 0 151 64
q57 63 59 169z" />
    <glyph glyph-name="uni04D9" unicode="&#x4d9;" horiz-adv-x="541" 
d="M34 235l3 45h370q-5 70 -51 114q-47 44 -112 44q-38 0 -78.5 -13t-63.5 -29l-19 -15l-38 69q103 68 210 68q113 0 182 -75q69 -73 69 -189q0 -123 -70 -194q-69 -72 -177 -72q-107 0 -166 68t-59 179zM404 210h-269q2 -73 35.5 -109t90.5 -36q60 0 99.5 38.5t43.5 106.5z
" />
    <glyph glyph-name="uni04DA" unicode="&#x4da;" horiz-adv-x="694" 
d="M462 780h-74v101h74v-101zM297 780h-74v101h74v-101zM38 339l3 50h513q-4 105 -70 172q-64 66 -165 66q-53 0 -106 -18q-76 -25 -111 -58l-49 74q25 20 50 35q35 20 56 28q78 30 170 30q146 0 237 -103q92 -104 92 -259q0 -162 -88 -265t-233 -103q-140 0 -219.5 92
t-79.5 259zM553 310h-415q0 -233 205 -233q93 0 151 64q57 63 59 169z" />
    <glyph glyph-name="uni04DB" unicode="&#x4db;" horiz-adv-x="540" 
d="M34 235l3 45h370q-5 70 -51 114q-47 44 -112 44q-38 0 -78.5 -13t-63.5 -29l-19 -15l-38 69q103 68 210 68q113 0 182 -75q69 -73 69 -189q0 -123 -70 -194q-69 -72 -177 -72q-107 0 -166 68t-59 179zM404 210h-269q2 -73 35.5 -109t90.5 -36q60 0 99.5 38.5t43.5 106.5z
M375 606h-73v101h73v-101zM211 606h-74v101h74v-101z" />
    <glyph glyph-name="uni04DC" unicode="&#x4dc;" horiz-adv-x="884" 
d="M117 0h-110l188 320q19 33 39 42l6 4v2q-20 8 -39 44l-102 185q-12 23 -50 23h-20v86h50q42 0 60 -10t36 -43l119 -218q9 -17 22.5 -22.5t38.5 -5.5h39v299h96v-299h37q47 0 63 28l119 218q18 33 36 43t60 10h50v-86h-20q-37 0 -51 -23l-101 -185q-19 -33 -33 -41l-6 -3
v-2q24 -10 44 -46l189 -320h-110l-172 297q-17 29 -57 29h-48v-326h-96v326h-48q-40 0 -57 -29zM564 781h-73v101h73v-101zM400 781h-74v101h74v-101z" />
    <glyph glyph-name="uni04DD" unicode="&#x4dd;" horiz-adv-x="753" 
d="M129 0h-113l121 208q22 37 49 46l9 3v2q-24 7 -40 40l-52 104q-9 20 -45 20h-26v83h60q38 0 54.5 -9t30.5 -38l65 -131q16 -30 58 -30h30v208h94v-208h29q41 0 58 30l65 131q14 29 30.5 38t54.5 9h60v-83h-26q-35 0 -45 -20l-52 -104q-14 -30 -34 -37l-6 -3v-2
q33 -7 58 -49l122 -208h-113l-100 176q-24 40 -71 40h-30v-216h-94v216h-30q-47 0 -72 -40zM496 606h-73v101h73v-101zM332 606h-74v101h74v-101z" />
    <glyph glyph-name="uni04DE" unicode="&#x4de;" horiz-adv-x="529" 
d="M20 82l59 70q29 -32 73.5 -53.5t89.5 -21.5q63 0 104.5 34.5t41.5 91.5q0 54 -37 86t-94 32h-84v82h72q52 0 87 33t35 83t-31.5 80t-89.5 30q-46 0 -78.5 -19.5t-32.5 -47.5v-29h-92v55q0 43 35 75q64 55 176 55q101 0 157.5 -50t56.5 -134q0 -108 -102 -160v-2
q58 -16 91.5 -62.5t33.5 -110.5q0 -94 -69 -152q-68 -59 -178 -59q-137 0 -224 94zM380 781h-73v101h73v-101zM216 781h-74v101h74v-101z" />
    <glyph glyph-name="uni04DF" unicode="&#x4df;" horiz-adv-x="441" 
d="M23 62l46 64q59 -59 134 -59q47 0 76 22t29 62q0 76 -103 76h-64v67h51q99 0 99 77q0 36 -23.5 55t-64.5 19q-33 0 -57.5 -13t-24.5 -36v-23h-81v47q0 47 50 73q49 25 121 25q83 0 130.5 -36t47.5 -101q0 -43 -20.5 -72t-54.5 -42v-2q41 -10 66 -41.5t25 -78.5
q0 -74 -57 -116q-56 -41 -139 -41q-106 0 -186 74zM335 606h-73v101h73v-101zM171 606h-74v101h74v-101z" />
    <glyph glyph-name="uni04E0" unicode="&#x4e0;" horiz-adv-x="505" 
d="M24 54l41 75q30 -24 71.5 -39.5t80.5 -15.5q70 0 112.5 35.5t42.5 92.5q0 50 -26.5 77t-84.5 34q-23 4 -145 4v65l184 203l42 38l-1 2q-38 -2 -63 -2h-132q-22 0 -22 -22v-34h-85v76q0 34 15 48.5t49 14.5h346v-79l-191 -207l-28 -25v-2q58 -2 84 -7q155 -29 155 -179
q0 -101 -70 -159q-68 -58 -177 -58q-110 0 -198 64z" />
    <glyph glyph-name="uni04E1" unicode="&#x4e1;" horiz-adv-x="472" 
d="M5 -146l41 75q30 -24 71.5 -39.5t80.5 -15.5q70 0 112.5 35.5t42.5 92.5q0 50 -26.5 77t-84.5 34q-23 4 -145 4v65l184 203l42 38l-1 2q-38 -2 -63 -2h-132q-22 0 -22 -22v-34h-85v76q0 34 15 48.5t49 14.5h346v-79l-191 -207l-28 -25v-2q58 -2 84 -7q155 -29 155 -179
q0 -100 -70 -158q-70 -59 -177 -59q-110 0 -198 64z" />
    <glyph glyph-name="uni04E2" unicode="&#x4e2;" horiz-adv-x="763" 
d="M198 0h-99v598q0 22 -22 22h-43v86h101q34 0 49 -15t15 -49v-387l-6 -101h2q37 64 63 102l308 450h98v-598q0 -22 22 -22h43v-86h-100q-34 0 -49.5 15t-15.5 49v388l6 103h-2q-37 -69 -60 -103zM515 785h-254v68h254v-68z" />
    <glyph glyph-name="uni04E3" unicode="&#x4e3;" horiz-adv-x="619" 
d="M180 0h-96v401q0 22 -21 22h-40v83h89q34 0 49 -14.5t15 -48.5v-241q0 -53 -4 -70h2q15 28 47 70l218 304h96v-401q0 -22 21 -22h40v-83h-89q-34 0 -49 15t-15 49v240q0 43 4 71h-2q-6 -16 -47 -71zM439 610h-254v68h254v-68z" />
    <glyph glyph-name="uni04E4" unicode="&#x4e4;" horiz-adv-x="763" 
d="M198 0h-99v598q0 22 -22 22h-43v86h101q34 0 49 -15t15 -49v-387l-6 -101h2q37 64 63 102l308 450h98v-598q0 -22 22 -22h43v-86h-100q-34 0 -49.5 15t-15.5 49v388l6 103h-2q-37 -69 -60 -103zM501 781h-73v101h73v-101zM337 781h-74v101h74v-101z" />
    <glyph glyph-name="uni04E5" unicode="&#x4e5;" horiz-adv-x="619" 
d="M180 0h-96v401q0 22 -21 22h-40v83h89q34 0 49 -14.5t15 -48.5v-241q0 -53 -4 -70h2q15 28 47 70l218 304h96v-401q0 -22 21 -22h40v-83h-89q-34 0 -49 15t-15 49v240q0 43 4 71h-2q-6 -16 -47 -71zM432 606h-73v101h73v-101zM268 606h-74v101h74v-101z" />
    <glyph glyph-name="uni04E6" unicode="&#x4e6;" horiz-adv-x="793" 
d="M34 358q0 152 104 256q106 104 258 104t258 -104q105 -104 105 -256q0 -156 -105 -263t-258 -107t-258 107q-104 107 -104 263zM138 358q0 -116 75 -196t183 -80t183 80q76 79 76 196q0 114 -76 190q-75 77 -183 77t-183 -77t-75 -190zM514 781h-73v101h73v-101zM350 781
h-74v101h74v-101z" />
    <glyph glyph-name="uni04E7" unicode="&#x4e7;" horiz-adv-x="609" 
d="M305 518q115 0 194 -75t79 -189q0 -113 -80 -190q-79 -76 -193 -76t-193 76t-79 190t79 189q80 75 193 75zM305 72q73 0 123 51q51 53 51 131t-51 129q-50 51 -123 51q-72 0 -123 -51t-51 -129q0 -77 51 -130q51 -52 123 -52zM424 605h-73v101h73v-101zM260 605h-74v101
h74v-101z" />
    <glyph glyph-name="uni04E8" unicode="&#x4e8;" horiz-adv-x="793" 
d="M34 358q0 153 103 256q104 104 259 104t259 -104t104 -256q0 -157 -104 -264q-103 -106 -259 -106t-259 106t-103 264zM655 317h-517q14 -105 85 -172t173 -67t173 67q72 68 86 172zM137 396h518q-14 102 -86 167q-72 66 -173 66q-100 0 -174 -66q-71 -65 -85 -167z" />
    <glyph glyph-name="uni04E9" unicode="&#x4e9;" horiz-adv-x="609" 
d="M32 254q0 113 79 188q79 76 193 76t194 -75q79 -75 79 -189t-79 -190t-193 -76q-115 0 -194 76t-79 190zM483 225h-356q11 -72 60 -115q50 -44 118 -44t118 44q50 45 60 115zM127 287h355q-11 68 -60 110q-49 43 -117 43t-117 -43q-51 -43 -61 -110z" />
    <glyph glyph-name="uni04EA" unicode="&#x4ea;" horiz-adv-x="793" 
d="M34 358q0 153 103 256q104 104 259 104t259 -104t104 -256q0 -157 -104 -264q-103 -106 -259 -106t-259 106t-103 264zM655 317h-517q14 -105 85 -172t173 -67t173 67q72 68 86 172zM137 396h518q-14 102 -86 167q-72 66 -173 66q-100 0 -174 -66q-71 -65 -85 -167z
M351 781h-74v101h74v-101zM515 781h-73v101h73v-101z" />
    <glyph glyph-name="uni04EB" unicode="&#x4eb;" horiz-adv-x="611" 
d="M32 254q0 113 79 188q79 76 193 76t194 -75q79 -75 79 -189t-79 -190t-193 -76q-115 0 -194 76t-79 190zM483 225h-356q11 -72 60 -115q50 -44 118 -44t118 44q50 45 60 115zM127 287h355q-11 68 -60 110q-49 43 -117 43t-117 -43q-51 -43 -61 -110zM263 585h-74v101h74
v-101zM427 585h-73v101h73v-101z" />
    <glyph glyph-name="uni04EC" unicode="&#x4ec;" horiz-adv-x="695" 
d="M28 97l52 70q27 -30 89 -60q63 -29 133 -29q102 0 172 66q69 65 80 167h-364v82h364q-7 103 -76 169q-68 66 -171 66q-63 0 -120 -24q-56 -23 -56 -64v-40h-92v65q0 68 81 110q82 43 185 43q159 0 256 -102q99 -101 99 -254q0 -156 -101 -266q-101 -108 -257 -108
q-89 0 -163 34q-73 34 -111 75zM440 781h-73v101h73v-101zM276 781h-74v101h74v-101z" />
    <glyph glyph-name="uni04ED" unicode="&#x4ed;" horiz-adv-x="530" 
d="M26 64l38 69q64 -66 160 -66q68 0 118 42q50 43 59 109h-238v68h239q-9 69 -57 111t-113 42q-42 0 -78 -15q-35 -14 -35 -38v-25h-83v42q0 48 55 81q55 34 143 34q116 0 189 -76q74 -76 74 -188q0 -116 -76 -191q-75 -75 -193 -75q-123 0 -202 76zM370 606h-73v101h73
v-101zM206 606h-74v101h74v-101z" />
    <glyph glyph-name="uni04EE" unicode="&#x4ee;" horiz-adv-x="622" 
d="M82 36l46 74q35 -31 74 -31q30 0 47 18t33 61l-219 440q-10 22 -33 22h-20v86h61q33 0 49 -12t32 -46l143 -305l37 -87h2q12 38 30 87l111 305q13 35 29 46.5t54 11.5h54v-86h-16q-25 0 -34 -21l-192 -486q-50 -125 -156 -125q-39 0 -77 15.5t-55 32.5zM445 785h-254v68
h254v-68z" />
    <glyph glyph-name="uni04EF" unicode="&#x4ef;" horiz-adv-x="543" 
d="M3 -160l41 70q0 -1 9 -9.5t27.5 -17.5t36.5 -9q58 0 89 73l24 55l-174 401q-9 20 -31 20h-13v83h57q31 0 46 -10.5t27 -40.5l114 -285l18 -61h2q7 33 17 61l106 285q10 29 26 40t47 11h58v-83h-12q-24 0 -33 -20l-199 -494q-23 -57 -66.5 -88t-97.5 -31q-31 0 -61.5 12
t-44.5 26zM402 610h-254v68h254v-68z" />
    <glyph glyph-name="uni04F0" unicode="&#x4f0;" horiz-adv-x="622" 
d="M82 36l46 74q35 -31 74 -31q30 0 47 18t33 61l-219 440q-10 22 -33 22h-20v86h61q33 0 49 -12t32 -46l143 -305l37 -87h2q12 38 30 87l111 305q13 35 29 46.5t54 11.5h54v-86h-16q-25 0 -34 -21l-192 -486q-50 -125 -156 -125q-39 0 -77 15.5t-55 32.5zM436 781h-73v101
h73v-101zM272 781h-74v101h74v-101z" />
    <glyph glyph-name="uni04F1" unicode="&#x4f1;" horiz-adv-x="543" 
d="M3 -160l40 70q0 -1 9 -9.5t27.5 -17.5t37.5 -9q58 0 89 73l23 55l-173 401q-9 20 -31 20h-13v83h57q31 0 46 -10.5t27 -40.5l114 -285l18 -61h2q7 33 17 61l106 285q10 29 26 40t47 11h58v-83h-13q-23 0 -32 -20l-199 -494q-24 -57 -67 -88t-97 -31q-31 0 -61.5 12
t-44.5 26zM391 606h-73v101h73v-101zM227 606h-74v101h74v-101z" />
    <glyph glyph-name="uni04F2" unicode="&#x4f2;" horiz-adv-x="622" 
d="M82 36l46 74q35 -31 74 -31q30 0 47 18t33 61l-219 440q-10 22 -33 22h-20v86h61q33 0 49 -12t32 -46l143 -305l37 -87h2q12 38 30 87l111 305q13 35 29 46.5t54 11.5h54v-86h-16q-25 0 -34 -21l-192 -486q-50 -125 -156 -125q-39 0 -77 15.5t-55 32.5zM422 755h-75
l72 127h99zM277 755h-83l69 127h84z" />
    <glyph glyph-name="uni04F3" unicode="&#x4f3;" horiz-adv-x="543" 
d="M3 -160l40 70q0 -1 9 -9.5t27.5 -17.5t37.5 -9q58 0 89 73l23 55l-173 401q-9 20 -31 20h-13v83h57q31 0 46 -10.5t27 -40.5l114 -285l18 -61h2q7 33 17 61l106 285q10 29 26 40t47 11h58v-83h-13q-23 0 -32 -20l-199 -494q-24 -57 -67 -88t-97 -31q-31 0 -61.5 12
t-44.5 26zM379 580h-75l72 127h99zM234 580h-83l69 127h84z" />
    <glyph glyph-name="uni04F4" unicode="&#x4f4;" horiz-adv-x="651" 
d="M296 270q-108 0 -162.5 53t-54.5 153v122q0 22 -22 22h-43v86h101q34 0 49 -15t15 -49v-144q0 -70 33.5 -103.5t106.5 -33.5q85 0 150 48v297h100v-706h-100v286l2 33h-2q-88 -49 -173 -49zM427 781h-73v101h73v-101zM263 781h-74v101h74v-101z" />
    <glyph glyph-name="uni04F5" unicode="&#x4f5;" horiz-adv-x="541" 
d="M238 176q-79 0 -120.5 39t-41.5 113v73q0 22 -23 22h-36v83h91q34 0 48.5 -16t14.5 -48v-87q0 -47 22 -71t74 -24q61 0 113 36v210h97v-506h-97v183l1 32h-1q-58 -39 -142 -39zM387 606h-73v101h73v-101zM223 606h-74v101h74v-101z" />
    <glyph glyph-name="uni04F6" unicode="&#x4f6;" horiz-adv-x="517" 
d="M186 0h-88v620h-65v86h404q34 0 49 -15t15 -49v-89h-91v45q0 22 -22 22h-190v-534h35q34 0 48.5 -14.5t14.5 -48.5v-163h-90v118q0 22 -20 22z" />
    <glyph glyph-name="uni04F7" unicode="&#x4f7;" horiz-adv-x="441" 
d="M159 0h-74v423h-63v83h335q35 0 50 -14t15 -48v-77h-81v34q0 22 -22 22h-137v-342h24q33 0 47 -15t14 -48v-138h-90v98q0 22 -18 22z" />
    <glyph glyph-name="uni04F8" unicode="&#x4f8;" horiz-adv-x="855" 
d="M656 64v642h100v-598q0 -22 22 -22h43v-86h-101q-34 0 -49 15t-15 49zM98 64v534q0 22 -22 22h-43v86h101q34 0 49 -15t15 -49v-202h135q99 0 161 -55q64 -55 64 -160q0 -110 -67 -168q-67 -57 -174 -57h-154q-34 0 -49.5 15t-15.5 49zM198 354v-246q0 -22 22 -22h103
q61 0 96.5 36.5t35.5 99.5q0 62 -35.5 97t-96.5 35h-125zM549 781h-73v101h73v-101zM385 781h-74v101h74v-101z" />
    <glyph glyph-name="uni04F9" unicode="&#x4f9;" horiz-adv-x="724" 
d="M542 64v442h97v-401q0 -22 22 -22h40v-83h-95q-34 0 -49 15t-15 49zM84 55v346q0 22 -22 22h-41v83h96q64 0 64 -58v-127h100q86 0 134 -43t48 -118q0 -72 -50.5 -116t-131.5 -44h-142q-29 0 -42 13t-13 42zM181 251v-161q0 -20 19 -20h69q45 0 70.5 24.5t25.5 66.5
t-25 66t-71 24h-88zM479 606h-73v101h73v-101zM315 606h-74v101h74v-101z" />
    <glyph glyph-name="uni0524" unicode="&#x524;" horiz-adv-x="766" 
d="M199 0h-100v620h-66v86h559q34 0 49 -15t15 -49v-556h33q35 0 49 -14t14 -49v-163h-89v118q0 22 -21 22h-86v598q0 22 -22 22h-335v-620z" />
    <glyph glyph-name="uni0525" unicode="&#x525;" horiz-adv-x="618" 
d="M181 0h-97v423h-57v83h433q34 0 49.5 -15t15.5 -49v-361h23q33 0 47.5 -15t14.5 -47v-139h-90v98q0 22 -20 22h-72v401q0 22 -22 22h-225v-423z" />
    <glyph glyph-name="uni1E9E" unicode="&#x1e9e;" horiz-adv-x="638" 
d="M133 0h-100v86h43q22 0 22 22v398q0 88 57 143q57 57 145 57h273v-67l-139 -203l-24 -33v-2l25 -1q73 -6 119 -64q48 -57 48 -131q0 -85 -61 -145q-62 -60 -148 -60h-94v86h88q50 0 82 35t32 84q0 50 -31.5 83.5t-81.5 33.5h-88v69l113 169q27 43 40 56l5 5v2
q-7 -3 -44 -3h-110q-46 0 -76 -32t-30 -80v-444q0 -34 -15.5 -49t-49.5 -15z" />
    <glyph glyph-name="endash" unicode="&#x2013;" horiz-adv-x="647" 
d="M587 246h-527v78h527v-78z" />
    <glyph glyph-name="emdash" unicode="&#x2014;" horiz-adv-x="847" 
d="M787 246h-727v78h727v-78z" />
    <glyph glyph-name="quoteleft" unicode="&#x2018;" horiz-adv-x="222" 
d="M140 522h-92l66 195h69z" />
    <glyph glyph-name="quoteright" unicode="&#x2019;" horiz-adv-x="217" 
d="M123 523h-70l43 195h92z" />
    <glyph glyph-name="quotesinglbase" unicode="&#x201a;" horiz-adv-x="238" 
d="M109 -90h-70l43 195h92z" />
    <glyph glyph-name="quotedblleft" unicode="&#x201c;" horiz-adv-x="360" 
d="M279 522h-92l65 195h70zM140 522h-92l66 195h69z" />
    <glyph glyph-name="quotedblright" unicode="&#x201d;" horiz-adv-x="355" 
d="M261 523h-69l43 195h91zM123 523h-70l43 195h92z" />
    <glyph glyph-name="quotedblbase" unicode="&#x201e;" horiz-adv-x="377" 
d="M247 -90h-69l43 195h91zM109 -90h-70l43 195h92z" />
    <glyph glyph-name="dagger" unicode="&#x2020;" horiz-adv-x="426" 
d="M258 -50h-93v479h-121v77h121v200h93v-200h124v-77h-124v-479z" />
    <glyph glyph-name="daggerdbl" unicode="&#x2021;" horiz-adv-x="435" 
d="M169 171h-121v78h121v180h-121v77h121v200h93v-200h124v-77h-124v-180h124v-78h-124v-221h-93v221z" />
    <glyph glyph-name="bullet" unicode="&#x2022;" horiz-adv-x="456" 
d="M337 181q-45 -45 -109 -45t-110 45q-45 45 -45 110t45 110q46 45 110 45t109 -46q45 -45 45 -109q0 -63 -45 -110z" />
    <glyph glyph-name="ellipsis" unicode="&#x2026;" horiz-adv-x="736" 
d="M677 0h-99v103h99v-103zM418 0h-100v103h100v-103zM158 0h-99v103h99v-103z" />
    <glyph glyph-name="perthousand" unicode="&#x2030;" horiz-adv-x="1102" 
d="M48 570q0 60 44 104t107 44t107 -44q45 -44 45 -104q0 -62 -45 -105q-43 -43 -107 -43t-107 43q-44 44 -44 105zM157 0h-94l540 706h94zM273 570q0 31 -21.5 53t-52.5 22t-52.5 -22t-21.5 -53q0 -32 21.5 -53t52.5 -21t52.5 21t21.5 53zM808 31q-44 44 -44 105
q0 60 44 104q46 44 108 44q63 0 107 -44q45 -43 45 -104q0 -62 -45 -105q-43 -43 -107 -43t-108 43zM410 136q0 60 44 104t107 44t107 -44q45 -43 45 -104q0 -62 -45 -105q-43 -43 -107 -43t-107 43q-44 44 -44 105zM842 136q0 -32 21 -53t53 -21q31 -2 52.5 21.5t21.5 52.5
t-22 53q-23 22 -52 22t-52.5 -22t-21.5 -53zM561 62q32 0 53.5 21.5t21.5 52.5t-22 53t-53 22t-52 -22t-21 -53t21 -52.5t52 -21.5z" />
    <glyph glyph-name="guilsinglleft" unicode="&#x2039;" horiz-adv-x="348" 
d="M302 77h-97l-164 205l164 206h97l-164 -206z" />
    <glyph glyph-name="guilsinglright" unicode="&#x203a;" horiz-adv-x="348" 
d="M142 77h-97l164 205l-164 206h97l164 -206z" />
    <glyph glyph-name="fraction" unicode="&#x2044;" horiz-adv-x="150" 
d="M259 706l-286 -706h-81l287 706h80z" />
    <glyph glyph-name="Euro" unicode="&#x20ac;" 
d="M95 258h-70v63h60q-2 24 -2 33l2 39h-60v64h71q32 117 124 188q92 73 215 73q47 0 83 -9l12 -3l-23 -91q-36 11 -74 11q-83 0 -145 -45.5t-87 -123.5h277l-13 -64h-278q-3 -17 -3 -37l3 -35h265l-13 -63h-235q23 -80 86 -128t146 -48q42 0 82 10l11 4l20 -91
q-51 -17 -114 -17q-127 0 -219 74q-93 76 -121 196z" />
    <glyph glyph-name="numero" unicode="&#x2116;" horiz-adv-x="1069" 
d="M141 0h-100v86h43q22 0 22 22v598h90l315 -447l58 -96h2q-6 57 -6 96v383q0 34 15.5 49t49.5 15h100v-86h-43q-22 0 -22 -22v-598h-90l-315 447l-59 96h-2q7 -53 7 -96v-383q0 -34 -15.5 -49t-49.5 -15zM746 470q0 59 41 100q43 41 102 41q60 0 101 -41q42 -40 42 -100
t-42 -101q-41 -41 -101 -41q-59 0 -102 41q-41 41 -41 101zM821 471q0 -31 19.5 -51.5t48.5 -20.5t49 20.5t20 51.5q0 29 -20 49t-49 20t-48.5 -20t-19.5 -49zM1022 197h-261v69h261v-69z" />
    <glyph glyph-name="trademark" unicode="&#x2122;" horiz-adv-x="1002" 
d="M500 266h-58v67h23q9 0 11 9l28 364h70l104 -230l14 -42h2q4 20 13 42l104 230h70l29 -364q0 -9 10 -9h24v-67h-59q-27 0 -37.5 9t-11.5 36l-17 218l1 30h-2l-95 -212h-61l-95 212h-2l1 -30l-17 -218q-1 -27 -11.5 -36t-37.5 -9zM286 266h-76v373h-76q-9 0 -9 -9v-30h-67
v61q0 26 9.5 35.5t37.5 9.5h286q27 0 37 -9.5t10 -35.5v-61h-66v30q0 9 -9 9h-77v-373z" />
    <glyph glyph-name="minus" unicode="&#x2212;" 
d="M547 246h-517v78h517v-78z" />
    <glyph glyph-name="infinity" unicode="&#x221e;" horiz-adv-x="460" 
d="M412 349q0 -74 -53 -129q-53 -53 -128 -53q-74 0 -129 53q-53 55 -53 129q0 75 53 128q55 53 129 53q75 0 128 -53t53 -128z" />
    <glyph glyph-name="approxequal" unicode="&#x2248;" 
d="M79 321l-41 59q70 73 151 73q49 0 107 -35q59 -35 91 -35q59 0 110 55l41 -59q-71 -72 -151 -72q-49 0 -108 35q-58 35 -90 35q-56 0 -110 -56zM79 133l-41 58q70 73 151 73q49 0 107 -35q59 -35 91 -35q59 0 110 55l41 -59q-71 -72 -151 -72q-49 0 -108 35
q-58 35 -90 35q-58 0 -110 -55z" />
    <glyph glyph-name="notequal" unicode="&#x2260;" 
d="M156 39l-52 34l55 78h-110v78h163l79 111h-242v78h295l81 115l51 -35l-57 -80h107v-78h-159l-80 -111h239v-78h-291z" />
    <glyph glyph-name="lessequal" unicode="&#x2264;" 
d="M514 44l-466 208v66l466 208v-89l-357 -151v-2l357 -151v-89zM49 -173v78h465v-78h-465z" />
    <glyph glyph-name="greaterequal" unicode="&#x2265;" 
d="M529 252l-466 -208v89l357 151v2l-357 151v89l466 -208v-66zM62 -173v78h465v-78h-465z" />
    <glyph glyph-name="commaaccent" unicode="&#xf6c3;" horiz-adv-x="335" 
d="M131 -59h79q6 -27 6 -49q0 -41 -24 -92h-69q19 48 19 82q0 28 -11 59z" />
    <glyph glyph-name="cyrbreve" unicode="&#xf6d4;" horiz-adv-x="324" 
d="M167 739q-62 0 -105 34t-43 94v15h78v-14q0 -30 20.5 -48t49.5 -18q30 0 50.5 18t20.5 49v13h77v-15q0 -60 -43 -94t-105 -34z" />
    <glyph glyph-name="apple" unicode="&#xf8ff;" horiz-adv-x="1130" 
d="M168 56l-126 72v278l126 71v151l265 142l134 -71l132 71l265 -142v-151l124 -71v-278l-124 -72v-152l-265 -141l-132 71l-134 -71l-265 141v152zM94 391v-249l114 -64v-139l238 -126l121 66l118 -66l238 126v139l114 64v249l-114 66v136l-238 126l-118 -64l-121 64
l-238 -126v-136zM242 94l-99 60v225l99 58v123l215 114l110 -59l107 59l214 -114v-123l100 -58v-225l-100 -60v-121l-214 -114l-107 58l-110 -58l-215 114v121zM438 438v-438h79v204h206v69h-206v165h151q14 0 19 -5.5t5 -20.5v-33h73v74q0 28 -12 40.5t-42 12.5h-331v-68
h58z" />
    <glyph glyph-name="NULL" horiz-adv-x="0" 
 />
    <glyph glyph-name="CR" horiz-adv-x="333" 
 />
    <glyph glyph-name="zero.tnum" 
d="M288 -12q-249 0 -249 366q0 364 249 364q250 0 250 -364q0 -366 -250 -366zM288 79q149 0 149 275q0 273 -149 273q-148 0 -148 -273q0 -275 148 -275z" />
    <glyph glyph-name="one.tnum" 
d="M507 0h-408v86h155v456l1 43h-2q-7 -14 -33 -40l-67 -65l-59 62l168 164h92v-620h153v-86z" />
    <glyph glyph-name="two.tnum" 
d="M40 81q0 53 20 95.5t51.5 71t70 52.5l76.5 45.5t69.5 44t51.5 54t20 70.5q0 49 -34 80.5t-90 31.5q-45 0 -77 -20t-32 -47v-31h-92v60q0 42 35 74q64 56 170 56q97 0 159 -57q63 -55 63 -146q0 -63 -35 -116t-92 -88l-61.5 -35.5t-65 -38.5t-51.5 -37t-41 -45.5
t-12 -49.5q0 -19 25 -19h251q22 0 22 22v45h92v-89q0 -34 -15 -49t-49 -15h-362q-39 0 -53 17.5t-14 63.5z" />
    <glyph glyph-name="three.tnum" 
d="M54 77l-10 10l54 75q8 -9 23 -23q13 -12 61 -35q45 -22 95 -22q59 0 100 36q41 38 41 93q0 57 -45 91q-44 35 -108 35h-49l-22 53l147 185q18 25 36 41l6 5v2q-21 -3 -60 -3h-137q-22 0 -22 -22v-45h-91v89q0 34 13.5 49t46.5 15h372v-63l-185 -224q80 -9 139 -61
q61 -52 61 -146q0 -92 -68 -158t-175 -66q-76 0 -134 29t-89 60z" />
    <glyph glyph-name="four.tnum" 
d="M346 187h-333v64l319 455h114v-433h110v-86h-110v-187h-100v187zM122 272v-2q28 3 60 3h165v243l4 72h-2q-16 -32 -35 -59l-156 -212z" />
    <glyph glyph-name="five.tnum" 
d="M60 77l-9 10l55 73q9 -11 26 -28q61 -50 138 -50q66 0 109 40t43 101q0 64 -49 104q-47 40 -118 40q-72 0 -119 -27l-16 -9l-41 19l28 292q3 35 17 49.5t47 14.5h247q33 0 48 -15t15 -49v-89h-91v45q0 22 -22 22h-148q-19 0 -22 -22l-14 -129l-5 -37h2q39 21 91 21
q114 0 182 -67q70 -66 70 -165q0 -96 -71 -165q-71 -68 -183 -68q-76 0 -130.5 29t-79.5 60z" />
    <glyph glyph-name="six.tnum" 
d="M310 -12q-114 0 -189 89q-75 90 -75 236q0 147 76 271q39 62 102.5 98t139.5 36q80 0 122 -22l15 -7l-32 -85q-44 23 -100 23q-91 0 -145 -71q-53 -70 -67 -171h2q20 31 64 50t92 19q99 0 160 -66q62 -67 62 -164q0 -105 -64 -170q-65 -66 -163 -66zM151 271
q0 -70 47 -132q46 -60 112 -60q58 0 93.5 40.5t35.5 104.5q0 66 -39.5 106t-105.5 40q-58 0 -101 -30q-42 -30 -42 -69z" />
    <glyph glyph-name="seven.tnum" 
d="M204 0h-110l299 556l41 65v2q-16 -3 -51 -3h-213q-22 0 -22 -22v-45h-91v89q0 34 13.5 49t46.5 15h430v-68z" />
    <glyph glyph-name="eight.tnum" 
d="M42 202q0 66 41 114q30 37 64 60l12 7v2q-14 8 -30 22q-57 53 -57 122q0 77 59 133t161 56q100 0 160 -54q61 -52 61 -137q0 -47 -22 -88q-21 -42 -43 -61l-21 -19v-2q106 -61 106 -162q0 -85 -70 -146q-68 -61 -175 -61q-101 0 -174 59q-72 60 -72 155zM286 416
q39 -17 54 -17q20 0 47 39q28 38 28 83q0 48 -34 77t-89 29t-88.5 -28t-33.5 -72q0 -40 26 -63t90 -48zM143 207q0 -57 42 -93q44 -35 103 -35t100 34q43 34 43 85q0 40 -27.5 65t-90.5 51q-66 26 -73 26q-24 0 -61 -42q-36 -40 -36 -91z" />
    <glyph glyph-name="nine.tnum" 
d="M90 10l-16 7l32 86q45 -24 101 -24q89 0 145 71q55 70 67 172h-2q-21 -32 -64 -50.5t-92 -18.5q-99 0 -161 65q-62 67 -62 164q0 105 64 170q64 66 163 66q114 0 189 -90q75 -88 75 -235q0 -150 -77 -271q-38 -62 -101 -98t-140 -36q-81 0 -121 22zM281 336q58 0 100 30
q43 30 43 69q0 70 -47 131q-46 61 -111 61q-59 0 -94.5 -40.5t-35.5 -104.5q0 -65 39.5 -105.5t105.5 -40.5z" />
    <glyph glyph-name="hyphen.case" horiz-adv-x="410" 
d="M351 305h-292v86h292v-86z" />
    <glyph glyph-name="parenleft.case" horiz-adv-x="271" 
d="M244 -65h-85q-118 181 -118 424q0 231 113 406h85q-110 -185 -110 -399q0 -231 115 -431z" />
    <glyph glyph-name="parenright.case" horiz-adv-x="271" 
d="M113 -65h-86q115 200 115 431q0 214 -110 399h85q113 -175 113 -406q0 -241 -117 -424z" />
    <glyph glyph-name="bracketleft.case" horiz-adv-x="282" 
d="M78 -1v702q0 34 15 49t49 15h102v-73h-59q-22 0 -22 -22v-639q0 -22 22 -22h59v-74h-102q-34 0 -49 15t-15 49z" />
    <glyph glyph-name="bracketright.case" horiz-adv-x="282" 
d="M39 -65v74h58q22 0 22 22v639q0 22 -22 22h-58v73h101q34 0 49.5 -15t15.5 -49v-702q0 -34 -15.5 -49t-49.5 -15h-101z" />
    <glyph glyph-name="braceleft.case" horiz-adv-x="323" 
d="M110 107v96q0 53 -25.5 79t-50.5 28l-9 2v86q3 0 9 1t20.5 8t26 18t20.5 33t9 51v84q0 87 42 129q51 47 120 45l23 -1v-74h-14q-25 0 -52 -17q-34 -20 -34 -88v-103q0 -50 -24.5 -82t-48.5 -42l-8 -3v-2l4 -1q4 -2 11.5 -6.5t16 -10.5t17.5 -16.5t16 -23t11.5 -30.5
t4.5 -39v-115q0 -67 34 -89q28 -16 52 -16h14v-74q-12 -2 -23 -2q-43 0 -78 16q-84 38 -84 159z" />
    <glyph glyph-name="braceright.case" horiz-adv-x="323" 
d="M28 -66v74h14q24 0 51 16q35 22 35 89v115q0 53 24 84t48 40l9 3v2l-4 1q-4 2 -11.5 6.5t-16 11t-17.5 17t-16 23t-11.5 30.5t-4.5 38v103q0 68 -35 88q-26 17 -51 17h-14v74q6 1 23 1q43 0 77 -16q85 -38 85 -158v-84q0 -53 26 -80t50 -29l9 -2v-86q-3 0 -9 -1t-20.5 -8
t-26 -17.5t-20.5 -32t-9 -50.5v-96q0 -89 -43 -130q-49 -47 -119 -45z" />
    <glyph glyph-name="at.case" horiz-adv-x="782" 
d="M413 722q136 0 197 -58q63 -57 63 -146v-283h72v-73h-273q-91 0 -149 55t-58 134q0 77 57 132q59 56 150 56h108q-2 46 -45.5 74.5t-116.5 28.5q-114 0 -194 -86q-79 -85 -79 -204q0 -122 79 -205q80 -83 205 -83v-79q-167 0 -274 106q-107 107 -107 261q0 156 106 262
q106 108 259 108zM479 235h101v237h-99q-50 0 -84 -35t-34 -84t33 -84q33 -34 83 -34z" />
    <glyph glyph-name="guillemotleft.case" horiz-adv-x="549" 
d="M503 137h-97l-164 205l164 206h97l-164 -206zM301 137h-97l-164 205l164 206h97l-164 -206z" />
    <glyph glyph-name="guillemotright.case" horiz-adv-x="549" 
d="M345 137h-97l164 205l-164 206h97l164 -206zM143 137h-97l164 205l-164 206h97l164 -206z" />
    <glyph glyph-name="guilsinglleft.case" horiz-adv-x="348" 
d="M301 137h-97l-164 205l164 206h97l-164 -206z" />
    <glyph glyph-name="guilsinglright.case" horiz-adv-x="348" 
d="M143 137h-97l164 205l-164 206h97l164 -206z" />
    <glyph glyph-name="endash.case" horiz-adv-x="646" 
d="M586 306h-526v78h526v-78z" />
    <glyph glyph-name="emdash.case" horiz-adv-x="846" 
d="M786 306h-726v78h726v-78z" />
    <glyph glyph-name="periodcentered.case" horiz-adv-x="217" 
d="M158 294h-99v103h99v-103z" />
    <glyph glyph-name="questiondown.case" horiz-adv-x="464" 
d="M318 609h-100v97h100v-97zM44 170q0 86 62 143q6 6 37.5 34t41.5 40t23 36.5t13 49.5v39h94v-45q0 -78 -60 -136q-4 -4 -24 -21.5t-26.5 -24t-21 -23t-20.5 -27t-11.5 -26.5t-5.5 -31q0 -42 32.5 -71t81.5 -29q51 0 100 32l14 11l53 -69q-7 -7 -30 -22q-66 -42 -144 -42
q-87 0 -149 50q-60 51 -60 132z" />
    <glyph glyph-name="exclamdown.case" horiz-adv-x="268" 
d="M183 609h-99v97h99v-97zM184 0h-100l7 512h87z" />
    <glyph glyph-name="bullet.case" horiz-adv-x="453" 
d="M72 353q0 65 45 110t110 45q64 0 109 -46q45 -45 45 -109q0 -63 -45 -110q-45 -45 -109 -45q-63 0 -110 45q-45 47 -45 110z" />
    <glyph glyph-name="uni0433.BUL" horiz-adv-x="443" 
d="M33 125q0 44 27 78.5t69 54.5l47.5 21.5t49 22.5t39 22t30.5 27t10 31q0 26 -22.5 41t-59.5 15t-63 -13t-26 -33v-21h-87v45q0 51 54 76q55 26 124 26q80 0 128 -34t48 -98q0 -29 -12 -54t-26 -40t-43.5 -32.5t-44 -24l-49.5 -21.5q-95 -42 -95 -88q0 -27 22.5 -42
t60.5 -15q51 0 94 22q41 21 60 40l48 -65q-10 -11 -32 -28q-22 -15 -68 -32q-48 -18 -102 -18q-81 0 -131 36.5t-50 100.5z" />
    <glyph glyph-name="uni0434.BUL" horiz-adv-x="594" 
d="M82 -168l32 78q62 -34 138 -34q75 0 118 35.5t43 105.5v34l1 32h-2q-47 -77 -150 -77q-104 0 -165 73q-62 74 -62 186q0 111 59 182q60 71 163 71q65 0 104.5 -23t54.5 -48l4 -8h2q-1 5 -1 16q0 51 57 51h94v-83h-41q-22 0 -22 -20v-382q0 -60 -21.5 -106t-58 -72.5
t-81 -39.5t-94.5 -13q-90 0 -172 42zM281 90q62 0 98 42.5t36 131.5q0 170 -143 170q-65 0 -101.5 -44.5t-36.5 -122.5q0 -81 39.5 -129t107.5 -48z" />
    <glyph glyph-name="uni0436.BUL" horiz-adv-x="764" 
d="M129 0h-113l121 208q22 37 49 46l9 3v2q-24 7 -40 40l-52 104q-9 20 -45 20h-26v83h60q38 0 54.5 -9t30.5 -38l65 -131q16 -30 58 -30h35v408h94v-408h34q45 0 58 30l65 131q15 29 31.5 38t53.5 9h61v-83h-27q-35 0 -45 -20l-51 -104q-6 -14 -16 -24t-17 -13l-7 -3v-2
q33 -7 58 -49l121 -208h-112l-101 176q-23 41 -71 41h-35v-217h-94v217h-35q-46 0 -72 -41z" />
    <glyph glyph-name="uni0438.BUL" horiz-adv-x="618" 
d="M80 182v219q0 22 -22 22h-41v83h95q34 0 49 -15t15 -47v-240q0 -63 21.5 -94.5t73.5 -31.5q75 0 120 56t45 135v237h97v-401q0 -22 22 -22h41v-83h-93q-64 0 -64 56v19l1 29h-2q-20 -44 -69 -80t-117 -36q-172 0 -172 194z" />
    <glyph glyph-name="uni0439.BUL" horiz-adv-x="618" 
d="M80 182v219q0 22 -22 22h-41v83h95q34 0 49 -15t15 -47v-240q0 -63 21.5 -94.5t73.5 -31.5q75 0 120 56t45 135v237h97v-401q0 -22 22 -22h41v-83h-93q-64 0 -64 56v19l1 29h-2q-20 -44 -69 -80t-117 -36q-172 0 -172 194zM305 564q-62 0 -105 34t-43 94v15h78v-14
q0 -30 20.5 -48t49.5 -18q30 0 50.5 18t20.5 49v13h77v-15q0 -60 -43 -94t-105 -34z" />
    <glyph glyph-name="uni043A.BUL" horiz-adv-x="515" 
d="M164 0h-97v601q0 22 -22 22h-41v83h95q36 0 50.5 -12.5t14.5 -45.5v-328h45q36 0 52 22l117 164h112l-138 -188q-19 -27 -34 -36l-4 -2v-2q17 -6 34 -38l75 -137q11 -20 44 -20h30v-83h-70q-35 0 -51 9t-32 38l-93 170q-11 21 -50 21h-37v-238z" />
    <glyph glyph-name="uni043B.BUL" horiz-adv-x="519" 
d="M65 0h-50v83h12q23 0 30 19l143 404h119l143 -404q6 -19 31 -19h11v-83h-53q-32 0 -48.5 11t-26.5 39l-94 282l-23 81h-2q-17 -63 -23 -81l-94 -282q-10 -28 -26.5 -39t-48.5 -11z" />
    <glyph glyph-name="uni043F.BUL" horiz-adv-x="623" 
d="M182 0h-97v401q0 22 -22 22h-41v83h93q64 0 64 -56v-19l-2 -29h2q19 42 68 79t123 37q173 0 173 -194v-219q0 -22 22 -22h41v-83h-96q-34 0 -49 15t-15 49v238q0 65 -20.5 96t-74.5 31q-57 0 -100.5 -34.5t-59.5 -89.5q-9 -25 -9 -68v-237z" />
    <glyph glyph-name="uni0442.BUL" horiz-adv-x="934" 
d="M182 0h-97v401q0 22 -22 22h-41v83h93q64 0 64 -56v-19l-1 -29h2q20 47 67 81q50 35 106 35q126 0 153 -115h2q21 48 70 81q49 34 109 34q167 0 167 -194v-219q0 -22 22 -22h41v-83h-96q-34 0 -49 15t-15 49v239q0 64 -19.5 95.5t-69.5 31.5q-49 0 -89 -38
q-38 -37 -52 -92q-9 -32 -9 -69v-231h-97v303q0 64 -19 95.5t-68 31.5q-51 0 -90.5 -37.5t-54.5 -96.5q-7 -27 -7 -65v-231z" />
    <glyph glyph-name="uni0446.BUL" horiz-adv-x="632" 
d="M80 182v219q0 22 -22 22h-41v83h95q34 0 49 -15t15 -47v-240q0 -63 21.5 -94.5t73.5 -31.5q75 0 120 56t45 135v237h97v-401q0 -22 22 -22h60v-203h-89v120h-23q-64 0 -64 56v19l1 29h-2q-20 -44 -69 -80t-117 -36q-172 0 -172 194z" />
    <glyph glyph-name="uni0448.BUL" horiz-adv-x="934" 
d="M752 506h97v-401q0 -22 22 -22h41v-83h-93q-64 0 -64 56v19l1 29h-2q-21 -49 -68 -82q-47 -34 -105 -34q-126 0 -153 115h-2q-20 -47 -71 -82q-49 -33 -108 -33q-167 0 -167 194v219q0 22 -22 22h-41v83h96q34 0 49 -15t15 -49v-239q0 -64 19.5 -95.5t69.5 -31.5
q49 0 89 38q38 37 52 92q9 32 9 69v231h97v-303q0 -64 19 -95.5t68 -31.5q51 0 90.5 37.5t54.5 96.5q7 27 7 65v231z" />
    <glyph glyph-name="uni0449.BUL" horiz-adv-x="950" 
d="M752 506h97v-401q0 -22 22 -22h70v-203h-90v120h-32q-64 0 -64 56v19l1 29h-2q-21 -49 -68 -82q-47 -34 -105 -34q-126 0 -153 115h-2q-20 -47 -71 -82q-49 -33 -108 -33q-167 0 -167 194v219q0 22 -22 22h-41v83h96q34 0 49 -15t15 -49v-239q0 -64 19.5 -95.5
t69.5 -31.5q49 0 89 38q38 37 52 92q9 32 9 69v231h97v-303q0 -64 19 -95.5t68 -31.5q51 0 90.5 37.5t54.5 96.5q7 27 7 65v231z" />
    <glyph glyph-name="uni044A.BUL" horiz-adv-x="617" 
d="M182 182v224q0 22 -21 22h-47q-22 0 -22 -22v-38h-74v76q0 33 15 47.5t49 14.5h132q65 0 65 -62v-77q0 -22 -2 -48l2 1q46 55 132 55q82 0 132 -51t50 -142q0 -86 -57 -140t-154 -54q-99 0 -149.5 52t-50.5 142zM278 180q0 -51 28.5 -83.5t77.5 -32.5q50 0 80.5 31
t30.5 84q0 117 -108 117q-49 0 -79 -32t-30 -84z" />
    <glyph glyph-name="uni044C.BUL" horiz-adv-x="515" 
d="M79 182v219q0 22 -20 22h-43v83h96q34 0 49 -15t15 -47v-77q0 -22 -2 -48l2 1q48 55 133 55q82 0 132 -51t50 -142q0 -86 -57 -140t-154 -54q-98 0 -149.5 52.5t-51.5 141.5zM176 180q0 -52 28.5 -84t77.5 -32q50 0 80.5 31t30.5 84q0 117 -108 117q-49 0 -79 -31.5
t-30 -84.5z" />
    <glyph glyph-name="uni044E.BUL" horiz-adv-x="811" 
d="M164 0h-97v601q0 22 -22 22h-41v83h95q34 0 49.5 -15t15.5 -49v-349h92q14 99 85 162q72 63 173 63q112 0 188 -75t76 -189q0 -115 -76 -191q-76 -75 -188 -75q-101 0 -174 64q-71 64 -85 165h-91v-217zM349 254q0 -78 47 -131q48 -51 118 -51t118 51q48 53 48 131
t-48 129t-118 51t-118 -51q-47 -52 -47 -129z" />
    <glyph glyph-name="uni0432.BUL" horiz-adv-x="572" 
d="M55 242v192q0 124 66 204t182 80q80 0 129 -40t49 -99q0 -97 -122 -156v-2q43 -4 82 -24q42 -20 70.5 -65t28.5 -102q0 -108 -69 -175q-67 -67 -179 -67q-114 0 -176 72q-61 71 -61 182zM150 464v-96h2q19 34 74 63l59 29q55 27 77.5 52.5t22.5 60.5q0 32 -26.5 52
t-65.5 20q-67 0 -105 -49.5t-38 -131.5zM150 223q0 -72 39 -113t102 -41q66 0 107.5 42t41.5 116q0 69 -43 100q-43 33 -102 33q-55 0 -101 -35q-44 -35 -44 -102z" />
    <glyph glyph-name="uni0437.BUL" horiz-adv-x="448" 
d="M16 -159l37 76q63 -42 126 -42q62 0 100 38t38 98t-39.5 92.5t-116.5 32.5h-52v79h49q61 0 100 32.5t39 88.5q0 48 -29.5 76t-82.5 28q-34 0 -58 -12t-24 -31v-25h-87v48q0 50 52 74q53 24 121 24q97 0 151.5 -47t54.5 -123q1 -54 -28.5 -98.5t-78.5 -66.5v-2
q128 -43 128 -172q0 -96 -65 -158q-64 -61 -164 -61q-97 0 -171 51z" />
    <glyph glyph-name="uni0414.ALT" horiz-adv-x="704" 
d="M10 -140v163q0 35 14 49t49 14h13l213 620h106l213 -620h13q34 0 48.5 -14.5t14.5 -48.5v-163h-90v118q0 22 -21 22h-462q-21 0 -21 -22v-118h-90zM324 501l-136 -415h325l-137 415l-25 98h-2q-11 -50 -25 -98z" />
    <glyph glyph-name="uni041B.ALT" horiz-adv-x="648" 
d="M66 0h-54v86h15q26 0 33 22l209 598h110l208 -598q9 -22 34 -22h15v-86h-57q-38 0 -54.5 11.5t-27.5 46.5l-147 433l-27 103h-2q-15 -64 -27 -103l-147 -433q-11 -35 -27 -46.5t-54 -11.5z" />
    <glyph glyph-name="uni0434.ALT" horiz-adv-x="582" 
d="M10 -120v138q0 63 63 63l161 425h119l157 -425q62 0 62 -63v-138h-89v98q0 22 -22 22h-344q-18 0 -18 -22v-98h-89zM268 341l-98 -260h243l-96 260l-24 81h-2q-18 -66 -23 -81z" />
    <glyph glyph-name="uni043B.ALT" horiz-adv-x="519" 
d="M65 0h-50v83h12q23 0 30 19l143 404h119l143 -404q6 -19 31 -19h11v-83h-53q-32 0 -48.5 11t-26.5 39l-95 282l-22 81h-2q-17 -63 -23 -81l-94 -282q-10 -28 -26.5 -39t-48.5 -11z" />
    <glyph glyph-name="uni0409.ALT" horiz-adv-x="877" 
d="M58 0h-48v86h11q24 0 35 23l237 597h144q34 0 49 -15t15 -49v-224h123q97 0 165.5 -50t68.5 -156q0 -104 -67 -158q-66 -54 -171 -54h-155q-34 0 -49 15t-15 49v534q0 22 -22 22h-16l-221 -562q-14 -35 -31 -46.5t-53 -11.5zM501 334v-228q0 -22 22 -22h103q61 0 95 33.5
t34 92.5t-33.5 91.5t-94.5 32.5h-126z" />
    <glyph glyph-name="uni0459.ALT" horiz-adv-x="745" 
d="M57 0h-46v83h12q27 0 37 24l168 399h147q63 0 63 -58v-127h99q88 0 137.5 -42t49.5 -117q0 -73 -49.5 -117.5t-137.5 -44.5h-140q-29 0 -42 13t-13 42v354q0 22 -22 22h-28l-159 -381q-12 -29 -27.5 -39.5t-48.5 -10.5zM438 251v-161q0 -20 19 -20h70q47 0 74 25t27 65
q0 43 -26.5 67t-75.5 24h-88z" />
    <glyph glyph-name="uni04C5.ALT" horiz-adv-x="720" 
d="M67 0h-54v86h15q26 0 33 22l209 598h110l206 -598q7 -22 32 -22h93v-57l-72 -169h-73l42 140h-34q-35 0 -51 11.5t-28 46.5l-147 433q-11 33 -20 85l-4 18h-2q-15 -64 -27 -103l-147 -433q-11 -35 -27 -46.5t-54 -11.5z" />
    <glyph glyph-name="uni04C6.ALT" horiz-adv-x="585" 
d="M65 0h-50v83h12q23 0 30 19l143 404h119l143 -404q7 -19 26 -19h87v-55l-63 -148h-68l35 120h-28q-35 0 -50 10t-25 40l-94 282l-23 81h-2q-17 -63 -23 -81l-94 -282q-10 -28 -26.5 -39t-48.5 -11z" />
    </font>
</defs>
</svg>
