<?xml version="1.0" standalone="no"?>
<!DOCTYPE svg PUBLIC "-//W3C//DTD SVG 1.1//EN" "http://www.w3.org/Graphics/SVG/1.1/DTD/svg11.dtd" >
<svg>
<metadata>
Created by FontForge 20090622 at Mon Feb 10 08:46:02 2020
 By deploy user
Copyright (c) 2008-2012 by Jos Buivenga/exljbris. All rights reserved.
</metadata>
<defs>
<font id="MuseoCyrillic-500Italic" horiz-adv-x="577" >
  <font-face 
    font-family="Museo Cyrillic"
    font-weight="500"
    font-style="italic"
    font-stretch="normal"
    units-per-em="1000"
    panose-1="2 0 0 0 0 0 0 0 0 0"
    ascent="772"
    descent="-228"
    x-height="506"
    cap-height="706"
    bbox="-189 -215 1068 893"
    underline-thickness="50"
    underline-position="-50"
    slope="-11"
    unicode-range="U+0020-U+FB04"
  />
<missing-glyph horiz-adv-x="510" 
d="M505 0h-500v700h500v-700zM85 650l170 -255l170 255h-340zM455 605l-170 -255l170 -255v510zM55 605v-510l170 255zM255 305l-170 -255h340z" />
    <glyph glyph-name="f_f" unicode="ff" horiz-adv-x="633" 
d="M125 0h-96l83 428h-63l15 78h63l3 17q23 119 97 157q61 31 119 31l48 -3l-17 -81q-4 2 -27 2q-26 0 -47 -7q-24 -8 -46.5 -34.5t-30.5 -65.5l-2 -16h218l2 17q22 118 98 157q61 31 119 31l47 -3l-16 -81q-6 2 -28 2q-40 0 -76 -24q-36 -23 -47 -83l-2 -16h119l-16 -78
h-119l-83 -428h-97l83 428h-218z" />
    <glyph glyph-name="fi" unicode="fi" horiz-adv-x="586" 
d="M125 0h-96l83 428h-63l15 78h63l3 17q23 119 97 157q61 31 119 31l48 -3l-17 -81q-4 2 -27 2q-26 0 -47 -7q-24 -8 -46.5 -34.5t-30.5 -65.5l-2 -16h252q56 0 56 -44q0 -11 -4 -31l-61 -317q-3 -15 -3 -16q0 -15 19 -15h40l-15 -83h-93q-56 0 -56 46q0 14 3 25l62 319
q3 15 3 22q0 16 -18 16h-201zM554 605h-87l20 101h88z" />
    <glyph glyph-name="fl" unicode="fl" horiz-adv-x="581" 
d="M125 0h-96l83 428h-63l15 78h63l3 17q9 47 29 82t42.5 53.5t51 30t50 14.5t43.5 3h162q57 0 57 -44q0 -10 -4 -30l-100 -518q-3 -15 -3 -16q0 -15 18 -15h41l-15 -83h-94q-55 0 -55 46q0 1 2 23l101 518q3 15 3 23q0 15 -18 15h-91q-17 0 -34 -4t-36 -14.5t-33.5 -32
t-20.5 -52.5l-2 -16h119l-15 -78h-120z" />
    <glyph glyph-name="f_f_i" unicode="ffi" horiz-adv-x="901" 
d="M125 0h-96l83 428h-63l15 78h63l3 17q23 119 97 157q61 31 119 31l48 -3l-17 -81q-4 2 -27 2q-26 0 -47 -7q-24 -8 -46.5 -34.5t-30.5 -65.5l-2 -16h218l2 17q22 118 98 157q61 31 119 31l47 -3l-16 -81q-6 2 -28 2q-40 0 -76 -24q-36 -23 -47 -83l-2 -16h251
q56 0 56 -44q0 -11 -4 -31l-61 -317q-3 -15 -3 -16q0 -15 18 -15h41l-15 -83h-93q-56 0 -56 46q0 1 0.5 4t1 9t0.5 12l62 319q3 15 3 22q0 16 -18 16h-199l-83 -428h-97l83 428h-218zM869 605h-88l20 101h88z" />
    <glyph glyph-name="f_f_l" unicode="ffl" horiz-adv-x="895" 
d="M125 0h-96l83 428h-63l15 78h63l3 17q23 119 97 157q61 31 119 31l48 -3l-17 -81q-4 2 -27 2q-26 0 -47 -7q-24 -8 -46.5 -34.5t-30.5 -65.5l-2 -16h217l3 17q18 93 72 135q64 50 144 48h163q56 0 56 -44q0 -10 -4 -30l-101 -518q-2 -14 -2 -16q0 -15 18 -15h42l-17 -83
h-93q-55 0 -55 46q0 1 2 23l101 518q3 15 3 23q0 15 -18 15h-91q-26 0 -47 -7q-24 -7 -46 -33t-30 -63l-3 -16h120l-16 -78h-119l-83 -428h-97l83 428h-218z" />
    <glyph glyph-name="f_j" unicode="fj" horiz-adv-x="585" 
d="M125 0h-96l83 428h-63l15 78h63l3 17q23 119 97 157q61 31 119 31l48 -3l-17 -81q-4 2 -27 2q-26 0 -47 -7q-24 -8 -46.5 -34.5t-30.5 -65.5l-2 -16h271q57 0 57 -44q0 -9 -4 -30l-87 -450q-17 -93 -75 -140q-22 -19 -53 -30q-45 -18 -94 -18l-41 2l17 83q10 -2 21 -2
q108 0 130 118l77 395q3 15 3 22q0 16 -18 16h-220zM574 605h-87l19 101h87z" />
    <glyph glyph-name=".notdef" horiz-adv-x="510" 
d="M505 0h-500v700h500v-700zM85 650l170 -255l170 255h-340zM455 605l-170 -255l170 -255v510zM55 605v-510l170 255zM255 305l-170 -255h340z" />
    <glyph glyph-name=".null" horiz-adv-x="0" 
 />
    <glyph glyph-name="nonmarkingreturn" horiz-adv-x="333" 
 />
    <glyph glyph-name="space" unicode=" " horiz-adv-x="269" 
 />
    <glyph glyph-name="exclam" unicode="!" horiz-adv-x="271" 
d="M159 194h-87l93 512h100zM128 0h-100l19 97h100z" />
    <glyph glyph-name="quotedbl" unicode="&#x22;" horiz-adv-x="342" 
d="M323 530h-76l37 188h76zM183 530h-76l36 188h76z" />
    <glyph glyph-name="numbersign" unicode="#" horiz-adv-x="713" 
d="M160 0h-81l71 191h-130l26 73h130l64 169h-130l26 73h130l74 200h81l-74 -200h155l74 200h81l-74 -200h131l-27 -73h-130l-63 -169h130l-27 -73h-130l-70 -191h-81l70 191h-155zM320 433l-62 -169h155l63 169h-156z" />
    <glyph glyph-name="dollar" unicode="$" 
d="M36 70l-17 21l63 69q8 -11 27 -28q60 -53 139 -53q64 0 105.5 34t41.5 85q0 68 -100 113q-41 18 -64 30.5t-55.5 37t-48 57.5t-14.5 74q0 86 64 143q64 58 161 64l18 92h73l-19 -95q64 -9 104.5 -37t40.5 -69q0 -19 -4 -30l-9 -48h-90l5 23q3 11 3 21q0 24 -29 38.5
t-72 14.5q-66 0 -105.5 -32t-39.5 -79q0 -60 99 -105q32 -13 51.5 -22t48 -27.5t44.5 -37.5t28.5 -49t11.5 -66q0 -91 -63 -152q-60 -60 -164 -68l-18 -91h-73l18 95q-53 7 -99 32q-45 26 -62 45z" />
    <glyph glyph-name="percent" unicode="%" horiz-adv-x="762" 
d="M230 422q-61 0 -98 36.5t-37 95.5q0 62 53 113q52 51 120 51q60 0 97.5 -36.5t37.5 -94.5q0 -65 -53 -115t-120 -50zM108 0h-99l668 706h99zM236 496q36 0 62.5 26t26.5 62q0 27 -17.5 44t-45.5 17q-34 0 -62 -27q-27 -27 -27 -63q0 -26 17.5 -42.5t45.5 -16.5zM380 119
q0 63 53 114q54 51 121 51q60 0 97.5 -37t37.5 -95q0 -66 -54 -115q-52 -49 -120 -49q-61 0 -98 36t-37 95zM459 121q0 -26 17.5 -42.5t45.5 -16.5q35 0 61.5 26.5t26.5 62.5q0 25 -17 42.5t-46 17.5q-33 0 -61 -28q-27 -27 -27 -62z" />
    <glyph glyph-name="ampersand" unicode="&#x26;" horiz-adv-x="647" 
d="M22 174q0 68 47 127q47 60 119 79v2q-3 1 -7.5 3.5t-16.5 12t-21.5 22t-17 34.5t-7.5 49q0 97 72 156q74 59 173 59q42 0 82 -10l12 -4l-38 -77q-27 6 -55 6q-58 0 -102 -36t-44 -97q0 -87 111 -87h131l19 98h97l-19 -98h94l-17 -82h-94l-18 -96q-46 -247 -276 -247
q-104 0 -164 51t-60 135zM125 183q0 -49 33 -78t90 -29q146 0 178 164l18 91h-135q-75 0 -130 -39q-54 -39 -54 -109z" />
    <glyph glyph-name="quotesingle" unicode="'" horiz-adv-x="203" 
d="M184 530h-77l36 188h78z" />
    <glyph glyph-name="parenleft" unicode="(" horiz-adv-x="273" 
d="M167 -95h-82q-51 127 -51 268q0 317 206 562h88q-208 -262 -208 -564q0 -136 47 -266z" />
    <glyph glyph-name="parenright" unicode=")" horiz-adv-x="273" 
d="M42 -95h-88q208 262 208 564q0 141 -46 266h81q52 -123 52 -268q0 -317 -207 -562z" />
    <glyph glyph-name="asterisk" unicode="*" horiz-adv-x="483" 
d="M268 447l-100 -118l-65 53l111 113v2l-126 35l43 83l123 -51l19 142h91l-35 -142l144 50l12 -85l-148 -39v-2l66 -108l-76 -52l-57 119h-2z" />
    <glyph glyph-name="plus" unicode="+" 
d="M272 0h-82l48 246h-224l15 78h223l49 246h82l-48 -246h222l-14 -78h-223z" />
    <glyph glyph-name="comma" unicode="," horiz-adv-x="253" 
d="M27 -101h-74l102 206h97z" />
    <glyph glyph-name="hyphen" unicode="-" horiz-adv-x="411" 
d="M340 242h-291l16 86h292z" />
    <glyph glyph-name="period" unicode="." horiz-adv-x="221" 
d="M105 0h-99l19 103h99z" />
    <glyph glyph-name="slash" unicode="/" horiz-adv-x="430" 
d="M68 -42h-91l406 786h92z" />
    <glyph glyph-name="zero" unicode="0" horiz-adv-x="606" 
d="M49 221q0 128 44 253q36 108 106 175.5t171 68.5q208 0 208 -233q0 -128 -44 -253q-24 -67 -59 -122q-37 -55 -94 -88.5t-124 -33.5q-208 0 -208 233zM151 223q0 -146 108 -146q55 0 99.5 41.5t69.5 108.5q48 131 48 254q0 148 -109 148q-52 0 -96 -40t-70 -105
q-50 -131 -50 -261z" />
    <glyph glyph-name="one" unicode="1" horiz-adv-x="462" 
d="M396 0h-407l15 86h155l89 456l10 43h-2q-11 -16 -42 -41l-78 -64l-47 62l200 164h92l-122 -620h154z" />
    <glyph glyph-name="two" unicode="2" horiz-adv-x="570" 
d="M411 0h-361q-32 0 -44 14t-12 48q0 62 33 111q7 10 15 20t14.5 17t17.5 16.5t16.5 15t20.5 15t19 12.5t21.5 13.5t20.5 12.5t23.5 13.5t22.5 12.5l108 60q117 65 117 152q0 44 -28 68.5t-78 24.5q-47 0 -80.5 -19.5t-40.5 -50.5l-5 -28h-92l10 54q14 67 78 101
q65 35 143 35q90 0 143.5 -47t53.5 -128q0 -59 -33 -110q-20 -32 -53 -61t-58.5 -45l-74.5 -45q-53 -31 -106 -58q-51 -25 -82 -56.5t-31 -63.5q0 -11 5 -14.5t18 -3.5h246q22 0 26 22l10 45h91l-17 -89q-7 -34 -25 -49t-52 -15z" />
    <glyph glyph-name="three" unicode="3" horiz-adv-x="555" 
d="M4 72l-8 10l59 68q6 -8 28 -26q63 -47 131 -47q72 0 124 46q53 47 53 112q0 50 -37 78.5t-97 28.5l-44 -3l-14 53l201 199q11 13 30 27l6 3v2q-22 -3 -37 -3h-165q-22 0 -26 -22l-9 -45h-90l17 89q7 34 24.5 49t51.5 15h371l-14 -69l-229 -226q65 -9 114 -49
q51 -41 51 -119q0 -103 -81 -179q-79 -76 -201 -76q-51 0 -98.5 17t-70.5 33.5t-40 33.5z" />
    <glyph glyph-name="four" unicode="4" horiz-adv-x="588" 
d="M333 186h-334l12 65l405 455h116l-84 -434h109l-16 -86h-110l-37 -186h-97zM131 274v-2h219l50 258l16 61h-2q-22 -31 -39 -51z" />
    <glyph glyph-name="five" unicode="5" horiz-adv-x="548" 
d="M6 70l-7 10l59 65q8 -10 17 -19q12 -10 51 -30q38 -19 82 -19q75 0 131 49q57 50 57 120q0 56 -37 88t-100 32q-61 0 -111 -26l-16 -9l-57 23l86 290q10 34 27 48t49 14h242q35 0 47.5 -16t5.5 -50l-17 -87h-89l9 45q4 22 -18 22h-149q-22 0 -26 -22l-39 -130l-14 -41h2
q41 21 97 21q93 0 151 -55q60 -55 60 -143q0 -110 -87 -186q-86 -76 -206 -76q-51 0 -97 17t-67 32.5t-36 32.5z" />
    <glyph glyph-name="six" unicode="6" horiz-adv-x="579" 
d="M42 245q0 122 66 245q51 99 137 163.5t194 64.5q74 0 125 -22l15 -8l-42 -81q-43 23 -100 23q-92 0 -163 -71q-68 -70 -100 -169h2q27 30 71.5 48t90.5 18q89 0 141.5 -52.5t52.5 -138.5q4 -105 -73.5 -191.5t-191.5 -85.5q-103 0 -164 69q-61 70 -61 188zM143 235
q0 -62 35 -111q36 -47 94 -47q66 0 113 54q46 53 46 129q0 53 -32 83.5t-90 30.5q-62 0 -114 -40t-52 -99z" />
    <glyph glyph-name="seven" unicode="7" horiz-adv-x="526" 
d="M140 0h-108l398 577q20 30 32 39l4 4v2q-18 -2 -38 -2h-223q-23 0 -27 -22l-8 -45h-91l17 89q10 64 75 64h425l-13 -68z" />
    <glyph glyph-name="eight" unicode="8" horiz-adv-x="582" 
d="M23 174q0 61 42 120q17 24 43 45q29 26 39 32q17 13 33 23q-64 49 -64 119q0 80 68 142q68 63 178 63q94 0 149 -43.5t55 -117.5q0 -109 -127 -214q78 -51 78 -130q0 -92 -79 -159q-80 -66 -194 -66q-98 0 -160 51q-61 51 -61 135zM334 398l37 -17q17 14 32 30
q17 17 40 58t23 77q0 40 -28.5 62.5t-78.5 22.5q-63 0 -104 -34q-41 -35 -41 -83q5 -48 51 -79q17 -11 32 -18zM125 185q0 -50 34.5 -80t89.5 -30q65 0 115 37q51 38 51 98q0 43 -39 70q-19 14 -38 24q-16 10 -48 24l-46 23q-119 -75 -119 -166z" />
    <glyph glyph-name="nine" unicode="9" horiz-adv-x="578" 
d="M40 12l-15 7l40 80q41 -22 98 -22q94 0 163 70q70 72 101 170h-2q-28 -30 -72.5 -48t-90.5 -18q-88 0 -141 53q-52 52 -52 136q0 108 73 193t191 85q103 0 164 -70q62 -70 62 -187q0 -119 -67 -244q-50 -100 -136.5 -164.5t-194.5 -64.5q-77 0 -121 24zM290 334
q63 0 115 40q53 41 53 98q0 63 -35 110q-35 48 -93 48q-68 0 -115 -54q-46 -53 -46 -130q0 -51 32 -81.5t89 -30.5z" />
    <glyph glyph-name="colon" unicode=":" horiz-adv-x="217" 
d="M179 403h-99l20 103h100zM101 0h-100l20 103h100z" />
    <glyph glyph-name="semicolon" unicode=";" horiz-adv-x="269" 
d="M220 403h-99l19 103h100zM44 -101h-74l91 206h97z" />
    <glyph glyph-name="less" unicode="&#x3c;" 
d="M499 44l-466 208v66l466 208v-89l-358 -151v-2l358 -151v-89z" />
    <glyph glyph-name="equal" unicode="=" 
d="M522 340h-477v78h477v-78zM522 151h-477v78h477v-78z" />
    <glyph glyph-name="greater" unicode="&#x3e;" 
d="M537 252l-466 -208v89l358 151v2l-358 151v89l466 -208v-66z" />
    <glyph glyph-name="question" unicode="?" horiz-adv-x="473" 
d="M228 194h-95l9 47q17 85 94 142q6 4 26.5 20t27.5 22.5t23.5 20.5t23.5 23.5t16 23t12.5 27t3.5 28.5q0 36 -26 58.5t-70 22.5q-56 0 -106 -31l-16 -11l-43 75l25 16q14 9 62 26q45 16 91 16q80 0 133 -44t53 -116q0 -93 -77 -158q-14 -12 -47.5 -37.5t-52 -41t-37 -40.5
t-22.5 -48zM194 0h-101l20 99h101z" />
    <glyph glyph-name="at" unicode="@" horiz-adv-x="786" 
d="M33 182q-3 110 59.5 210.5t168 160.5t220.5 58q106 0 162.5 -46.5t56.5 -124.5q0 -29 -4 -46l-53 -269h72l-14 -73h-262q-86 0 -135 46q-50 47 -50 116q0 86 70 150t182 64h103q2 14 2 18q0 37 -38.5 61t-101.5 24q-89 0 -169 -50q-77 -48 -125 -131q-45 -80 -45 -168
q0 -101 62 -166q63 -64 171 -64l-15 -77q-140 0 -228 85q-89 86 -89 222zM353 219q0 -42 26.5 -68t70.5 -26h100l46 236h-99q-57 0 -101 -44q-43 -43 -43 -98z" />
    <glyph glyph-name="A" unicode="A" horiz-adv-x="666" 
d="M25 0h-68l17 86h18q23 0 33 22l338 598h105l105 -600q2 -12 7 -16t17 -4h18l-17 -86h-60q-32 0 -45 11.5t-18 46.5l-25 145h-259l-82 -145q-19 -35 -35.5 -46.5t-48.5 -11.5zM349 503l-118 -216h211l-36 216l-8 98h-2q-26 -61 -47 -98z" />
    <glyph glyph-name="B" unicode="B" horiz-adv-x="609" 
d="M52 45q0 9 5 37l105 538h-65l17 86h295q84 0 132 -40.5t48 -111.5q0 -62 -36 -111t-88 -70v-2q90 -38 90 -145q0 -78 -48 -135t-118 -79q-39 -12 -88 -12h-191q-58 0 -58 45zM262 620l-41 -211h142q52 0 88 37q36 38 36 90q0 40 -23 62t-68 22h-134zM162 101
q0 -15 18 -15h128q31 0 53 9q41 15 66 52t25 82q0 47 -27.5 72.5t-76.5 25.5h-143l-40 -203q-3 -13 -3 -23z" />
    <glyph glyph-name="C" unicode="C" horiz-adv-x="693" 
d="M41 295q0 107 54 205q56 98 152 157q97 61 212 61q55 0 109 -14t94 -46q41 -33 41 -78q0 -17 -6 -44l-8 -40h-91l8 38q6 32 -22 54q-46 37 -128 37q-124 0 -219 -95q-93 -95 -93 -230q0 -98 57 -158q59 -60 157 -60q63 0 124 22.5t106 62.5l45 -78q-51 -47 -128 -74
t-158 -27q-135 0 -221 86q-85 85 -85 221z" />
    <glyph glyph-name="D" unicode="D" horiz-adv-x="717" 
d="M52 45q0 9 5 37l105 538h-65l17 86h276q146 0 226.5 -74t80.5 -211q0 -176 -121 -298q-120 -123 -304 -123h-162q-58 0 -58 45zM162 101q0 -15 18 -15h92q142 0 231 96q90 96 90 233q0 101 -56 153t-161 52h-114l-97 -496q-3 -13 -3 -23z" />
    <glyph glyph-name="E" unicode="E" horiz-adv-x="571" 
d="M52 45q0 9 5 37l105 538h-65l17 86h409q59 0 59 -45q0 -11 -5 -36l-14 -72h-91l6 28q3 17 3 24q0 15 -20 15h-199l-43 -221h247l-17 -86h-247l-37 -189q-3 -13 -3 -23q0 -15 18 -15h206q23 0 27 22l9 45h91l-18 -91q-6 -33 -23 -47.5t-50 -14.5h-312q-58 0 -58 45z" />
    <glyph glyph-name="F" unicode="F" horiz-adv-x="513" 
d="M140 0h-100l121 620h-65l18 86h383q59 0 59 -45q0 -11 -5 -36l-14 -72h-91l5 28q4 20 4 24q0 15 -20 15h-174l-45 -233h242l-18 -86h-240z" />
    <glyph glyph-name="G" unicode="G" horiz-adv-x="728" 
d="M40 288q0 112 56 210q55 99 155 159q98 61 216 61q72 0 129 -22q61 -24 83 -44l24 -21l-58 -73q-11 11 -30 23q-61 44 -149 44q-130 0 -226 -98q-96 -97 -96 -230q0 -99 57.5 -157.5t151.5 -58.5q67 0 123.5 27t86.5 54l10 10l11 58q4 16 4 22q0 15 -19 15h-45l15 82h91
q59 0 59 -45q0 -1 -5 -36l-52 -268h-89l10 46l7 29h-2q-31 -32 -94 -60q-62 -27 -136 -27q-127 0 -208 83q-80 83 -80 217z" />
    <glyph glyph-name="H" unicode="H" horiz-adv-x="757" 
d="M141 0h-100l113 579q4 20 4 26q0 15 -20 15h-41l17 86h95q58 0 58 -45q0 -21 -4 -36l-46 -229h360l49 249q7 33 23.5 47t49.5 14h104l-17 -86h-45q-20 0 -24 -22l-117 -598h-100l60 310h-359z" />
    <glyph glyph-name="I" unicode="I" horiz-adv-x="318" 
d="M217 0h-232l17 86h68l104 534h-69l17 86h233l-17 -86h-68l-104 -534h68z" />
    <glyph glyph-name="J" unicode="J" horiz-adv-x="509" 
d="M-8 152q0 18 5 55l5 31h100l-5 -27q-4 -27 -4 -41q0 -44 24.5 -66t65.5 -22q49 0 86 32t49 93l73 375q3 15 3 23q0 15 -20 15h-171l17 86h225q59 0 59 -45q0 -1 -0.5 -4.5t-2 -13t-2.5 -17.5l-84 -432q-19 -106 -87 -156q-67 -50 -148 -50t-134 43q-54 43 -54 121z" />
    <glyph glyph-name="K" unicode="K" horiz-adv-x="612" 
d="M141 0h-100l113 579q4 20 4 25q0 16 -20 16h-41l17 86h95q58 0 58 -45q0 -21 -4 -36l-42 -216h67q40 0 58 24l210 273h117l-228 -293q-25 -31 -42 -42l-6 -4v-2q15 -13 25 -44l65 -211q7 -24 38 -24h32l-18 -86h-64q-33 0 -50.5 12.5t-26.5 40.5l-75 245q-7 25 -54 25
h-65z" />
    <glyph glyph-name="L" unicode="L" horiz-adv-x="536" 
d="M52 45q0 9 5 37l97 497q4 20 4 26q0 15 -20 15h-41l17 86h95q58 0 58 -45q0 -21 -4 -36l-98 -501q-3 -13 -3 -23q0 -15 18 -15h195q22 0 26 22l9 45h91l-17 -91q-6 -33 -23 -47.5t-50 -14.5h-301q-58 0 -58 45z" />
    <glyph glyph-name="M" unicode="M" horiz-adv-x="862" 
d="M57 0h-92l16 86h33q21 0 27 22l164 598h100l93 -375l17 -89h2q22 41 52 89l239 375h107l-66 -581l-2 -24q0 -15 17 -15h34l-17 -86h-82q-32 0 -46 11.5t-14 37.5q0 3 3 27l42 361l18 104h-2q-37 -73 -58 -104l-203 -310h-84l-82 310l-18 105h-2q-9 -54 -22 -105
l-102 -377q-9 -33 -25.5 -46.5t-46.5 -13.5z" />
    <glyph glyph-name="N" unicode="N" horiz-adv-x="756" 
d="M80 0h-104l17 86h42q23 0 27 22l117 598h87l228 -451l41 -96h2q4 46 13 96l76 390q6 33 22.5 47t49.5 14h105l-17 -86h-45q-21 0 -25 -22l-116 -598h-87l-230 451l-39 95h-2q-5 -47 -14 -95l-75 -391q-13 -60 -73 -60z" />
    <glyph glyph-name="O" unicode="O" horiz-adv-x="795" 
d="M40 296q0 112 60 209q62 99 160 155q100 58 211 58q136 0 221 -85q86 -84 86 -216q0 -113 -61 -213t-161 -158q-98 -58 -209 -58q-136 0 -222 86q-85 86 -85 222zM144 300q0 -95 59 -157q58 -61 153 -61q121 0 219 98q99 99 99 231q0 95 -59 154q-59 60 -152 60
q-124 0 -221 -97q-98 -96 -98 -228z" />
    <glyph glyph-name="P" unicode="P" horiz-adv-x="588" 
d="M140 0h-100l121 620h-65l18 86h301q87 0 140 -50t53 -135q0 -76 -41 -138.5t-105 -94.5q-56 -27 -117 -27h-154zM261 620l-53 -273h130q69 0 118 46t49 119q0 108 -113 108h-131z" />
    <glyph glyph-name="Q" unicode="Q" horiz-adv-x="795" 
d="M40 296q0 169 130 295q130 127 298 127q139 0 224 -85q86 -84 86 -216q0 -169 -130 -299l62 -76l-67 -62l-66 82q-109 -74 -228 -74q-137 0 -223 86q-86 88 -86 222zM144 300q0 -95 59 -157q58 -61 153 -61q85 0 161 52l-73 89l67 61l74 -93q89 97 89 220q0 95 -59 154
q-59 60 -152 60q-124 0 -221 -97q-98 -96 -98 -228z" />
    <glyph glyph-name="R" unicode="R" horiz-adv-x="621" 
d="M140 0h-100l121 620h-65l18 86h301q83 0 132.5 -45.5t49.5 -124.5q0 -87 -53 -149q-52 -60 -118 -74v-2q12 -9 20 -33l52 -166q8 -26 35 -26h30l-17 -86h-53q-36 0 -53 11.5t-27 44.5l-60 187q-8 24 -19.5 31t-39.5 7h-99zM261 620l-49 -253h131q62 0 106 44
q45 45 45 111q0 98 -100 98h-133z" />
    <glyph glyph-name="S" unicode="S" horiz-adv-x="528" 
d="M2 80l-9 11l64 69q8 -11 27 -28q60 -53 139 -53q64 0 105.5 34t41.5 85q0 67 -100 112q-91 42 -124 71q-60 53 -59 129q0 90 72 149q74 59 178 59q73 0 133 -29t60 -81q0 -14 -4 -30l-10 -48h-89l4 23q3 11 3 21q0 24 -28.5 38.5t-71.5 14.5q-66 0 -105.5 -32t-39.5 -79
q0 -60 99 -105q39 -15 65 -28.5t57 -37.5t47 -58.5t15 -77.5q0 -95 -69 -158t-181 -63q-81 0 -137.5 30t-82.5 62z" />
    <glyph glyph-name="T" unicode="T" horiz-adv-x="628" 
d="M307 0h-100l121 620h-142q-22 0 -26 -22l-9 -45h-89l18 96q6 32 20.5 44.5t46.5 12.5h483q56 0 56 -45q0 -11 -5 -36l-13 -72h-90l6 28q4 17 4 24q0 15 -21 15h-139z" />
    <glyph glyph-name="U" unicode="U" horiz-adv-x="716" 
d="M74 197q0 27 6 57l64 325q4 20 4 26q0 15 -20 15h-41l17 86h95q59 0 59 -45q0 -11 -5 -36l-73 -375q-5 -22 -5 -42q0 -60 37 -93t103 -33q78 0 133 45.5t71 124.5l77 393q6 33 22.5 47t49.5 14h104l-16 -86h-45q-21 0 -25 -22l-70 -360q-23 -114 -104 -182
q-83 -68 -202 -68q-108 0 -173 57q-63 57 -63 152z" />
    <glyph glyph-name="V" unicode="V" horiz-adv-x="669" 
d="M327 0h-106l-105 598q-4 22 -25 22h-18l17 86h65q30 0 43 -12.5t18 -45.5l70 -435l8 -97h2q25 59 46 97l240 435q19 35 36 46.5t51 11.5h65l-17 -86h-17q-24 0 -34 -22z" />
    <glyph glyph-name="W" unicode="W" horiz-adv-x="967" 
d="M276 0h-117l-38 596q-1 24 -24 24h-20l16 86h64q35 0 50.5 -13t16.5 -45l22 -454l-2 -75h2q11 30 32 75l242 510h89l33 -510v-75h2q11 33 29 75l198 454q25 58 86 58h71l-17 -86h-20q-24 0 -34 -22l-271 -598h-117l-33 446l-1 96h-2q-24 -61 -41 -95z" />
    <glyph glyph-name="X" unicode="X" horiz-adv-x="594" 
d="M71 0h-114l294 367l-100 228q-10 25 -42 25h-25l17 86h55q35 0 53 -11t30 -43l55 -131l30 -82h2q23 36 59 82l104 131q24 31 44.5 42.5t53.5 11.5h68l-17 -86h-24q-32 0 -51 -25l-193 -235l157 -360h-109l-90 211l-30 77h-2q-22 -33 -58 -77z" />
    <glyph glyph-name="Y" unicode="Y" horiz-adv-x="606" 
d="M294 0h-100l60 308l-123 287q-10 25 -35 25h-24l17 86h45q33 0 49 -11t29 -43l76 -177l28 -80h2q35 54 56 80l140 177q24 32 44.5 43t53.5 11h61l-17 -86h-23q-26 0 -44 -23l-235 -289z" />
    <glyph glyph-name="Z" unicode="Z" horiz-adv-x="601" 
d="M449 0h-473l12 66l435 490q30 33 57 56l9 8v2q-26 -2 -53 -2h-219q-22 0 -26 -22l-9 -45h-92l17 89q7 34 25 49t52 15h453l-13 -65l-438 -491q-25 -27 -56 -56l-10 -8v-2q26 2 53 2h243q23 0 27 22l8 45h92l-17 -89q-7 -34 -25 -49t-52 -15z" />
    <glyph glyph-name="bracketleft" unicode="[" horiz-adv-x="283" 
d="M22 -31l136 702q7 34 25 49t52 15h101l-14 -73h-59q-22 0 -26 -22l-124 -639q-4 -22 18 -22h59l-15 -74h-102q-34 0 -46 15t-5 49z" />
    <glyph glyph-name="backslash" unicode="\" horiz-adv-x="407" 
d="M306 -42h-82l-102 786h83z" />
    <glyph glyph-name="bracketright" unicode="]" horiz-adv-x="284" 
d="M-35 -95l13 74h59q22 0 26 22l124 639q4 22 -18 22h-59l15 73h101q34 0 46.5 -15t5.5 -49l-136 -702q-7 -34 -25 -49t-52 -15h-100z" />
    <glyph glyph-name="asciicircum" unicode="^" horiz-adv-x="612" 
d="M99 247h-88l200 459h63l200 -459h-88l-144 352z" />
    <glyph glyph-name="underscore" unicode="_" horiz-adv-x="560" 
d="M-52 -78l15 78h537l-14 -78h-538z" />
    <glyph glyph-name="grave" unicode="`" horiz-adv-x="379" 
d="M246 755h-72l-73 127h94z" />
    <glyph glyph-name="a" unicode="a" horiz-adv-x="529" 
d="M-4 121q0 106 109 152q97 42 230 42h25l2 12q4 17 4 39q0 75 -90 75q-89 0 -95 -39l-5 -29h-92l10 51q10 48 66 71q58 23 128 23q175 0 175 -143q0 -24 -7 -59l-37 -197q-4 -12 -4 -21q0 -15 18 -15h42l-17 -83h-85q-55 0 -55 41q0 25 10 55h-2q1 0 -6.5 -11t-22.5 -27
t-35.5 -32t-52.5 -27t-66 -11q-65 0 -106 35.5t-41 97.5zM94 135q0 -33 21 -52.5t56 -19.5q61 0 111 53q51 55 61 111l4 18h-25q-80 0 -145 -19q-83 -24 -83 -91z" />
    <glyph glyph-name="b" unicode="b" horiz-adv-x="584" 
d="M102 0h-92l113 586q3 12 3 22q0 15 -18 15h-41l17 83h92q57 0 57 -44q0 -10 -4 -30l-30 -155l-12 -46h2q27 39 72.5 63t95.5 24q89 0 139 -55.5t50 -152.5q0 -138 -84 -230q-83 -92 -191 -92q-55 0 -96 24.5t-59 69.5h-2q0 -17 -5 -40zM147 200q0 -59 29 -93.5t84 -34.5
q71 0 129 64t58 167q0 61 -30.5 95.5t-83.5 34.5q-76 0 -132 -71q-54 -70 -54 -162z" />
    <glyph glyph-name="c" unicode="c" horiz-adv-x="525" 
d="M21 212q0 125 90 215q91 91 216 91q42 0 83 -9.5t73 -38.5t24 -71l-8 -44h-86l4 21q4 28 -27 43q-31 16 -70 16q-79 0 -140 -64q-60 -63 -60 -150q0 -67 38 -107t109 -40q42 0 83.5 14.5t61.5 31.5l18 15l28 -77q-8 -8 -33 -24q-68 -46 -168 -46q-110 0 -174 62
q-62 62 -62 162z" />
    <glyph glyph-name="d" unicode="d" horiz-adv-x="603" 
d="M22 196q0 138 83 230t193 92q53 0 94 -23.5t56 -65.5h2q2 24 4 36l23 121q3 14 3 22q0 15 -18 15h-40l16 83h93q57 0 57 -44q0 -13 -4 -30l-100 -512q-3 -12 -3 -22q0 -15 18 -15h41l-17 -83h-84q-54 0 -54 41q0 19 9 48h-2q-66 -101 -180 -101q-89 0 -139.5 55.5
t-50.5 152.5zM120 204q0 -62 30.5 -97t82.5 -35q79 0 133 72t54 160q0 58 -28.5 93.5t-83.5 35.5q-71 0 -130 -65q-58 -64 -58 -164z" />
    <glyph glyph-name="e" unicode="e" horiz-adv-x="538" 
d="M21 203q0 130 85 222q86 93 210 93q92 0 142 -50.5t50 -136.5q0 -36 -12 -77l-3 -13h-369q-4 -15 -4 -36q0 -60 38.5 -96.5t105.5 -36.5q36 0 76.5 13.5t63.5 30.5l21 14l28 -75q-23 -17 -27 -19q-16 -10 -68 -30q-51 -18 -100 -18q-109 0 -173 60t-64 155zM139 310h269
q3 15 3 29q0 48 -26.5 75t-71.5 27q-57 0 -104.5 -35.5t-69.5 -95.5z" />
    <glyph glyph-name="f" unicode="f" horiz-adv-x="318" 
d="M125 0h-96l83 428h-63l15 78h63l3 17q23 119 97 157q61 31 119 31l48 -3l-17 -81q-4 2 -27 2q-26 0 -47 -7q-24 -8 -46.5 -34.5t-30.5 -65.5l-2 -16h119l-15 -78h-120z" />
    <glyph glyph-name="g" unicode="g" horiz-adv-x="594" 
d="M-6 -167l43 77q53 -34 133 -34q162 0 191 156l15 57h-2q-59 -83 -156 -83q-90 0 -142 56t-52 149q0 73 30 142t93 117t145 48q62 0 104.5 -24.5t51.5 -60.5h2q-1 4 1 21q10 52 68 52h95l-16 -83h-41q-23 0 -27 -21l-74 -386q-17 -79 -62 -130q-81 -96 -220 -96
q-106 0 -180 43zM124 218q0 -60 30.5 -94t86.5 -34q81 0 128 74t47 161q0 109 -117 109q-80 0 -128 -65q-47 -65 -47 -151z" />
    <glyph glyph-name="h" unicode="h" horiz-adv-x="603" 
d="M106 0h-97l114 585q4 15 4 23q0 15 -19 15h-41l17 83h92q57 0 57 -44q0 -10 -4 -30l-36 -185l-10 -44h2q27 41 82 79q54 36 125 36q70 0 107 -35.5t37 -101.5q0 -26 -7 -62l-39 -205q-3 -15 -3 -16q0 -15 18 -15h41l-16 -83h-93q-57 0 -57 46q0 11 3 23l46 233q5 32 5 50
q0 77 -78 77q-73 0 -131 -60q-58 -58 -73 -133z" />
    <glyph glyph-name="i" unicode="i" horiz-adv-x="265" 
d="M234 605h-88l20 101h88zM38 46q0 14 3 25l61 315q3 15 3 22q0 15 -18 15h-41l16 83h93q56 0 56 -44q0 -11 -4 -31l-61 -317q-3 -15 -3 -16q0 -15 19 -15h40l-15 -83h-93q-56 0 -56 46z" />
    <glyph glyph-name="j" unicode="j" horiz-adv-x="246" 
d="M235 605h-87l19 101h87zM27 -5l76 391q3 15 3 22q0 15 -18 15h-40l16 83h92q57 0 57 -44q0 -9 -4 -30l-87 -450q-17 -93 -75 -140q-22 -19 -53 -30q-45 -18 -94 -18l-41 2l17 83q10 -2 21 -2q108 0 130 118z" />
    <glyph glyph-name="k" unicode="k" horiz-adv-x="512" 
d="M106 0h-97l114 586q3 12 3 22q0 15 -18 15h-41l17 83h92q57 0 57 -44q0 -10 -4 -30l-60 -312h44q30 0 51 22l150 164h116l-174 -189q-25 -25 -41 -35l-6 -3l-1 -2q13 -6 25 -38l51 -136q6 -20 41 -20h31l-16 -83h-66q-33 0 -47 9t-25 38l-62 168q-8 23 -44 23h-43z" />
    <glyph glyph-name="l" unicode="l" horiz-adv-x="249" 
d="M20 46q0 11 3 23l101 517q3 15 3 22q0 15 -18 15h-41l16 83h92q57 0 57 -44q0 -10 -4 -30l-101 -518q-2 -14 -2 -16q0 -15 18 -15h41l-16 -83h-93q-56 0 -56 46z" />
    <glyph glyph-name="m" unicode="m" horiz-adv-x="934" 
d="M124 0h-96l75 387q3 9 3 20q0 16 -19 16h-40l16 83h92q54 0 54 -45q0 -10 -11 -59h2q27 42 79 79t120 37q118 0 129 -116h2q29 45 82 80q56 36 122 36q65 0 98.5 -34t33.5 -97q0 -25 -7 -63l-40 -210q-2 -14 -2 -16q0 -15 17 -15h41l-16 -83h-93q-56 0 -56 46q0 1 2 23
l46 235q7 29 7 52q0 73 -68 73q-67 0 -122 -61q-56 -62 -69 -137l-45 -231h-97l59 304q6 27 6 52q0 73 -68 73q-69 0 -123 -61q-54 -62 -69 -138z" />
    <glyph glyph-name="n" unicode="n" horiz-adv-x="621" 
d="M124 0h-96l75 387q3 9 3 20q0 16 -19 16h-40l16 83h92q54 0 54 -45q0 -15 -12 -63h2q30 46 82 82q56 38 128 38q71 0 108 -35.5t37 -101.5q0 -26 -7 -62l-39 -205q-3 -15 -3 -16q0 -15 19 -15h40l-15 -83h-94q-56 0 -56 46q0 11 3 23l45 233q6 34 6 50q0 77 -78 77
q-73 0 -132 -60q-58 -58 -72 -133z" />
    <glyph glyph-name="o" unicode="o" horiz-adv-x="611" 
d="M20 211q0 129 96 217q98 90 224 90q104 0 169 -62t65 -159q0 -129 -97 -219t-223 -90q-102 0 -169 62q-65 62 -65 161zM119 215q0 -64 40 -103.5t104 -39.5q82 0 146 64q66 64 66 156q0 63 -39.5 102.5t-102.5 39.5q-84 0 -149 -64q-65 -65 -65 -155z" />
    <glyph glyph-name="p" unicode="p" horiz-adv-x="603" 
d="M85 -200h-96l113 583q3 17 3 25q0 15 -17 15h-41l16 83h91q52 0 52 -37q0 -21 -10 -48h2q64 97 179 97q89 0 138.5 -56t49.5 -156q0 -135 -84 -227q-82 -91 -192 -91q-52 0 -92 23t-58 65h-2q-1 -12 -7 -47zM166 204q0 -59 29 -95.5t82 -36.5q71 0 130 63q59 65 59 164
q0 65 -30 99.5t-84 34.5q-76 0 -131 -70t-55 -159z" />
    <glyph glyph-name="q" unicode="q" horiz-adv-x="602" 
d="M22 194q0 140 83 232t196 92q114 0 151 -87h2q6 40 21.5 57.5t49.5 17.5h97l-16 -83h-42q-22 0 -26 -22l-117 -601h-97l45 231l13 47h-2q-26 -39 -70 -64.5t-98 -25.5q-89 0 -139.5 55t-50.5 151zM120 202q0 -61 31 -95.5t84 -34.5q77 0 131 71q55 71 55 162q0 58 -29 93
t-84 35q-72 0 -130 -64t-58 -167z" />
    <glyph glyph-name="r" unicode="r" horiz-adv-x="378" 
d="M125 0h-97l77 401q4 22 -18 22h-40l16 83h93q55 0 55 -43q0 -32 -19 -86h2q29 59 79.5 97t107.5 38q8 0 26 -2l-20 -96q-10 2 -26 2q-69 0 -125 -65q-56 -66 -74 -158z" />
    <glyph glyph-name="s" unicode="s" horiz-adv-x="450" 
d="M-6 65l-7 9l49 64q8 -11 24 -25q57 -46 127 -46q45 0 72.5 19t27.5 51q0 21 -15 37q-13 14 -25.5 21t-47.5 21q-53 20 -95 50q-48 36 -48 100q0 72 57 112q58 40 140 40q69 0 125 -29q55 -28 44 -81l-8 -36h-85l3 19q4 21 -18.5 35.5t-62.5 14.5q-44 0 -70.5 -19
t-26.5 -49q0 -21 15 -38q10 -11 21.5 -18.5t19.5 -11t36 -14.5q6 -2 7 -3q58 -23 90 -48q45 -30 45 -94q0 -69 -57 -114q-56 -44 -145 -44q-71 0 -121.5 25.5t-70.5 51.5z" />
    <glyph glyph-name="t" unicode="t" horiz-adv-x="328" 
d="M56 138q0 18 5 51l47 239h-66l15 78h68l27 139h95l-27 -139h122l-16 -78h-121l-44 -228q-4 -17 -4 -39q0 -79 87 -79l25 2l-17 -86q-14 -3 -35 -3q-25 0 -50 6t-51.5 20.5t-43 44.5t-16.5 72z" />
    <glyph glyph-name="u" unicode="u" horiz-adv-x="616" 
d="M51 125q0 29 6 63l40 204q2 14 2 16q0 15 -18 15h-41l16 83h93q57 0 57 -46q0 -10 -3 -23l-46 -234q-5 -30 -5 -48q0 -77 76 -77q70 0 129 59q58 58 72 133l46 236h97l-75 -387q-3 -11 -3 -20q0 -16 19 -16h39l-16 -83h-91q-54 0 -54 45q0 15 12 64h-2q-29 -47 -82 -83
q-55 -38 -126 -38q-69 0 -105.5 35.5t-36.5 101.5z" />
    <glyph glyph-name="v" unicode="v" horiz-adv-x="534" 
d="M264 0h-112l-76 400q-5 23 -25 23h-13l16 83h50q52 0 62 -54l52 -288l5 -67h2q14 39 30 67l165 291q18 31 34 41t49 10h57l-16 -83h-13q-22 0 -34 -20z" />
    <glyph glyph-name="w" unicode="w" horiz-adv-x="844" 
d="M243 0h-109l-54 403q-5 20 -25 20h-17l17 83h64q51 0 57 -56l31 -299l2 -54h2q11 29 24 54l178 353h89l41 -353l3 -54h2q13 35 23 54l148 301q16 33 32 43.5t49 10.5h68l-16 -83h-14q-24 0 -36 -20l-211 -403h-108l-43 325l-3 55h-2q-16 -38 -25 -55z" />
    <glyph glyph-name="x" unicode="x" horiz-adv-x="504" 
d="M75 0h-112l226 265l-73 139q-10 19 -40 19h-29l17 83h62q29 0 43.5 -11t29.5 -42l46 -95l11 -31h2q12 20 22 31l77 95q27 33 43 43t51 10h72l-16 -83h-29q-32 0 -47 -18l-129 -149l124 -256h-102l-80 164l-11 28h-2q-7 -12 -19 -28z" />
    <glyph glyph-name="y" unicode="y" horiz-adv-x="544" 
d="M31 -210q-29 0 -57.5 12t-41.5 26l-13 12l41 69q36 -36 74 -36q56 0 100 74l36 57l-95 399q-3 12 -8.5 16t-18.5 4h-12l16 83h65q23 0 33.5 -11.5t16.5 -39.5l59 -285l6 -61h2q15 35 29 61l161 285q17 30 35 40.5t49 10.5h62l-17 -83h-12q-25 0 -36 -20l-297 -497
q-71 -116 -177 -116z" />
    <glyph glyph-name="z" unicode="z" horiz-adv-x="514" 
d="M361 0h-381l12 62l318 316l55 51v2q-30 -2 -46 -2h-149q-22 0 -26 -22l-8 -40h-83l15 75q7 34 25 49t52 15h361l-11 -62l-318 -316l-58 -50v-2q26 2 53 2h164q22 0 27 23l7 38h83l-15 -75q-7 -34 -25 -49t-52 -15z" />
    <glyph glyph-name="braceleft" unicode="{" horiz-adv-x="322" 
d="M62 32q0 16 5 51l18 90q3 16 3 29q0 37 -20 56.5t-40 22.5l-7 1l17 86q0 -1 4.5 0t12.5 3.5t18 7t20.5 13t20.5 20t18 29t12 38.5l18 90q35 179 217 167l-14 -74q-14 2 -29.5 -1t-34.5 -12.5t-34.5 -33t-22.5 -58.5l-21 -110q-8 -41 -33.5 -72.5t-50.5 -40.5l-22 -8v-2
q2 -1 6.5 -3t14.5 -10.5t18 -19t14.5 -29t6.5 -40.5q0 -15 -3 -30l-21 -107q-5 -25 -5 -37q0 -76 85 -70l-15 -74q-14 -2 -23 -2q-38 0 -79 22q-54 27 -54 108z" />
    <glyph glyph-name="bar" unicode="|" horiz-adv-x="303" 
d="M198 -159h-85v951h85v-951z" />
    <glyph glyph-name="braceright" unicode="}" horiz-adv-x="321" 
d="M-49 -97l14 75q20 -3 42 2.5t46 31.5t33 71l24 119q6 37 26.5 65.5t37.5 39t33 16.5l9 3v2l-6 3t-14.5 10t-18 18.5t-14 28.5t-6.5 40q0 14 3 30l19 99q4 23 4 35q0 76 -85 70l15 74q22 3 47 -1t50.5 -16.5t42 -41.5t16.5 -70q0 -23 -6 -50l-15 -80q-3 -17 -3 -29
q0 -31 15.5 -52t34.5 -24l17 -4l-17 -86q-3 0 -9 -1.5t-22 -8.5t-29 -17.5t-26.5 -32.5t-19.5 -51l-20 -100q-36 -183 -218 -168z" />
    <glyph glyph-name="asciitilde" unicode="~" horiz-adv-x="575" 
d="M127 204h-79q0 84 36 126.5t103 42.5q66 0 107 -49q43 -49 85 -49q34 0 50.5 26.5t16.5 67.5h79q0 -169 -140 -169q-65 0 -107 48q-39 49 -84 49q-33 0 -50 -26.5t-17 -66.5z" />
    <glyph glyph-name="uni00A0" unicode="&#xa0;" horiz-adv-x="269" 
 />
    <glyph glyph-name="exclamdown" unicode="&#xa1;" horiz-adv-x="243" 
d="M192 409h-99l19 97h99zM75 -200h-101l107 511h87z" />
    <glyph glyph-name="cent" unicode="&#xa2;" 
d="M275 -12h-71l17 87q-76 15 -120 72.5t-44 146.5q0 129 79 229q80 101 194 111l16 84h71l-17 -88q37 -7 66.5 -24.5t46.5 -39.5t26 -40t13 -34l3 -13l-87 -33q-3 15 -12 34q-30 64 -105 64q-84 0 -139 -73t-55 -175q0 -63 30.5 -98t89.5 -35q44 0 83 24q41 27 56 49l16 24
l83 -35q-10 -19 -35 -51q-19 -24 -44 -45q-63 -53 -145 -59z" />
    <glyph glyph-name="sterling" unicode="&#xa3;" 
d="M416 0h-425l17 86h60l45 233h-47l13 70h47l28 143q17 82 83 133q68 53 157 53q45 0 86.5 -16t61.5 -35l17 -17l-63 -61l-13 11q-11 9 -38.5 19t-52.5 10q-53 0 -91.5 -30.5t-47.5 -77.5l-27 -132h184l-13 -70h-184l-45 -233h216q22 0 26 22l9 45h91l-17 -89
q-10 -64 -77 -64z" />
    <glyph glyph-name="currency" unicode="&#xa4;" horiz-adv-x="617" 
d="M168 0h-100l34 170h-71l14 70h70l14 70h-70l15 80h71l46 236h-65l16 80h290q90 0 142 -44.5t52 -122.5q0 -102 -76 -166t-181 -64h-140l-14 -69h251l-14 -70h-250zM291 626l-46 -236h118q71 0 115 41q45 41 45 105q0 42 -29 66t-83 24h-120z" />
    <glyph glyph-name="yen" unicode="&#xa5;" horiz-adv-x="617" 
d="M300 0h-100l40 204h-161l12 63h162l8 41l-19 44h-137l13 63h95l-75 180q-10 25 -35 25h-23l16 86h45q32 0 48.5 -11t30.5 -43l75 -177l28 -80h2q28 42 56 80l141 177q24 32 44 43t53 11h60l-16 -86h-23q-26 0 -44 -23l-147 -182h92l-13 -63h-131l-36 -44l-8 -41h158
l-11 -63h-160z" />
    <glyph glyph-name="section" unicode="&#xa7;" horiz-adv-x="439" 
d="M182 111h-77l5 385q-1 94 54 158q57 64 154 64q37 0 73.5 -12.5t54.5 -27.5l15 -14l-53 -58q-34 31 -91 31q-60 0 -94.5 -39t-33.5 -102zM6 -22l-15 14l53 59q34 -31 91 -31q60 0 94.5 38.5t33.5 101.5l7 385h77l-5 -385q1 -94 -55 -158q-55 -64 -153 -64
q-37 0 -73.5 12.5t-54.5 27.5z" />
    <glyph glyph-name="dieresis" unicode="&#xa8;" horiz-adv-x="501" 
d="M370 781h-74l20 101h74zM205 781h-73l20 101h73z" />
    <glyph glyph-name="copyright" unicode="&#xa9;" horiz-adv-x="815" 
d="M417 718q150 0 254 -107q105 -107 105 -258q0 -153 -105 -259q-103 -106 -254 -106q-148 0 -251 106q-104 107 -104 259q0 151 104 258t251 107zM417 55q120 0 203 86t83 212t-83 212t-203 86q-119 0 -201 -87q-81 -86 -81 -211t81 -212q83 -86 201 -86zM228 352
q0 82 54 141q56 59 143 59q59 0 99 -29t58 -60l5 -10l-60 -33l-12 17q-9 12 -33 28q-26 18 -55 18q-56 0 -90 -37.5t-34 -93.5q0 -57 33.5 -94t90.5 -37q28 0 53.5 15t36.5 32l10 16l60 -33q-11 -18 -25 -35q-51 -64 -137 -64q-89 0 -143 58t-54 142z" />
    <glyph glyph-name="ordfeminine" unicode="&#xaa;" horiz-adv-x="438" 
d="M193 383q-41 0 -67 22.5t-26 62.5q0 31 16.5 54.5t41.5 35.5q22 11 56 19q48 10 94 10h13q3 15 3 27q0 43 -51 43q-44 0 -47 -18l-4 -20h-67l7 40q5 27 38 42t84 15q113 0 113 -91q0 -24 -4 -39l-23 -119q-1 -13 10 -13h25l-12 -65h-55q-40 0 -36 52h-2l-12 -16
q-6 -9 -36 -26q-26 -16 -59 -16zM218 442q35 0 61 27.5t33 69.5h-10q-127 0 -127 -60q0 -37 43 -37zM372 265h-312l11 57h312z" />
    <glyph glyph-name="guillemotleft" unicode="&#xab;" horiz-adv-x="555" 
d="M459 77h-92l-129 207l208 204h103l-218 -210zM260 77h-92l-129 207l192 204h102l-201 -210z" />
    <glyph glyph-name="logicalnot" unicode="&#xac;" horiz-adv-x="649" 
d="M481 340h-396v78h477v-268h-81v190z" />
    <glyph glyph-name="uni00AD" unicode="&#xad;" horiz-adv-x="411" 
d="M340 242h-291l16 86h292z" />
    <glyph glyph-name="registered" unicode="&#xae;" horiz-adv-x="815" 
d="M417 718q150 0 254 -107q105 -107 105 -258q0 -153 -105 -259q-103 -106 -254 -106q-148 0 -251 106q-104 107 -104 259q0 151 104 258t251 107zM417 55q120 0 203 86t83 212t-83 212t-203 86q-119 0 -201 -87q-81 -86 -81 -211t81 -212q83 -86 201 -86zM366 166h-71v378
h145q54 0 86.5 -31.5t32.5 -84.5q0 -38 -20 -65.5t-49 -34.5v-2q3 -3 13 -21l72 -139h-77l-70 146h-62v-146zM366 489v-125h60q29 0 45 17t16 47q0 29 -16 45t-44 16h-61z" />
    <glyph glyph-name="overscore" unicode="&#xaf;" horiz-adv-x="464" 
d="M355 784h-254l13 69h254z" />
    <glyph glyph-name="degree" unicode="&#xb0;" horiz-adv-x="384" 
d="M224 422q-59 0 -97 37q-38 38 -38 93q0 66 52 115q53 51 121 51q59 0 96 -37q38 -38 38 -93q0 -65 -53 -116q-53 -50 -119 -50zM230 495q36 0 62 26.5t26 62.5q0 27 -17.5 44t-45.5 17q-36 0 -62 -26.5t-26 -62.5q0 -27 17 -44t46 -17z" />
    <glyph glyph-name="plusminus" unicode="&#xb1;" 
d="M217 246h-223v78h223v246h83v-246h222v-78h-222v-246h-83v246zM10 -172v77h497v-77h-497z" />
    <glyph glyph-name="twosuperior" unicode="&#xb2;" horiz-adv-x="376" 
d="M291 266h-219q-24 0 -31.5 7.5t-7.5 29.5q0 49 27 88.5t69 61.5q16 9 47.5 24t49.5 25.5t38.5 25t30.5 31t10 35.5q0 50 -57 50q-26 0 -45 -10.5t-21 -24.5l-5 -24h-69l9 44q7 36 47.5 60.5t92.5 24.5q56 0 91 -30t35 -83q0 -43 -26.5 -79t-68.5 -59q-17 -9 -47 -23
t-48.5 -24t-38.5 -22.5t-30 -26.5t-10 -29q0 -7 10 -7h148q9 0 11 8l6 35h69l-12 -62q-9 -46 -55 -46z" />
    <glyph glyph-name="threesuperior" unicode="&#xb3;" horiz-adv-x="376" 
d="M188 259q-42 0 -79.5 15.5t-54.5 34.5l-15 17l49 49q1 -1 4.5 -5.5t6.5 -7.5q11 -11 37 -22.5t52 -11.5q37 0 65.5 26.5t28.5 62.5q0 27 -21.5 42.5t-53.5 15.5h-31l-10 36l118 115l24 21v3q-12 -4 -29 -4h-88q-10 0 -11 -10l-6 -31h-64l10 53q5 27 17.5 37.5t39.5 10.5
h231l-9 -48l-136 -130q42 -9 69.5 -37t27.5 -73q0 -62 -51 -111q-49 -48 -121 -48z" />
    <glyph glyph-name="acute" unicode="&#xb4;" horiz-adv-x="387" 
d="M184 755h-79l97 127h101z" />
    <glyph glyph-name="mu" unicode="&#xb5;" horiz-adv-x="660" 
d="M96 -200h-86l117 598q4 25 -17 25h-41l16 83h93q56 0 56 -46q0 -1 -0.5 -4t-1 -8.5t-0.5 -10.5l-45 -234q-6 -24 -6 -48q0 -77 76 -77q70 0 129 59q58 58 72 133l46 236h97l-76 -387q-2 -18 -2 -20q0 -16 18 -16h40l-15 -83h-92q-54 0 -54 45q0 15 12 64h-2
q-29 -47 -82 -83q-55 -38 -126 -38q-62 0 -89 35h-2q-1 -50 -8 -83z" />
    <glyph glyph-name="mu" unicode="&#x3bc;" horiz-adv-x="660" 
d="M96 -200h-86l117 598q4 25 -17 25h-41l16 83h93q56 0 56 -46q0 -1 -0.5 -4t-1 -8.5t-0.5 -10.5l-45 -234q-6 -24 -6 -48q0 -77 76 -77q70 0 129 59q58 58 72 133l46 236h97l-76 -387q-2 -18 -2 -20q0 -16 18 -16h40l-15 -83h-92q-54 0 -54 45q0 15 12 64h-2
q-29 -47 -82 -83q-55 -38 -126 -38q-62 0 -89 35h-2q-1 -50 -8 -83z" />
    <glyph glyph-name="paragraph" unicode="&#xb6;" horiz-adv-x="597" 
d="M294 -50h-75l56 291q-88 0 -146 64q-59 65 -48 158q10 100 94 171q84 72 184 72h278l-16 -86h-197zM430 -50h-74l118 613h75z" />
    <glyph glyph-name="middot" unicode="&#xb7;" horiz-adv-x="219" 
d="M147 239h-99l20 102h99z" />
    <glyph glyph-name="cedilla" unicode="&#xb8;" horiz-adv-x="416" 
d="M150 -86l-17 -2l49 111l47 -11l-1 -7l-23 -55q25 -4 42 -21.5t17 -42.5q0 -48 -36 -70q-35 -23 -79 -23q-38 0 -51 5l-7 1l11 59q18 -7 41 -7q54 0 54 37q0 26 -47 26z" />
    <glyph glyph-name="onesuperior" unicode="&#xb9;" horiz-adv-x="376" 
d="M324 266h-261l13 67h93l46 241l8 32h-2q-5 -8 -15 -16l-47 -38l-37 49l129 105h66l-71 -373h91z" />
    <glyph glyph-name="ordmasculine" unicode="&#xba;" horiz-adv-x="465" 
d="M255 384q-65 0 -105.5 38.5t-40.5 100.5q0 80 60 137q61 57 139 57q65 0 106 -39t41 -101q0 -80 -61 -137q-62 -56 -139 -56zM261 449q47 0 84 36t37 88q0 35 -22.5 57.5t-57.5 22.5q-47 0 -84 -37q-37 -36 -37 -87q0 -36 22 -58t58 -22zM384 265h-313l11 57h313z" />
    <glyph glyph-name="guillemotright" unicode="&#xbb;" horiz-adv-x="559" 
d="M317 77h-100l202 208l-126 203h95l127 -205zM106 77h-101l212 208l-126 203h95l126 -205z" />
    <glyph glyph-name="onequarter" unicode="&#xbc;" horiz-adv-x="873" 
d="M282 0h-78l425 706h77zM305 266h-257l13 67h93l46 241l8 32h-2q-5 -8 -15 -16l-47 -38l-37 49l129 105h66l-72 -373h89zM660 113h-203l8 46l247 282h87l-51 -263h66l-12 -65h-66l-23 -113h-75zM550 178v-1q9 1 20 1h103l27 139l9 36h-2l-21 -27l-118 -131z" />
    <glyph glyph-name="onehalf" unicode="&#xbd;" horiz-adv-x="869" 
d="M267 0h-79l425 706h78zM303 266h-258l13 67h93l47 241l7 32h-2q-7 -9 -16 -16l-47 -38l-36 49l128 105h68l-73 -373h90zM469 38q0 49 26.5 88t68.5 62q16 9 47.5 24t49.5 25.5t38.5 25t30.5 31t10 35.5q0 49 -56 49q-26 0 -45 -10t-22 -24l-4 -25h-69l8 44q7 38 47 62
t93 24q56 0 91.5 -30.5t35.5 -83.5q0 -43 -26.5 -79t-68.5 -59q-16 -9 -47 -23.5t-49 -24t-38.5 -22.5t-30 -26.5t-9.5 -28.5q0 -7 9 -7h149q8 0 10 9l7 34h68l-11 -61q-9 -47 -55 -47h-219q-24 0 -31.5 8t-7.5 30z" />
    <glyph glyph-name="threequarters" unicode="&#xbe;" horiz-adv-x="873" 
d="M281 0h-79l425 706h78zM196 259q-42 0 -79.5 15.5t-54.5 34.5l-15 17l49 49q1 -1 4.5 -5.5t6.5 -7.5q11 -11 37.5 -22.5t52.5 -11.5q37 0 65.5 26.5t28.5 62.5q0 27 -21.5 42.5t-54.5 15.5h-31l-10 36l117 115l26 21v3q-12 -4 -30 -4h-88q-8 0 -11 -10l-6 -31h-64l10 53
q5 27 17.5 37.5t40.5 10.5h230l-9 -48l-135 -130q42 -9 69 -37t27 -73q0 -61 -50 -111q-50 -48 -122 -48zM660 113h-203l9 46l246 282h88l-51 -263h66l-13 -65h-66l-22 -113h-76zM551 178v-1q9 1 20 1h102l27 139l9 36h-2l-20 -27l-119 -131z" />
    <glyph glyph-name="questiondown" unicode="&#xbf;" horiz-adv-x="466" 
d="M224 311h95l-9 -47q-17 -84 -94 -143q-75 -57 -97 -82q-36 -40 -36 -82q0 -36 26 -58.5t70 -22.5q28 0 58.5 10t47.5 22l16 10l43 -75l-25 -16q-13 -8 -63 -26q-45 -16 -90 -16q-81 0 -134 44q-52 43 -52 116q0 93 76 157l48.5 38t52 42t36 39.5t23.5 48.5zM258 505h101
l-20 -99h-101z" />
    <glyph glyph-name="Agrave" unicode="&#xc0;" horiz-adv-x="666" 
d="M25 0h-68l17 86h18q23 0 33 22l338 598h105l105 -600q2 -12 7 -16t17 -4h18l-17 -86h-60q-32 0 -45 11.5t-18 46.5l-25 145h-259l-82 -145q-19 -35 -35.5 -46.5t-48.5 -11.5zM349 503l-118 -216h211l-36 216l-8 98h-2q-26 -61 -47 -98zM463 755h-72l-73 127h94z" />
    <glyph glyph-name="Aacute" unicode="&#xc1;" horiz-adv-x="666" 
d="M25 0h-68l17 86h18q23 0 33 22l338 598h105l105 -600q2 -12 7 -16t17 -4h18l-17 -86h-60q-32 0 -45 11.5t-18 46.5l-25 145h-259l-82 -145q-19 -35 -35.5 -46.5t-48.5 -11.5zM349 503l-118 -216h211l-36 216l-8 98h-2q-26 -61 -47 -98zM466 755h-79l97 127h101z" />
    <glyph glyph-name="Acircumflex" unicode="&#xc2;" horiz-adv-x="666" 
d="M25 0h-68l17 86h18q23 0 33 22l338 598h105l105 -600q2 -12 7 -16t17 -4h18l-17 -86h-60q-32 0 -45 11.5t-18 46.5l-25 145h-259l-82 -145q-19 -35 -35.5 -46.5t-48.5 -11.5zM349 503l-118 -216h211l-36 216l-8 98h-2q-26 -61 -47 -98zM374 755h-82l112 127h89l64 -127
h-77l-36 80h-2z" />
    <glyph glyph-name="Atilde" unicode="&#xc3;" horiz-adv-x="666" 
d="M25 0h-68l17 86h18q23 0 33 22l338 598h105l105 -600q2 -12 7 -16t17 -4h18l-17 -86h-60q-32 0 -45 11.5t-18 46.5l-25 145h-259l-82 -145q-19 -35 -35.5 -46.5t-48.5 -11.5zM349 503l-118 -216h211l-36 216l-8 98h-2q-26 -61 -47 -98zM320 756h-65q22 127 121 127
q25 0 44 -10.5t27.5 -23.5t21.5 -23.5t28 -10.5q40 0 53 65h66q-22 -127 -121 -127q-26 0 -44.5 10.5t-27.5 23.5t-22 23.5t-28 10.5q-40 0 -53 -65z" />
    <glyph glyph-name="Adieresis" unicode="&#xc4;" horiz-adv-x="666" 
d="M25 0h-68l17 86h18q23 0 33 22l338 598h105l105 -600q2 -12 7 -16t17 -4h18l-17 -86h-60q-32 0 -45 11.5t-18 46.5l-25 145h-259l-82 -145q-19 -35 -35.5 -46.5t-48.5 -11.5zM349 503l-118 -216h211l-36 216l-8 98h-2q-26 -61 -47 -98zM544 781h-74l20 101h74zM379 781
h-73l20 101h73z" />
    <glyph glyph-name="Aring" unicode="&#xc5;" horiz-adv-x="666" 
d="M25 0h-68l17 86h18q23 0 33 22l338 598h105l105 -600q2 -12 7 -16t17 -4h18l-17 -86h-60q-32 0 -45 11.5t-18 46.5l-25 145h-259l-82 -145q-19 -35 -35.5 -46.5t-48.5 -11.5zM349 503l-118 -216h211l-36 216l-8 98h-2q-26 -61 -47 -98zM428 742q-31 0 -52.5 18t-21.5 47
q0 37 28.5 61.5t65.5 24.5q32 0 53.5 -18.5t21.5 -47.5q0 -36 -29 -60.5t-66 -24.5zM431 783q18 0 30 12t12 31q0 27 -28 27q-16 0 -28.5 -13t-12.5 -31q0 -26 27 -26z" />
    <glyph glyph-name="AE" unicode="&#xc6;" horiz-adv-x="866" 
d="M13 0h-56l17 86h15q13 0 19 4t14 18l350 598h447q58 0 58 -45q0 -11 -5 -36l-13 -72h-92l6 28q3 17 3 24q0 15 -20 15h-193l-43 -221h242l-17 -86h-242l-37 -189q-3 -14 -3 -23q0 -15 18 -15h200q23 0 27 22l9 45h91l-17 -91q-7 -34 -24 -48t-49 -14h-307q-58 0 -58 45
q0 9 5 37l45 231h-158l-145 -255q-22 -37 -37 -47q-16 -11 -50 -11zM420 620l-126 -221h126l43 221h-43z" />
    <glyph glyph-name="Ccedilla" unicode="&#xc7;" horiz-adv-x="694" 
d="M271 -86l-18 -2l36 82q-113 17 -180 98q-67 82 -67 203q0 107 54 205q56 98 152 157q97 61 212 61q55 0 109 -14q57 -14 96 -47t39 -77q0 -11 -5 -44l-8 -40h-92l8 38q6 32 -21 54q-46 37 -129 37q-124 0 -219 -95q-93 -95 -93 -230q0 -97 58 -158q59 -60 156 -60
q135 0 230 85l45 -78q-50 -47 -128 -74q-76 -27 -158 -27h-7l-15 -38q25 -4 42 -21.5t17 -42.5q0 -45 -33.5 -69t-82.5 -24q-36 0 -51 5l-6 1l10 59q18 -7 42 -7q53 0 53 37q0 26 -46 26z" />
    <glyph glyph-name="Egrave" unicode="&#xc8;" horiz-adv-x="571" 
d="M52 45q0 9 5 37l105 538h-65l17 86h409q59 0 59 -45q0 -11 -5 -36l-14 -72h-91l6 28q3 17 3 24q0 15 -20 15h-199l-43 -221h247l-17 -86h-247l-37 -189q-3 -13 -3 -23q0 -15 18 -15h206q23 0 27 22l9 45h91l-18 -91q-6 -33 -23 -47.5t-50 -14.5h-312q-58 0 -58 45z
M416 755h-72l-73 127h94z" />
    <glyph glyph-name="Eacute" unicode="&#xc9;" horiz-adv-x="571" 
d="M52 45q0 9 5 37l105 538h-65l17 86h409q59 0 59 -45q0 -11 -5 -36l-14 -72h-91l6 28q3 17 3 24q0 15 -20 15h-199l-43 -221h247l-17 -86h-247l-37 -189q-3 -13 -3 -23q0 -15 18 -15h206q23 0 27 22l9 45h91l-18 -91q-6 -33 -23 -47.5t-50 -14.5h-312q-58 0 -58 45z
M420 755h-79l97 127h101z" />
    <glyph glyph-name="Ecircumflex" unicode="&#xca;" horiz-adv-x="571" 
d="M52 45q0 9 5 37l105 538h-65l17 86h409q59 0 59 -45q0 -11 -5 -36l-14 -72h-91l6 28q3 17 3 24q0 15 -20 15h-199l-43 -221h247l-17 -86h-247l-37 -189q-3 -13 -3 -23q0 -15 18 -15h206q23 0 27 22l9 45h91l-18 -91q-6 -33 -23 -47.5t-50 -14.5h-312q-58 0 -58 45z
M327 755h-82l112 127h89l64 -127h-77l-36 80h-2z" />
    <glyph glyph-name="Edieresis" unicode="&#xcb;" horiz-adv-x="571" 
d="M52 45q0 9 5 37l105 538h-65l17 86h409q59 0 59 -45q0 -11 -5 -36l-14 -72h-91l6 28q3 17 3 24q0 15 -20 15h-199l-43 -221h247l-17 -86h-247l-37 -189q-3 -13 -3 -23q0 -15 18 -15h206q23 0 27 22l9 45h91l-18 -91q-6 -33 -23 -47.5t-50 -14.5h-312q-58 0 -58 45z
M497 781h-74l20 101h74zM332 781h-73l20 101h73z" />
    <glyph glyph-name="Igrave" unicode="&#xcc;" horiz-adv-x="318" 
d="M217 0h-232l17 86h68l104 534h-69l17 86h233l-17 -86h-68l-104 -534h68zM283 755h-72l-73 127h94z" />
    <glyph glyph-name="Iacute" unicode="&#xcd;" horiz-adv-x="318" 
d="M217 0h-232l17 86h68l104 534h-69l17 86h233l-17 -86h-68l-104 -534h68zM286 755h-79l97 127h101z" />
    <glyph glyph-name="Icircumflex" unicode="&#xce;" horiz-adv-x="318" 
d="M194 755h-82l112 127h89l64 -127h-77l-36 80h-2zM217 0h-232l17 86h68l104 534h-69l17 86h233l-17 -86h-68l-104 -534h68z" />
    <glyph glyph-name="Idieresis" unicode="&#xcf;" horiz-adv-x="318" 
d="M217 0h-232l17 86h68l104 534h-69l17 86h233l-17 -86h-68l-104 -534h68zM365 781h-74l20 101h74zM200 781h-73l20 101h73z" />
    <glyph glyph-name="Eth" unicode="&#xd0;" horiz-adv-x="720" 
d="M55 45q0 9 5 37l44 230h-49l16 82h49l44 226h-65l17 86h276q146 0 226.5 -74t80.5 -211q0 -175 -120 -298t-305 -123h-162q-57 0 -57 45zM164 101q0 -15 19 -15h91q142 0 231 96q90 96 90 233q0 101 -56 153t-161 52h-114l-44 -226h144l-16 -82h-144l-36 -188
q-4 -16 -4 -23z" />
    <glyph glyph-name="Ntilde" unicode="&#xd1;" horiz-adv-x="756" 
d="M80 0h-104l17 86h42q23 0 27 22l117 598h87l228 -451l41 -96h2q4 46 13 96l76 390q6 33 22.5 47t49.5 14h105l-17 -86h-45q-21 0 -25 -22l-116 -598h-87l-230 451l-39 95h-2q-5 -47 -14 -95l-75 -391q-13 -60 -73 -60zM370 756h-65q22 127 121 127q25 0 44 -10.5
t27.5 -23.5t21.5 -23.5t28 -10.5q40 0 53 65h66q-22 -127 -121 -127q-26 0 -44.5 10.5t-27.5 23.5t-22 23.5t-28 10.5q-40 0 -53 -65z" />
    <glyph glyph-name="Ograve" unicode="&#xd2;" horiz-adv-x="795" 
d="M40 296q0 112 60 209q62 99 160 155q100 58 211 58q136 0 221 -85q86 -84 86 -216q0 -113 -61 -213t-161 -158q-98 -58 -209 -58q-136 0 -222 86q-85 86 -85 222zM144 300q0 -95 59 -157q58 -61 153 -61q121 0 219 98q99 99 99 231q0 95 -59 154q-59 60 -152 60
q-124 0 -221 -97q-98 -96 -98 -228zM519 755h-72l-73 127h94z" />
    <glyph glyph-name="Oacute" unicode="&#xd3;" horiz-adv-x="795" 
d="M40 296q0 112 60 209q62 99 160 155q100 58 211 58q136 0 221 -85q86 -84 86 -216q0 -113 -61 -213t-161 -158q-98 -58 -209 -58q-136 0 -222 86q-85 86 -85 222zM144 300q0 -95 59 -157q58 -61 153 -61q121 0 219 98q99 99 99 231q0 95 -59 154q-59 60 -152 60
q-124 0 -221 -97q-98 -96 -98 -228zM523 755h-79l97 127h101z" />
    <glyph glyph-name="Ocircumflex" unicode="&#xd4;" horiz-adv-x="795" 
d="M40 296q0 112 60 209q62 99 160 155q100 58 211 58q136 0 221 -85q86 -84 86 -216q0 -113 -61 -213t-161 -158q-98 -58 -209 -58q-136 0 -222 86q-85 86 -85 222zM144 300q0 -95 59 -157q58 -61 153 -61q121 0 219 98q99 99 99 231q0 95 -59 154q-59 60 -152 60
q-124 0 -221 -97q-98 -96 -98 -228zM430 755h-82l112 127h89l64 -127h-77l-36 80h-2z" />
    <glyph glyph-name="Otilde" unicode="&#xd5;" horiz-adv-x="795" 
d="M40 296q0 112 60 209q62 99 160 155q100 58 211 58q136 0 221 -85q86 -84 86 -216q0 -113 -61 -213t-161 -158q-98 -58 -209 -58q-136 0 -222 86q-85 86 -85 222zM144 300q0 -95 59 -157q58 -61 153 -61q121 0 219 98q99 99 99 231q0 95 -59 154q-59 60 -152 60
q-124 0 -221 -97q-98 -96 -98 -228zM377 756h-65q22 127 121 127q25 0 44 -10.5t27.5 -23.5t21.5 -23.5t28 -10.5q40 0 53 65h66q-22 -127 -121 -127q-26 0 -44.5 10.5t-27.5 23.5t-22 23.5t-28 10.5q-40 0 -53 -65z" />
    <glyph glyph-name="Odieresis" unicode="&#xd6;" horiz-adv-x="795" 
d="M40 296q0 112 60 209q62 99 160 155q100 58 211 58q136 0 221 -85q86 -84 86 -216q0 -113 -61 -213t-161 -158q-98 -58 -209 -58q-136 0 -222 86q-85 86 -85 222zM144 300q0 -95 59 -157q58 -61 153 -61q121 0 219 98q99 99 99 231q0 95 -59 154q-59 60 -152 60
q-124 0 -221 -97q-98 -96 -98 -228zM600 781h-74l20 101h74zM435 781h-73l20 101h73z" />
    <glyph glyph-name="multiply" unicode="&#xd7;" 
d="M84 0l-55 55l207 230l-207 230l55 55l204 -228l205 228l55 -55l-208 -230l208 -230l-55 -55l-205 228z" />
    <glyph glyph-name="Oslash" unicode="&#xd8;" horiz-adv-x="795" 
d="M101 -27l-43 36l63 69q-81 86 -81 218q0 112 60 209q62 99 160 155q100 58 211 58q105 0 184 -54l62 68l43 -36l-62 -68q80 -83 80 -211q0 -113 -61 -213t-161 -158q-98 -58 -209 -58q-103 0 -183 54zM192 157l394 432q-56 36 -123 36q-124 0 -221 -97q-98 -96 -98 -228
q0 -84 48 -143zM627 549l-394 -431q53 -36 123 -36q121 0 219 98q99 99 99 231q0 82 -47 138z" />
    <glyph glyph-name="Ugrave" unicode="&#xd9;" horiz-adv-x="716" 
d="M74 197q0 27 6 57l64 325q4 20 4 26q0 15 -20 15h-41l17 86h95q59 0 59 -45q0 -11 -5 -36l-73 -375q-5 -22 -5 -42q0 -60 37 -93t103 -33q78 0 133 45.5t71 124.5l77 393q6 33 22.5 47t49.5 14h104l-16 -86h-45q-21 0 -25 -22l-70 -360q-23 -114 -104 -182
q-83 -68 -202 -68q-108 0 -173 57q-63 57 -63 152zM484 755h-72l-73 127h94z" />
    <glyph glyph-name="Uacute" unicode="&#xda;" horiz-adv-x="716" 
d="M74 197q0 27 6 57l64 325q4 20 4 26q0 15 -20 15h-41l17 86h95q59 0 59 -45q0 -11 -5 -36l-73 -375q-5 -22 -5 -42q0 -60 37 -93t103 -33q78 0 133 45.5t71 124.5l77 393q6 33 22.5 47t49.5 14h104l-16 -86h-45q-21 0 -25 -22l-70 -360q-23 -114 -104 -182
q-83 -68 -202 -68q-108 0 -173 57q-63 57 -63 152zM487 755h-79l97 127h101z" />
    <glyph glyph-name="Ucircumflex" unicode="&#xdb;" horiz-adv-x="716" 
d="M74 197q0 27 6 57l64 325q4 20 4 26q0 15 -20 15h-41l17 86h95q59 0 59 -45q0 -11 -5 -36l-73 -375q-5 -22 -5 -42q0 -60 37 -93t103 -33q78 0 133 45.5t71 124.5l77 393q6 33 22.5 47t49.5 14h104l-16 -86h-45q-21 0 -25 -22l-70 -360q-23 -114 -104 -182
q-83 -68 -202 -68q-108 0 -173 57q-63 57 -63 152zM394 755h-82l112 127h89l64 -127h-77l-36 80h-2z" />
    <glyph glyph-name="Udieresis" unicode="&#xdc;" horiz-adv-x="716" 
d="M74 197q0 27 6 57l64 325q4 20 4 26q0 15 -20 15h-41l17 86h95q59 0 59 -45q0 -11 -5 -36l-73 -375q-5 -22 -5 -42q0 -60 37 -93t103 -33q78 0 133 45.5t71 124.5l77 393q6 33 22.5 47t49.5 14h104l-16 -86h-45q-21 0 -25 -22l-70 -360q-23 -114 -104 -182
q-83 -68 -202 -68q-108 0 -173 57q-63 57 -63 152zM565 781h-74l20 101h74zM400 781h-73l20 101h73z" />
    <glyph glyph-name="Yacute" unicode="&#xdd;" horiz-adv-x="606" 
d="M294 0h-100l60 308l-123 287q-10 25 -35 25h-24l17 86h45q33 0 49 -11t29 -43l76 -177l28 -80h2q35 54 56 80l140 177q24 32 44.5 43t53.5 11h61l-17 -86h-23q-26 0 -44 -23l-235 -289zM428 755h-79l97 127h101z" />
    <glyph glyph-name="Thorn" unicode="&#xde;" horiz-adv-x="586" 
d="M141 0h-100l116 598q4 22 -17 22h-43l17 86h101q54 0 54 -42q0 -10 -3 -22l-11 -56h136q88 0 141 -49t53 -132q0 -114 -80 -189q-79 -75 -186 -75h-150zM238 500l-53 -273h130q71 0 117 48q48 48 48 124q0 48 -29 74.5t-82 26.5h-131z" />
    <glyph glyph-name="germandbls" unicode="&#xdf;" horiz-adv-x="589" 
d="M60 0h-93l16 83h37q22 0 26 21l84 434q16 84 84 132q69 48 151 48q80 0 128.5 -39.5t48.5 -102.5q0 -32 -14.5 -60t-35 -47t-40.5 -35.5t-34.5 -34t-14.5 -35.5q0 -37 69 -86q29 -20 49 -52.5t20 -65.5q0 -68 -57 -118q-56 -49 -133 -49q-82 0 -133 22l-16 7l17 84
q50 -29 124 -29q40 0 69.5 22t29.5 60q0 47 -70 95q-70 50 -70 104q0 27 14.5 52t35.5 43.5l42 36t35.5 38t14.5 41.5q0 28 -22 46.5t-60 18.5q-50 0 -88 -29.5t-49 -81.5l-89 -460q-8 -34 -25.5 -48.5t-50.5 -14.5z" />
    <glyph glyph-name="agrave" unicode="&#xe0;" horiz-adv-x="533" 
d="M-3 121q0 106 109 152q97 42 230 42h25l2 12q4 17 4 39q0 75 -90 75q-89 0 -95 -39l-5 -29h-92l10 51q10 48 66 71q58 23 128 23q175 0 175 -143q0 -24 -7 -59l-37 -197q-4 -12 -4 -21q0 -15 18 -15h42l-17 -83h-85q-55 0 -55 41q0 25 10 55h-2q1 0 -6.5 -11t-22.5 -27
t-35.5 -32t-52.5 -27t-66 -11q-65 0 -106 35.5t-41 97.5zM95 135q0 -33 21 -52.5t56 -19.5q61 0 111 53q51 55 61 111l4 18h-25q-80 0 -145 -19q-83 -24 -83 -91zM348 580h-72l-73 127h94z" />
    <glyph glyph-name="aacute" unicode="&#xe1;" horiz-adv-x="533" 
d="M-3 121q0 106 109 152q97 42 230 42h25l2 12q4 17 4 39q0 75 -90 75q-89 0 -95 -39l-5 -29h-92l10 51q10 48 66 71q58 23 128 23q175 0 175 -143q0 -24 -7 -59l-37 -197q-4 -12 -4 -21q0 -15 18 -15h42l-17 -83h-85q-55 0 -55 41q0 25 10 55h-2q1 0 -6.5 -11t-22.5 -27
t-35.5 -32t-52.5 -27t-66 -11q-65 0 -106 35.5t-41 97.5zM95 135q0 -33 21 -52.5t56 -19.5q61 0 111 53q51 55 61 111l4 18h-25q-80 0 -145 -19q-83 -24 -83 -91zM352 580h-79l97 127h101z" />
    <glyph glyph-name="acircumflex" unicode="&#xe2;" horiz-adv-x="533" 
d="M-3 121q0 106 109 152q97 42 230 42h25l2 12q4 17 4 39q0 75 -90 75q-89 0 -95 -39l-5 -29h-92l10 51q10 48 66 71q58 23 128 23q175 0 175 -143q0 -24 -7 -59l-37 -197q-4 -12 -4 -21q0 -15 18 -15h42l-17 -83h-85q-55 0 -55 41q0 25 10 55h-2q1 0 -6.5 -11t-22.5 -27
t-35.5 -32t-52.5 -27t-66 -11q-65 0 -106 35.5t-41 97.5zM95 135q0 -33 21 -52.5t56 -19.5q61 0 111 53q51 55 61 111l4 18h-25q-80 0 -145 -19q-83 -24 -83 -91zM259 580h-82l112 127h89l64 -127h-77l-36 80h-2z" />
    <glyph glyph-name="atilde" unicode="&#xe3;" horiz-adv-x="533" 
d="M-3 121q0 106 109 152q97 42 230 42h25l2 12q4 17 4 39q0 75 -90 75q-89 0 -95 -39l-5 -29h-92l10 51q10 48 66 71q58 23 128 23q175 0 175 -143q0 -24 -7 -59l-37 -197q-4 -12 -4 -21q0 -15 18 -15h42l-17 -83h-85q-55 0 -55 41q0 25 10 55h-2q1 0 -6.5 -11t-22.5 -27
t-35.5 -32t-52.5 -27t-66 -11q-65 0 -106 35.5t-41 97.5zM95 135q0 -33 21 -52.5t56 -19.5q61 0 111 53q51 55 61 111l4 18h-25q-80 0 -145 -19q-83 -24 -83 -91zM206 581h-65q22 127 121 127q25 0 44 -10.5t27.5 -23.5t21.5 -23.5t28 -10.5q40 0 53 65h66
q-22 -127 -121 -127q-26 0 -44.5 10.5t-27.5 23.5t-22 23.5t-28 10.5q-40 0 -53 -65z" />
    <glyph glyph-name="adieresis" unicode="&#xe4;" horiz-adv-x="533" 
d="M-3 121q0 106 109 152q97 42 230 42h25l2 12q4 17 4 39q0 75 -90 75q-89 0 -95 -39l-5 -29h-92l10 51q10 48 66 71q58 23 128 23q175 0 175 -143q0 -24 -7 -59l-37 -197q-4 -12 -4 -21q0 -15 18 -15h42l-17 -83h-85q-55 0 -55 41q0 25 10 55h-2q1 0 -6.5 -11t-22.5 -27
t-35.5 -32t-52.5 -27t-66 -11q-65 0 -106 35.5t-41 97.5zM95 135q0 -33 21 -52.5t56 -19.5q61 0 111 53q51 55 61 111l4 18h-25q-80 0 -145 -19q-83 -24 -83 -91zM429 606h-74l20 101h74zM264 606h-73l20 101h73z" />
    <glyph glyph-name="aring" unicode="&#xe5;" horiz-adv-x="533" 
d="M-3 121q0 106 109 152q97 42 230 42h25l2 12q4 17 4 39q0 75 -90 75q-89 0 -95 -39l-5 -29h-92l10 51q10 48 66 71q58 23 128 23q175 0 175 -143q0 -24 -7 -59l-37 -197q-4 -12 -4 -21q0 -15 18 -15h42l-17 -83h-85q-55 0 -55 41q0 25 10 55h-2q1 0 -6.5 -11t-22.5 -27
t-35.5 -32t-52.5 -27t-66 -11q-65 0 -106 35.5t-41 97.5zM95 135q0 -33 21 -52.5t56 -19.5q61 0 111 53q51 55 61 111l4 18h-25q-80 0 -145 -19q-83 -24 -83 -91zM314 567q-31 0 -52.5 18t-21.5 47q0 37 28.5 61.5t65.5 24.5q32 0 53.5 -18.5t21.5 -47.5q0 -36 -29 -60.5
t-66 -24.5zM317 608q18 0 30 12t12 31q0 27 -28 27q-16 0 -28.5 -13t-12.5 -31q0 -26 27 -26z" />
    <glyph glyph-name="ae" unicode="&#xe6;" horiz-adv-x="849" 
d="M-3 121q0 44 20.5 80t54.5 57q33 21 77 33q74 21 164 21h45q6 30 6 48q0 81 -88 81q-89 0 -95 -39l-6 -29h-92l10 51q11 56 77 76q57 18 118 18q116 0 147 -85h2q76 85 188 85q94 0 144 -50t50 -138q0 -34 -12 -75l-4 -13h-364q-3 -15 -3 -33q0 -64 37.5 -101.5
t102.5 -37.5q36 0 76.5 13.5t63.5 30.5l20 14l28 -73q-23 -17 -27 -19q-16 -10 -68 -30q-49 -18 -98 -18q-77 0 -132 33t-76 91h-2q-13 -28 -58 -70q-56 -54 -149 -54q-66 0 -112 36q-45 36 -45 97zM456 312h264q2 20 2 29q0 48 -27 74t-71 26q-57 0 -101 -33.5t-67 -95.5z
M96 132q0 -30 21.5 -48t59.5 -18q58 0 105 50q46 50 60 111l3 15h-47q-202 0 -202 -110z" />
    <glyph glyph-name="ccedilla" unicode="&#xe7;" horiz-adv-x="526" 
d="M174 -86l-18 -2l37 83q-80 16 -125.5 74t-45.5 143q0 125 90 215q91 91 216 91q42 0 83 -9.5t73 -38.5t24 -71l-8 -44h-86l4 21q4 28 -27 43q-31 16 -70 16q-79 0 -140 -64q-60 -63 -60 -150q0 -67 38 -107t109 -40q42 0 83.5 14.5t61.5 31.5l18 15l28 -77q-8 -8 -33 -24
q-68 -46 -168 -46q-12 0 -15 1l-14 -39q25 -4 42 -21.5t17 -42.5q0 -45 -33.5 -69t-82.5 -24q-37 0 -52 5l-6 1l11 59q18 -7 41 -7q54 0 54 37q0 26 -46 26z" />
    <glyph glyph-name="egrave" unicode="&#xe8;" horiz-adv-x="540" 
d="M22 203q0 130 85 222q85 93 210 93q92 0 142 -50.5t50 -136.5q0 -40 -11 -77l-4 -13h-369q-4 -15 -4 -36q0 -60 38.5 -96.5t105.5 -36.5q36 0 76.5 13.5t63.5 30.5l21 14l28 -75q-23 -17 -27 -19q-16 -10 -68 -30q-51 -18 -100 -18q-109 0 -173 60t-64 155zM140 310h269
q3 15 3 29q0 48 -26.5 75t-71.5 27q-57 0 -104.5 -35.5t-69.5 -95.5zM374 580h-72l-73 127h94z" />
    <glyph glyph-name="eacute" unicode="&#xe9;" horiz-adv-x="540" 
d="M377 580h-79l97 127h101zM22 203q0 130 85 222q85 93 210 93q92 0 142 -50.5t50 -136.5q0 -40 -11 -77l-4 -13h-369q-4 -15 -4 -36q0 -60 38.5 -96.5t105.5 -36.5q36 0 76.5 13.5t63.5 30.5l21 14l28 -75q-23 -17 -27 -19q-16 -10 -68 -30q-51 -18 -100 -18
q-109 0 -173 60t-64 155zM140 310h269q3 15 3 29q0 48 -26.5 75t-71.5 27q-57 0 -104.5 -35.5t-69.5 -95.5z" />
    <glyph glyph-name="ecircumflex" unicode="&#xea;" horiz-adv-x="540" 
d="M284 580h-82l112 127h89l64 -127h-77l-36 80h-2zM22 203q0 130 85 222q85 93 210 93q92 0 142 -50.5t50 -136.5q0 -40 -11 -77l-4 -13h-369q-4 -15 -4 -36q0 -60 38.5 -96.5t105.5 -36.5q36 0 76.5 13.5t63.5 30.5l21 14l28 -75q-23 -17 -27 -19q-16 -10 -68 -30
q-51 -18 -100 -18q-109 0 -173 60t-64 155zM140 310h269q3 15 3 29q0 48 -26.5 75t-71.5 27q-57 0 -104.5 -35.5t-69.5 -95.5z" />
    <glyph glyph-name="edieresis" unicode="&#xeb;" horiz-adv-x="540" 
d="M455 606h-74l20 101h74zM290 606h-73l20 101h73zM22 203q0 130 85 222q85 93 210 93q92 0 142 -50.5t50 -136.5q0 -40 -11 -77l-4 -13h-369q-4 -15 -4 -36q0 -60 38.5 -96.5t105.5 -36.5q36 0 76.5 13.5t63.5 30.5l21 14l28 -75q-23 -17 -27 -19q-16 -10 -68 -30
q-51 -18 -100 -18q-109 0 -173 60t-64 155zM140 310h269q3 15 3 29q0 48 -26.5 75t-71.5 27q-57 0 -104.5 -35.5t-69.5 -95.5z" />
    <glyph glyph-name="igrave" unicode="&#xec;" horiz-adv-x="265" 
d="M38 46q0 14 3 25l61 315q3 15 3 22q0 15 -18 15h-41l16 83h93q56 0 56 -44q0 -11 -4 -31l-61 -317q-3 -15 -3 -16q0 -15 19 -15h40l-15 -83h-93q-56 0 -56 46zM215 580h-72l-73 127h94z" />
    <glyph glyph-name="iacute" unicode="&#xed;" horiz-adv-x="265" 
d="M38 46q0 14 3 25l61 315q3 15 3 22q0 15 -18 15h-41l16 83h93q56 0 56 -44q0 -11 -4 -31l-61 -317q-3 -15 -3 -16q0 -15 19 -15h40l-15 -83h-93q-56 0 -56 46zM217 580h-79l97 127h101z" />
    <glyph glyph-name="icircumflex" unicode="&#xee;" horiz-adv-x="265" 
d="M38 46q0 14 3 25l61 315q3 15 3 22q0 15 -18 15h-41l16 83h93q56 0 56 -44q0 -11 -4 -31l-61 -317q-3 -15 -3 -16q0 -15 19 -15h40l-15 -83h-93q-56 0 -56 46zM126 580h-82l112 127h89l64 -127h-77l-36 80h-2z" />
    <glyph glyph-name="idieresis" unicode="&#xef;" horiz-adv-x="265" 
d="M38 46q0 14 3 25l61 315q3 15 3 22q0 15 -18 15h-41l16 83h93q56 0 56 -44q0 -11 -4 -31l-61 -317q-3 -15 -3 -16q0 -15 19 -15h40l-15 -83h-93q-56 0 -56 46zM296 606h-74l20 101h74zM131 606h-73l20 101h73z" />
    <glyph glyph-name="eth" unicode="&#xf0;" horiz-adv-x="561" 
d="M18 191q0 106 78 190q79 85 204 85q34 0 66 -10.5t46 -23.5l12 -12h2q-18 84 -89 142l-194 -78l1 54l142 58q-60 34 -125 51l40 72q113 -30 186 -84l155 62v-54l-112 -45q100 -97 100 -247q0 -116 -69 -233q-35 -59 -96 -94.5t-135 -35.5q-102 0 -157 58t-55 145z
M117 193q0 -54 30 -88t84 -34q81 0 136 69q55 70 55 145q0 48 -31.5 75.5t-87.5 27.5q-79 0 -133 -58q-53 -59 -53 -137z" />
    <glyph glyph-name="ntilde" unicode="&#xf1;" horiz-adv-x="624" 
d="M124 0h-96l75 387q3 9 3 20q0 16 -19 16h-40l16 83h92q54 0 54 -45q0 -15 -12 -63h2q30 46 82 82q56 38 128 38q71 0 108 -35.5t37 -101.5q0 -26 -7 -62l-39 -205q-3 -15 -3 -16q0 -15 19 -15h40l-15 -83h-94q-56 0 -56 46q0 11 3 23l45 233q6 34 6 50q0 77 -78 77
q-73 0 -132 -60q-58 -58 -72 -133zM271 581h-65q22 127 121 127q25 0 44 -10.5t27.5 -23.5t21.5 -23.5t28 -10.5q40 0 53 65h66q-22 -127 -121 -127q-26 0 -44.5 10.5t-27.5 23.5t-22 23.5t-28 10.5q-40 0 -53 -65z" />
    <glyph glyph-name="ograve" unicode="&#xf2;" horiz-adv-x="613" 
d="M21 211q0 129 96 217q97 90 224 90q104 0 169 -62t65 -159q0 -129 -97 -219q-98 -90 -223 -90q-102 0 -169 62q-65 62 -65 161zM120 215q0 -64 40 -103.5t104 -39.5q82 0 146 64q66 64 66 156q0 63 -39.5 102.5t-102.5 39.5q-84 0 -149 -64q-65 -65 -65 -155zM399 580
h-72l-73 127h94z" />
    <glyph glyph-name="oacute" unicode="&#xf3;" horiz-adv-x="613" 
d="M21 211q0 129 96 217q97 90 224 90q104 0 169 -62t65 -159q0 -129 -97 -219q-98 -90 -223 -90q-102 0 -169 62q-65 62 -65 161zM120 215q0 -64 40 -103.5t104 -39.5q82 0 146 64q66 64 66 156q0 63 -39.5 102.5t-102.5 39.5q-84 0 -149 -64q-65 -65 -65 -155zM402 580
h-79l97 127h101z" />
    <glyph glyph-name="ocircumflex" unicode="&#xf4;" horiz-adv-x="613" 
d="M21 211q0 129 96 217q97 90 224 90q104 0 169 -62t65 -159q0 -129 -97 -219q-98 -90 -223 -90q-102 0 -169 62q-65 62 -65 161zM120 215q0 -64 40 -103.5t104 -39.5q82 0 146 64q66 64 66 156q0 63 -39.5 102.5t-102.5 39.5q-84 0 -149 -64q-65 -65 -65 -155zM309 580
h-82l112 127h89l64 -127h-77l-36 80h-2z" />
    <glyph glyph-name="otilde" unicode="&#xf5;" horiz-adv-x="613" 
d="M256 581h-65q22 127 121 127q25 0 44 -10.5t27.5 -23.5t21.5 -23.5t28 -10.5q40 0 53 65h66q-22 -127 -121 -127q-26 0 -44.5 10.5t-27.5 23.5t-22 23.5t-28 10.5q-40 0 -53 -65zM21 211q0 129 96 217q97 90 224 90q104 0 169 -62t65 -159q0 -129 -97 -219
q-98 -90 -223 -90q-102 0 -169 62q-65 62 -65 161zM120 215q0 -64 40 -103.5t104 -39.5q82 0 146 64q66 64 66 156q0 63 -39.5 102.5t-102.5 39.5q-84 0 -149 -64q-65 -65 -65 -155z" />
    <glyph glyph-name="odieresis" unicode="&#xf6;" horiz-adv-x="613" 
d="M21 211q0 129 96 217q97 90 224 90q104 0 169 -62t65 -159q0 -129 -97 -219q-98 -90 -223 -90q-102 0 -169 62q-65 62 -65 161zM120 215q0 -64 40 -103.5t104 -39.5q82 0 146 64q66 64 66 156q0 63 -39.5 102.5t-102.5 39.5q-84 0 -149 -64q-65 -65 -65 -155zM480 606
h-74l20 101h74zM315 606h-73l20 101h73z" />
    <glyph glyph-name="divide" unicode="&#xf7;" 
d="M333 435h-95v91h95v-91zM538 246h-505v78h505v-78zM333 44h-95v91h95v-91z" />
    <glyph glyph-name="oslash" unicode="&#xf8;" horiz-adv-x="610" 
d="M70 -36l-39 35l52 55q-63 64 -63 157q0 127 95 217q96 90 218 90q81 0 142 -38l54 59l40 -35l-55 -58q58 -62 58 -149q0 -127 -95 -219q-95 -90 -216 -90q-78 0 -136 34zM150 126l262 285q-37 23 -81 23q-83 0 -147 -64q-65 -65 -65 -155q0 -52 31 -89zM446 372
l-258 -281q34 -19 74 -19q82 0 146 64q66 64 66 156q0 43 -28 80z" />
    <glyph glyph-name="ugrave" unicode="&#xf9;" horiz-adv-x="616" 
d="M51 125q0 29 6 63l40 204q2 14 2 16q0 15 -18 15h-41l16 83h93q57 0 57 -46q0 -10 -3 -23l-46 -234q-5 -30 -5 -48q0 -77 76 -77q70 0 129 59q58 58 72 133l46 236h97l-75 -387q-3 -11 -3 -20q0 -16 19 -16h39l-16 -83h-91q-54 0 -54 45q0 15 12 64h-2q-29 -47 -82 -83
q-55 -38 -126 -38q-69 0 -105.5 35.5t-36.5 101.5zM390 580h-72l-73 127h94z" />
    <glyph glyph-name="uacute" unicode="&#xfa;" horiz-adv-x="616" 
d="M51 125q0 29 6 63l40 204q2 14 2 16q0 15 -18 15h-41l16 83h93q57 0 57 -46q0 -10 -3 -23l-46 -234q-5 -30 -5 -48q0 -77 76 -77q70 0 129 59q58 58 72 133l46 236h97l-75 -387q-3 -11 -3 -20q0 -16 19 -16h39l-16 -83h-91q-54 0 -54 45q0 15 12 64h-2q-29 -47 -82 -83
q-55 -38 -126 -38q-69 0 -105.5 35.5t-36.5 101.5zM394 580h-79l97 127h101z" />
    <glyph glyph-name="ucircumflex" unicode="&#xfb;" horiz-adv-x="616" 
d="M51 125q0 29 6 63l40 204q2 14 2 16q0 15 -18 15h-41l16 83h93q57 0 57 -46q0 -10 -3 -23l-46 -234q-5 -30 -5 -48q0 -77 76 -77q70 0 129 59q58 58 72 133l46 236h97l-75 -387q-3 -11 -3 -20q0 -16 19 -16h39l-16 -83h-91q-54 0 -54 45q0 15 12 64h-2q-29 -47 -82 -83
q-55 -38 -126 -38q-69 0 -105.5 35.5t-36.5 101.5zM301 580h-82l112 127h89l64 -127h-77l-36 80h-2z" />
    <glyph glyph-name="udieresis" unicode="&#xfc;" horiz-adv-x="616" 
d="M51 125q0 29 6 63l40 204q2 14 2 16q0 15 -18 15h-41l16 83h93q57 0 57 -46q0 -10 -3 -23l-46 -234q-5 -30 -5 -48q0 -77 76 -77q70 0 129 59q58 58 72 133l46 236h97l-75 -387q-3 -11 -3 -20q0 -16 19 -16h39l-16 -83h-91q-54 0 -54 45q0 15 12 64h-2q-29 -47 -82 -83
q-55 -38 -126 -38q-69 0 -105.5 35.5t-36.5 101.5zM471 606h-74l20 101h74zM306 606h-73l20 101h73z" />
    <glyph glyph-name="yacute" unicode="&#xfd;" horiz-adv-x="544" 
d="M31 -210q-29 0 -57.5 12t-41.5 26l-13 12l41 69q36 -36 74 -36q56 0 100 74l36 57l-95 399q-3 12 -8.5 16t-18.5 4h-12l16 83h65q23 0 33.5 -11.5t16.5 -39.5l59 -285l6 -61h2q15 35 29 61l161 285q17 30 35 40.5t49 10.5h62l-17 -83h-12q-25 0 -36 -20l-297 -497
q-71 -116 -177 -116zM359 580h-79l97 127h101z" />
    <glyph glyph-name="thorn" unicode="&#xfe;" horiz-adv-x="585" 
d="M68 -200h-97l154 786q3 15 3 22q0 15 -18 15h-41l16 83h92q57 0 57 -44q0 -10 -4 -30l-27 -137l-15 -63h2q65 86 169 86q89 0 139 -56t50 -156q0 -135 -84 -227q-84 -91 -193 -91q-51 0 -91 23t-59 65h-2q-1 -12 -7 -47zM149 204q0 -59 29 -95.5t82 -36.5q72 0 130 63
q59 65 59 164q0 65 -30 99.5t-84 34.5q-76 0 -131 -70t-55 -159z" />
    <glyph glyph-name="ydieresis" unicode="&#xff;" horiz-adv-x="544" 
d="M31 -210q-29 0 -57.5 12t-41.5 26l-13 12l41 69q36 -36 74 -36q56 0 100 74l36 57l-95 399q-3 12 -8.5 16t-18.5 4h-12l16 83h65q23 0 33.5 -11.5t16.5 -39.5l59 -285l6 -61h2q15 35 29 61l161 285q17 30 35 40.5t49 10.5h62l-17 -83h-12q-25 0 -36 -20l-297 -497
q-71 -116 -177 -116zM436 606h-74l20 101h74zM271 606h-73l20 101h73z" />
    <glyph glyph-name="Amacron" unicode="&#x100;" horiz-adv-x="666" 
d="M25 0h-68l17 86h18q23 0 33 22l338 598h105l105 -600q2 -12 7 -16t17 -4h18l-17 -86h-60q-32 0 -45 11.5t-18 46.5l-25 145h-259l-82 -145q-19 -35 -35.5 -46.5t-48.5 -11.5zM349 503l-118 -216h211l-36 216l-8 98h-2q-26 -61 -47 -98zM561 784h-254l13 69h254z" />
    <glyph glyph-name="amacron" unicode="&#x101;" horiz-adv-x="533" 
d="M-3 121q0 106 109 152q97 42 230 42h25l2 12q4 17 4 39q0 75 -90 75q-89 0 -95 -39l-5 -29h-92l10 51q10 48 66 71q58 23 128 23q175 0 175 -143q0 -24 -7 -59l-37 -197q-4 -12 -4 -21q0 -15 18 -15h42l-17 -83h-85q-55 0 -55 41q0 25 10 55h-2q1 0 -6.5 -11t-22.5 -27
t-35.5 -32t-52.5 -27t-66 -11q-65 0 -106 35.5t-41 97.5zM95 135q0 -33 21 -52.5t56 -19.5q61 0 111 53q51 55 61 111l4 18h-25q-80 0 -145 -19q-83 -24 -83 -91zM446 609h-254l13 69h254z" />
    <glyph glyph-name="Abreve" unicode="&#x102;" horiz-adv-x="666" 
d="M25 0h-68l17 86h18q23 0 33 22l338 598h105l105 -600q2 -12 7 -16t17 -4h18l-17 -86h-60q-32 0 -45 11.5t-18 46.5l-25 145h-259l-82 -145q-19 -35 -35.5 -46.5t-48.5 -11.5zM349 503l-118 -216h211l-36 216l-8 98h-2q-26 -61 -47 -98zM433 751q-55 0 -89 34
q-35 35 -24 85l3 12h66l-2 -13q-5 -27 8 -43.5t41 -16.5q60 0 73 61l3 12h67l-4 -19q-10 -52 -49.5 -82t-92.5 -30z" />
    <glyph glyph-name="abreve" unicode="&#x103;" horiz-adv-x="533" 
d="M-3 121q0 106 109 152q97 42 230 42h25l2 12q4 17 4 39q0 75 -90 75q-89 0 -95 -39l-5 -29h-92l10 51q10 48 66 71q58 23 128 23q175 0 175 -143q0 -24 -7 -59l-37 -197q-4 -12 -4 -21q0 -15 18 -15h42l-17 -83h-85q-55 0 -55 41q0 25 10 55h-2q1 0 -6.5 -11t-22.5 -27
t-35.5 -32t-52.5 -27t-66 -11q-65 0 -106 35.5t-41 97.5zM95 135q0 -33 21 -52.5t56 -19.5q61 0 111 53q51 55 61 111l4 18h-25q-80 0 -145 -19q-83 -24 -83 -91zM318 576q-55 0 -89 34q-35 35 -24 85l3 12h66l-2 -13q-5 -27 8 -43.5t41 -16.5q60 0 73 61l3 12h67l-4 -19
q-10 -52 -49.5 -82t-92.5 -30z" />
    <glyph glyph-name="Aogonek" unicode="&#x104;" horiz-adv-x="666" 
d="M425 -121q0 66 88 123q-17 4 -25 16t-13 40l-25 145h-259l-82 -145q-19 -35 -35.5 -46.5t-48.5 -11.5h-68l17 86h18q23 0 33 22l338 598h105l105 -600q2 -12 7 -16t17 -4h18l-17 -86q-15 0 -55 -35q-38 -35 -38 -64q0 -37 55 -40l-31 -68q-37 4 -71 25q-33 20 -33 61z
M349 503l-118 -216h211l-36 216l-8 98h-2q-26 -61 -47 -98z" />
    <glyph glyph-name="aogonek" unicode="&#x105;" horiz-adv-x="529" 
d="M284 -121q0 67 86 121q-52 3 -52 41q0 25 10 55h-2q1 0 -6.5 -11t-22.5 -27t-35.5 -32t-52.5 -27t-66 -11q-65 0 -106 35.5t-41 97.5q0 106 109 152q97 42 230 42h25l2 13q4 15 4 38q0 75 -90 75q-89 0 -95 -39l-5 -29h-92l10 51q10 48 66 71q58 23 128 23
q175 0 175 -143q0 -24 -7 -59l-37 -197q-4 -12 -4 -21q0 -15 18 -15h42l-17 -83q-14 0 -54 -35q-39 -35 -39 -64q0 -37 55 -40l-32 -68q-24 3 -43 10q-23 7 -42 28.5t-19 47.5zM94 135q0 -33 21 -52.5t56 -19.5q61 0 111 53q51 55 61 111l4 18h-25q-80 0 -145 -19
q-83 -24 -83 -91z" />
    <glyph glyph-name="Cacute" unicode="&#x106;" horiz-adv-x="693" 
d="M41 295q0 107 54 205q56 98 152 157q97 61 212 61q55 0 109 -14t94 -46q41 -33 41 -78q0 -17 -6 -44l-8 -40h-91l8 38q6 32 -22 54q-46 37 -128 37q-124 0 -219 -95q-93 -95 -93 -230q0 -98 57 -158q59 -60 157 -60q63 0 124 22.5t106 62.5l45 -78q-51 -47 -128 -74
t-158 -27q-135 0 -221 86q-85 85 -85 221zM510 755h-79l97 127h101z" />
    <glyph glyph-name="cacute" unicode="&#x107;" horiz-adv-x="527" 
d="M22 212q0 125 90 215q91 91 216 91q42 0 83 -9.5t73 -38.5t24 -71l-8 -44h-86l4 21q4 28 -27 43q-31 16 -70 16q-79 0 -140 -64q-60 -63 -60 -150q0 -67 38 -107t109 -40q42 0 83.5 14.5t61.5 31.5l18 15l28 -77q-8 -8 -33 -24q-68 -46 -168 -46q-110 0 -174 62
q-62 62 -62 162zM381 580h-79l97 127h101z" />
    <glyph glyph-name="Ccircumflex" unicode="&#x108;" horiz-adv-x="693" 
d="M41 295q0 107 54 205q56 98 152 157q97 61 212 61q55 0 109 -14t94 -46q41 -33 41 -78q0 -17 -6 -44l-8 -40h-91l8 38q6 32 -22 54q-46 37 -128 37q-124 0 -219 -95q-93 -95 -93 -230q0 -98 57 -158q59 -60 157 -60q63 0 124 22.5t106 62.5l45 -78q-51 -47 -128 -74
t-158 -27q-135 0 -221 86q-85 85 -85 221zM417 755h-82l112 127h89l64 -127h-77l-36 80h-2z" />
    <glyph glyph-name="ccircumflex" unicode="&#x109;" horiz-adv-x="527" 
d="M22 212q0 125 90 215q91 91 216 91q42 0 83 -9.5t73 -38.5t24 -71l-8 -44h-86l4 21q4 28 -27 43q-31 16 -70 16q-79 0 -140 -64q-60 -63 -60 -150q0 -67 38 -107t109 -40q42 0 83.5 14.5t61.5 31.5l18 15l28 -77q-8 -8 -33 -24q-68 -46 -168 -46q-110 0 -174 62
q-62 62 -62 162zM289 580h-82l112 127h89l64 -127h-77l-36 80h-2z" />
    <glyph glyph-name="Cdotaccent" unicode="&#x10a;" horiz-adv-x="693" 
d="M41 295q0 107 54 205q56 98 152 157q97 61 212 61q55 0 109 -14t94 -46q41 -33 41 -78q0 -17 -6 -44l-8 -40h-91l8 38q6 32 -22 54q-46 37 -128 37q-124 0 -219 -95q-93 -95 -93 -230q0 -98 57 -158q59 -60 157 -60q63 0 124 22.5t106 62.5l45 -78q-51 -47 -128 -74
t-158 -27q-135 0 -221 86q-85 85 -85 221zM519 781h-88l21 101h87z" />
    <glyph glyph-name="cdotaccent" unicode="&#x10b;" horiz-adv-x="527" 
d="M22 212q0 125 90 215q91 91 216 91q42 0 83 -9.5t73 -38.5t24 -71l-8 -44h-86l4 21q4 28 -27 43q-31 16 -70 16q-79 0 -140 -64q-60 -63 -60 -150q0 -67 38 -107t109 -40q42 0 83.5 14.5t61.5 31.5l18 15l28 -77q-8 -8 -33 -24q-68 -46 -168 -46q-110 0 -174 62
q-62 62 -62 162zM390 606h-88l21 101h87z" />
    <glyph glyph-name="Ccaron" unicode="&#x10c;" horiz-adv-x="693" 
d="M41 295q0 107 54 205q56 98 152 157q97 61 212 61q55 0 109 -14t94 -46q41 -33 41 -78q0 -17 -6 -44l-8 -40h-91l8 38q6 32 -22 54q-46 37 -128 37q-124 0 -219 -95q-93 -95 -93 -230q0 -98 57 -158q59 -60 157 -60q63 0 124 22.5t106 62.5l45 -78q-51 -47 -128 -74
t-158 -27q-135 0 -221 86q-85 85 -85 221zM517 755h-89l-63 127h75l38 -81h2l67 81h82z" />
    <glyph glyph-name="ccaron" unicode="&#x10d;" horiz-adv-x="527" 
d="M22 212q0 125 90 215q91 91 216 91q42 0 83 -9.5t73 -38.5t24 -71l-8 -44h-86l4 21q4 28 -27 43q-31 16 -70 16q-79 0 -140 -64q-60 -63 -60 -150q0 -67 38 -107t109 -40q42 0 83.5 14.5t61.5 31.5l18 15l28 -77q-8 -8 -33 -24q-68 -46 -168 -46q-110 0 -174 62
q-62 62 -62 162zM389 580h-89l-63 127h75l38 -81h2l67 81h82z" />
    <glyph glyph-name="Dcaron" unicode="&#x10e;" horiz-adv-x="717" 
d="M52 45q0 9 5 37l105 538h-65l17 86h276q146 0 226.5 -74t80.5 -211q0 -176 -121 -298q-120 -123 -304 -123h-162q-58 0 -58 45zM162 101q0 -15 18 -15h92q142 0 231 96q90 96 90 233q0 101 -56 153t-161 52h-114l-97 -496q-3 -13 -3 -23zM461 755h-89l-63 127h75l38 -81
h2l67 81h82z" />
    <glyph glyph-name="dcaron" unicode="&#x10f;" horiz-adv-x="603" 
d="M22 196q0 138 83 230t193 92q53 0 94 -23.5t56 -65.5h2q2 24 4 36l23 121q3 14 3 22q0 15 -18 15h-40l16 83h93q57 0 57 -44q0 -13 -4 -30l-100 -512q-3 -12 -3 -22q0 -15 18 -15h41l-17 -83h-84q-54 0 -54 41q0 19 9 48h-2q-66 -101 -180 -101q-89 0 -139.5 55.5
t-50.5 152.5zM120 204q0 -62 30.5 -97t82.5 -35q79 0 133 72t54 160q0 58 -28.5 93.5t-83.5 35.5q-71 0 -130 -65q-58 -64 -58 -164zM655 705h77q2 -10 2 -19q0 -55 -46 -122h-68q38 70 38 110q0 14 -3 31z" />
    <glyph glyph-name="Dcroat" unicode="&#x110;" horiz-adv-x="720" 
d="M55 45q0 9 5 37l44 230h-49l16 82h49l44 226h-65l17 86h276q146 0 226.5 -74t80.5 -211q0 -175 -120 -298t-305 -123h-162q-57 0 -57 45zM164 101q0 -15 19 -15h91q142 0 231 96q90 96 90 233q0 101 -56 153t-161 52h-114l-44 -226h144l-16 -82h-144l-36 -188
q-4 -16 -4 -23z" />
    <glyph glyph-name="dslash" unicode="&#x111;" horiz-adv-x="603" 
d="M22 197q0 137 83 229t194 92q52 0 93 -23.5t56 -65.5h2q2 24 4 36l19 98h-129l12 63h129l16 80h97l-16 -80h77l-12 -63h-77l-86 -443q-3 -12 -3 -22q0 -15 18 -15h41l-17 -83h-84q-54 0 -54 40q0 20 9 49h-2q-66 -101 -180 -101q-90 0 -140 56t-50 153zM120 204
q0 -62 30.5 -97t82.5 -35q79 0 133 72t54 160q0 58 -28.5 93.5t-83.5 35.5q-71 0 -130 -65q-58 -64 -58 -164z" />
    <glyph glyph-name="Emacron" unicode="&#x112;" horiz-adv-x="571" 
d="M52 45q0 9 5 37l105 538h-65l17 86h409q59 0 59 -45q0 -11 -5 -36l-14 -72h-91l6 28q3 17 3 24q0 15 -20 15h-199l-43 -221h247l-17 -86h-247l-37 -189q-3 -13 -3 -23q0 -15 18 -15h206q23 0 27 22l9 45h91l-18 -91q-6 -33 -23 -47.5t-50 -14.5h-312q-58 0 -58 45z
M514 784h-254l13 69h254z" />
    <glyph glyph-name="emacron" unicode="&#x113;" horiz-adv-x="540" 
d="M22 203q0 130 85 222q85 93 210 93q92 0 142 -50.5t50 -136.5q0 -40 -11 -77l-4 -13h-369q-4 -15 -4 -36q0 -60 38.5 -96.5t105.5 -36.5q36 0 76.5 13.5t63.5 30.5l21 14l28 -75q-23 -17 -27 -19q-16 -10 -68 -30q-51 -18 -100 -18q-109 0 -173 60t-64 155zM140 310h269
q3 15 3 29q0 48 -26.5 75t-71.5 27q-57 0 -104.5 -35.5t-69.5 -95.5zM472 609h-254l13 69h254z" />
    <glyph glyph-name="Ebreve" unicode="&#x114;" horiz-adv-x="571" 
d="M52 45q0 9 5 37l105 538h-65l17 86h409q59 0 59 -45q0 -11 -5 -36l-14 -72h-91l6 28q3 17 3 24q0 15 -20 15h-199l-43 -221h247l-17 -86h-247l-37 -189q-3 -13 -3 -23q0 -15 18 -15h206q23 0 27 22l9 45h91l-18 -91q-6 -33 -23 -47.5t-50 -14.5h-312q-58 0 -58 45z
M386 751q-55 0 -89 34q-35 35 -24 85l3 12h66l-2 -13q-5 -27 8 -43.5t41 -16.5q60 0 73 61l3 12h67l-4 -19q-10 -52 -49.5 -82t-92.5 -30z" />
    <glyph glyph-name="ebreve" unicode="&#x115;" horiz-adv-x="540" 
d="M22 203q0 130 85 222q85 93 210 93q92 0 142 -50.5t50 -136.5q0 -40 -11 -77l-4 -13h-369q-4 -15 -4 -36q0 -60 38.5 -96.5t105.5 -36.5q36 0 76.5 13.5t63.5 30.5l21 14l28 -75q-23 -17 -27 -19q-16 -10 -68 -30q-51 -18 -100 -18q-109 0 -173 60t-64 155zM140 310h269
q3 15 3 29q0 48 -26.5 75t-71.5 27q-57 0 -104.5 -35.5t-69.5 -95.5zM343 576q-55 0 -89 34q-35 35 -24 85l3 12h66l-2 -13q-5 -27 8 -43.5t41 -16.5q60 0 73 61l3 12h67l-4 -19q-10 -52 -49.5 -82t-92.5 -30z" />
    <glyph glyph-name="Edotaccent" unicode="&#x116;" horiz-adv-x="571" 
d="M52 45q0 9 5 37l105 538h-65l17 86h409q59 0 59 -45q0 -11 -5 -36l-14 -72h-91l6 28q3 17 3 24q0 15 -20 15h-199l-43 -221h247l-17 -86h-247l-37 -189q-3 -13 -3 -23q0 -15 18 -15h206q23 0 27 22l9 45h91l-18 -91q-6 -33 -23 -47.5t-50 -14.5h-312q-58 0 -58 45z
M428 781h-88l21 101h87z" />
    <glyph glyph-name="edotaccent" unicode="&#x117;" horiz-adv-x="540" 
d="M22 203q0 130 85 222q85 93 210 93q92 0 142 -50.5t50 -136.5q0 -40 -11 -77l-4 -13h-369q-4 -15 -4 -36q0 -60 38.5 -96.5t105.5 -36.5q36 0 76.5 13.5t63.5 30.5l21 14l28 -75q-23 -17 -27 -19q-16 -10 -68 -30q-51 -18 -100 -18q-109 0 -173 60t-64 155zM140 310h269
q3 15 3 29q0 48 -26.5 75t-71.5 27q-57 0 -104.5 -35.5t-69.5 -95.5zM386 606h-88l21 101h87z" />
    <glyph glyph-name="Eogonek" unicode="&#x118;" horiz-adv-x="571" 
d="M52 45q0 9 5 37l105 538h-65l17 86h409q59 0 59 -45q0 -11 -5 -36l-14 -72h-91l6 28q3 17 3 24q0 15 -20 15h-199l-43 -221h247l-17 -86h-247l-37 -189q-3 -13 -3 -23q0 -15 18 -15h206q23 0 27 22l9 45h91l-18 -91q-9 -44 -37 -56q-30 -16 -64 -45q-33 -30 -33 -60
q0 -19 16.5 -29t38.5 -11l-31 -68q-23 3 -44 10q-23 7 -42 28.5t-19 47.5q0 65 89 121h-259q-58 0 -58 45z" />
    <glyph glyph-name="eogonek" unicode="&#x119;" horiz-adv-x="539" 
d="M22 203q0 129 84 222q86 93 211 93q92 0 141.5 -50.5t49.5 -136.5q0 -36 -12 -77l-4 -13h-369q-3 -15 -3 -33q0 -61 39 -98.5t106 -37.5q36 0 78 14q42 15 62 30l21 14l28 -75q-26 -22 -65 -38q-53 -32 -86 -68q-26 -29 -24 -48.5t17 -29t37 -10.5l-31 -68q-24 3 -43 10
q-23 7 -42 28.5t-19 47.5q0 57 72 110q-110 -5 -179 54t-69 160zM139 310h270q3 15 3 29q0 48 -26.5 75t-71.5 27q-57 0 -104.5 -35t-70.5 -96z" />
    <glyph glyph-name="Ecaron" unicode="&#x11a;" horiz-adv-x="571" 
d="M52 45q0 9 5 37l105 538h-65l17 86h409q59 0 59 -45q0 -11 -5 -36l-14 -72h-91l6 28q3 17 3 24q0 15 -20 15h-199l-43 -221h247l-17 -86h-247l-37 -189q-3 -13 -3 -23q0 -15 18 -15h206q23 0 27 22l9 45h91l-18 -91q-6 -33 -23 -47.5t-50 -14.5h-312q-58 0 -58 45z
M427 755h-89l-63 127h75l38 -81h2l67 81h82z" />
    <glyph glyph-name="ecaron" unicode="&#x11b;" horiz-adv-x="540" 
d="M384 580h-89l-63 127h75l38 -81h2l67 81h82zM22 203q0 130 85 222q85 93 210 93q92 0 142 -50.5t50 -136.5q0 -40 -11 -77l-4 -13h-369q-4 -15 -4 -36q0 -60 38.5 -96.5t105.5 -36.5q36 0 76.5 13.5t63.5 30.5l21 14l28 -75q-23 -17 -27 -19q-16 -10 -68 -30
q-51 -18 -100 -18q-109 0 -173 60t-64 155zM140 310h269q3 15 3 29q0 48 -26.5 75t-71.5 27q-57 0 -104.5 -35.5t-69.5 -95.5z" />
    <glyph glyph-name="Gcircumflex" unicode="&#x11c;" horiz-adv-x="728" 
d="M40 288q0 112 56 210q55 99 155 159q98 61 216 61q72 0 129 -22q61 -24 83 -44l24 -21l-58 -73q-11 11 -30 23q-61 44 -149 44q-130 0 -226 -98q-96 -97 -96 -230q0 -99 57.5 -157.5t151.5 -58.5q67 0 123.5 27t86.5 54l10 10l11 58q4 16 4 22q0 15 -19 15h-45l15 82h91
q59 0 59 -45q0 -1 -5 -36l-52 -268h-89l10 46l7 29h-2q-31 -32 -94 -60q-62 -27 -136 -27q-127 0 -208 83q-80 83 -80 217zM425 755h-82l112 127h89l64 -127h-77l-36 80h-2z" />
    <glyph glyph-name="gcircumflex" unicode="&#x11d;" horiz-adv-x="594" 
d="M-6 -167l43 77q53 -34 133 -34q162 0 191 156l15 57h-2q-59 -83 -156 -83q-90 0 -142 56t-52 149q0 73 30 142t93 117t145 48q62 0 104.5 -24.5t51.5 -60.5h2q-1 4 1 21q10 52 68 52h95l-16 -83h-41q-23 0 -27 -21l-74 -386q-17 -79 -62 -130q-81 -96 -220 -96
q-106 0 -180 43zM124 218q0 -60 30.5 -94t86.5 -34q81 0 128 74t47 161q0 109 -117 109q-80 0 -128 -65q-47 -65 -47 -151zM290 580h-82l112 127h89l64 -127h-77l-36 80h-2z" />
    <glyph glyph-name="Gbreve" unicode="&#x11e;" horiz-adv-x="728" 
d="M40 288q0 112 56 210q55 99 155 159q98 61 216 61q72 0 129 -22q61 -24 83 -44l24 -21l-58 -73q-11 11 -30 23q-61 44 -149 44q-130 0 -226 -98q-96 -97 -96 -230q0 -99 57.5 -157.5t151.5 -58.5q67 0 123.5 27t86.5 54l10 10l11 58q4 16 4 22q0 15 -19 15h-45l15 82h91
q59 0 59 -45q0 -1 -5 -36l-52 -268h-89l10 46l7 29h-2q-31 -32 -94 -60q-62 -27 -136 -27q-127 0 -208 83q-80 83 -80 217zM484 751q-55 0 -89 34q-35 35 -24 85l3 12h66l-2 -13q-5 -27 8 -43.5t41 -16.5q60 0 73 61l3 12h67l-4 -19q-10 -52 -49.5 -82t-92.5 -30z" />
    <glyph glyph-name="gbreve" unicode="&#x11f;" horiz-adv-x="594" 
d="M-6 -167l43 77q53 -34 133 -34q162 0 191 156l15 57h-2q-59 -83 -156 -83q-90 0 -142 56t-52 149q0 73 30 142t93 117t145 48q62 0 104.5 -24.5t51.5 -60.5h2q-1 4 1 21q10 52 68 52h95l-16 -83h-41q-23 0 -27 -21l-74 -386q-17 -79 -62 -130q-81 -96 -220 -96
q-106 0 -180 43zM124 218q0 -60 30.5 -94t86.5 -34q81 0 128 74t47 161q0 109 -117 109q-80 0 -128 -65q-47 -65 -47 -151zM349 576q-55 0 -89 34q-35 35 -24 85l3 12h66l-2 -13q-5 -27 8 -43.5t41 -16.5q60 0 73 61l3 12h67l-4 -19q-10 -52 -49.5 -82t-92.5 -30z" />
    <glyph glyph-name="Gdotaccent" unicode="&#x120;" horiz-adv-x="728" 
d="M40 288q0 112 56 210q55 99 155 159q98 61 216 61q72 0 129 -22q61 -24 83 -44l24 -21l-58 -73q-11 11 -30 23q-61 44 -149 44q-130 0 -226 -98q-96 -97 -96 -230q0 -99 57.5 -157.5t151.5 -58.5q67 0 123.5 27t86.5 54l10 10l11 58q4 16 4 22q0 15 -19 15h-45l15 82h91
q59 0 59 -45q0 -1 -5 -36l-52 -268h-89l10 46l7 29h-2q-31 -32 -94 -60q-62 -27 -136 -27q-127 0 -208 83q-80 83 -80 217zM526 781h-88l21 101h87z" />
    <glyph glyph-name="gdotaccent" unicode="&#x121;" horiz-adv-x="594" 
d="M-6 -167l43 77q53 -34 133 -34q162 0 191 156l15 57h-2q-59 -83 -156 -83q-90 0 -142 56t-52 149q0 73 30 142t93 117t145 48q62 0 104.5 -24.5t51.5 -60.5h2q-1 4 1 21q10 52 68 52h95l-16 -83h-41q-23 0 -27 -21l-74 -386q-17 -79 -62 -130q-81 -96 -220 -96
q-106 0 -180 43zM124 218q0 -60 30.5 -94t86.5 -34q81 0 128 74t47 161q0 109 -117 109q-80 0 -128 -65q-47 -65 -47 -151zM391 606h-88l21 101h87z" />
    <glyph glyph-name="Gcommaaccent" unicode="&#x122;" horiz-adv-x="728" 
d="M40 288q0 112 56 210q55 99 155 159q98 61 216 61q72 0 129 -22q61 -24 83 -44l24 -21l-58 -73q-11 11 -30 23q-61 44 -149 44q-130 0 -226 -98q-96 -97 -96 -230q0 -99 57.5 -157.5t151.5 -58.5q67 0 123.5 27t86.5 54l10 10l11 58q4 16 4 22q0 15 -19 15h-45l15 82h91
q59 0 59 -45q0 -1 -5 -36l-52 -268h-89l10 46l7 29h-2q-31 -32 -94 -60q-62 -27 -136 -27q-127 0 -208 83q-80 83 -80 217zM302 -59h77q2 -10 2 -19q0 -55 -46 -122h-68q38 70 38 110q0 14 -3 31z" />
    <glyph glyph-name="gcommaaccent" unicode="&#x123;" horiz-adv-x="594" 
d="M377 564h-77q-2 10 -2 19q0 55 46 122h68q-38 -70 -38 -110q0 -15 3 -31zM-6 -167l43 77q53 -34 133 -34q162 0 191 156l15 57h-2q-59 -83 -156 -83q-90 0 -142 56t-52 149q0 73 30 142t93 117t145 48q62 0 104.5 -24.5t51.5 -60.5h2q-1 4 1 21q10 52 68 52h95l-16 -83
h-41q-23 0 -27 -21l-74 -386q-17 -79 -62 -130q-81 -96 -220 -96q-106 0 -180 43zM124 218q0 -60 30.5 -94t86.5 -34q81 0 128 74t47 161q0 109 -117 109q-80 0 -128 -65q-47 -65 -47 -151z" />
    <glyph glyph-name="Hcircumflex" unicode="&#x124;" horiz-adv-x="757" 
d="M141 0h-100l113 579q4 20 4 26q0 15 -20 15h-41l17 86h95q58 0 58 -45q0 -21 -4 -36l-46 -229h360l49 249q7 33 23.5 47t49.5 14h104l-17 -86h-45q-20 0 -24 -22l-117 -598h-100l60 310h-359zM413 755h-82l112 127h89l64 -127h-77l-36 80h-2z" />
    <glyph glyph-name="hcircumflex" unicode="&#x125;" horiz-adv-x="603" 
d="M106 0h-97l114 585q4 15 4 23q0 15 -19 15h-41l17 83h92q57 0 57 -44q0 -10 -4 -30l-36 -185l-10 -44h2q27 41 82 79q54 36 125 36q70 0 107 -35.5t37 -101.5q0 -26 -7 -62l-39 -205q-3 -15 -3 -16q0 -15 18 -15h41l-16 -83h-93q-57 0 -57 46q0 11 3 23l46 233q5 32 5 50
q0 77 -78 77q-73 0 -131 -60q-58 -58 -73 -133zM151 757h-82l112 127h89l64 -127h-77l-36 80h-2z" />
    <glyph glyph-name="Hbar" unicode="&#x126;" horiz-adv-x="760" 
d="M143 0h-100l101 514h-66l13 67h65l25 125h100l-25 -125h360l24 125h100l-24 -125h65l-13 -67h-65l-101 -514h-100l60 310h-359zM244 514l-24 -118h360l23 118h-359z" />
    <glyph glyph-name="hbar" unicode="&#x127;" horiz-adv-x="603" 
d="M106 0h-97l110 563h-76l12 63h76l16 80h97l-16 -80h129l-12 -63h-130l-22 -116l-11 -44h2q29 42 83 79q54 36 124 36q71 0 107.5 -35.5t36.5 -101.5q0 -29 -6 -62l-39 -205q-3 -15 -3 -16q0 -15 18 -15h41l-16 -83h-93q-56 0 -56 46q0 1 2 23l45 233q6 26 6 50
q0 77 -78 77q-74 0 -132 -60q-58 -58 -72 -133z" />
    <glyph glyph-name="Itilde" unicode="&#x128;" horiz-adv-x="318" 
d="M142 756h-65q22 127 121 127q25 0 44 -10.5t27.5 -23.5t21.5 -23.5t28 -10.5q40 0 53 65h66q-22 -127 -121 -127q-26 0 -44.5 10.5t-27.5 23.5t-22 23.5t-28 10.5q-40 0 -53 -65zM217 0h-232l17 86h68l104 534h-69l17 86h233l-17 -86h-68l-104 -534h68z" />
    <glyph glyph-name="itilde" unicode="&#x129;" horiz-adv-x="265" 
d="M38 46q0 14 3 25l61 315q3 15 3 22q0 15 -18 15h-41l16 83h93q56 0 56 -44q0 -11 -4 -31l-61 -317q-3 -15 -3 -16q0 -15 19 -15h40l-15 -83h-93q-56 0 -56 46zM73 581h-65q22 127 121 127q25 0 44 -10.5t27.5 -23.5t21.5 -23.5t28 -10.5q40 0 53 65h66
q-22 -127 -121 -127q-26 0 -44.5 10.5t-27.5 23.5t-22 23.5t-28 10.5q-40 0 -53 -65z" />
    <glyph glyph-name="Imacron" unicode="&#x12a;" horiz-adv-x="318" 
d="M217 0h-232l17 86h68l104 534h-69l17 86h233l-17 -86h-68l-104 -534h68zM381 784h-254l13 69h254z" />
    <glyph glyph-name="imacron" unicode="&#x12b;" horiz-adv-x="265" 
d="M38 46q0 14 3 25l61 315q3 15 3 22q0 15 -18 15h-41l16 83h93q56 0 56 -44q0 -11 -4 -31l-61 -317q-3 -15 -3 -16q0 -15 19 -15h40l-15 -83h-93q-56 0 -56 46zM313 609h-254l13 69h254z" />
    <glyph glyph-name="Ibreve" unicode="&#x12c;" horiz-adv-x="318" 
d="M217 0h-232l17 86h68l104 534h-69l17 86h233l-17 -86h-68l-104 -534h68zM253 751q-55 0 -89 34q-35 35 -24 85l3 12h66l-2 -13q-5 -27 8 -43.5t41 -16.5q60 0 73 61l3 12h67l-4 -19q-10 -52 -49.5 -82t-92.5 -30z" />
    <glyph glyph-name="ibreve" unicode="&#x12d;" horiz-adv-x="265" 
d="M38 46q0 14 3 25l61 315q3 15 3 22q0 15 -18 15h-41l16 83h93q56 0 56 -44q0 -11 -4 -31l-61 -317q-3 -15 -3 -16q0 -15 19 -15h40l-15 -83h-93q-56 0 -56 46zM185 576q-55 0 -89 34q-35 35 -24 85l3 12h66l-2 -13q-5 -27 8 -43.5t41 -16.5q60 0 73 61l3 12h67l-4 -19
q-10 -52 -49.5 -82t-92.5 -30z" />
    <glyph glyph-name="Iogonek" unicode="&#x12e;" horiz-adv-x="318" 
d="M127 0h-142l17 86h68l104 534h-69l17 86h233l-17 -86h-68l-104 -534h68l-17 -86h-2q-17 -1 -55 -36q-37 -34 -37 -63q0 -19 16.5 -29t38.5 -11l-31 -68q-37 4 -71 25q-33 20 -33 61q0 67 84 121z" />
    <glyph glyph-name="iogonek" unicode="&#x12f;" horiz-adv-x="265" 
d="M13 -121q0 67 85 121q-34 0 -47 11.5t-13 34.5q0 14 3 25l61 315q3 15 3 22q0 15 -18 15h-41l16 83h93q56 0 56 -44q0 -11 -4 -31l-61 -317q-3 -15 -3 -16q0 -15 19 -15h40l-15 -83q-18 -2 -56 -35q-38 -35 -38 -64q0 -19 16.5 -29t38.5 -11l-31 -68q-37 4 -71 25
q-33 20 -33 61zM234 605h-88l20 101h88z" />
    <glyph glyph-name="Idot" unicode="&#x130;" horiz-adv-x="318" 
d="M217 0h-232l17 86h68l104 534h-69l17 86h233l-17 -86h-68l-104 -534h68zM296 781h-88l21 101h87z" />
    <glyph glyph-name="dotlessi" unicode="&#x131;" horiz-adv-x="265" 
d="M38 46q0 14 3 25l61 315q3 15 3 22q0 15 -18 15h-41l16 83h93q56 0 56 -44q0 -11 -4 -31l-61 -317q-3 -15 -3 -16q0 -15 19 -15h40l-15 -83h-93q-56 0 -56 46z" />
    <glyph glyph-name="IJ" unicode="&#x132;" horiz-adv-x="675" 
d="M305 -4l18 90q137 0 168 154l69 358q4 22 -18 22h-111l16 86h170q34 0 46.5 -15t5.5 -49l-78 -403q-30 -152 -115 -201q-72 -42 -171 -42zM217 0h-232l18 86h67l103 534h-68l16 86h234l-17 -86h-69l-103 -534h68z" />
    <glyph glyph-name="ij" unicode="&#x133;" horiz-adv-x="512" 
d="M234 605h-88l20 101h88zM38 46q0 14 3 25l61 315q3 15 3 22q0 15 -18 15h-41l16 83h93q56 0 56 -44q0 -11 -4 -31l-61 -317q-3 -15 -3 -16q0 -15 19 -15h40l-15 -83h-93q-56 0 -56 46zM500 605h-87l19 101h87zM292 -5l76 391q3 15 3 22q0 15 -18 15h-40l16 83h92
q57 0 57 -44q0 -9 -4 -30l-87 -450q-17 -93 -75 -140q-22 -19 -53 -30q-45 -18 -94 -18l-41 2l17 83q10 -2 21 -2q108 0 130 118z" />
    <glyph glyph-name="Jcircumflex" unicode="&#x134;" horiz-adv-x="509" 
d="M-8 152q0 18 5 55l5 31h100l-5 -27q-4 -27 -4 -41q0 -44 24.5 -66t65.5 -22q49 0 86 32t49 93l73 375q3 15 3 23q0 15 -20 15h-171l17 86h225q59 0 59 -45q0 -1 -0.5 -4.5t-2 -13t-2.5 -17.5l-84 -432q-19 -106 -87 -156q-67 -50 -148 -50t-134 43q-54 43 -54 121z
M316 755h-82l112 127h89l64 -127h-77l-36 80h-2z" />
    <glyph glyph-name="jcircumflex" unicode="&#x135;" horiz-adv-x="246" 
d="M124 579h-82l112 127h89l64 -127h-77l-37 81h-2zM27 -5l76 391q3 15 3 22q0 15 -18 15h-40l16 83h92q57 0 57 -44q0 -9 -4 -30l-87 -450q-17 -93 -75 -140q-22 -19 -53 -30q-45 -18 -94 -18l-41 2l17 83q10 -2 21 -2q108 0 130 118z" />
    <glyph glyph-name="Kcommaaccent" unicode="&#x136;" horiz-adv-x="612" 
d="M141 0h-100l113 579q4 20 4 25q0 16 -20 16h-41l17 86h95q58 0 58 -45q0 -21 -4 -36l-42 -216h67q40 0 58 24l210 273h117l-228 -293q-25 -31 -42 -42l-6 -4v-2q15 -13 25 -44l65 -211q7 -24 38 -24h32l-18 -86h-64q-33 0 -50.5 12.5t-26.5 40.5l-75 245q-7 25 -54 25
h-65zM209 -59h77q2 -10 2 -19q0 -55 -46 -122h-68q38 70 38 110q0 14 -3 31z" />
    <glyph glyph-name="kcommaaccent" unicode="&#x137;" horiz-adv-x="512" 
d="M106 0h-97l114 586q3 12 3 22q0 15 -18 15h-41l17 83h92q57 0 57 -44q0 -10 -4 -30l-60 -312h44q30 0 51 22l150 164h116l-174 -189q-25 -25 -41 -35l-6 -3l-1 -2q13 -6 25 -38l51 -136q6 -20 41 -20h31l-16 -83h-66q-33 0 -47 9t-25 38l-62 168q-8 23 -44 23h-43z
M153 -59h77q2 -10 2 -19q0 -55 -46 -122h-68q38 70 38 110q0 14 -3 31z" />
    <glyph glyph-name="kgreenlandic" unicode="&#x138;" horiz-adv-x="532" 
d="M125 0h-97l75 386q0 1 1.5 10t1.5 12q0 15 -18 15h-41l16 83h93q57 0 57 -44q0 -10 -4 -30l-25 -133h44q30 0 51 22l169 185h117l-194 -209q-29 -29 -41 -35l-6 -4v-2q12 -8 24 -38l44 -115q6 -20 41 -20h31l-16 -83h-65q-34 0 -48 9t-25 38l-54 147q-9 23 -45 23h-43z
" />
    <glyph glyph-name="Lacute" unicode="&#x139;" horiz-adv-x="536" 
d="M52 45q0 9 5 37l97 497q4 20 4 26q0 15 -20 15h-41l17 86h95q58 0 58 -45q0 -21 -4 -36l-98 -501q-3 -13 -3 -23q0 -15 18 -15h195q22 0 26 22l9 45h91l-17 -91q-6 -33 -23 -47.5t-50 -14.5h-301q-58 0 -58 45zM275 755h-79l97 127h101z" />
    <glyph glyph-name="lacute" unicode="&#x13a;" horiz-adv-x="249" 
d="M20 46q0 11 3 23l101 517q3 15 3 22q0 15 -18 15h-41l16 83h92q57 0 57 -44q0 -10 -4 -30l-101 -518q-2 -14 -2 -16q0 -15 18 -15h41l-16 -83h-93q-56 0 -56 46zM243 757h-79l97 127h101z" />
    <glyph glyph-name="Lcommaaccent" unicode="&#x13b;" horiz-adv-x="536" 
d="M52 45q0 9 5 37l97 497q4 20 4 26q0 15 -20 15h-41l17 86h95q58 0 58 -45q0 -21 -4 -36l-98 -501q-3 -13 -3 -23q0 -15 18 -15h195q22 0 26 22l9 45h91l-17 -91q-6 -33 -23 -47.5t-50 -14.5h-301q-58 0 -58 45zM208 -59h77q2 -10 2 -19q0 -55 -46 -122h-68q38 70 38 110
q0 14 -3 31z" />
    <glyph glyph-name="lcommaaccent" unicode="&#x13c;" horiz-adv-x="249" 
d="M20 46q0 11 3 23l101 517q3 15 3 22q0 15 -18 15h-41l16 83h92q57 0 57 -44q0 -10 -4 -30l-101 -518q-2 -14 -2 -16q0 -15 18 -15h41l-16 -83h-93q-56 0 -56 46zM43 -59h77q2 -10 2 -19q0 -55 -46 -122h-68q38 70 38 110q0 14 -3 31z" />
    <glyph glyph-name="Lcaron" unicode="&#x13d;" horiz-adv-x="537" 
d="M52 45q0 9 5 37l97 497q4 20 4 26q0 15 -20 15h-41l17 86h95q58 0 58 -45q0 -21 -4 -36l-98 -501q-3 -13 -3 -23q0 -15 18 -15h195q22 0 26 22l9 45h91l-17 -91q-6 -33 -23 -47.5t-50 -14.5h-301q-58 0 -58 45zM362 705h77q2 -10 2 -19q0 -55 -46 -122h-68q38 70 38 110
q0 14 -3 31z" />
    <glyph glyph-name="lcaron" unicode="&#x13e;" horiz-adv-x="249" 
d="M20 46q0 11 3 23l101 517q3 15 3 22q0 15 -18 15h-41l16 83h92q57 0 57 -44q0 -10 -4 -30l-101 -518q-2 -14 -2 -16q0 -15 18 -15h41l-16 -83h-93q-56 0 -56 46zM299 705h77q2 -10 2 -19q0 -55 -46 -122h-68q38 70 38 110q0 14 -3 31z" />
    <glyph glyph-name="Ldot" unicode="&#x13f;" horiz-adv-x="537" 
d="M52 45q0 9 5 37l97 497q4 20 4 26q0 15 -20 15h-41l17 86h95q58 0 58 -45q0 -21 -4 -36l-98 -501q-3 -13 -3 -23q0 -15 18 -15h195q22 0 26 22l9 45h91l-17 -91q-6 -33 -23 -47.5t-50 -14.5h-301q-58 0 -58 45zM415 327h-99l20 102h99z" />
    <glyph glyph-name="ldot" unicode="&#x140;" horiz-adv-x="337" 
d="M20 46q0 11 3 23l101 517q3 15 3 22q0 15 -18 15h-41l16 83h92q57 0 57 -44q0 -10 -4 -30l-101 -518q-2 -14 -2 -16q0 -15 18 -15h41l-16 -83h-93q-56 0 -56 46zM339 327h-99l20 102h99z" />
    <glyph glyph-name="Lslash" unicode="&#x141;" horiz-adv-x="539" 
d="M55 45q0 9 5 37l43 221l-70 -36l18 97l70 36l35 179q5 23 5 26q0 15 -20 15h-41l16 86h96q58 0 58 -45q0 -11 -5 -36l-32 -168l115 60l-19 -97l-116 -60l-45 -236q-3 -13 -3 -23q0 -15 18 -15h194q23 0 27 22l9 45h91l-18 -91q-6 -34 -23 -48t-50 -14h-300q-58 0 -58 45z
" />
    <glyph glyph-name="lslash" unicode="&#x142;" horiz-adv-x="262" 
d="M31 46q0 1 2 23l48 251l-82 -42l19 97l83 43l32 168q3 15 3 22q0 15 -18 15h-40l16 83h92q57 0 57 -44q0 -10 -4 -30l-31 -158l87 45l-18 -98l-88 -45l-50 -262q-3 -15 -3 -16q0 -15 18 -15h41l-15 -83h-94q-55 0 -55 46z" />
    <glyph glyph-name="Nacute" unicode="&#x143;" horiz-adv-x="756" 
d="M80 0h-104l17 86h42q23 0 27 22l117 598h87l228 -451l41 -96h2q4 46 13 96l76 390q6 33 22.5 47t49.5 14h105l-17 -86h-45q-21 0 -25 -22l-116 -598h-87l-230 451l-39 95h-2q-5 -47 -14 -95l-75 -391q-13 -60 -73 -60zM516 755h-79l97 127h101z" />
    <glyph glyph-name="nacute" unicode="&#x144;" horiz-adv-x="624" 
d="M124 0h-96l75 387q3 9 3 20q0 16 -19 16h-40l16 83h92q54 0 54 -45q0 -15 -12 -63h2q30 46 82 82q56 38 128 38q71 0 108 -35.5t37 -101.5q0 -26 -7 -62l-39 -205q-3 -15 -3 -16q0 -15 19 -15h40l-15 -83h-94q-56 0 -56 46q0 11 3 23l45 233q6 34 6 50q0 77 -78 77
q-73 0 -132 -60q-58 -58 -72 -133zM417 580h-79l97 127h101z" />
    <glyph glyph-name="Ncommaaccent" unicode="&#x145;" horiz-adv-x="756" 
d="M80 0h-104l17 86h42q23 0 27 22l117 598h87l228 -451l41 -96h2q4 46 13 96l76 390q6 33 22.5 47t49.5 14h105l-17 -86h-45q-21 0 -25 -22l-116 -598h-87l-230 451l-39 95h-2q-5 -47 -14 -95l-75 -391q-13 -60 -73 -60zM265 -59h77q2 -10 2 -19q0 -55 -46 -122h-68
q38 70 38 110q0 14 -3 31z" />
    <glyph glyph-name="ncommaaccent" unicode="&#x146;" horiz-adv-x="621" 
d="M124 0h-96l75 387q3 9 3 20q0 16 -19 16h-40l16 83h92q54 0 54 -45q0 -15 -12 -63h2q30 46 82 82q56 38 128 38q71 0 108 -35.5t37 -101.5q0 -26 -7 -62l-39 -205q-3 -15 -3 -16q0 -15 19 -15h40l-15 -83h-94q-56 0 -56 46q0 11 3 23l45 233q6 34 6 50q0 77 -78 77
q-73 0 -132 -60q-58 -58 -72 -133zM209 -59h77q2 -10 2 -19q0 -55 -46 -122h-68q38 70 38 110q0 14 -3 31z" />
    <glyph glyph-name="Ncaron" unicode="&#x147;" horiz-adv-x="756" 
d="M80 0h-104l17 86h42q23 0 27 22l117 598h87l228 -451l41 -96h2q4 46 13 96l76 390q6 33 22.5 47t49.5 14h105l-17 -86h-45q-21 0 -25 -22l-116 -598h-87l-230 451l-39 95h-2q-5 -47 -14 -95l-75 -391q-13 -60 -73 -60zM523 755h-89l-63 127h75l38 -81h2l67 81h82z" />
    <glyph glyph-name="ncaron" unicode="&#x148;" horiz-adv-x="624" 
d="M124 0h-96l75 387q3 9 3 20q0 16 -19 16h-40l16 83h92q54 0 54 -45q0 -15 -12 -63h2q30 46 82 82q56 38 128 38q71 0 108 -35.5t37 -101.5q0 -26 -7 -62l-39 -205q-3 -15 -3 -16q0 -15 19 -15h40l-15 -83h-94q-56 0 -56 46q0 11 3 23l45 233q6 34 6 50q0 77 -78 77
q-73 0 -132 -60q-58 -58 -72 -133zM424 580h-89l-63 127h75l38 -81h2l67 81h82z" />
    <glyph glyph-name="napostrophe" unicode="&#x149;" horiz-adv-x="624" 
d="M124 0h-96l75 387q3 9 3 20q0 16 -19 16h-40l16 83h92q54 0 54 -45q0 -15 -12 -63h2q30 46 82 82q56 38 128 38q71 0 108 -35.5t37 -101.5q0 -26 -7 -62l-39 -205q-3 -15 -3 -16q0 -15 19 -15h40l-15 -83h-94q-56 0 -56 46q0 11 3 23l45 233q6 34 6 50q0 77 -78 77
q-73 0 -132 -60q-58 -58 -72 -133zM47 705h77q2 -10 2 -19q0 -55 -46 -122h-68q38 70 38 110q0 14 -3 31z" />
    <glyph glyph-name="Eng" unicode="&#x14a;" horiz-adv-x="756" 
d="M80 0h-104l17 86h42q23 0 27 22l117 598h87l228 -451l41 -96h2q4 46 13 96l76 390q6 33 22.5 47t49.5 14h105l-17 -86h-45q-21 0 -25 -22l-109 -559q-30 -152 -115 -201q-72 -42 -170 -42l17 90q133 0 167 132l-223 433l-39 95h-2q-5 -47 -14 -95l-75 -391
q-13 -60 -73 -60z" />
    <glyph glyph-name="eng" unicode="&#x14b;" horiz-adv-x="599" 
d="M124 0h-96l75 387q3 9 3 20q0 16 -19 16h-40l16 83h92q54 0 54 -45q0 -15 -12 -63h2q30 46 82 82q56 38 128 38q71 0 108 -35.5t37 -101.5q0 -26 -7 -62l-65 -337q-17 -94 -76 -140q-22 -19 -53 -30q-45 -18 -93 -18l-41 2l17 83q10 -2 21 -2q108 0 130 118l60 307
q6 34 6 50q0 77 -78 77q-73 0 -132 -60q-58 -58 -72 -133z" />
    <glyph glyph-name="Omacron" unicode="&#x14c;" horiz-adv-x="795" 
d="M40 296q0 112 60 209q62 99 160 155q100 58 211 58q136 0 221 -85q86 -84 86 -216q0 -113 -61 -213t-161 -158q-98 -58 -209 -58q-136 0 -222 86q-85 86 -85 222zM144 300q0 -95 59 -157q58 -61 153 -61q121 0 219 98q99 99 99 231q0 95 -59 154q-59 60 -152 60
q-124 0 -221 -97q-98 -96 -98 -228zM617 784h-254l13 69h254z" />
    <glyph glyph-name="omacron" unicode="&#x14d;" horiz-adv-x="613" 
d="M21 211q0 129 96 217q97 90 224 90q104 0 169 -62t65 -159q0 -129 -97 -219q-98 -90 -223 -90q-102 0 -169 62q-65 62 -65 161zM120 215q0 -64 40 -103.5t104 -39.5q82 0 146 64q66 64 66 156q0 63 -39.5 102.5t-102.5 39.5q-84 0 -149 -64q-65 -65 -65 -155zM496 609
h-254l13 69h254z" />
    <glyph glyph-name="Obreve" unicode="&#x14e;" horiz-adv-x="795" 
d="M40 296q0 112 60 209q62 99 160 155q100 58 211 58q136 0 221 -85q86 -84 86 -216q0 -113 -61 -213t-161 -158q-98 -58 -209 -58q-136 0 -222 86q-85 86 -85 222zM144 300q0 -95 59 -157q58 -61 153 -61q121 0 219 98q99 99 99 231q0 95 -59 154q-59 60 -152 60
q-124 0 -221 -97q-98 -96 -98 -228zM489 751q-55 0 -89 34q-35 35 -24 85l3 12h66l-2 -13q-5 -27 8 -43.5t41 -16.5q60 0 73 61l3 12h67l-4 -19q-10 -52 -49.5 -82t-92.5 -30z" />
    <glyph glyph-name="obreve" unicode="&#x14f;" horiz-adv-x="613" 
d="M21 211q0 129 96 217q97 90 224 90q104 0 169 -62t65 -159q0 -129 -97 -219q-98 -90 -223 -90q-102 0 -169 62q-65 62 -65 161zM120 215q0 -64 40 -103.5t104 -39.5q82 0 146 64q66 64 66 156q0 63 -39.5 102.5t-102.5 39.5q-84 0 -149 -64q-65 -65 -65 -155zM368 576
q-55 0 -89 34q-35 35 -24 85l3 12h66l-2 -13q-5 -27 8 -43.5t41 -16.5q60 0 73 61l3 12h67l-4 -19q-10 -52 -49.5 -82t-92.5 -30z" />
    <glyph glyph-name="Ohungarumlaut" unicode="&#x150;" horiz-adv-x="795" 
d="M40 296q0 112 60 209q62 99 160 155q100 58 211 58q136 0 221 -85q86 -84 86 -216q0 -113 -61 -213t-161 -158q-98 -58 -209 -58q-136 0 -222 86q-85 86 -85 222zM144 300q0 -95 59 -157q58 -61 153 -61q121 0 219 98q99 99 99 231q0 95 -59 154q-59 60 -152 60
q-124 0 -221 -97q-98 -96 -98 -228zM597 755h-77l85 127h98zM451 755h-83l81 127h84z" />
    <glyph glyph-name="ohungarumlaut" unicode="&#x151;" horiz-adv-x="613" 
d="M21 211q0 129 96 217q97 90 224 90q104 0 169 -62t65 -159q0 -129 -97 -219q-98 -90 -223 -90q-102 0 -169 62q-65 62 -65 161zM120 215q0 -64 40 -103.5t104 -39.5q82 0 146 64q66 64 66 156q0 63 -39.5 102.5t-102.5 39.5q-84 0 -149 -64q-65 -65 -65 -155zM476 580
h-77l85 127h98zM330 580h-83l81 127h84z" />
    <glyph glyph-name="OE" unicode="&#x152;" horiz-adv-x="945" 
d="M40 292q0 112 59 210q59 99 156 156t207 57q25 0 77 -5q41 -4 65 -4h293q59 0 59 -45q0 -11 -5 -36l-14 -72h-91l5 28q4 20 4 24q0 15 -20 15h-200l-43 -221h248l-17 -86h-248l-36 -188q-4 -17 -4 -24q0 -15 19 -15h206q22 0 26 22l9 45h92l-18 -91q-7 -34 -24 -48
t-49 -14h-317q-21 0 -58 -4q-45 -5 -67 -5q-141 0 -228 84q-86 84 -86 217zM143 292q0 -98 58 -157q59 -60 158 -60q41 0 63 5l9 2l104 541q-30 8 -69 8q-131 0 -227 -101q-96 -100 -96 -238z" />
    <glyph glyph-name="oe" unicode="&#x153;" horiz-adv-x="984" 
d="M21 211q0 129 94 217q95 90 219 90q70 0 122.5 -31.5t80.5 -88.5h2q83 120 222 120q93 0 143 -50t50 -137q0 -37 -12 -78l-4 -13h-368q-4 -13 -4 -33q0 -60 39 -97.5t106 -37.5q37 0 78 15q40 15 62 29l21 15l27 -76q-7 -7 -37 -24q-79 -43 -156 -43q-75 0 -129.5 32.5
t-78.5 90.5h-2q-43 -57 -106.5 -90t-130.5 -33q-107 0 -172 61q-66 61 -66 162zM585 310h270q3 15 3 29q0 48 -26.5 75t-72.5 27q-58 0 -104.5 -34.5t-69.5 -96.5zM119 215q0 -64 40 -103.5t103 -39.5q83 0 147 64q65 65 65 156q0 63 -39.5 102.5t-102.5 39.5
q-85 0 -149 -64t-64 -155z" />
    <glyph glyph-name="Racute" unicode="&#x154;" horiz-adv-x="621" 
d="M140 0h-100l121 620h-65l18 86h301q83 0 132.5 -45.5t49.5 -124.5q0 -87 -53 -149q-52 -60 -118 -74v-2q12 -9 20 -33l52 -166q8 -26 35 -26h30l-17 -86h-53q-36 0 -53 11.5t-27 44.5l-60 187q-8 24 -19.5 31t-39.5 7h-99zM261 620l-49 -253h131q62 0 106 44
q45 45 45 111q0 98 -100 98h-133zM411 755h-79l97 127h101z" />
    <glyph glyph-name="racute" unicode="&#x155;" horiz-adv-x="377" 
d="M125 0h-97l77 401q4 22 -18 22h-40l16 83h93q55 0 55 -43q0 -32 -19 -86h2q29 59 79.5 97t107.5 38q8 0 26 -2l-20 -96q-10 2 -26 2q-69 0 -125 -65q-56 -66 -74 -158zM292 580h-79l97 127h101z" />
    <glyph glyph-name="Rcommaaccent" unicode="&#x156;" horiz-adv-x="621" 
d="M140 0h-100l121 620h-65l18 86h301q83 0 132.5 -45.5t49.5 -124.5q0 -87 -53 -149q-52 -60 -118 -74v-2q12 -9 20 -33l52 -166q8 -26 35 -26h30l-17 -86h-53q-36 0 -53 11.5t-27 44.5l-60 187q-8 24 -19.5 31t-39.5 7h-99zM261 620l-49 -253h131q62 0 106 44
q45 45 45 111q0 98 -100 98h-133zM241 -59h77q2 -10 2 -19q0 -55 -46 -122h-68q38 70 38 110q0 14 -3 31z" />
    <glyph glyph-name="rcommaaccent" unicode="&#x157;" horiz-adv-x="378" 
d="M125 0h-97l77 401q4 22 -18 22h-40l16 83h93q55 0 55 -43q0 -32 -19 -86h2q29 59 79.5 97t107.5 38q8 0 26 -2l-20 -96q-10 2 -26 2q-69 0 -125 -65q-56 -66 -74 -158zM22 -59h77q2 -10 2 -19q0 -55 -46 -122h-68q38 70 38 110q0 14 -3 31z" />
    <glyph glyph-name="Rcaron" unicode="&#x158;" horiz-adv-x="621" 
d="M140 0h-100l121 620h-65l18 86h301q83 0 132.5 -45.5t49.5 -124.5q0 -87 -53 -149q-52 -60 -118 -74v-2q12 -9 20 -33l52 -166q8 -26 35 -26h30l-17 -86h-53q-36 0 -53 11.5t-27 44.5l-60 187q-8 24 -19.5 31t-39.5 7h-99zM261 620l-49 -253h131q62 0 106 44
q45 45 45 111q0 98 -100 98h-133zM418 755h-89l-63 127h75l38 -81h2l67 81h82z" />
    <glyph glyph-name="rcaron" unicode="&#x159;" horiz-adv-x="377" 
d="M125 0h-97l77 401q4 22 -18 22h-40l16 83h93q55 0 55 -43q0 -32 -19 -86h2q29 59 79.5 97t107.5 38q8 0 26 -2l-20 -96q-10 2 -26 2q-69 0 -125 -65q-56 -66 -74 -158zM299 580h-89l-63 127h75l38 -81h2l67 81h82z" />
    <glyph glyph-name="Sacute" unicode="&#x15a;" horiz-adv-x="528" 
d="M2 80l-9 11l64 69q8 -11 27 -28q60 -53 139 -53q64 0 105.5 34t41.5 85q0 67 -100 112q-91 42 -124 71q-60 53 -59 129q0 90 72 149q74 59 178 59q73 0 133 -29t60 -81q0 -14 -4 -30l-10 -48h-89l4 23q3 11 3 21q0 24 -28.5 38.5t-71.5 14.5q-66 0 -105.5 -32t-39.5 -79
q0 -60 99 -105q39 -15 65 -28.5t57 -37.5t47 -58.5t15 -77.5q0 -95 -69 -158t-181 -63q-81 0 -137.5 30t-82.5 62zM398 755h-79l97 127h101z" />
    <glyph glyph-name="sacute" unicode="&#x15b;" horiz-adv-x="452" 
d="M-5 65l-7 9l49 64q8 -11 24 -25q57 -46 127 -46q45 0 72.5 19t27.5 51q0 21 -15 37q-13 14 -25.5 21t-47.5 21q-53 20 -95 50q-48 36 -48 100q0 72 57 112q58 40 140 40q69 0 125 -29q55 -28 44 -81l-8 -36h-85l3 19q4 21 -18.5 35.5t-62.5 14.5q-44 0 -70.5 -19
t-26.5 -49q0 -21 15 -38q10 -11 21.5 -18.5t19.5 -11t36 -14.5q6 -2 7 -3q58 -23 90 -48q45 -30 45 -94q0 -69 -57 -114q-56 -44 -145 -44q-71 0 -121.5 25.5t-70.5 51.5zM321 580h-79l97 127h101z" />
    <glyph glyph-name="Scircumflex" unicode="&#x15c;" horiz-adv-x="528" 
d="M2 80l-9 11l64 69q8 -11 27 -28q60 -53 139 -53q64 0 105.5 34t41.5 85q0 67 -100 112q-91 42 -124 71q-60 53 -59 129q0 90 72 149q74 59 178 59q73 0 133 -29t60 -81q0 -14 -4 -30l-10 -48h-89l4 23q3 11 3 21q0 24 -28.5 38.5t-71.5 14.5q-66 0 -105.5 -32t-39.5 -79
q0 -60 99 -105q39 -15 65 -28.5t57 -37.5t47 -58.5t15 -77.5q0 -95 -69 -158t-181 -63q-81 0 -137.5 30t-82.5 62zM306 755h-82l112 127h89l64 -127h-77l-36 80h-2z" />
    <glyph glyph-name="scircumflex" unicode="&#x15d;" horiz-adv-x="452" 
d="M-5 65l-7 9l49 64q8 -11 24 -25q57 -46 127 -46q45 0 72.5 19t27.5 51q0 21 -15 37q-13 14 -25.5 21t-47.5 21q-53 20 -95 50q-48 36 -48 100q0 72 57 112q58 40 140 40q69 0 125 -29q55 -28 44 -81l-8 -36h-85l3 19q4 21 -18.5 35.5t-62.5 14.5q-44 0 -70.5 -19
t-26.5 -49q0 -21 15 -38q10 -11 21.5 -18.5t19.5 -11t36 -14.5q6 -2 7 -3q58 -23 90 -48q45 -30 45 -94q0 -69 -57 -114q-56 -44 -145 -44q-71 0 -121.5 25.5t-70.5 51.5zM229 580h-82l112 127h89l64 -127h-77l-36 80h-2z" />
    <glyph glyph-name="Scedilla" unicode="&#x15e;" horiz-adv-x="530" 
d="M160 -86l-18 -2l35 80q-57 8 -101 32q-46 26 -63 46l-18 21l63 69q8 -11 27 -28q60 -53 139 -53q64 0 105.5 34t41.5 85q0 67 -100 112l-42.5 20t-39 21t-41 29t-29.5 33t-23.5 44.5t-6.5 52.5q0 90 72 149q73 59 177 59q73 0 133 -29t60 -81q0 -16 -3 -30l-10 -48h-90
l5 23l3 21q0 24 -29 38.5t-72 14.5q-65 0 -105 -32t-40 -79q0 -60 99 -105q39 -15 65 -28.5t57 -37.5t47 -58.5t15 -77.5q0 -94 -67 -157q-69 -63 -176 -64l-15 -38q25 -4 42 -21.5t17 -42.5q0 -45 -33.5 -69t-82.5 -24q-36 0 -51 5l-7 1l11 59q18 -7 42 -7q53 0 53 37
q0 26 -46 26z" />
    <glyph glyph-name="scedilla" unicode="&#x15f;" horiz-adv-x="452" 
d="M115 -86l-18 -2l35 81q-41 8 -77.5 27.5t-52.5 37.5l-13 16l49 64q20 -27 68 -52q41 -18 82.5 -19t72 19t28.5 51q0 21 -15 37q-20 21 -73 42q-55 20 -96 50q-48 36 -48 100q0 72 57 112q58 40 140 40q70 0 125 -29q55 -28 44 -81l-8 -36h-85l3 19q4 21 -18.5 35.5
t-62.5 14.5q-44 0 -70 -19t-26 -49q0 -28 20.5 -45t69.5 -37l8 -3q58 -23 90 -48q45 -30 45 -94q0 -69 -57 -114q-56 -44 -147 -44l-16 -38q25 -4 42.5 -21.5t17.5 -42.5q0 -45 -34 -69t-83 -24q-37 0 -50 5l-7 1l11 59q18 -7 41 -7q54 0 54 37q0 26 -46 26z" />
    <glyph glyph-name="Scaron" unicode="&#x160;" horiz-adv-x="528" 
d="M2 80l-9 11l64 69q8 -11 27 -28q60 -53 139 -53q64 0 105.5 34t41.5 85q0 67 -100 112q-91 42 -124 71q-60 53 -59 129q0 90 72 149q74 59 178 59q73 0 133 -29t60 -81q0 -14 -4 -30l-10 -48h-89l4 23q3 11 3 21q0 24 -28.5 38.5t-71.5 14.5q-66 0 -105.5 -32t-39.5 -79
q0 -60 99 -105q39 -15 65 -28.5t57 -37.5t47 -58.5t15 -77.5q0 -95 -69 -158t-181 -63q-81 0 -137.5 30t-82.5 62zM406 755h-89l-63 127h75l38 -81h2l67 81h82z" />
    <glyph glyph-name="scaron" unicode="&#x161;" horiz-adv-x="452" 
d="M-5 65l-7 9l49 64q8 -11 24 -25q57 -46 127 -46q45 0 72.5 19t27.5 51q0 21 -15 37q-13 14 -25.5 21t-47.5 21q-53 20 -95 50q-48 36 -48 100q0 72 57 112q58 40 140 40q69 0 125 -29q55 -28 44 -81l-8 -36h-85l3 19q4 21 -18.5 35.5t-62.5 14.5q-44 0 -70.5 -19
t-26.5 -49q0 -21 15 -38q10 -11 21.5 -18.5t19.5 -11t36 -14.5q6 -2 7 -3q58 -23 90 -48q45 -30 45 -94q0 -69 -57 -114q-56 -44 -145 -44q-71 0 -121.5 25.5t-70.5 51.5zM329 580h-89l-63 127h75l38 -81h2l67 81h82z" />
    <glyph glyph-name="Tcommaaccent" unicode="&#x162;" horiz-adv-x="628" 
d="M231 0h-24l121 620h-142q-22 0 -26 -22l-9 -45h-89l18 96q6 32 20.5 44.5t46.5 12.5h483q56 0 56 -45q0 -11 -5 -36l-13 -72h-90l6 28q4 17 4 24q0 15 -21 15h-139l-121 -620h-22l-20 -50q25 -4 42 -21.5t17 -42.5q0 -45 -33.5 -69t-82.5 -24q-36 0 -51 5l-7 1l12 59
q17 -7 41 -7q54 0 54 37q0 26 -46 26l-19 -2z" />
    <glyph glyph-name="tcommaaccent" unicode="&#x163;" horiz-adv-x="329" 
d="M92 -86l-18 -2l47 106q-65 36 -65 120q0 24 6 51l47 239h-66l15 78h68l27 139h95l-27 -139h121l-15 -78h-122l-43 -228q-5 -25 -5 -39q0 -79 87 -79l25 2l-16 -86q-15 -3 -35 -3q-23 0 -50 6l-22 -51q25 -4 42.5 -21.5t17.5 -42.5q0 -45 -34 -69t-83 -24q-36 0 -51 5
l-6 1l11 59q18 -7 41 -7q54 0 54 37q0 26 -46 26z" />
    <glyph glyph-name="Tcaron" unicode="&#x164;" horiz-adv-x="628" 
d="M307 0h-100l121 620h-142q-22 0 -26 -22l-9 -45h-89l18 96q6 32 20.5 44.5t46.5 12.5h483q56 0 56 -45q0 -11 -5 -36l-13 -72h-90l6 28q4 17 4 24q0 15 -21 15h-139zM450 755h-89l-63 127h75l38 -81h2l67 81h82z" />
    <glyph glyph-name="tcaron" unicode="&#x165;" horiz-adv-x="328" 
d="M56 138q0 18 5 51l47 239h-66l15 78h68l27 139h95l-27 -139h122l-16 -78h-121l-44 -228q-4 -17 -4 -39q0 -79 87 -79l25 2l-17 -86q-14 -3 -35 -3q-25 0 -50 6t-51.5 20.5t-43 44.5t-16.5 72zM321 705h77q2 -10 2 -19q0 -55 -46 -122h-68q38 70 38 110q0 14 -3 31z" />
    <glyph glyph-name="Tbar" unicode="&#x166;" horiz-adv-x="642" 
d="M312 0h-100l60 310h-154l15 76h154l46 234h-141q-23 0 -27 -22l-9 -45h-89l18 96q7 32 21.5 44.5t46.5 12.5h482q57 0 57 -45q0 -1 -0.5 -5t-2 -13t-2.5 -18l-14 -72h-89l5 28q3 15 3 24q0 15 -20 15h-139l-47 -234h162l-15 -76h-161z" />
    <glyph glyph-name="tbar" unicode="&#x167;" horiz-adv-x="330" 
d="M57 138q0 23 19 121h-65l13 68h65l20 101h-66l15 78h68l27 139h95l-27 -139h122l-16 -78h-121l-20 -101h122l-14 -68h-121l-13 -69q-9 -48 13.5 -78t71.5 -30l25 2l-17 -86q-13 -3 -35 -3q-25 0 -50 6t-51.5 20.5t-43 44.5t-16.5 72z" />
    <glyph glyph-name="Utilde" unicode="&#x168;" horiz-adv-x="716" 
d="M74 197q0 27 6 57l64 325q4 20 4 26q0 15 -20 15h-41l17 86h95q59 0 59 -45q0 -11 -5 -36l-73 -375q-5 -22 -5 -42q0 -60 37 -93t103 -33q78 0 133 45.5t71 124.5l77 393q6 33 22.5 47t49.5 14h104l-16 -86h-45q-21 0 -25 -22l-70 -360q-23 -114 -104 -182
q-83 -68 -202 -68q-108 0 -173 57q-63 57 -63 152zM341 756h-65q22 127 121 127q25 0 44 -10.5t27.5 -23.5t21.5 -23.5t28 -10.5q40 0 53 65h66q-22 -127 -121 -127q-26 0 -44.5 10.5t-27.5 23.5t-22 23.5t-28 10.5q-40 0 -53 -65z" />
    <glyph glyph-name="utilde" unicode="&#x169;" horiz-adv-x="616" 
d="M51 125q0 29 6 63l40 204q2 14 2 16q0 15 -18 15h-41l16 83h93q57 0 57 -46q0 -10 -3 -23l-46 -234q-5 -30 -5 -48q0 -77 76 -77q70 0 129 59q58 58 72 133l46 236h97l-75 -387q-3 -11 -3 -20q0 -16 19 -16h39l-16 -83h-91q-54 0 -54 45q0 15 12 64h-2q-29 -47 -82 -83
q-55 -38 -126 -38q-69 0 -105.5 35.5t-36.5 101.5zM248 581h-65q22 127 121 127q25 0 44 -10.5t27.5 -23.5t21.5 -23.5t28 -10.5q40 0 53 65h66q-22 -127 -121 -127q-26 0 -44.5 10.5t-27.5 23.5t-22 23.5t-28 10.5q-40 0 -53 -65z" />
    <glyph glyph-name="Umacron" unicode="&#x16a;" horiz-adv-x="716" 
d="M74 197q0 27 6 57l64 325q4 20 4 26q0 15 -20 15h-41l17 86h95q59 0 59 -45q0 -11 -5 -36l-73 -375q-5 -22 -5 -42q0 -60 37 -93t103 -33q78 0 133 45.5t71 124.5l77 393q6 33 22.5 47t49.5 14h104l-16 -86h-45q-21 0 -25 -22l-70 -360q-23 -114 -104 -182
q-83 -68 -202 -68q-108 0 -173 57q-63 57 -63 152zM581 784h-254l13 69h254z" />
    <glyph glyph-name="umacron" unicode="&#x16b;" horiz-adv-x="616" 
d="M51 125q0 29 6 63l40 204q2 14 2 16q0 15 -18 15h-41l16 83h93q57 0 57 -46q0 -10 -3 -23l-46 -234q-5 -30 -5 -48q0 -77 76 -77q70 0 129 59q58 58 72 133l46 236h97l-75 -387q-3 -11 -3 -20q0 -16 19 -16h39l-16 -83h-91q-54 0 -54 45q0 15 12 64h-2q-29 -47 -82 -83
q-55 -38 -126 -38q-69 0 -105.5 35.5t-36.5 101.5zM487 609h-254l13 69h254z" />
    <glyph glyph-name="Ubreve" unicode="&#x16c;" horiz-adv-x="716" 
d="M74 197q0 27 6 57l64 325q4 20 4 26q0 15 -20 15h-41l17 86h95q59 0 59 -45q0 -11 -5 -36l-73 -375q-5 -22 -5 -42q0 -60 37 -93t103 -33q78 0 133 45.5t71 124.5l77 393q6 33 22.5 47t49.5 14h104l-16 -86h-45q-21 0 -25 -22l-70 -360q-23 -114 -104 -182
q-83 -68 -202 -68q-108 0 -173 57q-63 57 -63 152zM453 751q-55 0 -89 34q-35 35 -24 85l3 12h66l-2 -13q-5 -27 8 -43.5t41 -16.5q60 0 73 61l3 12h67l-4 -19q-10 -52 -49.5 -82t-92.5 -30z" />
    <glyph glyph-name="ubreve" unicode="&#x16d;" horiz-adv-x="616" 
d="M51 125q0 29 6 63l40 204q2 14 2 16q0 15 -18 15h-41l16 83h93q57 0 57 -46q0 -10 -3 -23l-46 -234q-5 -30 -5 -48q0 -77 76 -77q70 0 129 59q58 58 72 133l46 236h97l-75 -387q-3 -11 -3 -20q0 -16 19 -16h39l-16 -83h-91q-54 0 -54 45q0 15 12 64h-2q-29 -47 -82 -83
q-55 -38 -126 -38q-69 0 -105.5 35.5t-36.5 101.5zM360 576q-55 0 -89 34q-35 35 -24 85l3 12h66l-2 -13q-5 -27 8 -43.5t41 -16.5q60 0 73 61l3 12h67l-4 -19q-10 -52 -49.5 -82t-92.5 -30z" />
    <glyph glyph-name="Uring" unicode="&#x16e;" horiz-adv-x="716" 
d="M74 197q0 27 6 57l64 325q4 20 4 26q0 15 -20 15h-41l17 86h95q59 0 59 -45q0 -11 -5 -36l-73 -375q-5 -22 -5 -42q0 -60 37 -93t103 -33q78 0 133 45.5t71 124.5l77 393q6 33 22.5 47t49.5 14h104l-16 -86h-45q-21 0 -25 -22l-70 -360q-23 -114 -104 -182
q-83 -68 -202 -68q-108 0 -173 57q-63 57 -63 152zM449 742q-31 0 -52.5 18t-21.5 47q0 37 28.5 61.5t65.5 24.5q32 0 53.5 -18.5t21.5 -47.5q0 -36 -29 -60.5t-66 -24.5zM452 783q18 0 30 12t12 31q0 27 -28 27q-16 0 -28.5 -13t-12.5 -31q0 -26 27 -26z" />
    <glyph glyph-name="uring" unicode="&#x16f;" horiz-adv-x="616" 
d="M51 125q0 29 6 63l40 204q2 14 2 16q0 15 -18 15h-41l16 83h93q57 0 57 -46q0 -10 -3 -23l-46 -234q-5 -30 -5 -48q0 -77 76 -77q70 0 129 59q58 58 72 133l46 236h97l-75 -387q-3 -11 -3 -20q0 -16 19 -16h39l-16 -83h-91q-54 0 -54 45q0 15 12 64h-2q-29 -47 -82 -83
q-55 -38 -126 -38q-69 0 -105.5 35.5t-36.5 101.5zM355 567q-31 0 -52.5 18t-21.5 47q0 37 28.5 61.5t65.5 24.5q32 0 53.5 -18.5t21.5 -47.5q0 -36 -29 -60.5t-66 -24.5zM358 608q18 0 30 12t12 31q0 27 -28 27q-16 0 -28.5 -13t-12.5 -31q0 -26 27 -26z" />
    <glyph glyph-name="Uhungarumlaut" unicode="&#x170;" horiz-adv-x="716" 
d="M74 197q0 27 6 57l64 325q4 20 4 26q0 15 -20 15h-41l17 86h95q59 0 59 -45q0 -11 -5 -36l-73 -375q-5 -22 -5 -42q0 -60 37 -93t103 -33q78 0 133 45.5t71 124.5l77 393q6 33 22.5 47t49.5 14h104l-16 -86h-45q-21 0 -25 -22l-70 -360q-23 -114 -104 -182
q-83 -68 -202 -68q-108 0 -173 57q-63 57 -63 152zM562 755h-77l85 127h98zM416 755h-83l81 127h84z" />
    <glyph glyph-name="uhungarumlaut" unicode="&#x171;" horiz-adv-x="616" 
d="M51 125q0 29 6 63l40 204q2 14 2 16q0 15 -18 15h-41l16 83h93q57 0 57 -46q0 -10 -3 -23l-46 -234q-5 -30 -5 -48q0 -77 76 -77q70 0 129 59q58 58 72 133l46 236h97l-75 -387q-3 -11 -3 -20q0 -16 19 -16h39l-16 -83h-91q-54 0 -54 45q0 15 12 64h-2q-29 -47 -82 -83
q-55 -38 -126 -38q-69 0 -105.5 35.5t-36.5 101.5zM468 580h-77l85 127h98zM322 580h-83l81 127h84z" />
    <glyph glyph-name="Uogonek" unicode="&#x172;" horiz-adv-x="718" 
d="M75 197q0 27 6 57l64 325q4 20 4 26q0 15 -20 15h-41l16 86h96q58 0 58 -45q0 -11 -5 -36l-73 -375q-4 -17 -4 -42q0 -60 37 -93t102 -33q79 0 134 45.5t70 124.5l77 393q7 34 23.5 47.5t49.5 13.5h104l-17 -86h-45q-21 0 -25 -22l-69 -360q-17 -82 -66.5 -142
t-121.5 -87q-35 -17 -70 -47q-36 -32 -36 -61q0 -19 16.5 -29t38.5 -11l-31 -68q-23 3 -44 10q-23 7 -42 28.5t-19 47.5q0 57 77 110q-111 -2 -177 53q-67 55 -67 155z" />
    <glyph glyph-name="uogonek" unicode="&#x173;" horiz-adv-x="616" 
d="M363 -121q0 69 85 121q-57 0 -57 45q0 15 12 64h-2q-29 -47 -82 -83q-55 -38 -126 -38q-69 0 -105.5 35.5t-36.5 101.5q0 29 6 63l40 204q2 14 2 16q0 15 -18 15h-41l16 83h93q57 0 57 -46q0 -10 -3 -23l-46 -234q-5 -30 -5 -48q0 -77 76 -77q70 0 129 59q58 58 72 133
l46 236h97l-75 -387q-3 -11 -3 -20q0 -16 19 -16h39l-16 -83h-1q-17 -1 -55 -36q-36 -34 -36 -63q0 -19 16 -29t38 -11l-31 -68q-24 3 -43 10q-23 7 -42 28.5t-19 47.5z" />
    <glyph glyph-name="Wcircumflex" unicode="&#x174;" horiz-adv-x="967" 
d="M276 0h-117l-38 596q-1 24 -24 24h-20l16 86h64q35 0 50.5 -13t16.5 -45l22 -454l-2 -75h2q11 30 32 75l242 510h89l33 -510v-75h2q11 33 29 75l198 454q25 58 86 58h71l-17 -86h-20q-24 0 -34 -22l-271 -598h-117l-33 446l-1 96h-2q-24 -61 -41 -95zM522 755h-82
l112 127h89l64 -127h-77l-36 80h-2z" />
    <glyph glyph-name="wcircumflex" unicode="&#x175;" horiz-adv-x="844" 
d="M243 0h-109l-54 403q-5 20 -25 20h-17l17 83h64q51 0 57 -56l31 -299l2 -54h2q11 29 24 54l178 353h89l41 -353l3 -54h2q13 35 23 54l148 301q16 33 32 43.5t49 10.5h68l-16 -83h-14q-24 0 -36 -20l-211 -403h-108l-43 325l-3 55h-2q-16 -38 -25 -55zM420 580h-82
l112 127h89l64 -127h-77l-36 80h-2z" />
    <glyph glyph-name="Ycircumflex" unicode="&#x176;" horiz-adv-x="606" 
d="M294 0h-100l60 308l-123 287q-10 25 -35 25h-24l17 86h45q33 0 49 -11t29 -43l76 -177l28 -80h2q35 54 56 80l140 177q24 32 44.5 43t53.5 11h61l-17 -86h-23q-26 0 -44 -23l-235 -289zM335 755h-82l112 127h89l64 -127h-77l-36 80h-2z" />
    <glyph glyph-name="ycircumflex" unicode="&#x177;" horiz-adv-x="544" 
d="M31 -210q-29 0 -57.5 12t-41.5 26l-13 12l41 69q36 -36 74 -36q56 0 100 74l36 57l-95 399q-3 12 -8.5 16t-18.5 4h-12l16 83h65q23 0 33.5 -11.5t16.5 -39.5l59 -285l6 -61h2q15 35 29 61l161 285q17 30 35 40.5t49 10.5h62l-17 -83h-12q-25 0 -36 -20l-297 -497
q-71 -116 -177 -116zM266 580h-82l112 127h89l64 -127h-77l-36 80h-2z" />
    <glyph glyph-name="Ydieresis" unicode="&#x178;" horiz-adv-x="606" 
d="M294 0h-100l60 308l-123 287q-10 25 -35 25h-24l17 86h45q33 0 49 -11t29 -43l76 -177l28 -80h2q35 54 56 80l140 177q24 32 44.5 43t53.5 11h61l-17 -86h-23q-26 0 -44 -23l-235 -289zM505 781h-74l20 101h74zM340 781h-73l20 101h73z" />
    <glyph glyph-name="Zacute" unicode="&#x179;" horiz-adv-x="601" 
d="M449 0h-473l12 66l435 490q30 33 57 56l9 8v2q-26 -2 -53 -2h-219q-22 0 -26 -22l-9 -45h-92l17 89q7 34 25 49t52 15h453l-13 -65l-438 -491q-25 -27 -56 -56l-10 -8v-2q26 2 53 2h243q23 0 27 22l8 45h92l-17 -89q-7 -34 -25 -49t-52 -15zM438 755h-79l97 127h101z" />
    <glyph glyph-name="zacute" unicode="&#x17a;" horiz-adv-x="514" 
d="M361 0h-381l12 62l318 316l55 51v2q-30 -2 -46 -2h-149q-22 0 -26 -22l-8 -40h-83l15 75q7 34 25 49t52 15h361l-11 -62l-318 -316l-58 -50v-2q26 2 53 2h164q22 0 27 23l7 38h83l-15 -75q-7 -34 -25 -49t-52 -15zM357 580h-79l97 127h101z" />
    <glyph glyph-name="Zdotaccent" unicode="&#x17b;" horiz-adv-x="601" 
d="M449 0h-473l12 66l435 490q30 33 57 56l9 8v2q-26 -2 -53 -2h-219q-22 0 -26 -22l-9 -45h-92l17 89q7 34 25 49t52 15h453l-13 -65l-438 -491q-25 -27 -56 -56l-10 -8v-2q26 2 53 2h243q23 0 27 22l8 45h92l-17 -89q-7 -34 -25 -49t-52 -15zM447 781h-88l21 101h87z" />
    <glyph glyph-name="zdotaccent" unicode="&#x17c;" horiz-adv-x="514" 
d="M361 0h-381l12 62l318 316l55 51v2q-30 -2 -46 -2h-149q-22 0 -26 -22l-8 -40h-83l15 75q7 34 25 49t52 15h361l-11 -62l-318 -316l-58 -50v-2q26 2 53 2h164q22 0 27 23l7 38h83l-15 -75q-7 -34 -25 -49t-52 -15zM366 606h-88l21 101h87z" />
    <glyph glyph-name="Zcaron" unicode="&#x17d;" horiz-adv-x="601" 
d="M449 0h-473l12 66l435 490q30 33 57 56l9 8v2q-26 -2 -53 -2h-219q-22 0 -26 -22l-9 -45h-92l17 89q7 34 25 49t52 15h453l-13 -65l-438 -491q-25 -27 -56 -56l-10 -8v-2q26 2 53 2h243q23 0 27 22l8 45h92l-17 -89q-7 -34 -25 -49t-52 -15zM445 755h-89l-63 127h75
l38 -81h2l67 81h82z" />
    <glyph glyph-name="zcaron" unicode="&#x17e;" horiz-adv-x="514" 
d="M361 0h-381l12 62l318 316l55 51v2q-30 -2 -46 -2h-149q-22 0 -26 -22l-8 -40h-83l15 75q7 34 25 49t52 15h361l-11 -62l-318 -316l-58 -50v-2q26 2 53 2h164q22 0 27 23l7 38h83l-15 -75q-7 -34 -25 -49t-52 -15zM364 580h-89l-63 127h75l38 -81h2l67 81h82z" />
    <glyph glyph-name="longs" unicode="&#x17f;" horiz-adv-x="263" 
d="M126 0h-96l82 428h-63l15 78h63l5 22q12 57 38.5 97t62.5 58q60 30 120 30l43 -3l-19 -86q-14 2 -29 2q-101 0 -121 -107z" />
    <glyph glyph-name="florin" unicode="&#x192;" 
d="M51 -56l-43 3l24 83q12 -2 23 -2q103 0 135 111l60 211h-75l15 78h82l30 104q31 111 108 149q63 30 125 30l44 -3l-25 -84q-12 2 -24 2q-103 0 -136 -110l-25 -88h105l-15 -78h-112l-64 -225q-15 -57 -45 -96.5t-67 -55.5q-61 -29 -120 -29z" />
    <glyph glyph-name="Scommaaccent" unicode="&#x218;" horiz-adv-x="528" 
d="M2 80l-9 11l64 69q8 -11 27 -28q60 -53 139 -53q64 0 105.5 34t41.5 85q0 67 -100 112q-91 42 -124 71q-60 53 -59 129q0 90 72 149q74 59 178 59q73 0 133 -29t60 -81q0 -14 -4 -30l-10 -48h-89l4 23q3 11 3 21q0 24 -28.5 38.5t-71.5 14.5q-66 0 -105.5 -32t-39.5 -79
q0 -60 99 -105q39 -15 65 -28.5t57 -37.5t47 -58.5t15 -77.5q0 -95 -69 -158t-181 -63q-81 0 -137.5 30t-82.5 62zM154 -59h77q2 -10 2 -19q0 -55 -46 -122h-68q38 70 38 110q0 14 -3 31z" />
    <glyph glyph-name="scommaaccent" unicode="&#x219;" horiz-adv-x="450" 
d="M-6 65l-7 9l49 64q8 -11 24 -25q57 -46 127 -46q45 0 72.5 19t27.5 51q0 21 -15 37q-13 14 -25.5 21t-47.5 21q-53 20 -95 50q-48 36 -48 100q0 72 57 112q58 40 140 40q69 0 125 -29q55 -28 44 -81l-8 -36h-85l3 19q4 21 -18.5 35.5t-62.5 14.5q-44 0 -70.5 -19
t-26.5 -49q0 -21 15 -38q10 -11 21.5 -18.5t19.5 -11t36 -14.5q6 -2 7 -3q58 -23 90 -48q45 -30 45 -94q0 -69 -57 -114q-56 -44 -145 -44q-71 0 -121.5 25.5t-70.5 51.5zM117 -59h77q2 -10 2 -19q0 -55 -46 -122h-68q38 70 38 110q0 14 -3 31z" />
    <glyph glyph-name="uni021A" unicode="&#x21a;" horiz-adv-x="628" 
d="M307 0h-100l121 620h-142q-22 0 -26 -22l-9 -45h-89l18 96q6 32 20.5 44.5t46.5 12.5h483q56 0 56 -45q0 -11 -5 -36l-13 -72h-90l6 28q4 17 4 24q0 15 -21 15h-139zM202 -59h77q2 -10 2 -19q0 -55 -46 -122h-68q38 70 38 110q0 14 -3 31z" />
    <glyph glyph-name="uni021B" unicode="&#x21b;" horiz-adv-x="328" 
d="M56 138q0 18 5 51l47 239h-66l15 78h68l27 139h95l-27 -139h122l-16 -78h-121l-44 -228q-4 -17 -4 -39q0 -79 87 -79l25 2l-17 -86q-14 -3 -35 -3q-25 0 -50 6t-51.5 20.5t-43 44.5t-16.5 72zM80 -59h77q2 -10 2 -19q0 -55 -46 -122h-68q38 70 38 110q0 14 -3 31z" />
    <glyph glyph-name="circumflex" unicode="&#x2c6;" horiz-adv-x="485" 
d="M177 755h-82l112 127h89l64 -127h-77l-36 80h-2z" />
    <glyph glyph-name="caron" unicode="&#x2c7;" horiz-adv-x="488" 
d="M277 755h-89l-63 127h75l38 -81h2l67 81h82z" />
    <glyph glyph-name="breve" unicode="&#x2d8;" horiz-adv-x="501" 
d="M248 751q-55 0 -89 34q-35 35 -24 85l3 12h66l-2 -13q-5 -27 8 -43.5t41 -16.5q60 0 73 61l3 12h67l-4 -19q-10 -52 -49.5 -82t-92.5 -30z" />
    <glyph glyph-name="dotaccent" unicode="&#x2d9;" horiz-adv-x="256" 
d="M161 781h-88l21 101h87z" />
    <glyph glyph-name="ring" unicode="&#x2da;" horiz-adv-x="380" 
d="M180 742q-31 0 -52.5 18t-21.5 47q0 37 28.5 61.5t65.5 24.5q32 0 53.5 -18.5t21.5 -47.5q0 -36 -29 -60.5t-66 -24.5zM183 783q18 0 30 12t12 31q0 27 -28 27q-16 0 -28.5 -13t-12.5 -31q0 -26 27 -26z" />
    <glyph glyph-name="ogonek" unicode="&#x2db;" horiz-adv-x="361" 
d="M105 -121q0 78 118 141h56v-20q-16 0 -56 -35q-38 -35 -38 -64q0 -37 55 -40l-31 -68q-37 4 -71 25q-33 20 -33 61z" />
    <glyph glyph-name="tilde" unicode="&#x2dc;" horiz-adv-x="519" 
d="M145 756h-65q22 127 121 127q25 0 44 -10.5t27.5 -23.5t21.5 -23.5t28 -10.5q40 0 53 65h66q-22 -127 -121 -127q-26 0 -44.5 10.5t-27.5 23.5t-22 23.5t-28 10.5q-40 0 -53 -65z" />
    <glyph glyph-name="hungarumlaut" unicode="&#x2dd;" horiz-adv-x="536" 
d="M322 755h-77l85 127h98zM176 755h-83l81 127h84z" />
    <glyph glyph-name="uni0400" unicode="&#x400;" horiz-adv-x="571" 
d="M52 45q0 9 5 37l105 538h-65l17 86h409q59 0 59 -45q0 -11 -5 -36l-14 -72h-91l6 28q3 17 3 24q0 15 -20 15h-199l-43 -221h247l-17 -86h-247l-37 -189q-3 -13 -3 -23q0 -15 18 -15h206q23 0 27 22l9 45h91l-18 -91q-6 -33 -23 -47.5t-50 -14.5h-312q-58 0 -58 45z
M447 755h-72l-73 127h94z" />
    <glyph glyph-name="uni0401" unicode="&#x401;" horiz-adv-x="571" 
d="M52 45q0 9 5 37l105 538h-65l17 86h409q59 0 59 -45q0 -11 -5 -36l-14 -72h-91l6 28q3 17 3 24q0 15 -20 15h-199l-43 -221h247l-17 -86h-247l-37 -189q-3 -13 -3 -23q0 -15 18 -15h206q23 0 27 22l9 45h91l-18 -91q-6 -33 -23 -47.5t-50 -14.5h-312q-58 0 -58 45z
M514 781h-74l20 101h74zM349 781h-73l20 101h73z" />
    <glyph glyph-name="uni0402" unicode="&#x402;" horiz-adv-x="744" 
d="M269 0h-100l122 624h-112q-22 0 -26 -22l-10 -49h-83l18 93q7 34 22.5 47t49.5 13h485l-15 -82h-229l-39 -198l-7 -32h2q78 39 171 39q94 0 145.5 -49.5t51.5 -132.5q0 -105 -76 -184t-193 -79q-38 0 -50 3l16 83h6q6 -1 14.5 -1.5t13.5 -0.5q66 0 117 48q52 49 52 121
q0 104 -120 104q-75 0 -144 -31l-22 -11z" />
    <glyph glyph-name="uni0403" unicode="&#x403;" horiz-adv-x="514" 
d="M450 620h-189l-121 -620h-100l121 620h-65l18 86h400q56 0 56 -45q0 -1 -0.5 -5t-2 -13t-2.5 -18l-14 -72h-89l5 28q4 17 4 24q0 15 -21 15zM399 755h-79l97 127h101z" />
    <glyph glyph-name="uni0404" unicode="&#x404;" horiz-adv-x="697" 
d="M40 291q0 167 126 297q127 130 302 130q84 0 162 -36q79 -36 79 -99q0 -4 -2 -18l-12 -64h-92l5 24q4 20 4 25q0 36 -49 57t-107 21q-101 0 -184 -68q-81 -66 -113 -170h368l-16 -81h-366q-7 -103 49 -167q58 -64 164 -64q128 0 235 91l43 -74q-55 -47 -134 -77
q-80 -30 -157 -30q-140 0 -222 85q-83 86 -83 218z" />
    <glyph glyph-name="uni0405" unicode="&#x405;" horiz-adv-x="528" 
d="M2 80l-9 11l64 69q8 -11 27 -28q60 -53 139 -53q64 0 105.5 34t41.5 85q0 67 -100 112q-91 42 -124 71q-60 53 -59 129q0 90 72 149q74 59 178 59q73 0 133 -29t60 -81q0 -14 -4 -30l-10 -48h-89l4 23q3 11 3 21q0 24 -28.5 38.5t-71.5 14.5q-66 0 -105.5 -32t-39.5 -79
q0 -60 99 -105q39 -15 65 -28.5t57 -37.5t47 -58.5t15 -77.5q0 -95 -69 -158t-181 -63q-81 0 -137.5 30t-82.5 62z" />
    <glyph glyph-name="uni0406" unicode="&#x406;" horiz-adv-x="316" 
d="M217 0h-232l17 86h68l104 534h-69l17 86h233l-17 -86h-68l-104 -534h68z" />
    <glyph glyph-name="uni0407" unicode="&#x407;" horiz-adv-x="315" 
d="M371 781h-74l20 101h73zM206 781h-73l19 101h74zM216 0h-232l17 86h67l104 534h-68l17 86h232l-16 -86h-69l-104 -534h69z" />
    <glyph glyph-name="uni0408" unicode="&#x408;" horiz-adv-x="509" 
d="M-8 152q0 18 5 55l5 31h100l-5 -27q-4 -27 -4 -41q0 -44 24.5 -66t65.5 -22q49 0 86 32t49 93l73 375q3 15 3 23q0 15 -20 15h-171l17 86h225q59 0 59 -45q0 -1 -0.5 -4.5t-2 -13t-2.5 -17.5l-84 -432q-19 -106 -87 -156q-67 -50 -148 -50t-134 43q-54 43 -54 121z" />
    <glyph glyph-name="uni0409" unicode="&#x409;" horiz-adv-x="933" 
d="M539 84h106q68 0 111.5 42.5t43.5 110.5q0 44 -29.5 69t-81.5 25h-124l-41 -209q-4 -17 -4 -23q0 -15 19 -15zM-46 -7l17 92q86 13 142.5 117t98.5 321l20 97h-66l16 86h391q55 0 55 -42q0 -10 -3 -22l-44 -227h113q85 0 147 -44q61 -43 61 -131q0 -111 -77 -176
q-76 -64 -191 -64h-170q-53 0 -53 42q0 12 2 22l101 517q4 21 4 25q0 14 -19 14h-168l-20 -97q-37 -195 -89 -315q-43 -101 -107 -153.5t-161 -61.5z" />
    <glyph glyph-name="uni040A" unicode="&#x40a;" horiz-adv-x="1002" 
d="M141 0h-100l112 577q5 25 5 27q0 16 -18 16h-43l17 86h101q54 0 54 -41q0 -13 -3 -23l-45 -227h328l58 291h100l-58 -291h122q85 0 143 -45q58 -43 58 -130q0 -109 -79 -175q-80 -65 -194 -65h-166q-29 0 -41.5 10.5t-12.5 35.5q0 4 3 18l51 267h-328zM607 84h109
q63 0 109 44q46 45 46 105q0 46 -29 72t-82 26h-127l-39 -204q-1 -5 -2 -9.5t-1.5 -7.5t-1 -5t-0.5 -3v-2q0 -16 18 -16z" />
    <glyph glyph-name="uni040B" unicode="&#x40b;" horiz-adv-x="774" 
d="M143 553h-83l18 93q7 34 23 47t49 13h485l-15 -82h-229l-40 -203l-8 -32h2q85 45 178 45q87 0 132 -39t45 -110q0 -20 -5 -57l-20 -101q-5 -27 -5 -28q0 -13 19 -13h43l-17 -86h-101q-53 0 -53 43q0 11 2 21l28 143q5 32 5 46q0 91 -101 91q-45 0 -91.5 -15t-76.5 -35
l-58 -294h-100l122 624h-112q-22 0 -26 -22z" />
    <glyph glyph-name="uni040C" unicode="&#x40c;" horiz-adv-x="612" 
d="M141 0h-100l113 579q4 20 4 25q0 16 -20 16h-41l17 86h95q58 0 58 -45q0 -21 -4 -36l-42 -216h67q40 0 58 24l210 273h117l-228 -293q-25 -31 -42 -42l-6 -4v-2q15 -13 25 -44l65 -211q7 -24 38 -24h32l-18 -86h-64q-33 0 -50.5 12.5t-26.5 40.5l-75 245q-7 25 -54 25
h-65zM443 755h-79l97 127h101z" />
    <glyph glyph-name="uni040D" unicode="&#x40d;" horiz-adv-x="763" 
d="M146 0h-105l116 598q4 22 -17 22h-43l17 86h101q34 0 46 -15t5 -49l-76 -387l-25 -101h2q39 58 76 102l396 450h105l-117 -598q-3 -22 18 -22h43l-17 -86h-100q-34 0 -46.5 15t-5.5 49l75 388l27 103h-2q-43 -66 -74 -103zM514 755h-72l-73 127h94z" />
    <glyph glyph-name="uni040E" unicode="&#x40e;" horiz-adv-x="612" 
d="M20 38l54 72q34 -33 74 -33q29 0 50.5 18t45.5 60l-131 443q-7 22 -29 22h-21l17 86h48q34 0 48 -11.5t23 -46.5l86 -305l21 -88h2q17 36 45 88l170 305q20 36 38 46q18 12 55 12h61l-17 -86h-16q-25 0 -37 -21l-280 -486q-72 -125 -174 -125q-35 0 -72 14t-61 36z
M388 739q-57 0 -95 29.5t-38 75.5q0 13 5 38h79q-5 -15 -5 -27q0 -24 16 -38.5t43 -14.5q34 0 57 20t29 60h77q-11 -72 -56 -107.5t-112 -35.5z" />
    <glyph glyph-name="uni040F" unicode="&#x40f;" horiz-adv-x="740" 
d="M55 67l98 511q5 22 5 26q0 16 -19 16h-43l18 86h101q53 0 53 -42v-3.5t-0.5 -5t-1 -6.5t-0.5 -7l-100 -513q-5 -25 -5 -27q0 -16 19 -16h299q22 0 26 22l104 534q7 34 25 49t52 15h101l-17 -86h-43q-22 0 -26 -22l-104 -534q-7 -34 -25 -49t-51 -15h-163l-27 -140h-90
l27 140h-162q-54 0 -54 43q0 12 3 24z" />
    <glyph glyph-name="uni0410" unicode="&#x410;" horiz-adv-x="664" 
d="M22 0h-68l17 86h18q23 0 33 22l338 598h105l105 -600q2 -12 7 -16t17 -4h18l-17 -86h-60q-32 0 -45 11.5t-18 46.5l-25 145h-259l-82 -145q-19 -35 -35.5 -46.5t-48.5 -11.5zM346 503l-118 -216h211l-36 216l-8 98h-2q-26 -61 -47 -98z" />
    <glyph glyph-name="uni0411" unicode="&#x411;" horiz-adv-x="595" 
d="M52 47q0 6 6 42l104 531h-65l17 86h413q53 0 53 -44q0 -4 -2 -20l-17 -89h-92l7 36q2 14 2 15q0 16 -18 16h-198l-40 -204h124q91 0 150 -43q60 -42 60 -130q0 -109 -82 -176q-80 -67 -194 -67h-175q-53 0 -53 47zM179 84h114q67 0 113 43t46 108q0 47 -29 72t-81 25
h-136l-40 -202q-5 -28 -5 -31q0 -15 18 -15z" />
    <glyph glyph-name="uni0412" unicode="&#x412;" horiz-adv-x="609" 
d="M52 45q0 9 5 37l105 538h-65l17 86h295q84 0 132 -40.5t48 -111.5q0 -62 -36 -111t-88 -70v-2q90 -38 90 -145q0 -78 -48 -135t-118 -79q-39 -12 -88 -12h-191q-58 0 -58 45zM262 620l-41 -211h142q52 0 88 37q36 38 36 90q0 40 -23 62t-68 22h-134zM162 101
q0 -15 18 -15h128q31 0 53 9q41 15 66 52t25 82q0 47 -27.5 72.5t-76.5 25.5h-143l-40 -203q-3 -13 -3 -23z" />
    <glyph glyph-name="uni0413" unicode="&#x413;" horiz-adv-x="514" 
d="M450 620h-189l-121 -620h-100l121 620h-65l18 86h400q56 0 56 -45q0 -1 -0.5 -5t-2 -13t-2.5 -18l-14 -72h-89l5 28q4 17 4 24q0 15 -21 15z" />
    <glyph glyph-name="uni0414" unicode="&#x414;" horiz-adv-x="728" 
d="M-70 -140l32 164q7 34 24 48t50 14h16q77 88 123.5 203.5t76.5 270.5l11 60h-63l17 86h412q56 0 56 -44q0 -14 -4 -37l-105 -539h23q52 0 52 -40q0 -10 -6 -39l-29 -147h-91l20 101q4 17 4 24q0 15 -17 15h-463q-21 0 -25 -22l-23 -118h-91zM162 86h314l96 493q4 20 4 26
q0 15 -20 15h-197l-12 -65q-62 -317 -185 -469z" />
    <glyph glyph-name="uni0415" unicode="&#x415;" horiz-adv-x="571" 
d="M52 45q0 9 5 37l105 538h-65l17 86h409q59 0 59 -45q0 -11 -5 -36l-14 -72h-91l6 28q3 17 3 24q0 15 -20 15h-199l-43 -221h247l-17 -86h-247l-37 -189q-3 -13 -3 -23q0 -15 18 -15h206q23 0 27 22l9 45h91l-18 -91q-6 -33 -23 -47.5t-50 -14.5h-312q-58 0 -58 45z" />
    <glyph glyph-name="uni0416" unicode="&#x416;" horiz-adv-x="887" 
d="M66 0h-115l250 324q25 33 47 43l7 4v2q-19 6 -32 43l-66 181q-8 23 -46 23h-17l17 86h44q42 0 56 -10q16 -9 28 -43l79 -218q6 -17 18 -22.5t37 -5.5h45l58 299h96l-58 -299h35q48 0 69 28l159 218q24 33 45 43t64 10h51l-16 -86h-16q-37 0 -54 -23l-138 -185
q-25 -33 -45 -42l-8 -4v-2q21 -10 35 -46l125 -318h-104l-114 297q-6 17 -18 23t-34 6h-52l-64 -326h-96l64 326h-46q-40 0 -63 -29z" />
    <glyph glyph-name="uni0417" unicode="&#x417;" horiz-adv-x="530" 
d="M-15 82l61 67q56 -72 153 -72q73 0 123 40q52 40 52 105q0 46 -30.5 70.5t-84.5 24.5h-94l16 82h78q58 0 105 38q47 39 47 97q0 44 -27.5 70t-80.5 26q-45 0 -80.5 -20t-41.5 -48l-5 -29h-92l11 55q7 45 48 77q69 53 176 53q85 0 141 -45q55 -43 55 -122
q0 -64 -37 -112.5t-99 -72.5v-2q96 -34 96 -140q0 -102 -81 -170q-81 -66 -191 -66q-66 0 -125 24.5t-93 69.5z" />
    <glyph glyph-name="uni0418" unicode="&#x418;" horiz-adv-x="763" 
d="M146 0h-105l116 598q4 22 -17 22h-43l17 86h101q34 0 46 -15t5 -49l-76 -387l-25 -101h2q39 58 76 102l396 450h105l-117 -598q-3 -22 18 -22h43l-17 -86h-100q-34 0 -46.5 15t-5.5 49l75 388l27 103h-2q-43 -66 -74 -103z" />
    <glyph glyph-name="uni0419" unicode="&#x419;" horiz-adv-x="763" 
d="M146 0h-105l116 598q4 22 -17 22h-43l17 86h101q34 0 46 -15t5 -49l-76 -387l-25 -101h2q39 58 76 102l396 450h105l-117 -598q-3 -22 18 -22h43l-17 -86h-100q-34 0 -46.5 15t-5.5 49l75 388l27 103h-2q-43 -66 -74 -103zM473 739q-57 0 -95 29.5t-38 75.5q0 13 5 38h79
q-5 -15 -5 -27q0 -24 16 -38.5t43 -14.5q34 0 57 20t29 60h77q-11 -72 -56 -107.5t-112 -35.5z" />
    <glyph glyph-name="uni041A" unicode="&#x41a;" horiz-adv-x="612" 
d="M141 0h-100l113 579q4 20 4 25q0 16 -20 16h-41l17 86h95q58 0 58 -45q0 -21 -4 -36l-42 -216h67q40 0 58 24l210 273h117l-228 -293q-25 -31 -42 -42l-6 -4v-2q15 -13 25 -44l65 -211q7 -24 38 -24h32l-18 -86h-64q-33 0 -50.5 12.5t-26.5 40.5l-75 245q-7 25 -54 25
h-65z" />
    <glyph glyph-name="uni041B" unicode="&#x41b;" horiz-adv-x="681" 
d="M-50 -8l18 91q86 12 146.5 124t102.5 334l15 79h-66l17 86h415q54 0 54 -41q0 -12 -6 -42l-96 -495q-5 -22 -5 -27q0 -15 19 -15h43l-17 -86h-101q-54 0 -54 42q0 6 6 42l97 494q4 17 4 27q0 15 -19 15h-195l-15 -79q-53 -271 -136 -406q-82 -135 -227 -143z" />
    <glyph glyph-name="uni041C" unicode="&#x41c;" horiz-adv-x="862" 
d="M57 0h-92l16 86h33q21 0 27 22l164 598h100l93 -375l17 -89h2q22 41 52 89l239 375h107l-66 -581l-2 -24q0 -15 17 -15h34l-17 -86h-82q-32 0 -46 11.5t-14 37.5q0 3 3 27l42 361l18 104h-2q-37 -73 -58 -104l-203 -310h-84l-82 310l-18 105h-2q-9 -54 -22 -105
l-102 -377q-9 -33 -25.5 -46.5t-46.5 -13.5z" />
    <glyph glyph-name="uni041D" unicode="&#x41d;" horiz-adv-x="757" 
d="M141 0h-100l113 579q4 20 4 26q0 15 -20 15h-41l17 86h95q58 0 58 -45q0 -21 -4 -36l-46 -229h360l49 249q7 33 23.5 47t49.5 14h104l-17 -86h-45q-20 0 -24 -22l-117 -598h-100l60 310h-359z" />
    <glyph glyph-name="uni041E" unicode="&#x41e;" horiz-adv-x="795" 
d="M40 296q0 112 60 209q62 99 160 155q100 58 211 58q136 0 221 -85q86 -84 86 -216q0 -113 -61 -213t-161 -158q-98 -58 -209 -58q-136 0 -222 86q-85 86 -85 222zM144 300q0 -95 59 -157q58 -61 153 -61q121 0 219 98q99 99 99 231q0 95 -59 154q-59 60 -152 60
q-124 0 -221 -97q-98 -96 -98 -228z" />
    <glyph glyph-name="uni041F" unicode="&#x41f;" horiz-adv-x="745" 
d="M140 0h-100l121 620h-65l18 86h548q54 0 54 -42q0 -2 -6 -38l-98 -503q0 -3 -1.5 -11.5t-1.5 -10.5q0 -15 18 -15h43l-17 -86h-99q-55 0 -55 41q0 12 5 37l98 504q4 17 4 24q0 14 -18 14h-327z" />
    <glyph glyph-name="uni0420" unicode="&#x420;" horiz-adv-x="588" 
d="M140 0h-100l121 620h-65l18 86h301q87 0 140 -50t53 -135q0 -76 -41 -138.5t-105 -94.5q-56 -27 -117 -27h-154zM261 620l-53 -273h130q69 0 118 46t49 119q0 108 -113 108h-131z" />
    <glyph glyph-name="uni0421" unicode="&#x421;" horiz-adv-x="693" 
d="M41 295q0 107 54 205q56 98 152 157q97 61 212 61q55 0 109 -14t94 -46q41 -33 41 -78q0 -17 -6 -44l-8 -40h-91l8 38q6 32 -22 54q-46 37 -128 37q-124 0 -219 -95q-93 -95 -93 -230q0 -98 57 -158q59 -60 157 -60q63 0 124 22.5t106 62.5l45 -78q-51 -47 -128 -74
t-158 -27q-135 0 -221 86q-85 85 -85 221z" />
    <glyph glyph-name="uni0422" unicode="&#x422;" horiz-adv-x="628" 
d="M307 0h-100l121 620h-142q-22 0 -26 -22l-9 -45h-89l18 96q6 32 20.5 44.5t46.5 12.5h483q56 0 56 -45q0 -11 -5 -36l-13 -72h-90l6 28q4 17 4 24q0 15 -21 15h-139z" />
    <glyph glyph-name="uni0423" unicode="&#x423;" horiz-adv-x="612" 
d="M20 38l54 72q34 -33 74 -33q29 0 50.5 18t45.5 60l-131 443q-7 22 -29 22h-21l17 86h48q34 0 48 -11.5t23 -46.5l86 -305l21 -88h2q17 36 45 88l170 305q20 36 38 46q18 12 55 12h61l-17 -86h-16q-25 0 -37 -21l-280 -486q-72 -125 -174 -125q-35 0 -72 14t-61 36z" />
    <glyph glyph-name="uni0424" unicode="&#x424;" horiz-adv-x="817" 
d="M40 324q0 152 111 247q113 97 281 98l16 81h99l-17 -81q125 0 201 -67q76 -66 76 -177q0 -151 -114 -249q-111 -96 -277 -98l-18 -90h-99l18 90q-125 0 -201 67t-76 179zM513 584l-81 -421q113 2 193 74q81 72 81 186q0 76 -51.5 118.5t-141.5 42.5zM141 327
q0 -77 51 -120.5t141 -43.5l82 421q-113 -1 -194 -73q-80 -71 -80 -184z" />
    <glyph glyph-name="uni0425" unicode="&#x425;" horiz-adv-x="594" 
d="M71 0h-114l294 367l-100 228q-10 25 -42 25h-25l17 86h55q35 0 53 -11t30 -43l55 -131l30 -82h2q23 36 59 82l104 131q24 31 44.5 42.5t53.5 11.5h68l-17 -86h-24q-32 0 -51 -25l-193 -235l157 -360h-109l-90 211l-30 77h-2q-22 -33 -58 -77z" />
    <glyph glyph-name="uni0426" unicode="&#x426;" horiz-adv-x="752" 
d="M52 41q0 15 5 37l98 506q3 18 3 21q0 15 -19 15h-43l18 86h101q53 0 53 -42q0 -11 -5 -36l-98 -505q-4 -16 -4 -23q0 -14 19 -14h322l121 620h100l-121 -620h20q53 0 53 -40q0 -4 -5 -36l-29 -150h-90l20 104q4 11 4 22q0 14 -17 14h-452q-54 0 -54 41z" />
    <glyph glyph-name="uni0427" unicode="&#x427;" horiz-adv-x="646" 
d="M103 421q0 27 6 58l21 107q0 3 0.5 7.5t1 7t0.5 3.5q0 16 -18 16h-43l17 86h101q53 0 53 -42v-3.5t-0.5 -5t-1 -6.5t-0.5 -7l-28 -144q-4 -19 -4 -43q0 -94 117 -94q76 0 162 53l57 292h100l-139 -706h-100l56 284l8 33h-2q-85 -46 -179 -46q-185 0 -185 150z" />
    <glyph glyph-name="uni0428" unicode="&#x428;" horiz-adv-x="1015" 
d="M56 76l100 516q2 10 2 12q0 16 -18 16h-43l17 86h101q54 0 54 -42q0 -11 -4 -28l-100 -516q0 -2 -2 -10l-2 -8q0 -16 19 -16h236l122 620h100l-122 -620h238q22 0 26 22l104 534q7 34 25 49t52 15h101l-17 -86h-43q-22 0 -26 -22l-104 -534q-7 -34 -25 -49t-52 -15h-690
q-53 0 -53 43q0 18 4 33z" />
    <glyph glyph-name="uni0429" unicode="&#x429;" horiz-adv-x="1030" 
d="M52 43q0 18 4 33l100 516q2 10 2 12q0 16 -18 16h-43l17 86h101q54 0 54 -42q0 -11 -4 -28l-100 -516q0 -2 -2 -10l-2 -8q0 -16 19 -16h237l121 620h100l-121 -620h259l120 620h100l-120 -620h28q52 0 52 -40q0 -17 -4 -34l-30 -153h-89l19 98q0 3 2.5 15t2.5 14
q0 14 -17 14h-734q-54 0 -54 43z" />
    <glyph glyph-name="uni042A" unicode="&#x42a;" horiz-adv-x="726" 
d="M195 64l108 556h-119q-23 0 -27 -22l-8 -45h-90l18 93q7 34 22.5 47t49.5 13h336l-17 -86h-65l-35 -184h136q88 0 141 -48t53 -135q0 -122 -83 -188q-83 -65 -199 -65h-170q-54 0 -54 43q0 9 3 21zM321 86h110q69 0 116 44q48 44 48 119q0 48 -29 74.5t-81 26.5h-134
l-45 -227l-4 -22q0 -15 19 -15z" />
    <glyph glyph-name="uni042B" unicode="&#x42b;" horiz-adv-x="856" 
d="M613 64l125 642h100l-115 -587q-3 -13 -3 -18q0 -15 18 -15h43l-17 -86h-100q-54 0 -54 43q0 9 3 21zM54 64l99 514q5 25 5 28q0 14 -19 14h-43l18 86h100q54 0 54 -42q0 -10 -3 -22l-39 -202h130q89 0 141.5 -47t52.5 -134q0 -115 -80 -187t-198 -72h-167q-54 0 -54 43
q0 11 3 21zM179 86h109q66 0 112 46q47 47 47 121q0 49 -27.5 75t-78.5 26h-131l-44 -228q-1 -6 -2.5 -12t-1.5 -9l-1 -3q0 -16 18 -16z" />
    <glyph glyph-name="uni042C" unicode="&#x42c;" horiz-adv-x="579" 
d="M54 64l99 514q5 25 5 28q0 14 -19 14h-43l18 86h100q54 0 54 -42q0 -10 -3 -22l-39 -202h130q89 0 141.5 -47t52.5 -134q0 -115 -80 -187t-198 -72h-167q-54 0 -54 43q0 11 3 21zM179 86h109q66 0 112 46q47 47 47 121q0 49 -27.5 75t-78.5 26h-131l-44 -228
q-1 -6 -2.5 -12t-1.5 -9l-1 -3q0 -16 18 -16z" />
    <glyph glyph-name="uni042D" unicode="&#x42d;" horiz-adv-x="697" 
d="M-7 97l57 67q31 -38 87.5 -62t118.5 -24q102 0 188 66q87 69 115 167h-368l15 82h371q9 100 -47 168q-55 67 -161 67q-63 0 -124 -24q-61 -22 -69 -64l-8 -39h-92l13 64q13 71 99 111q86 42 184 42q142 0 224 -87q83 -88 83 -219q0 -175 -126 -299q-127 -125 -298 -125
q-79 0 -148.5 28.5t-113.5 80.5z" />
    <glyph glyph-name="uni042E" unicode="&#x42e;" horiz-adv-x="1059" 
d="M141 0h-100l113 583q4 16 4 22q0 15 -18 15h-43l17 86h101q54 0 54 -42q0 -10 -3 -22l-48 -246h119q35 137 151 229q117 93 257 93q131 0 214 -84q83 -85 83 -217q0 -171 -128 -301q-128 -128 -293 -128q-139 0 -220 92t-76 230h-124zM428 300q0 -95 56 -157
q55 -61 146 -61q118 0 213 98q95 100 95 231q0 95 -56 154q-56 60 -146 60q-120 0 -214 -97q-94 -95 -94 -228z" />
    <glyph glyph-name="uni042F" unicode="&#x42f;" horiz-adv-x="624" 
d="M17 0h-53l17 86h12q38 0 56 23l118 150q19 25 35 35l6 3v2q-31 12 -67 45q-43 43 -43 119q0 107 78 174q78 69 185 69h310l-16 -86h-65l-122 -620h-100l53 271h-81q-29 0 -43 -7.5t-35 -34.5l-136 -176q-26 -33 -47 -43t-62 -10zM314 357h124l52 263h-125q-69 0 -116 -43
q-48 -43 -48 -110q0 -53 30.5 -81.5t82.5 -28.5z" />
    <glyph glyph-name="uni0430" unicode="&#x430;" horiz-adv-x="529" 
d="M-4 121q0 106 109 152q97 42 230 42h25l2 12q4 17 4 39q0 75 -90 75q-89 0 -95 -39l-5 -29h-92l10 51q10 48 66 71q58 23 128 23q175 0 175 -143q0 -24 -7 -59l-37 -197q-4 -12 -4 -21q0 -15 18 -15h42l-17 -83h-85q-55 0 -55 41q0 25 10 55h-2q1 0 -6.5 -11t-22.5 -27
t-35.5 -32t-52.5 -27t-66 -11q-65 0 -106 35.5t-41 97.5zM94 135q0 -33 21 -52.5t56 -19.5q61 0 111 53q51 55 61 111l4 18h-25q-80 0 -145 -19q-83 -24 -83 -91z" />
    <glyph glyph-name="uni0431" unicode="&#x431;" horiz-adv-x="571" 
d="M35 216q0 100 39 207q28 73 75.5 119.5t131.5 81.5l119 49q39 15 52 25t17 28l6 24h93l-9 -43q-6 -34 -26 -57q-19 -22 -38 -32q-10 -5 -60 -25l-128 -52q-128 -51 -154 -167h1q71 86 178 86q90 0 141 -53t51 -144q0 -121 -84 -198q-85 -77 -202 -77q-100 0 -151.5 61.5
t-51.5 166.5zM131 197q0 -61 32 -93.5t85 -32.5q70 0 124 51q55 52 55 132q0 59 -32 91t-86 32q-47 0 -89.5 -25.5t-66.5 -68.5q-22 -38 -22 -86z" />
    <glyph glyph-name="uni0432" unicode="&#x432;" horiz-adv-x="521" 
d="M38 55l71 368h-63l16 83h264q72 0 113 -29t41 -82q0 -46 -27 -81t-70 -50v-2q35 -10 55 -37.5t20 -63.5q0 -73 -60 -117q-59 -44 -149 -44h-167q-46 0 -46 36q0 9 2 19zM156 69h85q56 0 88 26t32 71q0 62 -89 62h-103l-25 -124q-4 -17 -4 -22q0 -13 16 -13zM209 437
l-29 -144h97q47 0 75 25t28 67q0 52 -78 52h-93z" />
    <glyph glyph-name="uni0433" unicode="&#x433;" horiz-adv-x="440" 
d="M124 0h-96l82 423h-63l16 83h336q54 0 54 -40v-3.5t-0.5 -5t-1 -6.5t-0.5 -7l-15 -77h-81l5 27q0 3 0.5 6.5t1.5 5.5v3q0 14 -18 14h-137z" />
    <glyph glyph-name="uni0434" unicode="&#x434;" horiz-adv-x="588" 
d="M-71 -120l27 138q14 63 73 63h6q98 98 144 314l5 28h-61l17 83h336q34 0 46 -15t6 -49l-71 -361h17q61 0 49 -63l-27 -138h-89l19 98q3 22 -17 22h-347q-20 -1 -25 -22l-18 -98h-90zM138 81h222l63 320q4 22 -18 22h-129l-5 -28q-43 -214 -133 -314z" />
    <glyph glyph-name="uni0435" unicode="&#x435;" horiz-adv-x="538" 
d="M21 203q0 130 85 222q86 93 210 93q92 0 142 -50.5t50 -136.5q0 -36 -12 -77l-3 -13h-369q-4 -15 -4 -36q0 -60 38.5 -96.5t105.5 -36.5q36 0 76.5 13.5t63.5 30.5l21 14l28 -75q-23 -17 -27 -19q-16 -10 -68 -30q-51 -18 -100 -18q-109 0 -173 60t-64 155zM139 310h269
q3 15 3 29q0 48 -26.5 75t-71.5 27q-57 0 -104.5 -35.5t-69.5 -95.5z" />
    <glyph glyph-name="uni0436" unicode="&#x436;" horiz-adv-x="746" 
d="M72 0h-113l161 208q30 37 56 46l9 3l1 2q-18 7 -28 40l-31 104q-6 20 -42 20h-29l16 83h58q36 0 51 -9t25 -38l39 -131q9 -29 53 -29h33l40 207h93l-40 -207h29q40 0 60 29l90 131q20 29 40.5 38t58.5 9h60l-16 -83h-25q-35 0 -49 -20l-71 -104q-20 -31 -43 -37l-7 -3v-2
l3 -1q26 -10 38 -48l81 -208h-101l-66 176q-15 40 -64 40h-34l-42 -216h-94l43 216h-31q-47 0 -77 -40z" />
    <glyph glyph-name="uni0437" unicode="&#x437;" horiz-adv-x="439" 
d="M-20 62l49 61q10 -12 22 -21q15 -13 45 -24t60 -11q52 0 87.5 27.5t35.5 73.5q0 58 -90 58h-64l13 68h51q53 0 86 25t33 69q0 27 -21 41.5t-58 14.5q-35 0 -61.5 -12.5t-29.5 -35.5l-4 -23h-81l8 47q9 46 58.5 72t118.5 26q78 0 122.5 -31t44.5 -88q0 -51 -28.5 -86.5
t-72.5 -48.5v-2q71 -23 71 -99q0 -81 -66 -128q-67 -47 -151 -47q-112 0 -178 74z" />
    <glyph glyph-name="uni0438" unicode="&#x438;" horiz-adv-x="619" 
d="M123 0h-96l76 387l3 21q0 15 -18 15h-40l16 83h90q53 0 53 -41q0 -10 -3 -22l-46 -235q-2 -10 -6 -27l-7 -29l-3 -12h2q12 19 60 70l276 296h95l-75 -384q-4 -16 -4 -24q0 -15 18 -15h40l-16 -83h-90q-53 0 -53 42q0 3 2 21l45 236q4 18 17 67h-2q-27 -36 -60 -69z" />
    <glyph glyph-name="uni0439" unicode="&#x439;" horiz-adv-x="619" 
d="M123 0h-96l76 387l3 21q0 15 -18 15h-40l16 83h90q53 0 53 -41q0 -10 -3 -22l-46 -235q-2 -10 -6 -27l-7 -29l-3 -12h2q12 19 60 70l276 296h95l-75 -384q-4 -16 -4 -24q0 -15 18 -15h40l-16 -83h-90q-53 0 -53 42q0 3 2 21l45 236q4 18 17 67h-2q-27 -36 -60 -69z
M374 564q-57 0 -95 29.5t-38 75.5q0 13 5 38h79q-5 -15 -5 -27q0 -24 16 -38.5t43 -14.5q34 0 57 20t29 60h77q-11 -72 -56 -107.5t-112 -35.5z" />
    <glyph glyph-name="uni043A" unicode="&#x43a;" horiz-adv-x="533" 
d="M125 0h-97l75 388q3 18 3 20q0 15 -18 15h-40l15 83h94q56 0 56 -44q0 -12 -3 -24l-25 -131h43q33 0 53 23l154 176h114l-178 -203q-24 -29 -41 -35l-5 -3v-2q16 -7 29 -38l50 -122q4 -12 12.5 -16t28.5 -4h30l-16 -83h-68q-35 0 -48.5 8.5t-24.5 38.5l-60 157
q-8 20 -46 20h-43z" />
    <glyph glyph-name="uni043B" unicode="&#x43b;" horiz-adv-x="545" 
d="M-44 -3l16 86q39 3 73 43q71 80 105 258l7 39h-63l16 83h326q55 0 55 -42v-3.5t-0.5 -5t-1 -6.5t-0.5 -7l-65 -330l-2 -10v-3q0 -16 19 -16h41l-16 -83h-96q-54 0 -54 43q0 9 3 21l63 330q0 2 2 8l1 5q0 16 -19 16h-116l-8 -40q-46 -233 -147 -330q-62 -56 -139 -56z" />
    <glyph glyph-name="uni043C" unicode="&#x43c;" horiz-adv-x="727" 
d="M37 0h-76l16 83h25q17 0 23 19l114 404h101l76 -290l13 -64h2l39 64l187 290h112l-43 -388q-1 -8 -1 -21q0 -14 15 -14h26l-17 -83h-74q-45 0 -45 37q0 2 2 24l27 233l15 92h-2q-16 -32 -46 -78l-166 -247h-87l-71 247q-11 44 -12 68l-1 12h-2q-10 -61 -18 -94l-66 -239
q-8 -30 -22.5 -42.5t-43.5 -12.5z" />
    <glyph glyph-name="uni043D" unicode="&#x43d;" horiz-adv-x="620" 
d="M124 0h-96l74 383q1 6 2.5 12.5t1.5 9.5l1 3q0 15 -19 15h-41l16 83h96q54 0 54 -42q0 -10 -3 -22l-27 -143h256l40 207h97l-75 -383q-4 -20 -4 -26q0 -14 18 -14h41l-16 -83h-96q-54 0 -54 42q0 12 3 25l30 151h-256z" />
    <glyph glyph-name="uni043E" unicode="&#x43e;" horiz-adv-x="611" 
d="M20 211q0 129 96 217q98 90 224 90q104 0 169 -62t65 -159q0 -129 -97 -219t-223 -90q-102 0 -169 62q-65 62 -65 161zM119 215q0 -64 40 -103.5t104 -39.5q82 0 146 64q66 64 66 156q0 63 -39.5 102.5t-102.5 39.5q-84 0 -149 -64q-65 -65 -65 -155z" />
    <glyph glyph-name="uni043F" unicode="&#x43f;" horiz-adv-x="608" 
d="M124 0h-96l82 423h-63l16 83h437q54 0 54 -42q0 -10 -3 -22l-62 -322q-4 -17 -4 -22q0 -15 19 -15h40l-16 -83h-95q-54 0 -54 42q0 12 3 25l63 323q0 3 0.5 7t1.5 7l1 3q0 16 -19 16h-222z" />
    <glyph glyph-name="uni0440" unicode="&#x440;" horiz-adv-x="603" 
d="M85 -200h-96l113 583q3 17 3 25q0 15 -17 15h-41l16 83h91q52 0 52 -37q0 -21 -10 -48h2q64 97 179 97q89 0 138.5 -56t49.5 -156q0 -135 -84 -227q-82 -91 -192 -91q-52 0 -92 23t-58 65h-2q-1 -12 -7 -47zM166 204q0 -59 29 -95.5t82 -36.5q71 0 130 63q59 65 59 164
q0 65 -30 99.5t-84 34.5q-76 0 -131 -70t-55 -159z" />
    <glyph glyph-name="uni0441" unicode="&#x441;" horiz-adv-x="525" 
d="M21 212q0 125 90 215q91 91 216 91q42 0 83 -9.5t73 -38.5t24 -71l-8 -44h-86l4 21q4 28 -27 43q-31 16 -70 16q-79 0 -140 -64q-60 -63 -60 -150q0 -67 38 -107t109 -40q42 0 83.5 14.5t61.5 31.5l18 15l28 -77q-8 -8 -33 -24q-68 -46 -168 -46q-110 0 -174 62
q-62 62 -62 162z" />
    <glyph glyph-name="uni0442" unicode="&#x442;" horiz-adv-x="529" 
d="M256 0h-97l82 423h-97q-23 0 -27 -22l-6 -34h-81l14 77q7 33 25 47.5t53 14.5h368q54 0 54 -41q0 -11 -3 -21l-14 -77h-81l4 23q3 15 3 18q0 15 -18 15h-97z" />
    <glyph glyph-name="uni0443" unicode="&#x443;" horiz-adv-x="543" 
d="M32 -210q-29 0 -57.5 12t-42.5 26l-12 12l41 69q36 -36 74 -36q56 0 100 74l36 57l-95 399q-3 12 -8.5 16t-18.5 4h-12l16 83h65q23 0 33.5 -11.5t16.5 -39.5l59 -285l6 -61h2q15 35 29 61l161 285q17 30 35 40.5t49 10.5h62l-17 -83h-12q-25 0 -36 -20l-297 -497
q-71 -116 -177 -116z" />
    <glyph glyph-name="uni0444" unicode="&#x444;" horiz-adv-x="735" 
d="M22 211q0 128 95 211q95 82 243 84l17 86q0 3 0.5 6t1 5t0.5 3v2q0 15 -18 15h-41l16 83h95q55 0 55 -42v-3.5t-0.5 -5t-1 -6.5t-0.5 -7l-27 -136q107 -2 172 -58q67 -57 67 -151q0 -130 -95 -213t-242 -84l-39 -200h-97l38 200q-108 2 -173 58q-66 58 -66 153zM441 426
l-67 -345q91 1 157 60t66 152q0 61 -41 97t-115 36zM121 215q0 -63 41 -98.5t115 -35.5l67 345q-92 -2 -158 -60q-65 -59 -65 -151z" />
    <glyph glyph-name="uni0445" unicode="&#x445;" horiz-adv-x="504" 
d="M75 0h-112l226 265l-73 139q-10 19 -40 19h-29l17 83h62q29 0 43.5 -11t29.5 -42l46 -95l11 -31h2q12 20 22 31l77 95q27 33 43 43t51 10h72l-16 -83h-29q-32 0 -47 -18l-129 -149l124 -256h-102l-80 164l-11 28h-2q-7 -12 -19 -28z" />
    <glyph glyph-name="uni0446" unicode="&#x446;" horiz-adv-x="605" 
d="M36 41q0 9 3 22l62 320q4 15 4 24q0 16 -18 16h-41l16 83h96q54 0 54 -42q0 -10 -3 -22l-62 -318q-4 -21 -4 -27q0 -16 17 -16h216l83 425h97l-83 -425h16q52 0 52 -41q0 -10 -3 -22l-26 -138h-90l17 85q0 2 1.5 10.5t1.5 9.5q0 15 -17 15h-335q-54 0 -54 41z" />
    <glyph glyph-name="uni0447" unicode="&#x447;" horiz-adv-x="537" 
d="M73 423h-36l16 83h91q53 0 53 -42q0 -1 -0.5 -4t-1 -8.5t-0.5 -10.5l-17 -86q-4 -13 -4 -32q0 -63 81 -63q60 0 120 36l41 210h97l-99 -506h-97l36 181l8 32h-2q-72 -35 -142 -35q-69 0 -106.5 30.5t-37.5 84.5q0 20 4 35l12 62q0 3 0.5 7.5t1.5 7.5l1 3q0 15 -19 15z
" />
    <glyph glyph-name="uni0448" unicode="&#x448;" horiz-adv-x="828" 
d="M36 42q0 9 3 21l61 321q1 4 2 10t2 10l1 4q0 15 -19 15h-40l16 83h95q54 0 54 -42v-3.5t-0.5 -5t-1 -6.5t-0.5 -7l-62 -321q-1 -4 -2 -10t-2 -10t-1 -5q0 -15 18 -15h163l83 425h96l-83 -425h166q22 0 26 22l65 339q7 34 25 49t52 15h95l-16 -83h-41q-23 0 -27 -22
l-64 -338q-8 -33 -26 -48t-51 -15h-533q-54 0 -54 42z" />
    <glyph glyph-name="uni0449" unicode="&#x449;" horiz-adv-x="838" 
d="M36 42q0 9 3 21l61 321q1 4 2 10t2 10l1 4q0 15 -19 15h-40l16 83h95q54 0 54 -42v-3.5t-0.5 -5t-1 -6.5t-0.5 -7l-62 -321q-5 -22 -5 -25q0 -15 18 -15h163l83 425h96l-83 -425h187l82 425h98l-83 -425h21q52 0 52 -40q0 -10 -3 -20l-27 -141h-89l16 83q4 17 4 23
q0 14 -19 14h-568q-54 0 -54 42z" />
    <glyph glyph-name="uni044A" unicode="&#x44a;" horiz-adv-x="596" 
d="M141 36q0 1 2 19l65 335l4 22q0 16 -19 16h-54q-21 0 -25 -22l-7 -38h-78l14 76q7 33 25 47.5t52 14.5h145q53 0 53 -41q0 -5 -2 -21l-24 -122h101q76 0 117.5 -35t41.5 -95q0 -88 -60 -140q-58 -52 -148 -52h-156q-47 0 -47 36zM262 70h76q52 0 83.5 32t31.5 83
q0 31 -20 49t-59 18h-95l-29 -147l-2 -10t-2 -8v-3q0 -14 16 -14z" />
    <glyph glyph-name="uni044B" unicode="&#x44b;" horiz-adv-x="726" 
d="M498 64l86 442h97l-78 -401q-4 -22 17 -22h41l-16 -83h-96q-33 0 -45.5 15t-5.5 49zM36 36q0 9 2 19l63 331q5 20 5 22q0 15 -19 15h-41l16 83h96q55 0 55 -41q0 -3 -3 -21l-24 -122h96q77 0 119 -35t42 -95q0 -88 -60 -140q-59 -52 -149 -52h-152q-46 0 -46 36zM156 70
h73q51 0 83 32t32 83q0 31 -20.5 49t-59.5 18h-91l-29 -147l-2 -10t-2 -8v-3q0 -14 16 -14z" />
    <glyph glyph-name="uni044C" unicode="&#x44c;" horiz-adv-x="490" 
d="M38 55l63 331q5 20 5 22q0 15 -19 15h-41l16 83h96q55 0 55 -41q0 -3 -3 -21l-24 -122h100q77 0 118.5 -35t41.5 -95q0 -88 -60 -140q-58 -52 -148 -52h-156q-46 0 -46 36q0 9 2 19zM156 70h76q52 0 84 32t32 83q0 31 -20.5 49t-59.5 18h-95l-29 -147l-2 -10t-2 -8v-3
q0 -14 16 -14z" />
    <glyph glyph-name="uni044D" unicode="&#x44d;" horiz-adv-x="529" 
d="M-17 65l43 66q24 -29 64.5 -46.5t85.5 -17.5q72 0 128 43q58 44 81 108h-237l13 68h238q4 69 -37 111t-108 42q-38 0 -76 -15q-37 -15 -41 -39l-4 -24h-83l8 42q10 52 68 83q59 32 135 32q105 0 168 -63t63 -162q0 -123 -91 -214t-222 -91q-58 0 -111.5 20t-84.5 57z" />
    <glyph glyph-name="uni044E" unicode="&#x44e;" horiz-adv-x="831" 
d="M259 213v4h-92l-43 -217h-97l75 387q4 18 4 21q0 15 -19 15h-40l16 83h96q53 0 53 -42v-3.5t-0.5 -5t-1 -6.5t-0.5 -7l-29 -148h89q29 98 111 161q84 63 186 63q98 0 162 -62q64 -61 64 -161q0 -127 -94 -217q-93 -90 -216 -90q-98 0 -162 62q-62 62 -62 163zM358 217
q0 -65 37 -105t96 -40q80 0 141 64q62 65 62 154q0 65 -37.5 104.5t-97.5 39.5q-79 0 -140 -64t-61 -153z" />
    <glyph glyph-name="uni044F" unicode="&#x44f;" horiz-adv-x="525" 
d="M18 0h-50l16 84h15q31 0 47 19l69 79q14 15 31 26l1 2q-37 9 -60 41t-23 77q0 81 57 129q56 49 140 49h284l-16 -83h-63l-82 -423h-97l36 184h-57q-19 0 -29.5 -6t-30.5 -28l-87 -103q-25 -29 -46 -39q-21 -8 -55 -8zM250 254h86l36 185h-92q-52 0 -85 -31.5t-33 -79.5
q0 -35 23.5 -54.5t64.5 -19.5z" />
    <glyph glyph-name="uni0450" unicode="&#x450;" horiz-adv-x="540" 
d="M21 203q0 130 85 222q86 93 210 93q92 0 142 -50.5t50 -136.5q0 -36 -12 -77l-3 -13h-369q-4 -15 -4 -36q0 -60 38.5 -96.5t105.5 -36.5q36 0 76.5 13.5t63.5 30.5l21 14l28 -75q-23 -17 -27 -19q-16 -10 -68 -30q-51 -18 -100 -18q-109 0 -173 60t-64 155zM139 310h269
q3 15 3 29q0 48 -26.5 75t-71.5 27q-57 0 -104.5 -35.5t-69.5 -95.5zM391 580h-72l-73 127h94z" />
    <glyph glyph-name="uni0451" unicode="&#x451;" horiz-adv-x="540" 
d="M21 203q0 130 85 222q86 93 210 93q92 0 142 -50.5t50 -136.5q0 -36 -12 -77l-3 -13h-369q-4 -15 -4 -36q0 -60 38.5 -96.5t105.5 -36.5q36 0 76.5 13.5t63.5 30.5l21 14l28 -75q-23 -17 -27 -19q-16 -10 -68 -30q-51 -18 -100 -18q-109 0 -173 60t-64 155zM139 310h269
q3 15 3 29q0 48 -26.5 75t-71.5 27q-57 0 -104.5 -35.5t-69.5 -95.5zM460 606h-74l20 101h74zM295 606h-73l20 101h73z" />
    <glyph glyph-name="uni0452" unicode="&#x452;" horiz-adv-x="584" 
d="M106 0h-96l107 553h-62l14 71h62l16 82h97l-16 -82h207l-14 -71h-207l-31 -163l-13 -44h2q22 42 80 79q57 36 125 36q71 0 110 -34t39 -100q0 -24 -8 -64l-53 -275q-11 -60 -38 -103t-63 -61q-62 -33 -122 -33l-43 3l17 83q16 -2 28 -2q103 0 126 122l47 245q7 32 7 57
q0 73 -75 73q-72 0 -133 -59q-60 -58 -76 -139z" />
    <glyph glyph-name="uni0453" unicode="&#x453;" horiz-adv-x="440" 
d="M124 0h-96l82 423h-63l16 83h336q54 0 54 -40v-3.5t-0.5 -5t-1 -6.5t-0.5 -7l-15 -77h-81l5 27q0 3 0.5 6.5t1.5 5.5v3q0 14 -18 14h-137zM317 580h-79l97 127h101z" />
    <glyph glyph-name="uni0454" unicode="&#x454;" horiz-adv-x="529" 
d="M21 211q0 123 92 215t228 92q56 0 113 -26q56 -26 56 -73q0 -9 -1 -12l-9 -46h-82l2 15q3 12 3 17q0 21 -28.5 34.5t-64.5 13.5q-69 0 -124 -42t-79 -110h242l-12 -67h-244q-4 -69 38.5 -111.5t115.5 -42.5q92 0 169 68l32 -72q-35 -32 -96 -55q-60 -21 -116 -21
q-107 0 -172 62q-63 62 -63 161z" />
    <glyph glyph-name="uni0455" unicode="&#x455;" horiz-adv-x="450" 
d="M-6 65l-7 9l49 64q8 -11 24 -25q57 -46 127 -46q45 0 72.5 19t27.5 51q0 21 -15 37q-13 14 -25.5 21t-47.5 21q-53 20 -95 50q-48 36 -48 100q0 72 57 112q58 40 140 40q69 0 125 -29q55 -28 44 -81l-8 -36h-85l3 19q4 21 -18.5 35.5t-62.5 14.5q-44 0 -70.5 -19
t-26.5 -49q0 -21 15 -38q10 -11 21.5 -18.5t19.5 -11t36 -14.5q6 -2 7 -3q58 -23 90 -48q45 -30 45 -94q0 -69 -57 -114q-56 -44 -145 -44q-71 0 -121.5 25.5t-70.5 51.5z" />
    <glyph glyph-name="uni0456" unicode="&#x456;" horiz-adv-x="265" 
d="M234 605h-88l20 101h88zM38 46q0 14 3 25l61 315q3 15 3 22q0 15 -18 15h-41l16 83h93q56 0 56 -44q0 -11 -4 -31l-61 -317q-3 -15 -3 -16q0 -15 19 -15h40l-15 -83h-93q-56 0 -56 46z" />
    <glyph glyph-name="uni0457" unicode="&#x457;" horiz-adv-x="265" 
d="M38 46q0 14 3 25l61 315q3 15 3 22q0 15 -18 15h-41l16 83h93q56 0 56 -44q0 -11 -4 -31l-61 -317q-3 -15 -3 -16q0 -15 19 -15h40l-15 -83h-93q-56 0 -56 46zM288 605h-73l20 101h74zM149 605h-74l21 101h73z" />
    <glyph glyph-name="uni0458" unicode="&#x458;" horiz-adv-x="246" 
d="M235 605h-87l19 101h87zM27 -5l76 391q3 15 3 22q0 15 -18 15h-40l16 83h92q57 0 57 -44q0 -9 -4 -30l-87 -450q-17 -93 -75 -140q-22 -19 -53 -30q-45 -18 -94 -18l-41 2l17 83q10 -2 21 -2q108 0 130 118z" />
    <glyph glyph-name="uni0459" unicode="&#x459;" horiz-adv-x="742" 
d="M-47 -5l16 87q42 1 80 44q68 80 104 262l7 35h-63l16 83h299q54 0 54 -40q0 -15 -1 -18l-26 -130h99q76 0 118 -35.5t42 -97.5q0 -82 -58 -134q-58 -51 -159 -51h-146q-46 0 -46 37q0 2 2 18l65 332q4 17 4 24q0 16 -19 16h-89l-6 -36q-43 -227 -135 -328
q-65 -68 -158 -68zM410 70h73q53 0 86.5 30t33.5 76q0 71 -87 71h-91l-27 -139q-4 -17 -4 -24q0 -14 16 -14z" />
    <glyph glyph-name="uni045A" unicode="&#x45a;" horiz-adv-x="819" 
d="M125 0h-97l74 380q1 7 2.5 14t2 10t0.5 4q0 15 -19 15h-40l16 83h96q53 0 53 -42v-3.5t-0.5 -5t-1 -6.5t-0.5 -7l-25 -128h237l37 192h97l-37 -191h94q77 0 120 -36t43 -96q0 -80 -61 -132q-62 -51 -152 -51h-147q-47 0 -47 36q0 1 2 19l36 182h-237zM491 70h72
q51 0 84.5 30t33.5 78q0 64 -84 64h-91l-26 -134l-2 -8t-1.5 -6.5l-1 -5t-0.5 -3.5v-2q0 -13 16 -13z" />
    <glyph glyph-name="uni045B" unicode="&#x45b;" horiz-adv-x="605" 
d="M106 0h-96l107 553h-63l15 71h62l16 82h97l-16 -82h207l-14 -71h-207l-31 -161q-5 -23 -11 -38l-1 -6h2q25 43 80 78q56 35 122 35q151 0 151 -131q0 -27 -7 -65l-28 -143q-4 -20 -4 -23q0 -16 19 -16h40l-16 -83h-95q-55 0 -55 43q0 9 3 21l35 181q6 29 6 54
q0 73 -75 73q-77 0 -135 -58q-59 -59 -74 -140z" />
    <glyph glyph-name="uni045C" unicode="&#x45c;" horiz-adv-x="533" 
d="M125 0h-97l75 388q3 18 3 20q0 15 -18 15h-40l15 83h94q56 0 56 -44q0 -12 -3 -24l-25 -131h43q33 0 53 23l154 176h114l-178 -203q-24 -29 -41 -35l-5 -3v-2q16 -7 29 -38l50 -122q4 -12 12.5 -16t28.5 -4h30l-16 -83h-68q-35 0 -48.5 8.5t-24.5 38.5l-60 157
q-8 20 -46 20h-43zM366 580h-79l97 127h101z" />
    <glyph glyph-name="uni045D" unicode="&#x45d;" horiz-adv-x="619" 
d="M123 0h-96l76 387l3 21q0 15 -18 15h-40l16 83h90q53 0 53 -41q0 -10 -3 -22l-46 -235q-2 -10 -6 -27l-7 -29l-3 -12h2q12 19 60 70l276 296h95l-75 -384q-4 -16 -4 -24q0 -15 18 -15h40l-16 -83h-90q-53 0 -53 42q0 3 2 21l45 236q4 18 17 67h-2q-27 -36 -60 -69z
M421 580h-72l-73 127h94z" />
    <glyph glyph-name="uni045E" unicode="&#x45e;" horiz-adv-x="543" 
d="M32 -210q-29 0 -57.5 12t-42.5 26l-12 12l41 69q36 -36 74 -36q56 0 100 74l36 57l-95 399q-3 12 -8.5 16t-18.5 4h-12l16 83h65q23 0 33.5 -11.5t16.5 -39.5l59 -285l6 -61h2q15 35 29 61l161 285q17 30 35 40.5t49 10.5h62l-17 -83h-12q-25 0 -36 -20l-297 -497
q-71 -116 -177 -116zM328 565q-57 0 -95 29.5t-38 75.5q0 13 5 38h79q-5 -15 -5 -27q0 -24 16 -38.5t43 -14.5q34 0 57 20t29 60h77q-11 -72 -56 -107.5t-112 -35.5z" />
    <glyph glyph-name="uni045F" unicode="&#x45f;" horiz-adv-x="590" 
d="M39 63l62 318q4 21 4 26q0 16 -18 16h-41l16 83h96q54 0 54 -42q0 -10 -3 -22l-62 -318q-5 -25 -5 -27q0 -16 18 -16h187q22 0 26 22l66 339q10 64 77 64h95l-17 -83h-40q-22 0 -26 -22l-66 -338q-7 -34 -24.5 -48.5t-51.5 -14.5h-104l-24 -120h-87l24 120h-105
q-54 0 -54 41q0 9 3 22z" />
    <glyph glyph-name="uni0462" unicode="&#x462;" horiz-adv-x="674" 
d="M140 64l90 461h-177l16 86h177l19 95h100l-18 -95h193l-17 -86h-193l-22 -111h131q93 0 149.5 -42t56.5 -123q0 -109 -81 -180q-80 -69 -186 -69h-186q-54 0 -54 43q0 11 2 21zM266 84h116q67 0 113 43q47 44 47 114q0 43 -29.5 66t-82.5 23h-138l-42 -214
q0 -2 -1.5 -8.5t-1.5 -7.5q0 -16 19 -16z" />
    <glyph glyph-name="uni0463" unicode="&#x463;" horiz-adv-x="534" 
d="M80 36q0 9 2 19l78 404h-121l14 73h121l34 174h97l-34 -174h165l-14 -73h-165l-27 -134h99q77 0 120.5 -36.5t43.5 -100.5q0 -77 -62 -133q-61 -55 -151 -55h-155q-45 0 -45 36zM200 70h75q51 0 85.5 33t34.5 82q0 33 -21.5 51.5t-62.5 18.5h-94l-28 -145q-5 -22 -5 -27
q0 -13 16 -13z" />
    <glyph glyph-name="uni0472" unicode="&#x472;" horiz-adv-x="795" 
d="M40 296q0 112 60 209q62 99 160 155q100 58 211 58q136 0 221 -85q86 -84 86 -216q0 -113 -61 -213t-161 -158q-98 -58 -209 -58q-136 0 -222 86q-85 86 -85 222zM144 317v-17q0 -95 59 -157q58 -61 153 -61q98 0 184 67q88 68 119 168h-515zM463 625q-97 0 -185 -65
q-86 -65 -119 -164h514q0 1 0.5 7t0.5 8q0 95 -59 154q-59 60 -152 60z" />
    <glyph glyph-name="uni0473" unicode="&#x473;" horiz-adv-x="611" 
d="M20 211q0 129 96 217q98 90 224 90q104 0 169 -62t65 -159q0 -129 -97 -219t-223 -90q-102 0 -169 62q-65 62 -65 161zM113 225v-10q0 -67 41.5 -108t108.5 -41q66 0 126 45q59 45 82 114h-358zM333 441q-68 0 -126 -43t-82 -111h357v5q0 66 -41.5 107.5t-107.5 41.5z
" />
    <glyph glyph-name="uni0474" unicode="&#x474;" horiz-adv-x="689" 
d="M322 0h-106l-124 706h106l79 -493l8 -97h2q23 53 46 97l220 414q27 51 53 65t80 14h73l-17 -87h-23q-36 0 -50 -8q-13 -7 -30 -39z" />
    <glyph glyph-name="uni0475" unicode="&#x475;" horiz-adv-x="559" 
d="M259 0h-108l-97 506h98l61 -342l5 -67h2q17 41 31 67l134 250q28 52 60.5 72t86.5 20h59l-17 -85h-26q-33 0 -49.5 -11t-34.5 -44z" />
    <glyph glyph-name="uni048A" unicode="&#x48a;" horiz-adv-x="793" 
d="M146 0h-105l116 598q4 22 -17 22h-43l17 86h101q34 0 46 -15t5 -49l-76 -387l-25 -101h2q39 58 76 102l396 450h105l-117 -598q-3 -22 18 -22h89l-12 -57l-105 -169h-77l67 140h-36q-34 0 -46.5 15t-5.5 49l75 388l27 103h-2q-43 -66 -74 -103zM483 739q-57 0 -95 29.5
t-38 75.5q0 13 5 38h79q-5 -15 -5 -27q0 -24 16 -38.5t43 -14.5q34 0 57 20t29 60h77q-11 -72 -56 -107.5t-112 -35.5z" />
    <glyph glyph-name="uni048B" unicode="&#x48b;" horiz-adv-x="645" 
d="M123 0h-96l76 387l3 21q0 15 -18 15h-40l16 83h90q53 0 53 -41q0 -10 -3 -22l-46 -235q-2 -10 -6 -27l-7 -29l-3 -12h2q12 19 60 70l276 296h95l-75 -384q-4 -16 -4 -24q0 -14 13 -15h78l-11 -55l-90 -148h-73l56 120h-21q-53 0 -53 42q0 3 2 21l45 236q4 18 17 67h-2
q-27 -36 -60 -69zM372 564q-57 0 -95 29.5t-38 75.5q0 13 5 38h79q-5 -15 -5 -27q0 -24 16 -38.5t43 -14.5q34 0 57 20t29 60h77q-11 -72 -56 -107.5t-112 -35.5z" />
    <glyph glyph-name="uni048C" unicode="&#x48c;" horiz-adv-x="658" 
d="M119 64l98 506h-158l14 77h158l21 103h100l-20 -103h183l-15 -77h-183l-27 -141h128q89 0 150 -47q61 -46 61 -135q0 -109 -80 -178q-79 -69 -188 -69h-190q-54 0 -54 43q0 1 0.5 4t1 8t0.5 9zM245 84h119q68 0 115 45q47 47 47 118q0 46 -30.5 72t-83.5 26h-138
l-46 -235q0 -2 -1 -5q-1 -4 -1 -5q0 -16 19 -16z" />
    <glyph glyph-name="uni048D" unicode="&#x48d;" horiz-adv-x="534" 
d="M80 36q0 9 2 19l78 404h-121l14 73h121l34 174h97l-34 -174h165l-14 -73h-165l-27 -134h99q77 0 120.5 -36.5t43.5 -100.5q0 -77 -62 -133q-61 -55 -151 -55h-155q-45 0 -45 36zM200 70h75q51 0 85.5 33t34.5 82q0 33 -21.5 51.5t-62.5 18.5h-94l-28 -145q-5 -22 -5 -27
q0 -13 16 -13z" />
    <glyph glyph-name="uni048E" unicode="&#x48e;" horiz-adv-x="620" 
d="M140 0h-100l121 620h-65l18 86h309q88 0 140 -50.5t52 -135.5q0 -122 -94 -198l59 -77l-57 -44l-64 82q-51 -22 -108 -22h-160zM410 348l-61 80l58 44l65 -86q50 50 50 129q0 49 -31 77t-87 28h-143l-54 -282h141q36 0 62 10z" />
    <glyph glyph-name="uni048F" unicode="&#x48f;" horiz-adv-x="618" 
d="M85 -200h-96l113 583q3 17 3 24q0 16 -17 16h-41l16 83h91q52 0 52 -37q0 -21 -10 -48h2q64 97 180 97q88 0 137.5 -56t49.5 -156q0 -143 -96 -239l55 -67l-55 -46l-56 69q-59 -35 -124 -35q-52 0 -92 23t-58 65h-2q-1 -9 -7 -47zM166 205q0 -62 30 -99.5t85 -37.5
q41 0 79 21l-61 77l55 46l61 -77q59 68 59 161q0 66 -30 101.5t-85 35.5q-80 0 -137 -70q-56 -71 -56 -158z" />
    <glyph glyph-name="uni0490" unicode="&#x490;" horiz-adv-x="504" 
d="M141 0h-100l120 620h-65l18 86h340q22 0 26 22l10 50h91l-18 -94q-7 -34 -25 -49t-51 -15h-226z" />
    <glyph glyph-name="uni0491" unicode="&#x491;" horiz-adv-x="418" 
d="M124 0h-96l82 423h-62l15 83h278q23 0 27 22l9 45h82l-18 -87q-6 -34 -24 -48.5t-52 -14.5h-158z" />
    <glyph glyph-name="uni0492" unicode="&#x492;" horiz-adv-x="514" 
d="M144 0h-100l59 301h-65l14 77h65l48 242h-65l17 86h395q54 0 54 -42q0 -10 -3 -22l-17 -89h-91l5 27q4 18 4 24q0 16 -18 16h-181l-48 -242h155l-15 -77h-154z" />
    <glyph glyph-name="uni0493" unicode="&#x493;" horiz-adv-x="443" 
d="M66 197h-61l13 69h61l31 157h-63l16 83h336q54 0 54 -40v-3.5t-0.5 -5t-1 -6.5t-0.5 -7l-15 -77h-81l5 27q0 3 0.5 6.5t1.5 5.5v3q0 14 -18 14h-137l-31 -157h129l-12 -69h-131l-38 -197h-96z" />
    <glyph glyph-name="uni0494" unicode="&#x494;" horiz-adv-x="605" 
d="M139 0h-98l121 624h-65l16 82h412q54 0 54 -40q0 -8 -3 -22l-16 -81h-83l6 29q0 1 1.5 7.5t1.5 8.5q0 16 -19 16h-206l-47 -236q75 29 143 29q196 0 196 -214q0 -143 -81 -260q-40 -58 -104.5 -91t-140.5 -30l16 82q68 2 115 50q91 90 91 241q0 68 -28.5 101t-95.5 33
q-59 0 -127 -30z" />
    <glyph glyph-name="uni0495" unicode="&#x495;" horiz-adv-x="506" 
d="M124 0h-96l82 423h-62l15 83h349q27 0 38.5 -8t11.5 -28q0 -1 -0.5 -4t-1 -8t-0.5 -9l-16 -82h-81l4 24q4 16 4 20q0 12 -16 12h-148l-35 -177q54 25 109 25q80 0 120.5 -43.5t40.5 -118.5q0 -99 -54.5 -182.5t-152.5 -133.5l-39 73q63 34 106 97q44 62 44 136
q0 91 -93 91q-45 0 -97 -27z" />
    <glyph glyph-name="uni0496" unicode="&#x496;" horiz-adv-x="922" 
d="M66 0h-115l250 324q25 33 47 43l7 4v2q-19 6 -32 43l-66 181q-8 23 -46 23h-17l17 86h44q42 0 56 -10q16 -9 28 -43l79 -218q6 -17 18 -22.5t37 -5.5h45l58 299h96l-58 -299h35q48 0 69 28l159 218q24 33 45 43t64 10h51l-16 -86h-16q-37 0 -54 -23l-138 -185
q-25 -33 -45 -42l-8 -4v-2q21 -10 35 -46l91 -232h39q53 0 53 -40q0 -10 -3 -23l-31 -163h-90l19 98q5 25 5 27q0 13 -15 15h-47l-114 297q-6 17 -18 23t-34 6h-52l-64 -326h-96l64 326h-46q-40 0 -63 -29z" />
    <glyph glyph-name="uni0497" unicode="&#x497;" horiz-adv-x="773" 
d="M72 0h-113l161 208q30 37 56 46l9 3l1 2q-18 7 -28 40l-31 104q-6 20 -42 20h-29l16 83h58q36 0 51 -9t25 -38l39 -131q9 -29 53 -29h33l40 207h93l-40 -207h29q40 0 60 29l90 131q20 29 40.5 38t58.5 9h60l-16 -83h-25q-35 0 -49 -20l-71 -104q-20 -31 -43 -37l-7 -3v-2
l3 -1q26 -10 38 -48l49 -127h27q51 0 51 -41q0 -9 -3 -24l-26 -136h-90l15 77q1 7 2.5 14t2 10t0.5 4q0 15 -16 15h-32l-66 176q-15 40 -64 40h-34l-42 -216h-94l43 216h-31q-47 0 -77 -40z" />
    <glyph glyph-name="uni0498" unicode="&#x498;" horiz-adv-x="532" 
d="M-15 82l61 67q56 -72 153 -72q73 0 123 40q52 40 52 105q0 46 -30.5 70.5t-84.5 24.5h-94l16 82h78q58 0 105 38q47 39 47 97q0 44 -27.5 70t-80.5 26q-45 0 -80.5 -20t-41.5 -48l-5 -29h-92l11 55q7 45 48 77q69 53 176 53q85 0 141 -45q55 -43 55 -122
q0 -64 -37 -112.5t-99 -72.5v-2q96 -34 96 -140q0 -92 -68 -157q-67 -64 -164 -76l-25 -131h-89l25 132q-112 15 -169 90z" />
    <glyph glyph-name="uni0499" unicode="&#x499;" horiz-adv-x="442" 
d="M-19 62l49 61q10 -12 22 -21q15 -13 45 -24t60 -11q52 0 87.5 27.5t35.5 73.5q0 58 -90 58h-64l13 68h51q53 0 86 25t33 69q0 27 -21 41.5t-58 14.5q-35 0 -61.5 -12.5t-29.5 -35.5l-4 -23h-81l8 47q9 46 58.5 72t118.5 26q78 0 122.5 -31t44.5 -88q0 -51 -28.5 -86.5
t-72.5 -48.5v-2q71 -23 71 -99q0 -70 -51 -115q-50 -46 -122 -56l-21 -112h-88l21 112q-84 12 -134 70z" />
    <glyph glyph-name="uni049A" unicode="&#x49a;" horiz-adv-x="632" 
d="M141 0h-100l113 579q4 20 4 25q0 16 -20 16h-41l17 86h95q58 0 58 -45q0 -21 -4 -36l-42 -216h67q40 0 58 24l210 273h117l-228 -293q-25 -31 -42 -42l-6 -4v-2q15 -13 25 -44l72 -235h34q53 0 53 -40q0 -1 -0.5 -4t-1 -8.5t-0.5 -10.5l-32 -163h-90l19 98q5 25 5 27
q0 15 -17 15h-49l-92 298q-7 25 -54 25h-65z" />
    <glyph glyph-name="uni049B" unicode="&#x49b;" horiz-adv-x="537" 
d="M125 0h-97l75 388q3 18 3 20q0 15 -18 15h-40l15 83h94q56 0 56 -44q0 -12 -3 -24l-25 -131h43q33 0 53 23l154 176h114l-178 -203q-24 -29 -41 -35l-5 -3v-2q16 -7 29 -38l59 -144h16q51 0 51 -41q0 -9 -3 -24l-26 -136h-90l15 77q1 7 2.5 14t2 10t0.5 4q0 15 -15 15
h-30l-78 204q-8 20 -46 20h-43z" />
    <glyph glyph-name="uni049C" unicode="&#x49c;" horiz-adv-x="700" 
d="M327 202h-74l23 121h-72l-63 -323h-100l113 579q4 20 4 25q0 16 -20 16h-41l17 86h95q58 0 58 -45q0 -21 -4 -36l-42 -216h72l23 120h74l-23 -120h9q40 0 58 24l210 273h116l-228 -293q-25 -31 -42 -42l-6 -4v-2q16 -13 25 -44l65 -211q8 -24 38 -24h32l-17 -86h-65
q-33 0 -50.5 12.5t-25.5 40.5l-75 245q-7 25 -54 25h-7z" />
    <glyph glyph-name="uni049D" unicode="&#x49d;" horiz-adv-x="597" 
d="M125 0h-97l73 380q5 25 5 28q0 15 -18 15h-41l16 83h96q30 0 42.5 -8.5t12.5 -29.5q0 -12 -2 -22l-26 -134h52l18 92h70l-18 -92q32 0 48 21l144 173h115l-167 -197q-34 -37 -46 -37l-1 -1l-1 -2q17 -9 26 -41l40 -125q6 -20 40 -20h31l-16 -83h-68q-36 0 -49.5 8.5
t-23.5 38.5l-48 161q-6 19 -40 20l-21 -114h-71l22 114h-53z" />
    <glyph glyph-name="uni049E" unicode="&#x49e;" horiz-adv-x="621" 
d="M147 525h-82l14 75h83l21 106h100l-22 -106h94l-14 -75h-95l-23 -116h74q40 0 58 24l210 273h117l-228 -293q-25 -31 -42 -42l-6 -4v-2q16 -13 25 -44l65 -211q8 -24 38 -24h32l-17 -86h-65q-33 0 -50.5 12.5t-26.5 40.5l-75 245q-7 25 -54 25h-72l-62 -323h-100z" />
    <glyph glyph-name="uni049F" unicode="&#x49f;" horiz-adv-x="524" 
d="M121 528h-70l14 69h70l21 109h97l-21 -109h117l-13 -69h-118l-40 -208h45q30 0 51 22l150 164h117l-175 -189q-25 -25 -41 -35l-6 -3l-1 -2q13 -6 24 -38l52 -136q8 -20 41 -20h31l-17 -83h-65q-34 0 -47.5 9t-24.5 38l-61 168q-11 23 -44 23h-44l-47 -238h-97z" />
    <glyph glyph-name="uni04A0" unicode="&#x4a0;" horiz-adv-x="758" 
d="M153 553h-91l18 94q6 33 22.5 46t51.5 13h336l-17 -86h-65l-41 -211h67q40 0 58 24l210 273h116l-227 -293q-25 -31 -42 -42l-6 -4v-2q16 -13 25 -44l65 -211q7 -24 38 -24h31l-16 -86h-66q-59 0 -76 53l-75 245q-7 25 -54 25h-65l-63 -323h-100l120 620h-119
q-22 0 -26 -22z" />
    <glyph glyph-name="uni04A1" unicode="&#x4a1;" horiz-adv-x="639" 
d="M231 0h-98l77 393q4 16 4 22q0 13 -16 13h-60q-18 0 -23 -20l-7 -40h-79l16 83q7 32 23 43.5t52 11.5h145q29 0 42 -8.5t13 -28.5q0 -3 -2 -21l-27 -141h43q32 0 52 23l155 176h114l-179 -203q-24 -28 -40 -35l-5 -3v-2q16 -7 28 -38l50 -122q5 -12 13.5 -16t27.5 -4h31
l-17 -83h-67q-35 0 -49 9t-25 38l-59 157q-8 20 -46 20h-44z" />
    <glyph glyph-name="uni04A2" unicode="&#x4a2;" horiz-adv-x="782" 
d="M141 0h-100l113 579q4 20 4 26q0 15 -20 15h-41l17 86h95q58 0 58 -45q0 -21 -4 -36l-46 -229h360l49 249q7 33 23.5 47t49.5 14h104l-17 -86h-45q-20 0 -24 -22l-100 -512h35q53 0 53 -40q0 -10 -3 -23l-31 -163h-90l19 98q5 25 5 27q0 15 -17 15h-88l60 310h-359z" />
    <glyph glyph-name="uni04A3" unicode="&#x4a3;" horiz-adv-x="631" 
d="M456 0h-76l43 219h-256l-43 -219h-96l73 381q5 20 5 26q0 16 -18 16h-41l16 83h96q54 0 54 -42q0 -10 -3 -22l-27 -142h256l39 206h97l-83 -425h25q51 0 51 -41q0 -10 -3 -22l-27 -138h-90l15 77q1 7 2.5 14t2 10t0.5 4q0 13 -12 15z" />
    <glyph glyph-name="uni04A4" unicode="&#x4a4;" horiz-adv-x="942" 
d="M141 0h-100l112 578q1 7 2.5 13.5t2.5 9.5v3q0 16 -18 16h-43l17 86h101q54 0 54 -42q0 -10 -3 -22l-48 -246h336l44 224h-65l17 86h397q52 0 52 -39q0 -9 -3 -23l-17 -91h-91l5 30q3 20 3 22q0 15 -18 15h-180l-121 -620h-100l61 310h-337z" />
    <glyph glyph-name="uni04A5" unicode="&#x4a5;" horiz-adv-x="758" 
d="M125 0h-97l74 384q5 20 5 24q0 15 -19 15h-40l16 83h96q53 0 53 -42v-3.5t-0.5 -5t-1 -6.5t-0.5 -7l-30 -153h233l27 139h-62l15 78h323q30 0 42.5 -7.5t12.5 -27.5q0 -10 -2 -20l-15 -80h-81l5 25q2 12 2 19q0 13 -14 13h-129l-84 -428h-96l40 208h-232z" />
    <glyph glyph-name="uni04A6" unicode="&#x4a6;" horiz-adv-x="990" 
d="M140 0h-99l120 620h-65l17 86h493q54 0 54 -41q0 -11 -3 -23l-47 -240q72 29 141 29q195 0 195 -218q0 -55 -12.5 -110.5t-39.5 -107.5t-64.5 -91.5t-92 -62t-117.5 -19.5l16 82q65 1 115 51q92 92 92 249q0 70 -28.5 105t-95.5 35q-52 0 -126 -31l-61 -313h-99l112 584
q4 15 4 21q0 15 -19 15h-270z" />
    <glyph glyph-name="uni04A7" unicode="&#x4a7;" horiz-adv-x="813" 
d="M124 0h-98l83 423h-57l16 83h510l-16 -83h-57l-28 -148q57 26 117 26q79 0 122 -48.5t43 -132.5q0 -99 -58 -190q-59 -93 -158 -137l-33 74q67 36 109 105t42 141q0 104 -102 104q-50 0 -99 -28l-37 -189h-97l83 423h-203z" />
    <glyph glyph-name="uni04A8" unicode="&#x4a8;" horiz-adv-x="902" 
d="M43 296q0 80 27 153t74 125q91 102 206 143l37 -88q-93 -33 -163 -112q-80 -88 -80 -218q0 -96 58 -158q59 -62 164 -62q49 0 100 16q-111 87 -111 245q0 148 95 257q94 109 223 109q98 0 155 -63q58 -61 58 -165q0 -114 -64 -215q-64 -102 -166 -172q34 -9 81 -9h71
l-16 -82h-67q-91 0 -166 33q-101 -45 -198 -45q-142 0 -230 85t-88 223zM455 338q0 -141 104 -204q99 52 162 144q64 91 64 196q0 66 -32 104t-86 38q-82 0 -147 -80t-65 -198z" />
    <glyph glyph-name="uni04A9" unicode="&#x4a9;" horiz-adv-x="781" 
d="M24 236q0 98 63 175q64 76 156 106l32 -80q-65 -23 -112 -74q-47 -53 -47 -126t48 -121t129 -48q54 0 101 16q-97 75 -97 199q0 97 70 166q71 69 173 69q88 0 138 -54q50 -53 50 -130q0 -71 -40 -136t-111 -113q29 -9 72 -9h64l-15 -76h-60q-83 0 -156 29
q-99 -41 -192 -41q-114 0 -191 69q-75 69 -75 179zM390 285q0 -113 93 -168q71 37 111.5 92.5t40.5 121.5q0 48 -27 79t-78 31q-57 0 -99 -45q-41 -46 -41 -111z" />
    <glyph glyph-name="uni04AA" unicode="&#x4aa;" horiz-adv-x="694" 
d="M41 295q0 107 54 205q56 98 152 157q97 61 212 61q55 0 109 -14t94 -46q41 -33 41 -78q0 -17 -6 -44l-8 -40h-91l8 38q6 32 -22 54q-46 37 -128 37q-124 0 -219 -95q-93 -95 -93 -230q0 -98 57 -158q59 -60 157 -60q63 0 124 22.5t106 62.5l45 -78q-47 -43 -116 -69.5
t-144 -30.5l-24 -129h-90l26 134q-111 20 -178 101q-66 83 -66 200z" />
    <glyph glyph-name="uni04AB" unicode="&#x4ab;" horiz-adv-x="527" 
d="M22 212q0 125 90 215q91 91 216 91q42 0 83 -9.5t73 -38.5t24 -71l-8 -44h-86l4 21q4 28 -27 43q-31 16 -70 16q-79 0 -140 -64q-60 -63 -60 -150q0 -67 38 -107t109 -40q42 0 83.5 14.5t61.5 31.5l18 15l28 -77q-9 -9 -30 -23q-63 -41 -152 -46l-20 -109h-87l22 115
q-81 17 -125.5 74.5t-44.5 142.5z" />
    <glyph glyph-name="uni04AC" unicode="&#x4ac;" horiz-adv-x="632" 
d="M296 0h-89l121 620h-142q-22 0 -26 -22l-9 -45h-89l18 96q6 32 20.5 44.5t46.5 12.5h483q56 0 56 -45q0 -11 -5 -36l-13 -72h-90l6 28q4 17 4 24q0 15 -21 15h-139l-104 -534h35q52 0 52 -40q0 -1 -0.5 -4t-1 -8.5t-0.5 -10.5l-32 -163h-90l19 98q5 25 5 27q0 13 -15 15z
" />
    <glyph glyph-name="uni04AD" unicode="&#x4ad;" horiz-adv-x="532" 
d="M235 0h-76l82 423h-97q-23 0 -27 -22l-6 -34h-81l14 77q7 33 25 47.5t53 14.5h368q54 0 54 -41q0 -11 -3 -21l-14 -77h-81l4 23q3 15 3 18q0 15 -18 15h-97l-67 -342h25q50 0 50 -41l-2 -22l-27 -138h-89l15 77q1 7 2.5 14t2 10t0.5 4q0 14 -13 15z" />
    <glyph glyph-name="uni04AE" unicode="&#x4ae;" horiz-adv-x="604" 
d="M294 0h-100l60 308l-123 287q-10 25 -35 25h-24l17 86h45q33 0 49 -11t29 -43l76 -177l28 -80h2q35 54 56 80l140 177q24 32 44.5 43t53.5 11h61l-17 -86h-23q-26 0 -44 -23l-235 -289z" />
    <glyph glyph-name="uni04AF" unicode="&#x4af;" horiz-adv-x="532" 
d="M218 -200h-96l44 223l-92 380q-5 20 -27 20h-10l17 83h44q32 0 45.5 -11t19.5 -40l55 -264l8 -62h2l33 62l159 264q18 30 36 40.5t51 10.5h54l-15 -83h-11q-21 0 -35 -20l-238 -380z" />
    <glyph glyph-name="uni04B0" unicode="&#x4b0;" horiz-adv-x="604" 
d="M239 233h-115l14 73h115l1 2l-123 287q-10 25 -35 25h-24l17 86h45q33 0 49 -11t29 -43l76 -177l28 -80h2q35 54 56 80l140 177q24 32 44.5 43t53.5 11h61l-17 -86h-23q-26 0 -44 -23l-235 -289l-1 -2h126l-14 -73h-126l-45 -233h-100z" />
    <glyph glyph-name="uni04B1" unicode="&#x4b1;" horiz-adv-x="532" 
d="M161 0h-118l14 71h97l-80 332q-5 20 -27 20h-10l17 83h44q32 0 45.5 -11t19.5 -40l55 -264l8 -62h2l33 62l159 264q18 30 36 40.5t51 10.5h54l-15 -83h-11q-21 0 -35 -20l-208 -332h94l-13 -71h-116l-39 -200h-96z" />
    <glyph glyph-name="uni04B2" unicode="&#x4b2;" horiz-adv-x="626" 
d="M71 0h-114l294 367l-100 228q-10 25 -42 25h-25l17 86h55q35 0 53 -11t30 -43l55 -131l30 -82h2q23 36 59 82l104 131q24 31 44.5 42.5t53.5 11.5h68l-17 -86h-24q-32 0 -51 -25l-193 -235l119 -274h39q53 0 53 -40q0 -10 -3 -23l-32 -163h-89l19 98q5 25 5 27
q0 13 -14 15h-49l-90 211l-30 77h-2q-22 -33 -58 -77z" />
    <glyph glyph-name="uni04B3" unicode="&#x4b3;" horiz-adv-x="526" 
d="M75 0h-112l226 265l-73 139q-10 19 -40 19h-29l17 83h62q29 0 43.5 -11t29.5 -42l46 -95l11 -31h2q12 20 22 31l77 95q27 33 43 43t51 10h72l-16 -83h-29q-32 0 -47 -18l-129 -149l85 -175h27q52 0 52 -41q0 -9 -3 -24l-27 -136h-89l15 77q1 7 2.5 14t2 10t0.5 4
q0 13 -14 15h-29l-80 164l-11 28h-2q-7 -12 -19 -28z" />
    <glyph glyph-name="uni04B4" unicode="&#x4b4;" horiz-adv-x="915" 
d="M199 64l108 556h-124q-22 0 -26 -22l-8 -45h-90l18 93q7 34 22.5 47t49.5 13h447q28 0 39.5 -8t11.5 -29q0 -11 -3 -23l-17 -93h-86l6 29q4 17 4 23q0 15 -19 15h-125l-97 -499q-3 -12 -3 -19q0 -16 19 -16h336l121 620h100l-121 -620h24q53 0 53 -40q0 -1 -0.5 -4
t-1 -8.5t-0.5 -10.5l-32 -163h-90l20 100l4 24q0 16 -17 16h-471q-54 0 -54 43q0 11 2 21z" />
    <glyph glyph-name="uni04B5" unicode="&#x4b5;" horiz-adv-x="745" 
d="M148 69l70 358h-90q-19 0 -22 -20l-6 -36h-69l15 79q6 32 22.5 44t52.5 12h318q30 0 42.5 -8t12.5 -28q0 -2 -2 -20l-14 -79h-69l5 25q3 12 3 17q0 14 -16 14h-86l-60 -303q-5 -25 -5 -27q0 -16 18 -16h245l83 425h97l-83 -425h15q51 0 51 -41l-2 -22l-27 -138h-89l15 81
q4 13 4 23q0 16 -16 16h-363q-53 0 -53 41q0 13 3 28z" />
    <glyph glyph-name="uni04B6" unicode="&#x4b6;" horiz-adv-x="681" 
d="M103 421q0 27 6 58l21 107q0 3 0.5 7.5t1 7t0.5 3.5q0 16 -18 16h-43l17 86h101q53 0 53 -42v-3.5t-0.5 -5t-1 -6.5t-0.5 -7l-28 -144q-4 -19 -4 -43q0 -94 117 -94q76 0 162 53l57 292h100l-122 -620h36q52 0 52 -40q0 -1 -0.5 -4t-1 -8.5t-0.5 -10.5l-32 -163h-89
l19 98q5 25 5 27q0 14 -16 15h-90l56 284l8 33h-2q-85 -46 -179 -46q-185 0 -185 150z" />
    <glyph glyph-name="uni04B7" unicode="&#x4b7;" horiz-adv-x="568" 
d="M73 423h-36l16 83h91q53 0 53 -42q0 -1 -0.5 -4t-1 -8.5t-0.5 -10.5l-17 -86q-4 -13 -4 -32q0 -63 81 -63q60 0 120 36l41 210h97l-83 -425h24q50 0 50 -41l-2 -22l-27 -138h-90l15 77q1 7 2.5 14t2 10t0.5 4q0 15 -14 15h-74l36 181l8 32h-2q-72 -35 -142 -35
q-69 0 -106.5 30.5t-37.5 84.5q0 20 4 35l12 62q0 3 0.5 7.5t1.5 7.5l1 3q0 15 -19 15z" />
    <glyph glyph-name="uni04B8" unicode="&#x4b8;" horiz-adv-x="662" 
d="M102 421q0 27 6 58l21 107q3 10 3 19q0 15 -18 15h-43l17 86h100q54 0 54 -42q0 -10 -3 -22l-27 -144q-5 -22 -5 -43q0 -80 90 -92l27 139h74l-27 -138q62 9 132 50l56 292h100l-137 -706h-100l55 284l8 33h-2q-59 -31 -129 -42l-21 -107h-74l20 103q-177 7 -177 150z
" />
    <glyph glyph-name="uni04B9" unicode="&#x4b9;" horiz-adv-x="564" 
d="M281 99h-71l15 79q-72 1 -112 32t-40 83q0 20 4 35l12 62q0 3 0.5 7.5t1.5 7.5l1 3q0 15 -19 15h-36l16 83h91q53 0 53 -42q0 -1 -0.5 -4t-1 -8.5t-0.5 -10.5l-17 -86q-4 -13 -4 -32q0 -55 67 -62l24 122h71l-23 -119q48 9 90 32l41 210h96l-98 -506h-97l35 181q1 4 4 14
t3 13l1 5h-2q-37 -19 -89 -29z" />
    <glyph glyph-name="uni04BA" unicode="&#x4ba;" horiz-adv-x="650" 
d="M141 0h-100l112 578q5 22 5 26q0 16 -18 16h-43l17 86h101q54 0 54 -42q0 -10 -3 -22l-37 -193l-8 -33h2q84 42 181 42q85 0 129 -40t44 -113q0 -28 -5 -53l-24 -126l-4 -24q0 -16 18 -16h43l-17 -86h-101q-54 0 -54 43q0 9 3 21l32 167q5 23 5 47q0 90 -103 90
q-94 0 -167 -48z" />
    <glyph glyph-name="uni04BB" unicode="&#x4bb;" horiz-adv-x="603" 
d="M106 0h-97l114 585q4 15 4 23q0 15 -19 15h-41l17 83h92q57 0 57 -44q0 -10 -4 -30l-36 -185l-10 -44h2q27 41 82 79q54 36 125 36q70 0 107 -35.5t37 -101.5q0 -26 -7 -62l-39 -205q-3 -15 -3 -16q0 -15 18 -15h41l-16 -83h-93q-57 0 -57 46q0 11 3 23l46 233q5 32 5 50
q0 77 -78 77q-73 0 -131 -60q-58 -58 -73 -133z" />
    <glyph glyph-name="uni04BC" unicode="&#x4bc;" horiz-adv-x="845" 
d="M59 479q0 57 44 157h93q-45 -94 -45 -147q0 -65 63 -66q42 127 142 211t235 84q114 0 178.5 -65t64.5 -179q0 -54 -21 -131h-512q-12 -77 11 -143.5t83 -97.5q63 -36 164.5 -17t163.5 77l43 -79q-42 -35 -114 -65q-74 -30 -160 -30q-132 0 -211 73q-79 74 -86 196
q-3 37 3 87q-65 0 -102 35.5t-37 99.5zM318 422h413q6 27 6 54q0 70 -40 112t-115 42q-92 0 -165 -61q-72 -60 -99 -147z" />
    <glyph glyph-name="uni04BD" unicode="&#x4bd;" horiz-adv-x="655" 
d="M31 352q0 53 32 112h81q-35 -61 -35 -103q0 -43 47 -46q32 89 105 146q75 57 173 57q91 0 141 -50t50 -136q0 -44 -15 -92h-370q-12 -73 26.5 -120.5t115.5 -47.5q81 0 160 59l29 -76q-36 -29 -89.5 -48t-108.5 -19q-104 0 -169 58q-66 58 -66 159q0 3 3 36
q-110 3 -110 111zM257 310h269q3 9 3 33q0 47 -27 73.5t-73 26.5q-56 0 -103.5 -35.5t-68.5 -97.5z" />
    <glyph glyph-name="uni04BE" unicode="&#x4be;" horiz-adv-x="845" 
d="M59 479q0 57 44 157h93q-45 -94 -45 -147q0 -65 63 -66q42 127 142 211t235 84q114 0 178.5 -65t64.5 -179q0 -54 -21 -131h-512q-12 -77 11 -143.5t83 -97.5q63 -36 164.5 -17t163.5 77l43 -79q-38 -35 -110 -65q-72 -29 -157 -30l-24 -128h-90l26 136
q-96 21 -152.5 89.5t-63.5 171.5q-3 37 3 87q-65 0 -102 35.5t-37 99.5zM318 422h413q6 27 6 54q0 70 -40 112t-115 42q-92 0 -165 -61q-72 -60 -99 -147z" />
    <glyph glyph-name="uni04BF" unicode="&#x4bf;" horiz-adv-x="656" 
d="M31 352q0 53 32 112h81q-35 -61 -35 -103q0 -43 47 -46q32 89 105 146q75 57 173 57q91 0 141 -50t50 -136q0 -44 -15 -92h-370q-12 -73 26.5 -120.5t115.5 -47.5q81 0 160 59l29 -76q-76 -61 -186 -67l-21 -108h-87l23 117q-75 19 -118.5 73t-43.5 135q0 3 3 36
q-110 3 -110 111zM257 310h269q3 9 3 33q0 47 -27 73.5t-73 26.5q-56 0 -103.5 -35.5t-68.5 -97.5z" />
    <glyph glyph-name="uni04C0" unicode="&#x4c0;" horiz-adv-x="318" 
d="M217 0h-232l17 86h68l104 534h-69l17 86h233l-17 -86h-68l-104 -534h68z" />
    <glyph glyph-name="uni04C1" unicode="&#x4c1;" horiz-adv-x="887" 
d="M66 0h-115l250 324q25 33 47 43l7 4v2q-19 6 -32 43l-66 181q-8 23 -46 23h-17l17 86h44q42 0 56 -10q16 -9 28 -43l79 -218q6 -17 18 -22.5t37 -5.5h45l58 299h96l-58 -299h35q48 0 69 28l159 218q24 33 45 43t64 10h51l-16 -86h-16q-37 0 -54 -23l-138 -185
q-25 -33 -45 -42l-8 -4v-2q21 -10 35 -46l125 -318h-104l-114 297q-6 17 -18 23t-34 6h-52l-64 -326h-96l64 326h-46q-40 0 -63 -29zM540 739q-57 0 -95 29.5t-38 75.5q0 13 5 38h79q-5 -15 -5 -27q0 -24 16 -38.5t43 -14.5q34 0 57 20t29 60h77q-11 -72 -56 -107.5
t-112 -35.5z" />
    <glyph glyph-name="uni04C2" unicode="&#x4c2;" horiz-adv-x="746" 
d="M72 0h-113l161 208q30 37 56 46l9 3l1 2q-18 7 -28 40l-31 104q-6 20 -42 20h-29l16 83h58q36 0 51 -9t25 -38l39 -131q9 -29 53 -29h33l40 207h93l-40 -207h29q40 0 60 29l90 131q20 29 40.5 38t58.5 9h60l-16 -83h-25q-35 0 -49 -20l-71 -104q-20 -31 -43 -37l-7 -3v-2
l3 -1q26 -10 38 -48l81 -208h-101l-66 176q-15 40 -64 40h-34l-42 -216h-94l43 216h-31q-47 0 -77 -40zM435 564q-57 0 -95 29.5t-38 75.5q0 13 5 38h79q-5 -15 -5 -27q0 -24 16 -38.5t43 -14.5q34 0 57 20t29 60h77q-11 -72 -56 -107.5t-112 -35.5z" />
    <glyph glyph-name="uni04C3" unicode="&#x4c3;" horiz-adv-x="632" 
d="M141 0h-100l115 593q2 10 2 11q0 16 -19 16h-43l17 86h101q55 0 55 -42q0 -10 -3 -22l-46 -233h66q42 0 60 24l212 273h120l-212 -268q-32 -39 -52 -49l-1 -2q42 -14 73 -40t47 -57.5t23 -62.5t7 -64q0 -130 -80 -235q-39 -51 -99.5 -80t-130.5 -26l16 84q88 1 140 85
q51 83 51 180q0 74 -47.5 113t-134.5 39h-74z" />
    <glyph glyph-name="uni04C4" unicode="&#x4c4;" horiz-adv-x="532" 
d="M124 0h-96l74 382q4 22 4 25q0 16 -18 16h-41l16 83h96q55 0 55 -42q0 -2 -3 -20l-28 -143h32q35 0 61 30l149 175h117l-166 -193q-23 -26 -37 -34l-5 -3v-2q59 -17 89.5 -64t30.5 -109q0 -109 -62 -189q-62 -82 -138 -119l-46 74q61 28 106 90q46 61 46 140
q0 58 -37.5 89t-106.5 31h-49z" />
    <glyph glyph-name="uni04C5" unicode="&#x4c5;" horiz-adv-x="709" 
d="M-50 -8l18 91q86 12 146.5 124t102.5 334l15 79h-66l17 86h415q54 0 54 -41q0 -12 -6 -42l-96 -495q-5 -22 -5 -27q0 -15 19 -15h87l-11 -57l-106 -169h-77l67 140h-35q-54 0 -54 42q0 6 6 42l97 494q4 17 4 27q0 15 -19 15h-195l-15 -79q-53 -271 -136 -406
q-82 -135 -227 -143z" />
    <glyph glyph-name="uni04C6" unicode="&#x4c6;" horiz-adv-x="568" 
d="M-44 -3l16 86q39 3 73 43q71 80 105 258l7 39h-63l16 83h326q55 0 55 -42v-3.5t-0.5 -5t-1 -6.5t-0.5 -7l-65 -330l-2 -10v-3q0 -16 17 -16h78l-11 -55l-90 -148h-73l56 120h-29q-54 0 -54 43q0 9 3 21l63 330q0 2 2 8l1 5q0 16 -19 16h-116l-8 -40q-46 -233 -147 -330
q-62 -56 -139 -56z" />
    <glyph glyph-name="uni04C7" unicode="&#x4c7;" horiz-adv-x="762" 
d="M141 0h-100l113 580q4 21 4 25q0 15 -19 15h-43l18 86h101q53 0 53 -42v-3.5t-0.5 -5t-1 -6.5t-0.5 -7l-48 -246h365l49 246q7 34 25 49t52 15h100l-17 -86h-43q-22 0 -26 -22l-106 -547q-24 -124 -90.5 -181t-162.5 -49l17 87q46 0 83 29t53 113l50 260h-366z" />
    <glyph glyph-name="uni04C8" unicode="&#x4c8;" horiz-adv-x="619" 
d="M124 0h-96l74 380q4 21 4 27q0 16 -18 16h-41l16 83h96q54 0 54 -42q0 -10 -3 -22l-27 -142h257l27 142q7 34 25 49t52 15h95l-15 -83h-41q-22 0 -26 -22l-70 -353q-19 -107 -74 -165q-45 -50 -121 -90l-44 73q61 31 94.5 71.5t47.5 109.5l33 170h-257z" />
    <glyph glyph-name="uni04C9" unicode="&#x4c9;" horiz-adv-x="788" 
d="M141 0h-100l113 579q4 20 4 26q0 15 -20 15h-41l17 86h95q58 0 58 -45q0 -21 -4 -36l-46 -229h360l49 249q7 33 23.5 47t49.5 14h104l-17 -86h-45q-20 0 -24 -22l-100 -512h112l-11 -57l-106 -169h-77l70 140h-105l60 310h-359z" />
    <glyph glyph-name="uni04CA" unicode="&#x4ca;" horiz-adv-x="632" 
d="M124 0h-96l74 383q1 6 2.5 12.5t1.5 9.5l1 3q0 15 -19 15h-41l16 83h96q54 0 54 -42q0 -10 -3 -22l-27 -143h256l40 207h97l-75 -383q-4 -20 -4 -26q0 -14 18 -14h59l-10 -55l-91 -148h-72l56 120h-13q-54 0 -54 42q0 12 3 25l30 151h-256z" />
    <glyph glyph-name="uni04CB" unicode="&#x4cb;" horiz-adv-x="646" 
d="M103 421q0 27 6 58l21 107q0 3 0.5 7.5t1 7t0.5 3.5q0 16 -18 16h-43l17 86h101q53 0 53 -42v-3.5t-0.5 -5t-1 -6.5t-0.5 -7l-28 -144q-4 -19 -4 -43q0 -94 117 -94q76 0 162 53l57 292h100l-139 -706h-107q-22 0 -26 -22l-23 -118h-89l32 163q7 34 24 48.5t51 14.5h55
l39 198l8 33h-2q-85 -46 -179 -46q-185 0 -185 150z" />
    <glyph glyph-name="uni04CC" unicode="&#x4cc;" horiz-adv-x="536" 
d="M208 -120l25 128q7 33 24 48t49 15h25l23 119l8 31h-1q-67 -34 -143 -34q-69 0 -106.5 30t-37.5 84q0 13 4 36l10 53q3 12 3 18q0 15 -19 15h-36l17 83h91q53 0 53 -42q0 -10 -3 -23l-15 -78q-3 -17 -3 -31q0 -64 81 -64q64 0 119 37l39 201h97l-98 -506h-79
q-15 -2 -18 -22l-19 -98h-90z" />
    <glyph glyph-name="uni04CD" unicode="&#x4cd;" horiz-adv-x="890" 
d="M57 0h-92l16 86h33q21 0 27 22l164 598h100l93 -375l17 -89h2q22 41 52 89l239 375h107l-66 -581l-2 -24q0 -15 17 -15h91l-11 -57l-106 -169h-77l67 140h-29q-32 0 -46 11.5t-14 37.5q0 3 3 27l42 361l18 104h-2q-37 -73 -58 -104l-203 -310h-84l-82 310l-18 105h-2
q-9 -54 -22 -105l-102 -377q-9 -33 -25.5 -46.5t-46.5 -13.5z" />
    <glyph glyph-name="uni04CE" unicode="&#x4ce;" horiz-adv-x="757" 
d="M37 0h-76l16 83h25q17 0 23 19l114 404h101l76 -290l13 -64h2l39 64l187 290h112l-43 -388q-1 -8 -1 -21q0 -14 15 -14h76l-10 -55l-91 -148h-72l56 120h-24q-45 0 -45 37q0 2 2 24l27 233l15 92h-2q-16 -32 -46 -78l-166 -247h-87l-71 247q-11 44 -12 68l-1 12h-2
q-10 -61 -18 -94l-66 -239q-8 -30 -22.5 -42.5t-43.5 -12.5z" />
    <glyph glyph-name="uni04CF" unicode="&#x4cf;" horiz-adv-x="318" 
d="M217 0h-232l16 83h68l106 540h-69l16 83h233l-16 -83h-68l-106 -540h68z" />
    <glyph glyph-name="uni04D0" unicode="&#x4d0;" horiz-adv-x="664" 
d="M22 0h-68l17 86h18q23 0 33 22l338 598h105l105 -600q2 -12 7 -16t17 -4h18l-17 -86h-60q-32 0 -45 11.5t-18 46.5l-25 145h-259l-82 -145q-19 -35 -35.5 -46.5t-48.5 -11.5zM346 503l-118 -216h211l-36 216l-8 98h-2q-26 -61 -47 -98zM422 739q-57 0 -95 29.5t-38 75.5
q0 13 5 38h79q-5 -15 -5 -27q0 -24 16 -38.5t43 -14.5q34 0 57 20t29 60h77q-11 -72 -56 -107.5t-112 -35.5z" />
    <glyph glyph-name="uni04D1" unicode="&#x4d1;" horiz-adv-x="533" 
d="M-3 121q0 106 109 152q97 42 230 42h25l2 12q4 17 4 39q0 75 -90 75q-89 0 -95 -39l-5 -29h-92l10 51q10 48 66 71q58 23 128 23q175 0 175 -143q0 -24 -7 -59l-37 -197q-4 -12 -4 -21q0 -15 18 -15h42l-17 -83h-85q-55 0 -55 41q0 25 10 55h-2q1 0 -6.5 -11t-22.5 -27
t-35.5 -32t-52.5 -27t-66 -11q-65 0 -106 35.5t-41 97.5zM95 135q0 -33 21 -52.5t56 -19.5q61 0 111 53q51 55 61 111l4 18h-25q-80 0 -145 -19q-83 -24 -83 -91zM323 564q-57 0 -95 29.5t-38 75.5q0 13 5 38h79q-5 -15 -5 -27q0 -24 16 -38.5t43 -14.5q34 0 57 20t29 60h77
q-11 -72 -56 -107.5t-112 -35.5z" />
    <glyph glyph-name="uni04D2" unicode="&#x4d2;" horiz-adv-x="664" 
d="M22 0h-68l17 86h18q23 0 33 22l338 598h105l105 -600q2 -12 7 -16t17 -4h18l-17 -86h-60q-32 0 -45 11.5t-18 46.5l-25 145h-259l-82 -145q-19 -35 -35.5 -46.5t-48.5 -11.5zM346 503l-118 -216h211l-36 216l-8 98h-2q-26 -61 -47 -98zM546 781h-74l20 101h74zM381 781
h-73l20 101h73z" />
    <glyph glyph-name="uni04D3" unicode="&#x4d3;" horiz-adv-x="533" 
d="M-3 121q0 106 109 152q97 42 230 42h25l2 12q4 17 4 39q0 75 -90 75q-89 0 -95 -39l-5 -29h-92l10 51q10 48 66 71q58 23 128 23q175 0 175 -143q0 -24 -7 -59l-37 -197q-4 -12 -4 -21q0 -15 18 -15h42l-17 -83h-85q-55 0 -55 41q0 25 10 55h-2q1 0 -6.5 -11t-22.5 -27
t-35.5 -32t-52.5 -27t-66 -11q-65 0 -106 35.5t-41 97.5zM95 135q0 -33 21 -52.5t56 -19.5q61 0 111 53q51 55 61 111l4 18h-25q-80 0 -145 -19q-83 -24 -83 -91zM433 606h-74l20 101h74zM268 606h-73l20 101h73z" />
    <glyph glyph-name="uni04D4" unicode="&#x4d4;" horiz-adv-x="866" 
d="M13 0h-56l17 86h15q13 0 19 4t14 18l350 598h447q58 0 58 -45q0 -11 -5 -36l-13 -72h-92l6 28q3 17 3 24q0 15 -20 15h-193l-43 -221h242l-17 -86h-242l-37 -189q-3 -14 -3 -23q0 -15 18 -15h200q23 0 27 22l9 45h91l-17 -91q-7 -34 -24 -48t-49 -14h-307q-58 0 -58 45
q0 9 5 37l45 231h-158l-145 -255q-22 -37 -37 -47q-16 -11 -50 -11zM420 620l-126 -221h126l43 221h-43z" />
    <glyph glyph-name="uni04D5" unicode="&#x4d5;" horiz-adv-x="849" 
d="M-3 121q0 44 20.5 80t54.5 57q33 21 77 33q74 21 164 21h45q6 30 6 48q0 81 -88 81q-89 0 -95 -39l-6 -29h-92l10 51q11 56 77 76q57 18 118 18q116 0 147 -85h2q76 85 188 85q94 0 144 -50t50 -138q0 -34 -12 -75l-4 -13h-364q-3 -15 -3 -33q0 -64 37.5 -101.5
t102.5 -37.5q36 0 76.5 13.5t63.5 30.5l20 14l28 -73q-23 -17 -27 -19q-16 -10 -68 -30q-49 -18 -98 -18q-77 0 -132 33t-76 91h-2q-13 -28 -58 -70q-56 -54 -149 -54q-66 0 -112 36q-45 36 -45 97zM456 312h264q2 20 2 29q0 48 -27 74t-71 26q-57 0 -101 -33.5t-67 -95.5z
M96 132q0 -30 21.5 -48t59.5 -18q58 0 105 50q46 50 60 111l3 15h-47q-202 0 -202 -110z" />
    <glyph glyph-name="uni04D6" unicode="&#x4d6;" horiz-adv-x="571" 
d="M52 45q0 9 5 37l105 538h-65l17 86h409q59 0 59 -45q0 -11 -5 -36l-14 -72h-91l6 28q3 17 3 24q0 15 -20 15h-199l-43 -221h247l-17 -86h-247l-37 -189q-3 -13 -3 -23q0 -15 18 -15h206q23 0 27 22l9 45h91l-18 -91q-6 -33 -23 -47.5t-50 -14.5h-312q-58 0 -58 45z
M395 739q-57 0 -95 29.5t-38 75.5q0 13 5 38h79q-5 -15 -5 -27q0 -24 16 -38.5t43 -14.5q34 0 57 20t29 60h77q-11 -72 -56 -107.5t-112 -35.5z" />
    <glyph glyph-name="uni04D7" unicode="&#x4d7;" horiz-adv-x="540" 
d="M21 203q0 130 85 222q86 93 210 93q92 0 142 -50.5t50 -136.5q0 -36 -12 -77l-3 -13h-369q-4 -15 -4 -36q0 -60 38.5 -96.5t105.5 -36.5q36 0 76.5 13.5t63.5 30.5l21 14l28 -75q-23 -17 -27 -19q-16 -10 -68 -30q-51 -18 -100 -18q-109 0 -173 60t-64 155zM139 310h269
q3 15 3 29q0 48 -26.5 75t-71.5 27q-57 0 -104.5 -35.5t-69.5 -95.5zM340 564q-57 0 -95 29.5t-38 75.5q0 13 5 38h79q-5 -15 -5 -27q0 -24 16 -38.5t43 -14.5q34 0 57 20t29 60h77q-11 -72 -56 -107.5t-112 -35.5z" />
    <glyph glyph-name="uni04D8" unicode="&#x4d8;" horiz-adv-x="695" 
d="M34 241q0 58 23 148h513q4 28 4 44q0 90 -51.5 142.5t-143.5 52.5q-52 0 -106 -19q-75 -25 -120 -59l-43 77l42 28q26 17 96 39q71 24 140 24q136 0 212 -81q76 -79 76 -213q0 -161 -100 -294q-49 -65 -123.5 -103.5t-160.5 -38.5q-116 0 -187 66q-71 68 -71 187z
M131 236q0 -77 41 -118t120 -41q101 0 170 63q70 64 92 170h-415q-8 -38 -8 -74z" />
    <glyph glyph-name="uni04D9" unicode="&#x4d9;" horiz-adv-x="541" 
d="M16 174q0 44 20 106h367q2 8 2 27q0 59 -39.5 94.5t-107.5 35.5q-46 0 -93 -18q-45 -16 -69 -37l-29 74q25 20 81 41q57 21 119 21q107 0 171 -60q65 -60 65 -163q0 -124 -85 -215q-84 -92 -210 -92q-92 0 -142 50t-50 136zM108 170q0 -50 27.5 -77.5t74.5 -27.5
q58 0 111 39t72 106h-280q-5 -20 -5 -40z" />
    <glyph glyph-name="uni04DA" unicode="&#x4da;" horiz-adv-x="696" 
d="M34 241q0 58 23 148h513q4 28 4 44q0 90 -51.5 142.5t-143.5 52.5q-52 0 -106 -19q-75 -25 -120 -59l-43 77l42 28q26 17 96 39q71 24 140 24q136 0 212 -81q76 -79 76 -213q0 -161 -100 -294q-49 -65 -123.5 -103.5t-160.5 -38.5q-116 0 -187 66q-71 68 -71 187z
M131 236q0 -77 41 -118t120 -41q101 0 170 63q70 64 92 170h-415q-8 -38 -8 -74zM550 781h-74l20 101h74zM385 781h-73l20 101h73z" />
    <glyph glyph-name="uni04DB" unicode="&#x4db;" horiz-adv-x="542" 
d="M16 174q0 44 20 106h367q2 8 2 27q0 59 -39.5 94.5t-107.5 35.5q-46 0 -93 -18q-45 -16 -69 -37l-29 74q25 20 81 41q57 21 119 21q107 0 171 -60q65 -60 65 -163q0 -124 -85 -215q-84 -92 -210 -92q-92 0 -142 50t-50 136zM108 170q0 -50 27.5 -77.5t74.5 -27.5
q58 0 111 39t72 106h-280q-5 -20 -5 -40zM434 606h-74l20 101h74zM269 606h-73l20 101h73z" />
    <glyph glyph-name="uni04DC" unicode="&#x4dc;" horiz-adv-x="887" 
d="M66 0h-115l250 324q25 33 47 43l7 4v2q-19 6 -32 43l-66 181q-8 23 -46 23h-17l17 86h44q42 0 56 -10q16 -9 28 -43l79 -218q6 -17 18 -22.5t37 -5.5h45l58 299h96l-58 -299h35q48 0 69 28l159 218q24 33 45 43t64 10h51l-16 -86h-16q-37 0 -54 -23l-138 -185
q-25 -33 -45 -42l-8 -4v-2q21 -10 35 -46l125 -318h-104l-114 297q-6 17 -18 23t-34 6h-52l-64 -326h-96l64 326h-46q-40 0 -63 -29zM659 781h-74l20 101h74zM494 781h-73l20 101h73z" />
    <glyph glyph-name="uni04DD" unicode="&#x4dd;" horiz-adv-x="746" 
d="M72 0h-113l161 208q30 37 56 46l9 3l1 2q-18 7 -28 40l-31 104q-6 20 -42 20h-29l16 83h58q36 0 51 -9t25 -38l39 -131q9 -29 53 -29h33l40 207h93l-40 -207h29q40 0 60 29l90 131q20 29 40.5 38t58.5 9h60l-16 -83h-25q-35 0 -49 -20l-71 -104q-20 -31 -43 -37l-7 -3v-2
l3 -1q26 -10 38 -48l81 -208h-101l-66 176q-15 40 -64 40h-34l-42 -216h-94l43 216h-31q-47 0 -77 -40zM556 606h-74l20 101h74zM391 606h-73l20 101h73z" />
    <glyph glyph-name="uni04DE" unicode="&#x4de;" horiz-adv-x="530" 
d="M-15 82l61 67q56 -72 153 -72q73 0 123 40q52 40 52 105q0 46 -30.5 70.5t-84.5 24.5h-94l16 82h78q58 0 105 38q47 39 47 97q0 44 -27.5 70t-80.5 26q-45 0 -80.5 -20t-41.5 -48l-5 -29h-92l11 55q7 45 48 77q69 53 176 53q85 0 141 -45q55 -43 55 -122
q0 -64 -37 -112.5t-99 -72.5v-2q96 -34 96 -140q0 -102 -81 -170q-81 -66 -191 -66q-66 0 -125 24.5t-93 69.5zM469 781h-74l20 101h74zM304 781h-73l20 101h73z" />
    <glyph glyph-name="uni04DF" unicode="&#x4df;" horiz-adv-x="441" 
d="M-19 62l49 61q10 -12 22 -21q15 -13 45 -24t60 -11q52 0 87.5 27.5t35.5 73.5q0 58 -90 58h-64l13 68h51q53 0 86 25t33 69q0 27 -21 41.5t-58 14.5q-35 0 -61.5 -12.5t-29.5 -35.5l-4 -23h-81l8 47q9 46 58.5 72t118.5 26q78 0 122.5 -31t44.5 -88q0 -51 -28.5 -86.5
t-72.5 -48.5v-2q71 -23 71 -99q0 -81 -66 -128q-67 -47 -151 -47q-112 0 -178 74zM393 606h-74l20 101h74zM228 606h-73l20 101h73z" />
    <glyph glyph-name="uni04E0" unicode="&#x4e0;" horiz-adv-x="506" 
d="M-20 50l40 73q22 -21 64.5 -36t84.5 -15q78 0 133 43q56 44 56 110q0 49 -36 71t-119 22h-83l13 69l216 198q23 21 43 34l7 4l-1 2q-34 -2 -58 -2h-131q-22 0 -26 -22l-7 -34h-85l15 75q7 34 25 49t52 15h344l-15 -78l-223 -205l-37 -27v-2q101 1 152 -43.5t51 -119.5
q0 -104 -84 -173q-85 -68 -202 -68q-52 0 -103 17.5t-86 42.5z" />
    <glyph glyph-name="uni04E1" unicode="&#x4e1;" horiz-adv-x="467" 
d="M-80 -150l40 73q22 -21 64.5 -36t84.5 -15q77 0 133 44t56 109q0 49 -36 71t-119 22h-83l13 69l216 198q23 21 43 34l7 4l-1 2q-34 -2 -58 -2h-131q-22 0 -26 -22l-7 -34h-85l15 75q7 34 25 49t52 15h344l-15 -78l-223 -205l-37 -27v-2q101 1 152 -43.5t51 -119.5
q0 -105 -84 -172q-84 -69 -202 -69q-52 0 -103 17.5t-86 42.5z" />
    <glyph glyph-name="uni04E2" unicode="&#x4e2;" horiz-adv-x="763" 
d="M146 0h-105l116 598q4 22 -17 22h-43l17 86h101q34 0 46 -15t5 -49l-76 -387l-25 -101h2q39 58 76 102l396 450h105l-117 -598q-3 -22 18 -22h43l-17 -86h-100q-34 0 -46.5 15t-5.5 49l75 388l27 103h-2q-43 -66 -74 -103zM604 785h-254l13 69h254z" />
    <glyph glyph-name="uni04E3" unicode="&#x4e3;" horiz-adv-x="619" 
d="M123 0h-96l76 387l3 21q0 15 -18 15h-40l16 83h90q53 0 53 -41q0 -10 -3 -22l-46 -235q-2 -10 -6 -27l-7 -29l-3 -12h2q12 19 60 70l276 296h95l-75 -384q-4 -16 -4 -24q0 -15 18 -15h40l-16 -83h-90q-53 0 -53 42q0 3 2 21l45 236q4 18 17 67h-2q-27 -36 -60 -69z
M498 611h-254l13 69h254z" />
    <glyph glyph-name="uni04E4" unicode="&#x4e4;" horiz-adv-x="763" 
d="M146 0h-105l116 598q4 22 -17 22h-43l17 86h101q34 0 46 -15t5 -49l-76 -387l-25 -101h2q39 58 76 102l396 450h105l-117 -598q-3 -22 18 -22h43l-17 -86h-100q-34 0 -46.5 15t-5.5 49l75 388l27 103h-2q-43 -66 -74 -103zM595 781h-74l20 101h74zM430 781h-73l20 101h73
z" />
    <glyph glyph-name="uni04E5" unicode="&#x4e5;" horiz-adv-x="619" 
d="M123 0h-96l76 387l3 21q0 15 -18 15h-40l16 83h90q53 0 53 -41q0 -10 -3 -22l-46 -235q-2 -10 -6 -27l-7 -29l-3 -12h2q12 19 60 70l276 296h95l-75 -384q-4 -16 -4 -24q0 -15 18 -15h40l-16 -83h-90q-53 0 -53 42q0 3 2 21l45 236q4 18 17 67h-2q-27 -36 -60 -69z
M490 606h-74l20 101h74zM325 606h-73l20 101h73z" />
    <glyph glyph-name="uni04E6" unicode="&#x4e6;" horiz-adv-x="795" 
d="M40 296q0 112 60 209q62 99 160 155q100 58 211 58q136 0 221 -85q86 -84 86 -216q0 -113 -61 -213t-161 -158q-98 -58 -209 -58q-136 0 -222 86q-85 86 -85 222zM144 300q0 -95 59 -157q58 -61 153 -61q121 0 219 98q99 99 99 231q0 95 -59 154q-59 60 -152 60
q-124 0 -221 -97q-98 -96 -98 -228zM608 781h-74l20 101h74zM443 781h-73l20 101h73z" />
    <glyph glyph-name="uni04E7" unicode="&#x4e7;" horiz-adv-x="613" 
d="M21 211q0 129 96 217q97 90 224 90q104 0 169 -62t65 -159q0 -129 -97 -219q-98 -90 -223 -90q-102 0 -169 62q-65 62 -65 161zM120 215q0 -64 40 -103.5t104 -39.5q82 0 146 64q66 64 66 156q0 63 -39.5 102.5t-102.5 39.5q-84 0 -149 -64q-65 -65 -65 -155zM485 606
h-74l20 101h74zM320 606h-73l20 101h73z" />
    <glyph glyph-name="uni04E8" unicode="&#x4e8;" horiz-adv-x="795" 
d="M40 296q0 112 60 209q62 99 160 155q100 58 211 58q136 0 221 -85q86 -84 86 -216q0 -113 -61 -213t-161 -158q-98 -58 -209 -58q-136 0 -222 86q-85 86 -85 222zM144 317v-17q0 -95 59 -157q58 -61 153 -61q98 0 184 67q88 68 119 168h-515zM463 625q-97 0 -185 -65
q-86 -65 -119 -164h514q0 1 0.5 7t0.5 8q0 95 -59 154q-59 60 -152 60z" />
    <glyph glyph-name="uni04E9" unicode="&#x4e9;" horiz-adv-x="611" 
d="M20 211q0 129 96 217q98 90 224 90q104 0 169 -62t65 -159q0 -129 -97 -219t-223 -90q-102 0 -169 62q-65 62 -65 161zM113 225v-10q0 -67 41.5 -108t108.5 -41q66 0 126 45q59 45 82 114h-358zM333 441q-68 0 -126 -43t-82 -111h357v5q0 66 -41.5 107.5t-107.5 41.5z
" />
    <glyph glyph-name="uni04EA" unicode="&#x4ea;" horiz-adv-x="795" 
d="M40 296q0 112 60 209q62 99 160 155q100 58 211 58q136 0 221 -85q86 -84 86 -216q0 -113 -61 -213t-161 -158q-98 -58 -209 -58q-136 0 -222 86q-85 86 -85 222zM144 317v-17q0 -95 59 -157q58 -61 153 -61q98 0 184 67q88 68 119 168h-515zM463 625q-97 0 -185 -65
q-86 -65 -119 -164h514q0 1 0.5 7t0.5 8q0 95 -59 154q-59 60 -152 60zM611 781h-74l20 101h74zM446 781h-73l20 101h73z" />
    <glyph glyph-name="uni04EB" unicode="&#x4eb;" horiz-adv-x="613" 
d="M21 211q0 129 96 217q97 90 224 90q104 0 169 -62t65 -159q0 -129 -97 -219q-98 -90 -223 -90q-102 0 -169 62q-65 62 -65 161zM114 225v-10q0 -67 41.5 -108t108.5 -41q66 0 126 45q59 45 82 114h-358zM334 441q-68 0 -126 -43t-82 -111h357v5q0 66 -41.5 107.5
t-107.5 41.5zM484 585h-74l20 101h74zM319 585h-73l20 101h73z" />
    <glyph glyph-name="uni04EC" unicode="&#x4ec;" horiz-adv-x="697" 
d="M-7 97l57 67q31 -38 87.5 -62t118.5 -24q102 0 188 66q87 69 115 167h-368l15 82h371q9 100 -47 168q-55 67 -161 67q-63 0 -124 -24q-61 -22 -69 -64l-8 -39h-92l13 64q13 71 99 111q86 42 184 42q142 0 224 -87q83 -88 83 -219q0 -175 -126 -299q-127 -125 -298 -125
q-79 0 -148.5 28.5t-113.5 80.5zM532 781h-74l20 101h74zM367 781h-73l20 101h73z" />
    <glyph glyph-name="uni04ED" unicode="&#x4ed;" horiz-adv-x="530" 
d="M-17 65l43 66q24 -29 64.5 -46.5t85.5 -17.5q72 0 128 43q58 44 81 108h-237l13 68h238q4 69 -37 111t-108 42q-38 0 -76 -15q-37 -15 -41 -39l-4 -24h-83l8 42q10 52 68 83q59 32 135 32q105 0 168 -63t63 -162q0 -123 -91 -214t-222 -91q-58 0 -111.5 20t-84.5 57z
M427 606h-74l20 101h74zM262 606h-73l20 101h73z" />
    <glyph glyph-name="uni04EE" unicode="&#x4ee;" horiz-adv-x="612" 
d="M20 38l54 72q34 -33 74 -33q29 0 50.5 18t45.5 60l-131 443q-7 22 -29 22h-21l17 86h48q34 0 48 -11.5t23 -46.5l86 -305l21 -88h2q17 36 45 88l170 305q20 36 38 46q18 12 55 12h61l-17 -86h-16q-25 0 -37 -21l-280 -486q-72 -125 -174 -125q-35 0 -72 14t-61 36z
M521 785h-254l13 69h254z" />
    <glyph glyph-name="uni04EF" unicode="&#x4ef;" horiz-adv-x="543" 
d="M-68 -172l-12 12l41 69q36 -36 74 -36q56 0 100 74l36 57l-95 399q-3 12 -8.5 16t-18.5 4h-12l16 83h65q23 0 33.5 -11.5t16.5 -39.5l59 -285l6 -61h2q15 35 29 61l161 285q17 30 35 40.5t49 10.5h62l-17 -83h-12q-25 0 -36 -20l-297 -497q-71 -116 -177 -116
q-29 0 -57.5 12t-42.5 26zM460 610h-255l13 68h255z" />
    <glyph glyph-name="uni04F0" unicode="&#x4f0;" horiz-adv-x="612" 
d="M20 38l54 72q34 -33 74 -33q29 0 50.5 18t45.5 60l-131 443q-7 22 -29 22h-21l17 86h48q34 0 48 -11.5t23 -46.5l86 -305l21 -88h2q17 36 45 88l170 305q20 36 38 46q18 12 55 12h61l-17 -86h-16q-25 0 -37 -21l-280 -486q-72 -125 -174 -125q-35 0 -72 14t-61 36z
M511 781h-74l20 101h74zM346 781h-73l20 101h73z" />
    <glyph glyph-name="uni04F1" unicode="&#x4f1;" horiz-adv-x="543" 
d="M32 -210q-29 0 -57.5 12t-42.5 26l-12 12l41 69q36 -36 74 -36q56 0 100 74l36 57l-95 399q-3 12 -8.5 16t-18.5 4h-12l16 83h65q23 0 33.5 -11.5t16.5 -39.5l59 -285l6 -61h2q15 35 29 61l161 285q17 30 35 40.5t49 10.5h62l-17 -83h-12q-25 0 -36 -20l-297 -497
q-71 -116 -177 -116zM447 606h-74l20 101h74zM282 606h-73l20 101h73z" />
    <glyph glyph-name="uni04F2" unicode="&#x4f2;" horiz-adv-x="612" 
d="M20 38l54 72q34 -33 74 -33q29 0 50.5 18t45.5 60l-131 443q-7 22 -29 22h-21l17 86h48q34 0 48 -11.5t23 -46.5l86 -305l21 -88h2q17 36 45 88l170 305q20 36 38 46q18 12 55 12h61l-17 -86h-16q-25 0 -37 -21l-280 -486q-72 -125 -174 -125q-35 0 -72 14t-61 36z
M493 755h-77l85 127h98zM347 755h-83l81 127h84z" />
    <glyph glyph-name="uni04F3" unicode="&#x4f3;" horiz-adv-x="543" 
d="M32 -210q-29 0 -57.5 12t-42.5 26l-12 12l41 69q36 -36 74 -36q56 0 100 74l36 57l-95 399q-3 12 -8.5 16t-18.5 4h-12l16 83h65q23 0 33.5 -11.5t16.5 -39.5l59 -285l6 -61h2q15 35 29 61l161 285q17 30 35 40.5t49 10.5h62l-17 -83h-12q-25 0 -36 -20l-297 -497
q-71 -116 -177 -116zM431 580h-77l85 127h98zM285 580h-83l81 127h84z" />
    <glyph glyph-name="uni04F4" unicode="&#x4f4;" horiz-adv-x="646" 
d="M103 421q0 27 6 58l21 107q0 3 0.5 7.5t1 7t0.5 3.5q0 16 -18 16h-43l17 86h101q53 0 53 -42v-3.5t-0.5 -5t-1 -6.5t-0.5 -7l-28 -144q-4 -19 -4 -43q0 -94 117 -94q76 0 162 53l57 292h100l-139 -706h-100l56 284l8 33h-2q-85 -46 -179 -46q-185 0 -185 150zM516 781
h-74l20 101h74zM351 781h-73l20 101h73z" />
    <glyph glyph-name="uni04F5" unicode="&#x4f5;" horiz-adv-x="537" 
d="M73 423h-36l16 83h91q53 0 53 -42q0 -1 -0.5 -4t-1 -8.5t-0.5 -10.5l-17 -86q-4 -13 -4 -32q0 -63 81 -63q60 0 120 36l41 210h97l-99 -506h-97l36 181l8 32h-2q-72 -35 -142 -35q-69 0 -106.5 30.5t-37.5 84.5q0 20 4 35l12 62q0 3 0.5 7.5t1.5 7.5l1 3q0 15 -19 15z
M444 606h-74l20 101h74zM279 606h-73l20 101h73z" />
    <glyph glyph-name="uni04F6" unicode="&#x4f6;" horiz-adv-x="516" 
d="M450 620h-189l-104 -534h36q53 0 53 -40q0 -10 -3 -23l-32 -163h-89l19 98q5 25 5 27q0 13 -15 15h-91l121 620h-65l18 86h400q56 0 56 -45q0 -1 -0.5 -5t-2 -13t-2.5 -18l-14 -72h-89l5 28q4 17 4 24q0 15 -21 15z" />
    <glyph glyph-name="uni04F7" unicode="&#x4f7;" horiz-adv-x="442" 
d="M104 0h-76l82 423h-63l16 83h336q54 0 54 -40v-3.5t-0.5 -5t-1 -6.5t-0.5 -7l-15 -77h-81l5 27q0 3 0.5 6.5t1.5 5.5v3q0 14 -18 14h-137l-67 -342h25q50 0 50 -41v-3.5t-0.5 -5t-1 -6.5t-0.5 -7l-27 -138h-90l15 77q1 7 2.5 14t2 10t0.5 4q0 13 -12 15z" />
    <glyph glyph-name="uni04F8" unicode="&#x4f8;" horiz-adv-x="856" 
d="M613 64l125 642h100l-115 -587q-3 -13 -3 -18q0 -15 18 -15h43l-17 -86h-100q-54 0 -54 43q0 9 3 21zM54 64l99 514q5 25 5 28q0 14 -19 14h-43l18 86h100q54 0 54 -42q0 -10 -3 -22l-39 -202h130q89 0 141.5 -47t52.5 -134q0 -115 -80 -187t-198 -72h-167q-54 0 -54 43
q0 11 3 21zM179 86h109q66 0 112 46q47 47 47 121q0 49 -27.5 75t-78.5 26h-131l-44 -228q-1 -6 -2.5 -12t-1.5 -9l-1 -3q0 -16 18 -16zM630 781h-74l20 101h74zM465 781h-73l20 101h73z" />
    <glyph glyph-name="uni04F9" unicode="&#x4f9;" horiz-adv-x="726" 
d="M498 64l86 442h97l-78 -401q-4 -22 17 -22h41l-16 -83h-96q-33 0 -45.5 15t-5.5 49zM36 36q0 9 2 19l63 331q5 20 5 22q0 15 -19 15h-41l16 83h96q55 0 55 -41q0 -3 -3 -21l-24 -122h96q77 0 119 -35t42 -95q0 -88 -60 -140q-59 -52 -149 -52h-152q-46 0 -46 36zM156 70
h73q51 0 83 32t32 83q0 31 -20.5 49t-59.5 18h-91l-29 -147l-2 -10t-2 -8v-3q0 -14 16 -14zM535 606h-74l20 101h74zM370 606h-73l20 101h73z" />
    <glyph glyph-name="uni0524" unicode="&#x524;" horiz-adv-x="769" 
d="M141 0h-100l120 620h-65l17 86h559q53 0 53 -42v-3.5t-0.5 -5t-1 -6.5t-0.5 -7l-108 -556h33q53 0 53 -40q0 -1 -0.5 -4t-1 -8.5t-0.5 -10.5l-32 -163h-89l19 98q5 25 5 27q0 15 -17 15h-87l112 578q5 25 5 26q0 16 -19 16h-335z" />
    <glyph glyph-name="uni0525" unicode="&#x525;" horiz-adv-x="615" 
d="M124 0h-98l82 423h-56l16 83h433q54 0 54 -42v-3.5t-0.5 -5t-1 -6.5t-0.5 -7l-71 -361h25q51 0 51 -40q0 -10 -3 -22l-26 -139h-90l17 86q3 14 3 18q0 16 -17 16h-71l73 381q1 6 2.5 12.5t1.5 9.5l1 3q0 17 -19 17h-225z" />
    <glyph glyph-name="uni1E9E" unicode="&#x1e9e;" horiz-adv-x="648" 
d="M75 0h-100l17 86h42q23 0 27 22l75 390q18 92 87 150q70 58 165 58h257l-13 -68l-169 -200l-22 -23v-2q74 -16 118 -60.5t44 -112.5q0 -100 -78 -174q-79 -74 -204 -74q-45 0 -95 10l17 87q29 -8 74 -8q86 0 134 45q49 45 49 106q0 104 -176 115l12 59l156 189
q11 14 22 23l3 2l1 2q-20 -2 -30 -2h-112q-51 0 -90 -34.5t-49 -85.5l-85 -436q-7 -34 -25 -49t-52 -15z" />
    <glyph glyph-name="endash" unicode="&#x2013;" horiz-adv-x="648" 
d="M577 246h-527l15 78h527z" />
    <glyph glyph-name="emdash" unicode="&#x2014;" horiz-adv-x="846" 
d="M776 246h-726l14 78h727z" />
    <glyph glyph-name="quoteleft" unicode="&#x2018;" horiz-adv-x="226" 
d="M185 522h-93l103 195h70z" />
    <glyph glyph-name="quoteright" unicode="&#x2019;" horiz-adv-x="219" 
d="M166 523h-70l81 195h91z" />
    <glyph glyph-name="quotesinglbase" unicode="&#x201a;" horiz-adv-x="243" 
d="M39 -89h-69l80 194h92z" />
    <glyph glyph-name="quotedblleft" unicode="&#x201c;" horiz-adv-x="364" 
d="M323 522h-92l103 195h69zM185 522h-93l103 195h70z" />
    <glyph glyph-name="quotedblright" unicode="&#x201d;" horiz-adv-x="358" 
d="M304 523h-69l80 195h92zM166 523h-70l81 195h91z" />
    <glyph glyph-name="quotedblbase" unicode="&#x201e;" horiz-adv-x="382" 
d="M178 -89h-69l80 194h91zM39 -89h-69l80 194h92z" />
    <glyph glyph-name="dagger" unicode="&#x2020;" horiz-adv-x="429" 
d="M193 -50h-94l94 478h-122l16 78h121l38 200h93l-38 -200h124l-15 -78h-124z" />
    <glyph glyph-name="daggerdbl" unicode="&#x2021;" horiz-adv-x="442" 
d="M199 -50h-94l43 221h-120l14 78h121l36 179h-121l15 78h121l38 200h94l-39 -200h125l-15 -78h-125l-35 -179h124l-15 -78h-124z" />
    <glyph glyph-name="bullet" unicode="&#x2022;" horiz-adv-x="458" 
d="M336 181q-45 -45 -109 -45t-109 45q-45 47 -45 110q0 64 45 109q45 46 109 46t109 -46q46 -45 46 -109t-46 -110z" />
    <glyph glyph-name="ellipsis" unicode="&#x2026;" horiz-adv-x="740" 
d="M624 0h-100l20 103h100zM365 0h-100l19 103h100zM105 0h-99l19 103h99z" />
    <glyph glyph-name="perthousand" unicode="&#x2030;" horiz-adv-x="1116" 
d="M234 422q-61 0 -97.5 36.5t-36.5 95.5q0 63 53 113q52 51 122 51q60 0 97 -36.5t37 -94.5q0 -65 -54 -115q-55 -50 -121 -50zM114 0h-100l668 706h99zM242 496q35 0 61.5 26t26.5 62q0 27 -17.5 44t-45.5 17q-34 0 -61 -27t-27 -63q0 -27 17 -43t46 -16zM741 119
q0 64 53 114q52 51 122 51q60 0 97 -37t37 -95q0 -64 -54 -114q-55 -50 -120 -50q-61 0 -98 36t-37 95zM386 119q0 64 53 114q53 51 121 51q60 0 97.5 -37t37.5 -95q0 -64 -54 -114q-55 -50 -121 -50q-61 0 -97.5 36t-36.5 95zM820 121q0 -26 17.5 -42.5t45.5 -16.5
q35 0 61.5 26.5t26.5 62.5q0 25 -17.5 42.5t-44.5 17.5q-34 0 -62 -28q-27 -27 -27 -62zM464 121q0 -26 17.5 -42.5t46.5 -16.5q34 0 61 26.5t27 62.5q0 25 -18 42.5t-45 17.5q-34 0 -62 -28q-27 -27 -27 -62z" />
    <glyph glyph-name="guilsinglleft" unicode="&#x2039;" horiz-adv-x="347" 
d="M260 77h-92l-129 207l192 204h102l-201 -210z" />
    <glyph glyph-name="guilsinglright" unicode="&#x203a;" horiz-adv-x="347" 
d="M112 77h-103l201 210l-128 201h92l129 -207z" />
    <glyph glyph-name="fraction" unicode="&#x2044;" horiz-adv-x="150" 
d="M363 706l-472 -706h-80l473 706h79z" />
    <glyph glyph-name="Euro" unicode="&#x20ac;" 
d="M90 253h-70l13 61h55q2 40 13 87h-53l12 61h62q50 114 152 185q104 71 224 71q54 0 100 -12l14 -4l-38 -82q-36 10 -79 10q-82 0 -153 -45.5t-111 -122.5h281l-25 -61h-283q-12 -43 -15 -87h264l-25 -61h-233q9 -81 60.5 -128.5t137.5 -47.5q46 0 81 11l13 3l2 -88
q-43 -15 -104 -15q-125 0 -205 73t-90 192z" />
    <glyph glyph-name="numero" unicode="&#x2116;" horiz-adv-x="1071" 
d="M777 447q0 64 50 114q52 50 118 50q54 0 88.5 -34.5t34.5 -86.5q0 -64 -51 -113q-49 -49 -117 -49q-54 0 -88.5 33.5t-34.5 85.5zM853 455q0 -25 15.5 -41t40.5 -16q32 0 58 26t26 60q0 25 -15.5 40.5t-40.5 15.5q-33 0 -58.5 -25.5t-25.5 -59.5zM1001 196h-265l14 70
h265zM90 0h-104l17 86h42q22 0 26 22l117 598h88l228 -451l40 -96h2q7 62 13 96l76 390q7 33 23.5 47t49.5 14h105l-17 -86h-45q-21 0 -25 -22l-116 -598h-88l-229 451l-39 95h-2q-5 -47 -14 -95l-76 -391q-10 -60 -72 -60z" />
    <glyph glyph-name="trademark" unicode="&#x2122;" horiz-adv-x="1068" 
d="M570 266h-58v67h24q8 0 10 9l28 364h70l104 -230l14 -41h2q4 19 13 41l104 230h70l29 -364q0 -9 10 -9h24v-67h-59q-28 0 -38 9.5t-11 36.5l-17 217l1 30h-2l-95 -212h-61l-95 212h-2l1 -30l-17 -217q-1 -27 -11 -36.5t-38 -9.5zM356 266h-76v373h-77q-8 0 -8 -9v-30h-68
v61q0 26 10 35.5t38 9.5h285q27 0 37 -9.5t10 -35.5v-61h-64v30q0 9 -10 9h-77v-373z" />
    <glyph glyph-name="minus" unicode="&#x2212;" 
d="M544 246h-517v78h517v-78z" />
    <glyph glyph-name="infinity" unicode="&#x221e;" horiz-adv-x="463" 
d="M242 167q-75 0 -130 53q-53 55 -53 129q0 75 53 128q55 53 130 53q74 0 127 -53t53 -128q0 -74 -53 -129q-53 -53 -127 -53z" />
    <glyph glyph-name="approxequal" unicode="&#x2248;" 
d="M76 322l-41 58q70 73 151 73q49 0 107 -35q59 -35 91 -35q60 0 111 55l40 -59q-70 -73 -151 -73q-49 0 -108 35q-58 35 -90 35q-56 0 -110 -54zM76 133l-41 59q71 71 151 71q49 0 107 -35q59 -35 91 -35q58 0 111 56l40 -59q-70 -72 -151 -72q-49 0 -108 35
q-58 35 -90 35q-55 0 -110 -55z" />
    </font>
</defs>
</svg>
